<svg width="375px" height="812px" viewBox="0 0 375 812" version="1.1" xmlns="http://www.w3.org/2000/svg" xmlns:xlink="http://www.w3.org/1999/xlink">
    <title>splash</title>
    <defs>
        <rect id="path-1" x="0" y="0" width="375" height="812"></rect>
        <rect id="path-3" x="0" y="0" width="175" height="224"></rect>
    </defs>
    <g id="splash" stroke="none" stroke-width="1" fill="none" fill-rule="evenodd">
        <mask id="mask-2" fill="white">
            <use xlink:href="#path-1"></use>
        </mask>
        <use id="Onboarding-01-(Background/Mask)" fill="#FFE7EE" xlink:href="#path-1"></use>
        <g id="Illustration" mask="url(#mask-2)">
            <g transform="translate(32.000000, 325.000000)">
                <mask id="mask-4" fill="white">
                    <use xlink:href="#path-3"></use>
                </mask>
                <g id="Illustration-(Background/Mask)" stroke="none" fill="none"></g>
                <g id="Group" stroke="none" stroke-width="1" fill="none" fill-rule="evenodd" mask="url(#mask-4)">
                    <g transform="translate(0.000000, 0.231384)">
                        <path d="M98.9373375,32.4656771 C97.0146403,34.1500441 97.4958864,37.8658293 100.012662,40.7602566 C102.527136,43.6569976 106.126151,44.6380015 108.046546,42.9536345 L132.804436,29.1154503 L115.935357,9.6920166 L98.9373375,32.4656771 Z" id="Vector" stroke="none" fill="#F4F3FD" fill-rule="nonzero"></path>
                        <path d="M124.768486,31.9333851 C120.224146,31.9333851 116.54023,26.1744348 116.54023,19.070409 C116.54023,11.9663832 120.224146,6.20743292 124.768486,6.20743292 C129.312825,6.20743292 132.996735,11.9663832 132.996735,19.070409 C132.996735,26.1744348 129.312825,31.9333851 124.768486,31.9333851 Z" id="Vector" stroke="none" fill="#DADAF7" fill-rule="evenodd" transform="translate(124.768482, 19.070409) rotate(-41.243822) translate(-124.768482, -19.070409) "></path>
                        <path d="M103.157715,26.8110542 C103.696531,29.3376042 105.055086,32.0585041 107.166601,34.487879 C109.278117,36.917254 111.774169,38.6386409 114.194237,39.5178432 L116.552139,38.1990404 C113.945558,37.4031309 111.198513,35.5984525 108.907392,32.9608455 C106.613969,30.325552 105.209361,27.3478314 104.776466,24.6431274 L103.157715,26.8110542 Z" id="Vector" stroke="none" fill="#DADAF7" fill-rule="nonzero"></path>
                        <path d="M118.57155,24.4903865 C119.207077,25.2215127 119.877141,25.885543 120.570233,26.4871025 L127.118919,21.7879959 L122.396219,16.3485107 L116.874512,22.2299116 C117.37188,23.0003705 117.936024,23.7592602 118.57155,24.4903865 Z" id="Vector" stroke="none" fill="#EAE9FF" fill-rule="nonzero"></path>
                        <path d="M79.901548,65.7088445 C86.0418983,66.4800748 88.9585659,70.4133494 88.6515507,77.5086683 C94.9454097,78.5883901 99.5506724,80.7478347 102.467339,83.987002 C105.384005,87.2261693 105.384005,91.8535517 102.467339,97.8691493 C107.22611,97.097919 110.833566,97.9462724 113.289706,100.414209 C116.973916,104.116115 114.671285,109.900342 105.691023,111.982664 C99.7041812,113.370879 73.0704111,117.612645 25.7897126,124.707964 C22.5660286,125.170702 21.1076953,123.782488 21.4147128,120.54332 C21.7217303,117.304153 24.5616423,114.296355 29.9344486,111.519926 C26.09673,109.514727 24.5616425,106.506929 25.3291863,102.496531 C26.480502,96.4809348 34.309449,90.6967057 37.5331329,88.3830148 C39.6822555,86.8405541 42.21515,85.2980935 45.1318164,83.7556329 C44.8432189,75.7996216 47.1458496,70.7095019 52.0397087,68.4852736 C58.4870765,65.5545985 63.3226023,66.4029518 66.5462862,71.0303337 C69.3094438,66.7114439 73.7611978,64.9376142 79.901548,65.7088445 Z" id="Vector" stroke="none" fill="#F99A3D" fill-rule="nonzero"></path>
                        <path d="M105.460402,73.3440372 C107.609525,63.0095496 108.607333,55.9142292 108.453824,52.0580759 C107.832113,49.5592894 107.525095,47.0913521 107.532771,44.6542639 C107.537376,43.402557 107.532771,41.4150966 109.374877,39.5641436 C112.732115,36.1907818 118.585407,32.8544388 125.032778,37.9445595 C129.331025,41.3379734 130.328832,47.7391857 128.0262,57.1481967 C128.333218,73.4982803 127.488919,87.6117963 125.493304,99.4887447 C123.497689,111.365693 121.271811,118.306767 118.81567,120.311966 L95.559082,103.653389 C100.010838,93.781642 103.311278,83.6785247 105.460402,73.3440372 Z" id="Vector" stroke="none" fill="#DA5742" fill-rule="nonzero"></path>
                        <path d="M124.960774,22.5175297 C123.6826,22.5175297 122.646443,20.8976653 122.646443,18.8994609 C122.646443,16.9012566 123.6826,15.2813904 124.960774,15.2813904 C126.238948,15.2813904 127.275119,16.9012566 127.275119,18.8994609 C127.275119,20.8976653 126.238948,22.5175297 124.960774,22.5175297 Z" id="Vector" stroke="none" fill="#F4F3FD" fill-rule="evenodd" transform="translate(124.960781, 18.899460) rotate(-41.243877) translate(-124.960781, -18.899460) "></path>
                        <path d="M7.36832471,192.267703 C3.68411425,205.22437 8.74990374,213.599923 11.39793,216.006161 C13.1632809,217.61032 21.951658,200.751231 37.7630615,165.428894 L15.4275348,167.511215 C12.5108684,175.377763 9.82446501,183.629925 7.36832471,192.267703 Z" id="Vector" stroke="none" fill="#C43D28" fill-rule="nonzero"></path>
                        <path d="M97.7603971,98.3572998 L95.559082,103.653341 L118.152501,119.837612 L118.944606,120.186981 C119.550199,119.543775 122.182114,116.170411 124.636719,104.118396 L97.7603971,98.3572998 Z" id="Vector" stroke="none" fill="#C43D28" fill-rule="nonzero"></path>
                        <path d="M30.8554685,140.20968 C39.1449421,132.805867 49.276521,128.641222 63.3225734,127.253007 C77.3686259,125.864792 83.355468,117.998241 86.348889,114.759073 C88.344503,112.599627 91.4914328,107.509506 95.7896784,99.4887085 L123.421257,110.825797 C122.346696,118.075364 120.427836,125.247808 117.664678,132.343129 C114.90152,139.438449 111.370819,145.53117 107.072573,150.621292 C109.682222,161.727011 111.908099,173.83533 113.750204,186.946249 C115.59231,200.057168 116.646914,209.620426 116.914018,215.636024 L35.7738897,215.636024 L38.4541527,180.930651 L8.98046875,169.593563 C18.0374862,154.940183 25.3291528,145.145555 30.8554685,140.20968 Z" id="Vector" stroke="none" fill="#3D5CFF" fill-rule="nonzero"></path>
                        <path d="M112.158791,143.347065 L98.3222656,133.5 L107.143655,150.533386 C107.555826,150.033629 109.685762,147.396023 112.158791,143.347065 Z" id="Vector" stroke="none" fill="#224BF4" fill-rule="nonzero"></path>
                        <path d="M56.6448936,149.233067 L40.5264735,137.664612 L17.0004883,172.677703 L38.4541051,180.930635 L35.7738423,215.636002 L50.1975256,215.636002 L56.6448936,149.233067 Z" id="Vector" stroke="none" fill="#224BF4" fill-rule="nonzero"></path>
                        <g id="Group" stroke="none" stroke-width="1" fill="none" fill-rule="evenodd" transform="translate(9.670898, 102.265198)" stroke-dasharray="0,0">
                            <line x1="0" y1="61.7755737" x2="33.6184235" y2="72.8812866" id="Vector" stroke="#EAEAFF" stroke-width="1.15789485"></line>
                            <line x1="80.3618164" y1="0" x2="116.743401" y2="16.4272232" id="Vector" stroke="#EAEAFF" stroke-width="1.15789485"></line>
                            <path d="M20.7234493,35.3994448 C20.7234493,35.3994448 18.6510803,55.2971913 40.2958182,58.073621 C61.9405561,60.8500508 72.3024004,50.4384392 67.0063475,46.0424255 C57.6622677,38.2869317 40.5260814,57.6108827 48.8155554,66.4029102 C57.1050295,75.1949377 83.6843054,67.8559082 87.2695029,78.6654749 C89.8023977,86.3006567 78.519506,90.2339321 66.315558,84.6810727 C50.8994396,77.6659603 63.5523965,62.2382656 83.5852922,68.7166017 C103.618188,75.1949377 102.236609,90.9280396 92.5655557,95.5554225 C76.0142398,103.475188 52.3846346,87.7744788 44.4405552,104.578819 C40.065555,113.833585 53.3471364,123.77089 63.5524,116.147276 C72.5326636,109.437571 75.9866076,104.578819 99.4734508,103.421973 C122.960294,102.265128 123.42082,71.0302931 110.986609,62.4696348 C98.5523981,53.9089764 81.7431903,52.0580233 79.4405586,37.9445054 C77.1379269,23.8309876 90.9537136,21.0545579 93.0260821,30.0779545 C95.0984506,39.1013512 73.2234531,50.4384392 71.8418741,35.3994448 C70.2070056,17.5955899 85.8879238,15.7330675 98.5523981,17.8153898 C111.216872,19.8977121 120.887925,15.2703292 113.749767,6.94104004" id="Vector" stroke="#EAEAFF" stroke-width="1.15789485" opacity="0.550000012" fill-rule="nonzero"></path>
                        </g>
                        <path d="M51.5790347,95.7867975 C48.3553503,97.4063816 48.1250871,102.265134 49.5066662,104.810194 C50.8882452,107.355255 52.9606137,108.280732 55.4935086,108.74347 C57.1821052,109.051962 58.5636842,109.129085 59.6382457,108.974839 C59.7917544,113.139484 59.7917544,117.304129 59.6382457,121.468773 C59.4847369,125.633418 59.1009649,128.101356 58.4869298,128.872586 C61.8641236,130.723539 65.9321065,131.417647 70.6908787,130.954908 C75.4496509,130.49217 78.212809,129.643817 78.9803529,128.409848 C78.5198266,125.324926 78.212809,122.625619 78.0593002,120.311927 C77.9057914,117.998236 77.7522826,116.224406 77.5987739,114.990437 C82.9715812,113.447976 85.8114936,109.900316 86.1185112,104.347456 C86.4255287,98.7945965 86.4255287,95.3240592 86.1185112,93.9358443 C84.122897,93.3188599 82.5110548,91.0822915 81.2829846,87.226139 C79.4408792,81.4419102 78.0593002,80.7478027 75.7566685,80.7478027 C74.2215807,80.7478027 73.300528,81.6732793 72.9935105,83.5242325 C71.7592997,81.1935739 69.6869312,80.5765895 66.7764048,81.6732793 C63.0921941,83.0614942 64.4737723,88.6143539 62.8619301,92.0848911 C61.7873686,94.3985826 60.2522808,95.7867975 58.2566666,96.2495358 C55.9540349,94.8613209 53.7281576,94.7070748 51.5790347,95.7867975 Z" id="Vector" stroke="none" fill="#DA5742" fill-rule="nonzero"></path>
                        <path d="M62.1710298,117.3042 C61.3697134,116.820639 60.5131321,116.674875 59.7371446,116.688757 C59.7279341,118.208853 59.6980016,119.837693 59.6381331,121.468846 C59.4846242,125.633491 59.100852,128.101429 58.4868164,128.87266 C59.9236599,129.659316 61.8018413,130.262419 64.1213606,130.681969 C64.2986634,129.930019 64.5335283,128.773173 64.786818,127.081865 C65.3302394,123.4378 64.4736632,118.692415 62.1710298,117.3042 Z" id="Vector" stroke="none" fill="#C43D28" fill-rule="nonzero"></path>
                        <path d="M65.6249538,92.0848999 C65.6249538,92.0848999 65.164427,90.4653089 66.5460076,90.0025687 C67.4670613,89.6940752 68.0810971,89.9254453 68.3881149,90.6966791" id="Vector" stroke="none" fill="#FFFFFF" fill-rule="nonzero"></path>
                        <path d="M76.6777344,88.3829803 C76.6777344,88.3829803 76.6777344,87.2261356 78.0593142,86.9947666 C78.9803674,86.8405206 79.5944029,87.1490126 79.9014206,87.9202424" id="Vector" stroke="none" fill="#FFFFFF" fill-rule="nonzero"></path>
                        <g id="Group" stroke="none" stroke-width="1" fill="none" fill-rule="evenodd" transform="translate(72.532715, 90.928101)">
                            <path d="M1.75690799,1.16610047 C2.02861835,1.39515553 2.27499952,1.65659714 2.51217043,1.92729857 C2.74013082,2.20725476 2.94276172,2.51728859 3.1016432,2.85971434 L3.19605189,3.13041889 C3.21447293,3.17206526 3.22138166,3.22759489 3.23289481,3.27618233 C3.24440796,3.32708345 3.25131726,3.37798062 3.25592252,3.43119543 C3.27434356,3.641741 3.23519885,3.86616925 3.14079101,4.05357793 C2.94276481,4.43070899 2.61809085,4.66902474 2.29572262,4.83329655 C1.6371704,5.15952647 0.932567484,5.2960332 0.232567902,5.31685638 C0.898028063,5.10631082 1.55658083,4.87031187 2.11842262,4.51863138 C2.39013298,4.33816376 2.64111744,4.12298913 2.74934106,3.86616981 C2.80460418,3.738917 2.82762796,3.60703878 2.81150955,3.47053123 C2.80920692,3.43582592 2.804607,3.40111778 2.79539647,3.36641247 C2.78618595,3.33170715 2.7838822,3.29931751 2.76546116,3.25998482 L2.68256281,3.0378728 C2.42466823,2.4478825 1.9802589,1.91804554 1.5151276,1.42291639 C1.03848316,0.932414671 0.527302314,0.465051182 0,0 C0.633223314,0.30540676 1.22039516,0.703362973 1.75690799,1.16610047 Z" id="Vector" fill="#1F1F39" fill-rule="nonzero"></path>
                        </g>
                        <path d="M68.0461082,97.1744135 C67.3466151,97.1744135 66.7795639,96.4493552 66.7795639,95.5549504 C66.7795639,94.6605457 67.3466151,93.9354873 68.0461082,93.9354873 C68.7456014,93.9354873 69.3126526,94.6605457 69.3126526,95.5549504 C69.3126526,96.4493552 68.7456014,97.1744135 68.0461082,97.1744135 Z" id="Vector" stroke="none" fill="#1F1F39" fill-rule="evenodd" transform="translate(68.046108, 95.554950) rotate(-7.203135) translate(-68.046108, -95.554950) "></path>
                        <path d="M79.7897568,95.7858701 C79.0902654,95.7858701 78.5232157,95.0608103 78.5232157,94.1664037 C78.5232157,93.2719971 79.0902654,92.5469373 79.7897568,92.5469373 C80.4892481,92.5469373 81.0562979,93.2719971 81.0562979,94.1664037 C81.0562979,95.0608103 80.4892481,95.7858701 79.7897568,95.7858701 Z" id="Vector" stroke="none" fill="#1F1F39" fill-rule="evenodd" transform="translate(79.789757, 94.166404) rotate(-7.203170) translate(-79.789757, -94.166404) "></path>
                        <path d="M74.8353704,100.182863 C76.2169488,99.8743704 77.2147554,99.5658778 77.8287902,99.2573853 C78.7498424,101.725326 78.7498424,103.961897 77.8287902,105.967099 C76.4472118,108.974902 72.7630029,108.280793 71.8419507,106.198468 C71.2279158,104.810252 70.9208984,102.882173 70.9208984,100.414232 C72.1489681,100.568479 73.4537921,100.491356 74.8353704,100.182863 Z" id="Vector" stroke="none" fill="#FFFFFF" fill-rule="nonzero"></path>
                        <path d="M59.6382468,108.97488 C59.6413151,109.050462 59.6451519,109.157664 59.6497572,109.296486 C60.0250862,108.000819 60.2991022,106.149863 60.0987732,103.653391 C59.8869311,100.983392 59.1339699,98.3157077 58.3856145,96.2148765 C58.3303513,96.2303011 58.287369,96.2418691 58.2566677,96.2495805 C55.9540357,94.8613661 53.7281582,94.7071201 51.579035,95.7868424 C48.3553503,97.4064259 48.1250871,102.265176 49.5066662,104.810236 C50.8882454,107.355296 52.9606142,108.280772 55.4935093,108.74351 C57.1821061,109.052003 58.5636852,109.129126 59.6382468,108.97488 Z" id="Vector" stroke="none" fill="#C43D28" fill-rule="nonzero"></path>
                        <path d="M52.5,99.9514771 C52.5,99.9514771 54.802631,100.876954 57.3355252,102.959278 C59.0241213,104.347494 59.9451737,105.50434 60.0986824,106.429817" id="Vector" stroke="#1F1F39" stroke-width="0.578947425" fill="none" stroke-linecap="round" stroke-dasharray="0,0" fill-rule="nonzero"></path>
                        <path d="M125.033175,37.944557 C121.59074,35.2282826 118.318699,34.9113065 115.504883,35.7210987 C117.284817,40.7996529 121.45949,52.3750547 123.421332,55.0658786 C124.791398,56.9422827 126.631208,57.532275 128.033511,57.6803513 C128.031976,57.4505245 128.029671,57.2731412 128.026596,57.1482014 C130.329228,47.7391868 129.331421,41.337972 125.033175,37.944557 Z" id="Vector" stroke="none" fill="#C43D28" fill-rule="nonzero"></path>
                        <path d="M71.841937,117.998243 C74.6258187,119.911664 76.8478613,120.608083 78.0981903,120.860275 C78.0843745,120.67518 78.0705556,120.4924 78.0590425,120.311932 C77.8610162,117.343469 77.6652919,115.56424 77.6123314,115.110757 C77.2876603,115.140835 76.9307563,115.175543 76.5370063,115.221817 C75.2168308,115.376063 72.5004918,115.144694 68.3879895,114.52771 C67.7739544,114.836202 68.9252702,115.993046 71.841937,117.998243 Z" id="Vector" stroke="none" fill="#C43D28" fill-rule="nonzero"></path>
                        <path d="M128.532963,54.4457414 C127.215857,55.2092594 125.518814,54.7511453 124.758945,53.4300277 L116.469469,39.0041673 C115.7096,37.680736 116.165524,35.9755459 117.480328,35.2120278 L118.079006,34.8649742 C119.396112,34.1014561 121.093155,34.5595668 121.853024,35.8806844 L130.1425,50.3065448 C130.902369,51.6276624 130.446445,53.3351698 129.131641,54.0986878 L128.532963,54.4457414 Z" id="Vector" stroke="none" fill="#DADAF7" fill-rule="nonzero"></path>
                        <path d="M68.1577148,114.296326 C68.1577148,114.296326 70.4603461,115.221809 73.4537668,115.221809 C75.4493806,115.221809 76.8309594,115.144686 77.5985031,114.990438" id="Vector" stroke="#1F1F39" stroke-width="0.578947425" fill="none" stroke-linecap="round" stroke-dasharray="0,0" fill-rule="nonzero"></path>
                        <path d="M120.427762,37.944569 C119.967236,40.104014 120.658025,41.5693518 122.500131,42.3405825 C122.21921,43.3246725 122.372719,44.481518 122.960657,45.8111192 C123.574693,47.1993338 124.495746,47.7391951 125.723816,47.4307029 C125.263289,49.2816552 126.184342,50.5156235 128.486974,51.1326078 C131.940922,52.0580843 134.704081,49.0502867 134.243555,46.5052265 C133.789936,44.0018128 132.401449,39.7955221 130.789606,37.0190927 C129.177764,34.2426634 126.414606,33.548556 123.651447,34.8210861 C122.292894,35.4457827 120.734012,36.5147079 120.427762,37.944569 Z" id="Vector" stroke="none" fill="#DA5742" fill-rule="nonzero"></path>
                        <line x1="122.633789" y1="42.3867531" x2="127.796288" y2="40.0267944" id="Vector" stroke="#1F1F39" stroke-width="0.578947425" fill="#1F1F39" fill-rule="evenodd" stroke-linecap="round" stroke-dasharray="0,0"></line>
                        <line x1="125.723633" y1="47.4306488" x2="131.019676" y2="45.3483276" id="Vector" stroke="#1F1F39" stroke-width="0.578947425" fill="#1F1F39" fill-rule="evenodd" stroke-linecap="round" stroke-dasharray="0,0"></line>
                        <line x1="127.105469" y1="4.16464424" x2="128.947578" y2="0" id="Vector" stroke="#1F1F39" stroke-width="0.578947425" fill="#1F1F39" fill-rule="evenodd" stroke-linecap="round" stroke-dasharray="0,0"></line>
                        <line x1="136.387207" y1="12.410655" x2="140.389191" y2="10.2635498" id="Vector" stroke="#1F1F39" stroke-width="0.578947425" fill="#1F1F39" fill-rule="evenodd" stroke-linecap="round" stroke-dasharray="0,0"></line>
                        <line x1="138.422852" y1="24.6963501" x2="142.959015" y2="24.8166618" id="Vector" stroke="#1F1F39" stroke-width="0.578947425" fill="#1F1F39" fill-rule="evenodd" stroke-linecap="round" stroke-dasharray="0,0"></line>
                        <path d="M98.3222656,133.5 L99.9778583,136.739166 L107.072266,150.621307" id="Vector" stroke="#1F1F39" stroke-width="0.578947425" fill="none" stroke-linecap="round" stroke-dasharray="0,0" fill-rule="nonzero"></path>
                        <path d="M108.13623,41.0009574 C108.13623,41.0009574 112.260242,36.149145 114.963531,35.7743271 C117.664518,35.3995092 119.046099,36.3249866 118.815836,39.3327848 C118.662327,41.3379835 117.12724,43.3431823 114.210573,45.348381" id="Vector" stroke="#1F1F39" stroke-width="0.578947425" fill="#DA5742" fill-rule="nonzero" stroke-linecap="round" stroke-dasharray="0,0"></path>
                        <path d="M78.3906784,103.866181 C77.743638,103.627871 76.8271888,103.500615 75.5262,103.653319 C73.7186316,103.866178 72.3416542,104.574168 71.4804688,105.150277 C71.5817847,105.525095 71.6992208,105.881403 71.8419841,106.198379 C72.7630381,108.280701 76.447254,108.974809 77.8288349,105.96701 C78.1419933,105.284471 78.3123888,104.56723 78.3906784,103.866181 Z" id="Vector" stroke="none" fill="#F9D2DD" fill-rule="nonzero"></path>
                        <g id="Group" stroke="none" stroke-width="1" fill="none" fill-rule="evenodd" transform="translate(60.137207, 95.179993)">
                            <g fill="#C43D28" id="Vector">
                                <path d="M24.5987318,6.51685273 C21.8632019,6.51685273 19.6456147,5.14540098 19.6456147,3.4536267 C19.6456147,1.76185242 21.8632019,0.390393606 24.5987318,0.390393606 C27.3342617,0.390393606 29.5518418,1.76185242 29.5518418,3.4536267 C29.5518418,5.14540098 27.3342617,6.51685273 24.5987318,6.51685273 Z" transform="translate(24.598728, 3.453623) rotate(-4.633432) translate(-24.598728, -3.453623) "></path>
                                <path d="M5.18222795,9.00182983 C2.44669791,9.00182983 0.229110575,7.63037831 0.229110575,5.93860432 C0.229110575,4.24683033 2.44669791,2.87537881 5.18222795,2.87537881 C7.91775798,2.87537881 10.1353453,4.24683033 10.1353453,5.93860432 C10.1353453,7.63037831 7.91775798,9.00182983 5.18222795,9.00182983 Z" transform="translate(5.182228, 5.938604) rotate(-4.633430) translate(-5.182228, -5.938604) "></path>
                            </g>
                        </g>
                        <line x1="0" y1="215.636108" x2="139.769745" y2="215.636108" id="Vector" stroke="#1F1F39" stroke-width="0.578947425" fill="#1F1F39" fill-rule="evenodd" stroke-dasharray="0,0"></line>
                        <path d="M25.0986001,167.973958 C30.1643894,159.413301 36.8627412,138.927878 39.1538595,134.941389 C40.6828068,132.283729 42.6999131,131.092182 45.2051784,131.366748 C44.6955281,124.768097 44.440703,120.311926 44.440703,117.998235 C44.440703,114.527699 46.7433345,112.214008 48.8157029,113.833591 C50.1972818,114.913314 51.4253519,119.463572 52.4999133,127.484367 C55.6913597,120.679032 58.1014469,117.358114 59.7301749,117.521615 C62.1709644,117.766866 62.8617551,119.849188 61.7104394,124.2452 C60.9428955,127.175875 59.8683342,130.260797 58.4867552,133.499964 C61.0964043,131.957503 63.0152639,131.88038 64.243334,133.268595 C66.0854392,135.350916 62.8617551,140.441036 60.3288605,143.911573 C58.640264,146.225264 57.4889483,147.999093 56.8749132,149.233062 C51.1950888,178.694059 46.8200889,197.434955 43.7499136,205.45575 C39.1446505,217.486942 29.9341254,222.114324 22.3354414,221.420217 C14.7367574,220.72611 5.29596849,214.941882 8.98017891,199.902892 C16.3486001,184.32404 21.7214072,173.681062 25.0986001,167.973958 Z" id="Vector" stroke="none" fill="#DA5742" fill-rule="nonzero"></path>
                        <path d="M40.9868164,140.209704 C40.9868164,140.209704 41.2170796,143.911611 43.2894479,144.837088 C45.3618162,145.762564 46.7433951,143.911611 47.2039214,142.060658 C47.5109389,140.826689 47.5109389,138.898612 47.2039214,136.276428" id="Vector" stroke="#1F1F39" stroke-width="0.578947425" fill="none" stroke-linecap="round" stroke-dasharray="0,0" fill-rule="nonzero"></path>
                        <path d="M47.2041016,143.217539 C47.2041016,143.217539 47.8948906,145.762596 49.9672577,145.06849 C52.0396247,144.374383 52.5001507,142.292063 52.7304137,139.978375 C52.8839224,138.435916 52.8071681,136.816334 52.5001507,135.119629" id="Vector" stroke="#1F1F39" stroke-width="0.578947425" fill="none" stroke-linecap="round" stroke-dasharray="0,0" fill-rule="nonzero"></path>
                        <path d="M54.5722656,136.739166 C54.5722656,136.739166 56.1841096,135.350952 57.1051633,134.656845 C57.7191992,134.194107 58.179726,133.808492 58.4867439,133.5" id="Vector" stroke="#1F1F39" stroke-width="0.578947425" fill="none" stroke-linecap="round" stroke-dasharray="0,0" fill-rule="nonzero"></path>
                        <path d="M40.5288086,133.499924 C40.5288086,133.499924 40.9870335,131.880333 45.1317703,131.417592 C47.8949281,131.109099 50.274314,131.263345 52.269928,131.880332" id="Vector" stroke="#1F1F39" stroke-width="0.578947425" fill="none" stroke-linecap="round" stroke-dasharray="0,0" fill-rule="nonzero"></path>
                    </g>
                </g>
            </g>
        </g>
        <g id="text" mask="url(#mask-2)" font-family="Roboto" font-size="16" font-weight="normal" line-spacing="24">
            <g transform="translate(32.000000, 638.000000)" id="장소의-제약없이-교육자와-학습자를-연">
                <text>
                    <tspan x="2.469375" y="14" fill="#858597">장소의</tspan>
                    <tspan x="43.989375" y="14" font-family="Helvetica" fill="#858597"> </tspan>
                    <tspan x="48.4346875" y="14" fill="#858597">제약없이</tspan>
                    <tspan x="103.794687" y="14" font-family="Helvetica" fill="#858597"> </tspan>
                    <tspan x="108.24" y="14" fill="#858597">교육자와</tspan>
                    <tspan x="163.6" y="14" font-family="Helvetica" fill="#858597"> </tspan>
                    <tspan x="168.045312" y="14" fill="#858597">학습자를</tspan>
                    <tspan x="223.405313" y="14" font-family="Helvetica" fill="#858597"> </tspan>
                    <tspan x="227.850625" y="14" fill="#858597">연결</tspan>
                </text>
            </g>
        </g>
        <g id="title" mask="url(#mask-2)" font-family="Roboto" font-size="45" font-weight="normal" line-spacing="32">
            <g transform="translate(32.000000, 583.000000)" id="글코">
                <text>
                    <tspan x="0" y="41" fill="#1F1F39">글코</tspan>
                </text>
            </g>
        </g>
    </g>
</svg>