<svg width="375" height="812" viewBox="0 0 375 812" xmlns="http://www.w3.org/2000/svg" xmlns:xlink="http://www.w3.org/1999/xlink">
  <defs>
    <path id="path-1" d="M0 0h375v812H0z"/>
    <path id="path-3" d="M0 0h335v120H0z"/>
    <path id="path-5" d="M0 0h335v133H0z"/>
    <path id="path-9" d="M0 0h335v96H0z"/>
    <path id="path-12" d="M0 0h249v154H0z"/>
    <path id="path-14" d="M0 0h118.688v134.208H0z"/>
    <path id="path-16" d="M0 0h249v154H0z"/>
    <path id="path-18" d="M0 0h375v44H0z"/>
    <path id="path-20" d="M0 0h54v21H0z"/>
    <linearGradient x1="8.333%" y1="49.998%" x2="158.333%" y2="49.995%" id="linearGradient-7">
      <stop stop-color="#FF4D00" offset="0%"/>
      <stop stop-color="#FFF" offset="100%"/>
    </linearGradient>
    <linearGradient x1="8.333%" y1="49.998%" x2="158.333%" y2="49.995%" id="linearGradient-8">
      <stop stop-color="#FF4D00" offset="0%"/>
      <stop stop-color="#FFF" offset="100%"/>
    </linearGradient>
    <linearGradient x1="0%" y1="49.959%" x2="101.19%" y2="49.959%" id="linearGradient-11">
      <stop stop-color="#FFF" stop-opacity="0" offset="0%"/>
      <stop stop-color="#FF5106" offset="100%"/>
    </linearGradient>
    <filter x="-4.8%" y="-6.7%" width="109.6%" height="126.7%" filterUnits="objectBoundingBox" id="filter-4">
      <feMorphology radius="2" in="SourceAlpha" result="shadowSpreadOuter1"/>
      <feOffset dy="8" in="shadowSpreadOuter1" result="shadowOffsetOuter1"/>
      <feGaussianBlur stdDeviation="6" in="shadowOffsetOuter1" result="shadowBlurOuter1"/>
      <feColorMatrix values="0 0 0 0 0.721568644 0 0 0 0 0.721568644 0 0 0 0 0.823529422 0 0 0 0.200000003 0" in="shadowBlurOuter1"/>
    </filter>
    <filter x="-4.8%" y="-6%" width="109.6%" height="124.1%" filterUnits="objectBoundingBox" id="filter-6">
      <feMorphology radius="2" in="SourceAlpha" result="shadowSpreadOuter1"/>
      <feOffset dy="8" in="shadowSpreadOuter1" result="shadowOffsetOuter1"/>
      <feGaussianBlur stdDeviation="6" in="shadowOffsetOuter1" result="shadowBlurOuter1"/>
      <feColorMatrix values="0 0 0 0 0.721568644 0 0 0 0 0.721568644 0 0 0 0 0.823529422 0 0 0 0.200000003 0" in="shadowBlurOuter1"/>
    </filter>
    <filter x="-4.8%" y="-8.3%" width="109.6%" height="133.3%" filterUnits="objectBoundingBox" id="filter-10">
      <feMorphology radius="2" in="SourceAlpha" result="shadowSpreadOuter1"/>
      <feOffset dy="8" in="shadowSpreadOuter1" result="shadowOffsetOuter1"/>
      <feGaussianBlur stdDeviation="6" in="shadowOffsetOuter1" result="shadowBlurOuter1"/>
      <feColorMatrix values="0 0 0 0 0.721568644 0 0 0 0 0.721568644 0 0 0 0 0.823529422 0 0 0 0.200000003 0" in="shadowBlurOuter1"/>
    </filter>
  </defs>
  <g id="home" stroke="none" stroke-width="1" fill="none" fill-rule="evenodd">
    <mask id="mask-2" fill="#fff">
      <use xlink:href="#path-1"/>
    </mask>
    <use id="Home-(Background/Mask)" fill="#FFF" xlink:href="#path-1"/>
    <g id="bg" mask="url(#mask-2)" fill="#3D5CFF" fill-rule="nonzero">
      <path d="M375 0v183H0V0h375Z"/>
    </g>
    <g id="Meetup" mask="url(#mask-2)">
      <g transform="translate(20 608)">
        <g id="Rectangle-34" fill="none">
          <use fill="#000" filter="url(#filter-4)" xlink:href="#path-3"/>
          <use fill="#EFE0FF" xlink:href="#path-3"/>
        </g>
        <path d="M272.93 104.764c26.651 0 48.256-21.606 48.256-48.257 0-26.652-21.605-48.257-48.257-48.257-26.651 0-48.256 21.605-48.256 48.257 0 26.651 21.605 48.257 48.256 48.257Z" id="Ellipse-75" fill="#F5ECFF" fill-rule="evenodd" opacity=".56"/>
        <path d="M272.93 92.007c19.606 0 35.5-15.894 35.5-35.5s-15.894-35.5-35.5-35.5c-19.607 0-35.5 15.894-35.5 35.5s15.893 35.5 35.5 35.5Z" id="Ellipse-76" fill="#F8F2FF" fill-rule="evenodd" opacity=".8"/>
        <text id="상품리스트" fill="#440687" fill-rule="nonzero" font-family="NanumGothic, Nanum Gothic" font-size="24.357" font-weight="normal">
                    <tspan x="20.761" y="40">상품리스트</tspan>
                </text>
        <text id="30분,-60분,-120분의-화상채팅" fill="#440687" fill-rule="nonzero" font-family="NanumGothic, Nanum Gothic" font-size="12" font-weight="normal">
                    <tspan x="18" y="72">30분, 60분, 120분의 화상채팅 </tspan>
                    <tspan x="18" y="86">크레딧을 구매 해보세요.</tspan>
                </text>
        <g id="Group-136" stroke-width="1" fill="none" fill-rule="evenodd" transform="translate(248.519 20)">
          <path d="m34.12 42.177 2.437 6.496a25.666 25.666 0 0 0 5.86-3.817 54.616 54.616 0 0 0-.801-2.201l-7.497-.478Zm-19.152 6.62 2.546-6.793-7.497.478a51.426 51.426 0 0 0-.934 2.589 25.477 25.477 0 0 0 5.885 3.726Z" id="Vector" fill="#DA5742" fill-rule="nonzero"/>
          <path d="m34.12 42.177.842 2.21 7.439.461-.785-2.193-7.497-.478Zm-16.532-.412-.843 2.21-7.554.733.9-2.465 7.497-.478Z" id="Vector" fill="#C43D28" fill-rule="nonzero"/>
          <path d="M17.274 32.004c-3.273 1.484-6.86 6.067-8.182 11.442h5.852l-.967 4.881a25.592 25.592 0 0 0 11.645 2.787c4.216 0 8.183-1.015 11.688-2.812l-1.025-4.229 5.918-.528c-.009 0-1.372-7.584-7.613-11.17-5-2.87-12.704-2.44-17.316-.371Z" id="Vector" fill="#3D5CFF" fill-rule="nonzero"/>
          <path d="M18.2 38.599c-.14 2.383-.273 4.757-.413 7.14-.075 1.327-.157 2.654-.232 3.973-.008.157.24.157.248 0 .14-2.374.281-4.74.414-7.115.14-2.374.272-4.748.413-7.123.074-1.31.157-2.621.231-3.932.009-.157-.24-.157-.248.008-.14 2.35-.28 4.7-.413 7.049Zm3.273-.083-.149 7.75c-.024 1.45-.058 2.91-.082 4.361 0 .157.248.157.248 0 .05-2.589.099-5.177.157-7.766l.148-7.741c.025-1.443.058-2.894.083-4.337 0-.173-.248-.173-.248-.008-.05 2.58-.099 5.161-.157 7.741Zm3.86-.024c.041 2.646.091 5.292.132 7.939l.075 4.485c0 .156.248.156.248 0-.042-2.647-.091-5.293-.132-7.94-.042-2.646-.091-5.292-.133-7.939l-.074-4.484c0-.157-.248-.157-.248 0 .041 2.646.09 5.292.132 7.939Zm3.72-4.205c.074 1.303.165 2.605.247 3.908.091 1.319.182 2.63.29 3.949.099 1.302.206 2.613.322 3.916a300.038 300.038 0 0 0 .389 4.204c.016.157.264.157.248 0-.124-1.245-.24-2.49-.348-3.726a323.089 323.089 0 0 1-.322-3.9c-.1-1.319-.198-2.63-.29-3.948a645.97 645.97 0 0 1-.255-3.925 575.244 575.244 0 0 1-.215-3.767l-.025-.445c-.008-.165-.256-.165-.248-.009.066 1.245.132 2.49.207 3.743Zm4.223 3.99 1.14 6.909.62 3.768c.025.156.265.09.24-.066-.372-2.268-.744-4.526-1.115-6.794l-1.141-6.908-.62-3.768c-.033-.156-.273-.09-.24.066l1.116 6.793Zm-18.704-1.129a332.278 332.278 0 0 0-1.347 6.175c-.034.156.206.222.24.066.272-1.328.561-2.647.85-3.974.29-1.302.587-2.613.877-3.916.173-.75.339-1.5.504-2.25.041-.149-.19-.215-.232-.058l-.892 3.957Zm22.556.272c.421 1.336.851 2.68 1.28 4.015.24.75.489 1.5.745 2.242.05.149.29.083.24-.066a322.742 322.742 0 0 1-1.306-3.998 751.86 751.86 0 0 0-1.282-4.015c-.24-.75-.487-1.5-.743-2.242-.05-.157-.29-.091-.24.066.446 1.327.876 2.662 1.306 3.998Z" id="Vector" fill="#CDECFE" fill-rule="nonzero" opacity=".467"/>
          <path d="m16.539 37.915-3.48 5.531 1.976-.008 1.504-5.523Zm19.746 6.158 1.76-.148-3.926-6.703 2.166 6.851Z" id="Vector" fill="#224BF4" fill-rule="nonzero"/>
          <path d="M15.018 43.529c-.041-.008-.066-.058-.058-.099l1.653-6.117c.009-.041.058-.066.1-.058.04.008.066.058.057.099l-1.653 6.117a.08.08 0 0 1-.074.058h-.025Zm21.11.544-2.116-6.85c-.017-.042.008-.083.05-.1.04-.016.082.008.099.05l2.124 6.85c.016.042-.009.083-.05.1-.016 0-.025.008-.033.008a.08.08 0 0 1-.074-.058Z" id="Vector" fill="#1F1F39" fill-rule="nonzero"/>
          <path d="M25.622 51.113C11.472 51.113 0 39.671 0 25.557 0 11.442 11.472 0 25.622 0c14.151 0 25.623 11.442 25.623 25.557 0 14.114-11.472 25.556-25.623 25.556Z" id="Vector"/>
          <g id="Group" transform="translate(12.842 5.688)">
            <path d="M8.88 22.26c-.497-.11-.772-.303-.827-.578-.166.33-.744.44-1.736.33-.992-.11-1.653-.632-1.984-1.567-1.212-.22-1.928-.66-2.149-1.319-.22-.66-.303-1.126-.248-1.401C1.11 17.01.724 16.268.78 15.499c.055-.77.22-1.237.496-1.402-.44-.384-.606-.742-.496-1.071.11-.33.276-.522.496-.577C.118 11.294-.268 10.085.118 8.82c.386-1.264 1.047-1.896 1.984-1.896-.166-.44 0-.797.496-1.072.496-.274.854-.384 1.074-.33-.11-1.373.193-2.225.91-2.555.716-.33 1.377-.412 1.983-.247-.055-.77.165-1.182.661-1.237.496-.055.854.082 1.075.412 0-.22.22-.357.661-.412.44-.055.689 0 .744.165.11-1.1.744-1.649 1.9-1.649 1.158 0 1.93.33 2.315.99.276-.495.744-.688 1.405-.578.661.11.992.467.992 1.072.551-.605 1.405-.742 2.562-.412 1.157.33 1.901 1.511 2.232 3.545.386-.11.744-.083 1.074.082.331.165.469.55.414 1.154 1.047.055 1.68.522 1.9 1.402.221.88.221 1.484 0 1.814.937.879 1.268 1.978.993 3.297-.276 1.32-.69 2.199-1.24 2.638.22.66.22 1.237 0 1.732-.22.494-.551.741-.992.741.165.77.055 1.292-.33 1.567-.386.275-.772.357-1.158.247-.386 1.32-1.267 2.199-2.645 2.638-1.377.44-2.755.358-4.132-.247l-4.877.742c-.33 0-.744-.055-1.24-.165Z" id="Vector" fill="#F99A3D" fill-rule="nonzero"/>
            <path d="M6.416 14.51c.265.107.48.23.645.354.016-.725.843-2.993 1.67-3.735.785-.7 2.23-1.319 3.388-.412 1.157.907 1.653 2.391 2.397 1.979.744-.412 1.57-1.237 2.397-.577.62.494.727 2.02.744 2.745a3.21 3.21 0 0 1 .645-.354c.909-.38 2.173.148 2.115 1.714.042.685-.264 1.427-.776 1.748-.49.313-1.287.423-2.39.33a5.146 5.146 0 0 1-.512 1.401c-.385.715-.964 1.374-1.735 1.979v1.954l.182 2.663a4.09 4.09 0 0 1-.521.214 3.932 3.932 0 0 1-.736.214 7.11 7.11 0 0 1-1.562.173 6.233 6.233 0 0 1-1.562-.173 3.387 3.387 0 0 1-.736-.214 4.09 4.09 0 0 1-.52-.214l.181-2.663v-1.954c-.771-.605-1.35-1.264-1.735-1.979-.38-.7-.438-1.154-.438-1.385-.463.042-1.736.116-2.472-.346-.52-.321-.826-1.063-.785-1.748-.058-1.566 1.199-2.094 2.116-1.714Z" id="Vector" fill="#DA5742" fill-rule="nonzero"/>
            <g fill-rule="nonzero" id="Vector">
              <path d="m5.426 9.252-.066 1.023c.752-.058 1.67-.223 2.703-.594 1.05-.38 1.942-.915 2.645-1.418V7.29c-1.488.907-4.63.577-5.282-.008v1.97Z" fill="#C43D28" transform="translate(4.288 14.392)"/>
              <path d="M5.368 7.34a.1.1 0 0 1-.008-.132c.033-.042.09-.042.132-.009.389.355 1.728.602 2.976.545.05 0 .09.033.09.082 0 .05-.032.09-.082.09-.124.025-.248.025-.372.025-1.19 0-2.347-.247-2.736-.601Z" fill="#1F1F39" transform="translate(4.288 14.392)"/>
              <path d="M13.46.406c-.042.602.074.289-.19 2.103-.058.37-.265 1.071-.364 1.434.562.041 1.794.05 2.447-.363.512-.321.81-1.063.776-1.747.05-1.567-1.206-2.094-2.115-1.715-.215.09-.397.19-.554.288ZM3.69 5.312c.009.016.025.04.033.057-.082-.165-.165-.33-.24-.486.059.132.125.272.207.429ZM2.12.118C1.21-.262-.054.266.004 1.833c-.042.684.264 1.426.777 1.747.702.445 1.9.396 2.405.355-.232-1.03-.413-2.473-.53-3.537a3.222 3.222 0 0 0-.536-.28Z" fill="#C43D28" transform="translate(4.288 14.392)"/>
            </g>
            <path d="M7.144 17.585c-.006-.275-.163-.64-.471-1.097-.463-.684-1.331-.923-1.34-.931a.096.096 0 0 1-.066-.108.097.097 0 0 1 .108-.065c.041.008.95.255 1.446 1.005.496.742.496 1.18.496 1.196.009.05-.033.09-.082.09a.092.092 0 0 1-.091-.09Zm10.356 0c0-.017.008-.462.496-1.196.496-.742 1.405-.99 1.446-1.006.05-.016.1.017.108.066a.082.082 0 0 1-.067.108c-.008 0-.884.239-1.339.931-.308.456-.465.822-.47 1.097.008.05-.034.09-.083.09a.092.092 0 0 1-.091-.09Z" id="Vector" fill="#1F1F39" fill-rule="nonzero"/>
            <path d="M9.706 14.84s.066-.66.545-.66c.32 0 .502.22.546.66m3.099 0s.066-.66.546-.66c.32 0 .501.22.545.66" id="Vector" fill="#FFF" fill-rule="nonzero"/>
            <path d="M12.35 16.018a1.839 1.839 0 0 0-.123.437c-.009.074 0 .14.033.182 0 .008.008.008.008.016l.016.017a.195.195 0 0 0 .042.024.174.174 0 0 0 .09.033c.133.025.29-.033.43-.099a.587.587 0 0 1-.19.157.453.453 0 0 1-.256.058.355.355 0 0 1-.132-.042c-.025-.008-.041-.024-.058-.04l-.025-.026a.375.375 0 0 1-.083-.305.916.916 0 0 1 .067-.247c.025-.074.066-.148.099-.222.066-.124.157-.256.264-.38-.066.149-.124.297-.181.437Z" id="Vector" fill="#1F1F39" fill-rule="nonzero"/>
            <path d="M11.772 17.989s.314.783 1.19.66c.474-.067.739-.375.794-.924" id="Vector" fill="#FFF" fill-rule="nonzero"/>
            <path d="M10.326 16.653c-.297 0-.538-.295-.538-.66 0-.364.24-.659.538-.659.296 0 .537.295.537.66 0 .364-.24.659-.537.659Zm4.132 0c-.297 0-.537-.295-.537-.66 0-.364.24-.659.537-.659.297 0 .537.295.537.66 0 .364-.24.659-.537.659Z" id="Vector" fill="#1F1F39"/>
            <path d="M15.836 18.78c-.446 0-.808-.628-.808-1.404 0-.776.362-1.405.808-1.405.446 0 .808.629.808 1.405s-.362 1.405-.808 1.405Z" id="Vector" fill="#C43D28" transform="rotate(-85.11 15.836 17.376)"/>
            <path d="M9.141 18.781c-.446 0-.808-.63-.808-1.405 0-.776.362-1.405.808-1.405.446 0 .808.629.808 1.405s-.362 1.405-.808 1.405Z" id="Vector" fill="#C43D28" transform="rotate(-85.11 9.141 17.376)"/>
          </g>
        </g>
        <g id="Avatar-03" stroke-width="1" fill="none" fill-rule="evenodd" transform="translate(234.448 47.256)">
          <path d="M13.222.544C10.446 1.98 9.308 5.99 7.915 8.135c-1.383 2.146-1.952 2.688-3.03 3.459a4.164 4.164 0 0 1-2.425.788c1.6 4.016 5.482 6.377 11.646 7.084 9.246 1.059 14.202-2.067 16.076-3.345a8.795 8.795 0 0 0 2.924-3.31c-2.9-.642-4.763-2.297-5.586-4.965-1.235-4.01-2.977-6.83-5.674-7.276-1.798-.298-3.14-.157-4.028.42-1.214-1.26-2.746-1.41-4.596-.446Z" id="Vector" fill="#1F1F39" fill-rule="nonzero"/>
          <path d="m26.522 32.59 2.583 6.9a27.182 27.182 0 0 0 6.208-4.054 58.085 58.085 0 0 0-.85-2.337l-7.941-.508ZM6.234 39.622l2.697-7.215-7.942.508A54.69 54.69 0 0 0 0 35.665a26.98 26.98 0 0 0 6.234 3.957Z" id="Vector" fill="#F9D2DD" fill-rule="nonzero"/>
          <path d="m26.522 32.59.893 2.347 7.88.49-.832-2.328-7.941-.508ZM9.01 32.153 8.117 34.5l-8.003.779.954-2.618 7.942-.508Z" id="Vector" fill="#F9ACC0" fill-rule="nonzero"/>
          <path d="M8.686 21.786C5.219 23.353 1.41 28.22.009 33.93h6.199l-1.024 5.184a27.019 27.019 0 0 0 12.328 2.96c4.466 0 8.668-1.078 12.38-2.978l-1.085-4.491 6.27-.56c0 .008-1.445-8.048-8.047-11.856-5.289-3.056-13.458-2.6-18.344-.403Z" id="Vector" fill="#3D5CFF" fill-rule="nonzero"/>
          <path d="m7.898 28.064-3.686 5.875 2.092-.009 1.594-5.866Zm20.918 6.541 1.865-.158-4.16-7.119 2.295 7.277Z" id="Vector" fill="#224BF4" fill-rule="nonzero"/>
          <path d="M6.287 34.027c-.044-.01-.07-.062-.061-.105l1.75-6.497c.01-.044.062-.07.106-.062.044.01.07.062.061.105l-1.751 6.497a.084.084 0 0 1-.079.062h-.026Zm22.363.578-2.242-7.277c-.017-.043.009-.087.053-.105.043-.017.087.009.105.053l2.241 7.276c.018.044-.009.088-.052.105-.01 0-.018.009-.027.009a.084.084 0 0 1-.078-.061Z" id="Vector" fill="#1F1F39" fill-rule="nonzero"/>
          <g id="Group" transform="translate(9.4 5.999)">
            <path d="M14.837 2.986c-.28.114-.508.245-.683.376 0-.502-.027-.983-.08-1.444L12.342 1.9 12.236.858l-.21 1.042-2.653-.026L9.259.858l-.184 1.007-4.378-.044L4.522 0l-.245 1.821-1.331-.009c-.012.485-.018.999-.018 1.542a3.458 3.458 0 0 0-.683-.377c-.963-.403-2.302.158-2.241 1.821-.044.727.28 1.515.823 1.857.78.499 2.049.42 2.53.367.027.245.15.727.552 1.471.409.76 1.022 1.46 1.839 2.102v2.075l-.193 2.828c.135.07.318.146.552.228.175.07.42.157.78.227a7.513 7.513 0 0 0 1.654.184c.63.009 1.19-.07 1.655-.184a3.58 3.58 0 0 0 .78-.227c.233-.082.417-.158.55-.228l-.192-2.828v-2.067c.817-.642 1.43-1.342 1.839-2.101.268-.496.45-.992.543-1.488 1.167.099 2.01-.018 2.53-.35.552-.342.876-1.13.832-1.857.061-1.664-1.27-2.224-2.241-1.821Z" id="Vector" fill="#F9D2DD" fill-rule="nonzero"/>
            <path d="M2.254 2.986c-.963-.403-2.303.157-2.241 1.821-.044.727.28 1.515.823 1.856.77.49 2.014.42 2.513.377a46.63 46.63 0 0 1-.307-1.953c-.122-.884-.105-1.76-.105-1.725a3.458 3.458 0 0 0-.683-.376Zm11.908.376c0-.026.01.815-.078 1.638a19.1 19.1 0 0 1-.342 2.014c.149.008 1.778.122 2.522-.35.543-.342.858-1.13.823-1.857.052-1.664-1.278-2.224-2.242-1.821-.28.114-.507.245-.683.376Z" id="Vector" fill="#F9ACC0" fill-rule="nonzero"/>
            <path d="M2.85 6.252c-.006-.333-.19-.777-.552-1.331C1.755 4.089.722 3.8.713 3.8c-.061-.017-.087-.079-.079-.131.018-.062.08-.088.132-.08.044.01 1.12.316 1.707 1.218.587.893.587 1.427.587 1.445a.106.106 0 0 1-.105.105.106.106 0 0 1-.105-.105Zm11.426-.122a.113.113 0 0 1-.052-.15c.017-.035.446-.902 1.094-1.567.657-.674 1.112-.762 1.13-.762.061-.009.114.027.122.088.009.061-.026.114-.087.122-.275.053-.613.286-1.016.7-.622.64-1.05 1.498-1.05 1.507a.112.112 0 0 1-.097.07c-.018 0-.035 0-.044-.009Z" id="Vector" fill="#1F1F39" fill-rule="nonzero"/>
            <path d="M8.756 1.751c-.769 0-1.392-.392-1.392-.875C7.364.392 7.987 0 8.756 0c.769 0 1.392.392 1.392.876 0 .483-.623.875-1.392.875Zm-7.364 0C.623 1.751 0 1.36 0 .876S.623 0 1.392 0c.77 0 1.392.392 1.392.876 0 .483-.623.875-1.392.875Z" transform="translate(3.445 5.411)" fill="#F9ACC0" id="Vector"/>
            <path d="M6.807 10.954a4.063 4.063 0 0 1-1.059-.298v2.023l-.088 1.26c.237-.017.5-.07.788-.183 1.349-.526 2.753-1.489 4.212-2.89-1.576.175-2.86.204-3.853.088Z" id="Vector" fill="#F9ACC0" fill-rule="nonzero"/>
            <path d="M5.126 2.68a.727.727 0 0 1 .517-.123c.175.017.35.07.499.184.14.113.236.289.219.464a.678.678 0 0 0-.298-.342 1.21 1.21 0 0 0-.429-.122.885.885 0 0 0-.429.06.902.902 0 0 0-.341.316.63.63 0 0 1 .262-.438Zm5.867.122a.758.758 0 0 1 .516-.079.675.675 0 0 1 .254.088.647.647 0 0 1 .202.175c.113.14.175.306.175.473a1.203 1.203 0 0 0-.28-.368.547.547 0 0 0-.176-.114c-.035-.009-.06-.026-.096-.035l-.105-.026a.894.894 0 0 0-.43.026.838.838 0 0 0-.393.236.667.667 0 0 1 .333-.376ZM8.576 4.798c-.088.21-.166.42-.193.64a.952.952 0 0 0-.008.157c.008.053.008.105.026.149a.388.388 0 0 0 .157.228.75.75 0 0 0 .298.105c.114.017.228.026.342.017a.926.926 0 0 1-.35.07.797.797 0 0 1-.368-.079.52.52 0 0 1-.254-.306c-.027-.061-.027-.131-.035-.193 0-.061 0-.131.008-.192a2.01 2.01 0 0 1 .246-.675c.113-.192.245-.385.411-.551-.096.21-.192.42-.28.63Z" id="Vector" fill="#1F1F39" fill-rule="nonzero"/>
            <path d="M5.759 5.357c-.416 0-.753-.275-.753-.613 0-.339.337-.613.753-.613s.753.274.753.613c0 .338-.337.613-.753.613Z" id="Vector" fill="#1F1F39" transform="rotate(-83.119 5.759 4.744)"/>
            <path d="M11.37 5.473c-.416 0-.753-.274-.753-.613 0-.339.337-.613.753-.613s.753.274.753.613c0 .339-.337.613-.753.613Z" id="Vector" fill="#1F1F39" transform="rotate(-83.119 11.37 4.86)"/>
            <path d="M8.357 6.926h.805c.167 0 .36 0 .622.009a.722.722 0 0 1-.113.35.997.997 0 0 1-.237.271 1.108 1.108 0 0 1-1.077.175.997.997 0 0 1-.333-.2.888.888 0 0 1-.219-.316.68.68 0 0 1-.026-.377c.254.062.43.08.578.088Z" id="Vector" fill="#DA5742" fill-rule="nonzero"/>
          </g>
          <path d="M14.736 16.567a.106.106 0 0 1-.008-.14c.035-.044.096-.044.14-.009.411.377 1.83.64 3.152.578.052 0 .096.035.096.088 0 .052-.035.096-.087.096-.132.026-.263.026-.394.026-1.261 0-2.487-.262-2.899-.639Z" id="Vector" fill="#1F1F39" fill-rule="nonzero"/>
          <path d="M24.858 25.603c-.665-.288-1.488-.989-1.646-2.688-.07-.796-.061-1.54.044-2.206a.184.184 0 0 1 .201-.149.184.184 0 0 1 .149.201 8.883 8.883 0 0 0-.044 2.12c.114 1.225.596 2.03 1.436 2.398 1.174.508 3.047.053 4.562-1.112a.172.172 0 0 1 .245.036c.062.078.044.183-.035.245-1.287.99-2.6 1.392-3.651 1.392-.49 0-.92-.088-1.26-.237Z" id="Vector" fill="#EAEAFF" fill-rule="nonzero" opacity=".55"/>
          <path d="m33.676 30.866-.21-.096c-3.468-1.612-6.743-3.135-7.356-6.883-.122-.77-.131-1.488-.017-2.136a.17.17 0 0 1 .201-.14.17.17 0 0 1 .14.201c-.105.613-.096 1.296.027 2.023.586 3.563 3.773 5.052 7.162 6.62l.21.096a.186.186 0 0 1 .088.236c-.053.053-.114.096-.175.096a.165.165 0 0 1-.07-.017Z" id="Vector" fill="#EAEAFF" fill-rule="nonzero" opacity=".55"/>
          <path d="M28.72 39.377c.367-1.27.113-2.636-.71-3.836-.971-1.41-2.705-2.548-5.017-3.292-2.653-.858-4.64-.613-5.84-.262-.7.21-1.313.507-1.812.884.621.061 1.26.105 1.89.149 3.407.245 6.62.481 7.382 2.767.324.963.105 1.847-.604 2.486-.692.622-1.804.981-3.135 1.007-1.418.027-2.96-.324-4.465-.998-1.13-.508-1.927-1.156-2.356-1.917-.402-.71-.464-1.471-.175-2.207.14-.368.36-.71.648-1.024-1.979-.246-3.765-.692-4.816-1.804-.726-.762-1.006-1.769-.84-2.925-.71-.017-1.471-.07-2.294-.175-1.445-.184-2.478-.516-3.573-1.147l.176-.306c.884.508 1.803.893 3.432 1.103.832.105 1.61.158 2.32.175.254-1.13.902-2.303 1.839-3.3.893-.964 1.953-1.647 2.986-1.945 1.182-.341 2.259-.149 3.108.56.578.482.736 1.156.43 1.874-.43.999-1.664 1.9-3.39 2.478-1.024.342-2.565.692-4.649.692H9.23c-.158.99.035 1.944.727 2.68 1.033 1.085 2.863 1.505 4.885 1.733 1.594-1.4 4.676-2.058 8.266-.902 2.382.77 4.177 1.953 5.201 3.424.867 1.287 1.138 2.75.744 4.124l-.332-.096ZM14.194 34.28c-.535 1.392.341 2.767 2.355 3.686 2.408 1.094 5.656 1.462 7.215.052.613-.551.788-1.278.508-2.119-.692-2.066-3.792-2.294-7.075-2.53a46.404 46.404 0 0 1-2.242-.184c-.35.333-.613.7-.761 1.095Zm-3.188-9.282c-.831.885-1.47 1.988-1.725 3.065 2.014-.009 3.503-.333 4.492-.674 1.603-.543 2.793-1.393 3.179-2.286.245-.569.131-1.077-.333-1.462-.473-.394-1.103-.63-1.83-.63-1.12 0-2.452.569-3.783 1.987Z" id="Vector" fill="#EAEAFF" opacity=".55"/>
        </g>
        <g id="Group-137" stroke-width="1" fill="none" fill-rule="evenodd" transform="translate(278.666 45.557)">
          <path d="M20.424 10.89c-.166-.131-.428-.22-.786-.263-.537-.066-.868.132-.876.132a.132.132 0 0 1-.173-.042.12.12 0 0 1 .041-.165c.016-.008.413-.239 1.033-.164.62.074.901.313.918.321.05.041.057.124.016.173a.132.132 0 0 1-.09.033.16.16 0 0 1-.083-.025Zm-6.514-.016a.128.128 0 0 1 .017-.173c.008-.008.298-.248.917-.322.62-.074 1.017.157 1.034.165.058.033.074.107.041.173-.033.058-.107.075-.174.042-.008 0-.347-.198-.876-.132-.358.044-.62.132-.785.263a.134.134 0 0 1-.074.025.153.153 0 0 1-.1-.041Z" id="Vector" fill="#1F1F39" fill-rule="nonzero"/>
          <path d="m25.036 34.922 2.438 6.496a25.665 25.665 0 0 0 5.86-3.817 54.622 54.622 0 0 0-.802-2.2l-7.496-.479Zm-19.151 6.62 2.546-6.793-7.497.478A51.423 51.423 0 0 0 0 37.816a25.477 25.477 0 0 0 5.885 3.726Z" id="Vector" fill="#F9D2DD" fill-rule="nonzero"/>
          <path d="m25.036 34.922.843 2.21 7.438.461-.785-2.193-7.496-.478ZM8.505 34.51l-.843 2.21-7.555.733.901-2.465 7.497-.478Z" id="Vector" fill="#F9ACC0" fill-rule="nonzero"/>
          <path d="M8.199 24.749c-3.273 1.475-6.868 6.06-8.19 11.434h5.85l-.966 4.88A25.558 25.558 0 0 0 16.53 43.85a25.62 25.62 0 0 0 11.688-2.803l-1.025-4.229 5.918-.528c0 .009-1.364-7.576-7.596-11.162-4.992-2.877-12.704-2.449-17.316-.38Z" id="Vector" fill="#3D5CFF" fill-rule="nonzero"/>
          <path d="m7.455 30.66-3.48 5.532 1.976-.009 1.504-5.523Zm19.746 6.158 1.76-.148-3.925-6.703 2.165 6.851Z" id="Vector" fill="#224BF4" fill-rule="nonzero"/>
          <g id="Group" opacity=".451" transform="translate(1.083 23.413)" fill="#F9EDC7">
            <path d="M12.852 12.407a1.155 1.155 0 1 1 0-2.308c.64 0 1.158.517 1.158 1.154 0 .638-.518 1.154-1.158 1.154Zm5.414-2.184a1.156 1.156 0 1 1 0-2.308 1.154 1.154 0 1 1 0 2.308ZM8.844 6.348a1.155 1.155 0 1 1 0-2.308 1.154 1.154 0 1 1-.001 2.308Zm0 11.377a1.155 1.155 0 1 1 0-2.308 1.154 1.154 0 1 1-.001 2.307Zm10.166 1.154a1.155 1.155 0 1 1 0-2.308 1.154 1.154 0 1 1 0 2.308Zm9.257-4.864a1.155 1.155 0 1 1 0-2.308c.64 0 1.158.516 1.158 1.154 0 .637-.518 1.154-1.158 1.154ZM1.157 9.646a1.156 1.156 0 1 1 0-2.308 1.154 1.154 0 1 1 0 2.308ZM28.68 7.255a1.156 1.156 0 0 1-1.157-1.154c0-.638.519-1.154 1.158-1.154a1.155 1.155 0 1 1 0 2.308Zm-7.108-4.947a1.155 1.155 0 1 1 0-2.308c.64 0 1.158.517 1.158 1.154 0 .638-.519 1.154-1.158 1.154Z" id="Vector"/>
          </g>
          <path d="M5.934 36.274c-.04-.008-.066-.058-.057-.099l1.653-6.117c.008-.041.058-.066.099-.058.041.009.066.058.058.1l-1.653 6.116a.08.08 0 0 1-.075.058h-.025Zm21.11.544-2.116-6.85c-.017-.042.008-.083.05-.1.041-.016.082.009.099.05l2.124 6.85c.017.042-.008.083-.05.1-.016 0-.024.008-.033.008a.08.08 0 0 1-.074-.058Z" id="Vector" fill="#1F1F39" fill-rule="nonzero"/>
          <g id="Group" transform="translate(7.787)">
            <path d="M.9 5.853c.716-1.429 1.57-2.198 2.562-2.308C4.4 1.182 6.438 0 9.578 0c3.141 0 5.07 1.539 5.786 4.617 1.433.44 2.122 1.374 2.066 2.803-.055 1.429-.749 3.784-2.082 7.065L2.14 11.872C.597 9.288.183 7.282.9 5.853Z" id="Vector" fill="#FFF" fill-rule="nonzero"/>
            <g id="Vector">
              <path d="M1.14 4.349C-.216 4.967-.348 6.83.668 8c.678.78 1.871 1.08 3.58.899L3.56 4.654c-.71-.616-1.518-.717-2.421-.305Z" fill="#F9ACC0" fill-rule="nonzero" transform="translate(0 6.665)"/>
              <path d="M15.607 4.349c1.347.618 1.487 2.481.47 3.652-.677.78-1.87 1.08-3.578.899l.686-4.246c.71-.616 1.518-.717 2.422-.305Z" fill="#F9ACC0" fill-rule="nonzero" transform="translate(1.683 6.665)"/>
              <path d="M2.093 8.034c-.006-.313-.18-.731-.521-1.253C1.06 5.998.084 5.726.076 5.726a.108.108 0 0 1-.074-.124c.016-.058.074-.082.124-.074.04.008 1.057.297 1.611 1.146.554.84.554 1.344.554 1.36a.1.1 0 0 1-.1.099.1.1 0 0 1-.098-.099Zm11.199-.115a.106.106 0 0 1-.05-.14c.017-.034.422-.85 1.034-1.476.62-.635 1.05-.718 1.066-.718.058-.008.107.025.116.083.008.058-.025.107-.083.115-.259.05-.578.27-.959.66a6.228 6.228 0 0 0-.992 1.418.105.105 0 0 1-.09.066c-.017 0-.033 0-.042-.008Z" fill="#1F1F39" fill-rule="nonzero" transform="translate(1.683 6.665)"/>
              <path d="M2.291 8.891c.452 1.605 1.262 2.867 2.43 3.784l-.339 4.683c.314.687 1.303 1.03 2.967 1.03 1.802 0 2.951-.343 3.447-1.03l-.132-4.608c1.124-.182 1.956-1.284 2.496-3.306.54-2.017.675-3.922.405-5.713-2.656.412-4.433.068-5.331-1.031C6.887 1.051 5.53-.606 3.572.219c-1.306.55-1.82 1.58-1.545 3.091-.276 2.116-.188 3.976.264 5.581Z" fill="#F9D2DD" fill-rule="nonzero" transform="translate(1.683 6.665)"/>
              <path d="M5.597 6.69c-.338 0-.611-.325-.611-.725 0-.401.273-.726.611-.726.338 0 .612.325.612.726 0 .4-.274.725-.612.725Zm4.455 0c-.337 0-.611-.325-.611-.725 0-.401.274-.726.611-.726.338 0 .612.325.612.726 0 .4-.274.725-.612.725Z" fill="#1F1F39" transform="translate(1.683 6.665)"/>
              <path d="M7.358 6.962c.137.275.385.344.744.206-.359-.093-.538-.277-.538-.552a503.23 503.23 0 0 0-.041-1.822c-.248 1.17-.303 1.893-.165 2.168Z" fill="#1F1F39" fill-rule="nonzero" transform="translate(1.683 6.665)"/>
              <path d="M4.531 16.088c.041-.008 4.472-1.723 5.306-2.506 0-.319.006-.596.017-.832-.54.318-1.463.456-2.769.412-.91-.033-1.893-.206-2.364-.487.008.42-.149 3.249-.19 3.413Z" fill="#F9ACC0" fill-rule="nonzero" transform="translate(1.683 6.665)"/>
              <path d="M8.265 1.649c-.726 0-1.314-.37-1.314-.825C6.95.37 7.539 0 8.265 0 8.991 0 9.58.37 9.58.824c0 .456-.588.825-1.314.825Zm-6.951 0C.588 1.649 0 1.279 0 .824 0 .37.588 0 1.314 0c.726 0 1.314.37 1.314.824 0 .456-.588.825-1.314.825Z" transform="translate(4.586 13.496)" fill="#F9ACC0"/>
            </g>
            <path d="M7.23 16.183c2.985.742 5.175-.412 6.142-1.492.645-.72.978-2.237 1-4.55l1.008-.33c.182 4.303-.165 7.035-1.041 8.194-1.314 1.74-3.182 2.276-5.207 2.193-1.455-.066-2.943-.536-4.265-2.275-.876-1.16-1.482-3.754-1.818-7.783l.66-1.154c.359 4.298 1.533 6.697 3.522 7.197Z" id="Vector" fill="#FFF" fill-rule="nonzero"/>
            <path d="M9.496 14.922c.22-.055.55-.247.991-.577.11-.055.193-.055.248 0 .083.082-.446 1.022-.909 1.154-.578.165-.992-.083-1.24-.412-.165-.22-.137-.303.083-.248.33.11.606.138.827.083Z" id="Vector" fill="#F95368" fill-rule="nonzero"/>
          </g>
        </g>
      </g>
    </g>
    <g id="learning-plan" mask="url(#mask-2)">
      <g transform="translate(0 413)">
        <g id="Rectangle-29" transform="translate(20 48)">
          <use fill="#000" filter="url(#filter-6)" xlink:href="#path-5"/>
          <use fill="#FFF" xlink:href="#path-5"/>
        </g>
        <g id="text" transform="translate(171 148)" font-family="NanumGothic, Nanum Gothic" font-size="14" font-weight="normal">
          <text id="more" fill="#000">
                        <tspan x=".046" y="13">more</tspan>
                    </text>
        </g>
        <g id="progress" transform="translate(36 71)">
          <g id="Ellipse-19" stroke-dasharray="0,0" stroke-width="3">
            <path d="M9 21A9 9 0 1 0 9 3a9 9 0 0 0 0 18Z" stroke="#F4F3FD"/>
            <path d="M9 0a9 9 0 1 0 8.424 5.831" stroke="url(#linearGradient-7)" transform="matrix(-1 0 0 1 18 3)"/>
          </g>
          <text id="화상채팅-30min" font-family="NanumGothic, Nanum Gothic" font-size="14" font-weight="normal" fill="#1F1F39">
                        <tspan x="31" y="15">화상채팅 30min</tspan>
                    </text>
          <text id="11/21" font-family="NanumGothic, Nanum Gothic" font-size="14" font-weight="normal">
                        <tspan x="263.814" y="13" fill="#1F1F39">11</tspan>
                        <tspan x="280.782" y="13" fill="#B8B8D2">/21</tspan>
                    </text>
        </g>
        <g id="progress" transform="translate(36 110)">
          <g transform="translate(0 3)" id="Group-7" stroke-dasharray="0,0" stroke-width="3">
            <g id="Group-8">
              <path d="M9 18A9 9 0 1 0 9 0a9 9 0 0 0 0 18Z" id="Ellipse-19" stroke="#F4F3FD"/>
              <path d="M18 9a9 9 0 0 0-9-9" id="Ellipse-19" stroke="url(#linearGradient-8)"/>
            </g>
          </g>
          <text id="화상채팅-30min" font-family="NanumGothic, Nanum Gothic" font-size="14" font-weight="normal" fill="#1F1F39">
                        <tspan x="31" y="15">화상채팅 30min</tspan>
                    </text>
          <text id="08/11" font-family="NanumGothic, Nanum Gothic" font-size="14" font-weight="normal">
                        <tspan x="263.814" y="13" fill="#1F1F39">08</tspan>
                        <tspan x="280.782" y="13" fill="#B8B8D2">/11</tspan>
                    </text>
        </g>
        <g id="Title">
          <path d="M0 0h375v48H0V0Z" id="Title-(Background)"/>
          <path d="M0 0h375v48H0V0Z" id="Rectangle-26" fill="#FFF"/>
          <text id="나의-구매내역" font-family="NanumGothic, Nanum Gothic" font-size="18" font-weight="normal" fill="#1F1F39">
                        <tspan x="20" y="30">나의 구매내역</tspan>
                    </text>
          <text id="모두보기" font-family="NanumGothic, Nanum Gothic" font-size="14" font-weight="normal" fill="#000">
                        <tspan x="302.36" y="27">모두보기</tspan>
                    </text>
        </g>
      </g>
    </g>
    <g id="learned-today" mask="url(#mask-2)">
      <g transform="translate(20 137)">
        <g id="Rectangle-29" fill="none">
          <use fill="#000" filter="url(#filter-10)" xlink:href="#path-9"/>
          <use fill="#FFF" xlink:href="#path-9"/>
        </g>
        <text id="잔여분수" fill="none" font-family="NanumGothic, Nanum Gothic" font-size="12" font-weight="normal">
                    <tspan x="16" y="26" fill="#858597">잔여분수</tspan>
                </text>
        <g id="Group-3" stroke-width="1" fill="none" fill-rule="evenodd" transform="translate(16 38)" font-family="NanumGothic, Nanum Gothic" font-weight="normal">
          <text id="21분" font-size="20" fill="#1F1F39">
                        <tspan x="0" y="18">21분</tspan>
                    </text>
          <text id="/-30분" font-size="10" fill="#858597">
                        <tspan x="46" y="14">/ 30분</tspan>
                    </text>
        </g>
        <path d="M19 73h297a3 3 0 0 1 0 6H19a3 3 0 0 1 0-6Z" id="Rectangle-30" fill="#F4F3FD" fill-rule="evenodd"/>
        <path d="M226 73v6H19a3 3 0 0 1 0-6h207Z" id="Rectangle-30" fill="url(#linearGradient-11)" fill-rule="nonzero"/>
      </g>
    </g>
    <g id="ads" mask="url(#mask-2)">
      <g transform="translate(20 249.655)">
        <path d="M16 0h217c8.837 0 16 7.163 16 16v122c0 8.837-7.163 16-16 16H16c-8.837 0-16-7.163-16-16V16C0 7.163 7.163 0 16 0Z" id="bg" fill="#CEECFE"/>
        <g id="illustration">
          <mask id="mask-13" fill="#fff">
            <use xlink:href="#path-12"/>
          </mask>
          <use id="Rectangle-75" fill="#CEECFE" xlink:href="#path-12"/>
          <g id="Group-131" mask="url(#mask-13)">
            <g transform="translate(134.485 13.396)" id="illustration">
              <mask id="mask-15" fill="#fff">
                <use xlink:href="#path-14"/>
              </mask>
              <path d="M1.475 112.808c-.194-.015-.328-.194-.314-.388 0-.015.09-.776.269-2.104.03-.194.193-.329.387-.299.194.03.328.194.298.388-.12.876-.209 1.572-.268 2.09 0 .179-.15.313-.328.313h-.044Zm.55-4.194c-.193-.03-.327-.209-.297-.388.09-.641.193-1.328.298-2.089a.353.353 0 1 1 .7.105c-.12.746-.209 1.447-.298 2.074a.378.378 0 0 1-.358.298h-.044Zm43.4-.73c-.625-.046-1.25-.374-1.846-.97a.352.352 0 0 1 0-.493.35.35 0 0 1 .491 0c.477.477.954.746 1.415.776h.105a.349.349 0 0 1 .372.313.35.35 0 0 1-.313.373h-.223ZM46.9 106.6a.36.36 0 0 1-.119-.478c.283-.462.581-1.074.864-1.835a.34.34 0 0 1 .447-.194.34.34 0 0 1 .193.447c-.297.791-.61 1.448-.923 1.94a.322.322 0 0 1-.283.18.286.286 0 0 1-.179-.06Zm-4.602-1.448a22.075 22.075 0 0 1-.968-1.895.35.35 0 0 1 .64-.284c.313.702.626 1.314.924 1.836.104.164.045.373-.12.477a.396.396 0 0 1-.178.045.328.328 0 0 1-.298-.179Zm-39.677-.686a.344.344 0 0 1-.283-.403c.105-.657.224-1.358.343-2.075a.343.343 0 0 1 .402-.283c.194.03.313.209.283.403-.12.716-.223 1.403-.343 2.074-.014.164-.163.284-.342.284h-.06Zm45.918-1.702a.369.369 0 0 1-.239-.432c.179-.612.373-1.284.551-2.015a.353.353 0 0 1 .417-.254.354.354 0 0 1 .254.418c-.194.731-.373 1.418-.566 2.03a.318.318 0 0 1-.313.268c-.03 0-.075 0-.104-.015Zm-8.013-1.462c-.224-.612-.477-1.269-.715-1.985a.356.356 0 0 1 .223-.448c.179-.06.373.03.447.224.238.702.477 1.358.7 1.955a.336.336 0 0 1-.194.448c-.06.015-.089.03-.134.03a.372.372 0 0 1-.327-.224Zm-37.205-.985a.344.344 0 0 1-.283-.403c.12-.672.239-1.358.373-2.074a.35.35 0 0 1 .402-.284c.193.03.313.224.283.403-.134.701-.253 1.388-.373 2.06a.35.35 0 0 1-.342.298h-.06Zm46.305-1.612c-.194-.045-.298-.224-.268-.418.149-.627.298-1.328.447-2.044a.344.344 0 0 1 .417-.269.345.345 0 0 1 .268.418 77.903 77.903 0 0 1-.447 2.06.382.382 0 0 1-.343.268c-.03 0-.044 0-.074-.015Zm-10.47-1.388c-.194-.627-.403-1.283-.611-2.014a.343.343 0 0 1 .238-.433c.194-.06.373.044.432.239.224.716.417 1.372.61 2a.347.347 0 0 1-.223.432.327.327 0 0 1-.119.015.335.335 0 0 1-.327-.239Zm-35.09-1.12a.351.351 0 0 1-.283-.402c.134-.672.268-1.358.402-2.06a.344.344 0 0 1 .417-.268.345.345 0 0 1 .268.418l-.402 2.06c-.03.134-.179.253-.342.253h-.06Zm46.424-1.581a.33.33 0 0 1-.268-.403c.134-.657.253-1.343.387-2.06a.35.35 0 0 1 .402-.283c.194.03.313.224.283.403-.134.716-.268 1.418-.387 2.06-.045.164-.18.283-.343.283h-.074Zm-12.54-1.328a177.22 177.22 0 0 1-.582-2.015c-.06-.179.06-.373.239-.433a.368.368 0 0 1 .432.24c.193.686.387 1.357.58 2.014.06.179-.06.373-.238.433-.03.015-.06.015-.104.015a.349.349 0 0 1-.328-.254ZM4.884 92.079a.345.345 0 0 1-.268-.418c.149-.686.298-1.373.447-2.044.045-.194.223-.299.417-.269a.345.345 0 0 1 .268.418c-.149.671-.298 1.358-.447 2.044a.35.35 0 0 1-.342.284c-.03 0-.045 0-.075-.015Zm46.38-1.597a.344.344 0 0 1-.284-.403c.12-.671.238-1.358.358-2.06a.343.343 0 0 1 .402-.283c.193.03.312.21.283.403-.12.702-.239 1.388-.358 2.06a.35.35 0 0 1-.342.283h-.06Zm-14.448-1.224-.566-2.014a.369.369 0 0 1 .239-.433.368.368 0 0 1 .431.239l.566 2.014a.369.369 0 0 1-.238.433c-.045 0-.074.015-.104.015-.149 0-.298-.104-.328-.254ZM5.81 87.99a.342.342 0 0 1-.254-.418c.164-.701.328-1.388.492-2.044a.341.341 0 0 1 .417-.254.342.342 0 0 1 .253.418c-.164.656-.328 1.343-.491 2.03-.045.163-.194.283-.343.283-.03 0-.06 0-.074-.015Zm46.17-1.627a.344.344 0 0 1-.283-.403c.12-.686.223-1.373.343-2.06a.343.343 0 0 1 .402-.283c.193.03.312.21.283.403-.12.702-.224 1.388-.343 2.075a.37.37 0 0 1-.342.268h-.06Zm-16.294-1.149c-.193-.671-.387-1.343-.566-2.015-.06-.179.06-.373.239-.432.178-.06.372.06.432.238l.58 2.015c.06.18-.06.373-.238.433a.418.418 0 0 1-.119.015c-.149 0-.298-.105-.328-.254ZM6.792 83.916a.363.363 0 0 1-.254-.433c.18-.687.373-1.373.551-2.03a.341.341 0 0 1 .432-.238.342.342 0 0 1 .239.432c-.18.657-.373 1.343-.551 2.015a.322.322 0 0 1-.328.269c-.03 0-.06 0-.09-.015Zm45.872-1.702a.344.344 0 0 1-.283-.402c.104-.687.224-1.373.328-2.075a.343.343 0 0 1 .402-.283c.194.03.313.209.283.403-.12.7-.223 1.387-.328 2.074a.35.35 0 0 1-.342.283h-.06Zm-18.14-1.03c-.209-.7-.403-1.357-.596-1.999a.347.347 0 0 1 .223-.433.346.346 0 0 1 .432.224c.194.642.387 1.298.596 2a.343.343 0 0 1-.238.433c-.015.03-.06.03-.09.03a.349.349 0 0 1-.327-.254ZM7.909 79.872a.369.369 0 0 1-.239-.432c.209-.687.417-1.358.626-2.015a.346.346 0 0 1 .432-.224c.178.06.283.254.223.433a53.338 53.338 0 0 0-.61 2c-.03.164-.18.253-.328.253-.03 0-.06 0-.104-.015Zm45.41-1.79a.344.344 0 0 1-.283-.403l.328-2.075a.333.333 0 0 1 .402-.283c.194.03.313.209.283.403l-.327 2.074c-.015.164-.164.284-.343.284h-.06Zm-20.017-.88c-.223-.687-.446-1.359-.655-1.986a.356.356 0 0 1 .223-.447c.18-.06.373.03.447.223.209.627.432 1.299.656 2a.347.347 0 0 1-.224.433c-.045 0-.09.015-.119.015a.335.335 0 0 1-.328-.239Zm66.084-.27a.354.354 0 0 1 .297-.402c.566-.09 1.073-.374 1.564-.88a.35.35 0 0 1 .492 0 .352.352 0 0 1 0 .492c-.596.611-1.251.97-1.951 1.074-.03.015-.045.015-.06.015a.35.35 0 0 1-.342-.299Zm-1.788-.283c-.491-.373-.953-.925-1.4-1.672-.104-.164-.044-.373.12-.477.163-.105.372-.045.476.12.402.656.82 1.163 1.236 1.492.15.12.179.343.06.492a.406.406 0 0 1-.283.12.355.355 0 0 1-.209-.075Zm-88.423-.761a.338.338 0 0 1-.209-.448c.238-.671.477-1.343.715-1.985a.36.36 0 0 1 .447-.209.361.361 0 0 1 .208.448 50.19 50.19 0 0 0-.7 1.97.367.367 0 0 1-.342.239c-.045 0-.075 0-.12-.015Zm93.323-1.388c-.163-.09-.238-.299-.149-.463.283-.537.537-1.164.79-1.88a.342.342 0 0 1 .447-.209c.178.06.283.269.208.448a13.73 13.73 0 0 1-.834 1.97.357.357 0 0 1-.298.179.339.339 0 0 1-.164-.045Zm-48.508-.552a.344.344 0 0 1-.283-.403c.104-.687.223-1.373.327-2.075a.343.343 0 0 1 .402-.283c.194.03.313.209.283.403-.104.686-.223 1.388-.327 2.074a.35.35 0 0 1-.343.284h-.06Zm-22.043-.702c-.238-.671-.491-1.328-.73-1.955a.336.336 0 0 1 .194-.447.335.335 0 0 1 .447.194c.238.626.491 1.283.744 1.97.06.179-.03.388-.208.447-.03 0-.075.015-.12.015a.341.341 0 0 1-.327-.224Zm63.268-.179a30.34 30.34 0 0 1-.774-1.97c-.06-.179.03-.388.208-.447.18-.06.388.03.447.209.253.716.507 1.358.76 1.925a.35.35 0 0 1-.179.462c-.045.03-.104.03-.149.03-.134 0-.268-.074-.313-.209Zm-84.595-1.12c-.178-.075-.268-.284-.193-.448.268-.671.55-1.313.834-1.94a.35.35 0 1 1 .64.284c-.268.612-.551 1.253-.819 1.91a.372.372 0 0 1-.328.224.434.434 0 0 1-.134-.03Zm93.369-1.358a.363.363 0 0 1-.253-.433 37.71 37.71 0 0 0 .476-2.03.344.344 0 0 1 .417-.268.345.345 0 0 1 .268.418 71.828 71.828 0 0 1-.491 2.06.333.333 0 0 1-.328.268c-.03 0-.06 0-.09-.015Zm-49.343-.776a.344.344 0 0 1-.283-.403c.104-.687.223-1.373.343-2.074a.343.343 0 0 1 .402-.284c.193.03.312.209.283.403-.12.686-.224 1.373-.343 2.074a.34.34 0 0 1-.342.284h-.06Zm-24.217-.448a58.394 58.394 0 0 0-.864-1.895.333.333 0 0 1 .164-.463.332.332 0 0 1 .462.164c.297.597.595 1.254.878 1.926a.35.35 0 0 1-.178.462c-.06 0-.105.015-.15.015-.133 0-.267-.074-.312-.209Zm63.358-.283a60.247 60.247 0 0 1-.581-2.03.369.369 0 0 1 .238-.433.368.368 0 0 1 .432.239c.194.716.387 1.388.58 2a.347.347 0 0 1-.223.433c-.06.044-.089.044-.119.044a.332.332 0 0 1-.327-.253Zm-81.469-.97c-.164-.09-.238-.299-.149-.463.328-.657.67-1.283 1.013-1.85.104-.165.313-.224.477-.12.163.105.223.313.119.478a40.05 40.05 0 0 0-.998 1.82c-.045.12-.164.18-.298.18a.339.339 0 0 1-.164-.045Zm92.594-1.597a.344.344 0 0 1-.283-.403c.12-.642.224-1.343.343-2.06a.353.353 0 0 1 .402-.298c.193.03.313.209.298.403-.12.731-.224 1.433-.343 2.074a.38.38 0 0 1-.357.284h-.06Zm-76.315-.88a25.524 25.524 0 0 0-1.087-1.747c-.105-.164-.075-.373.09-.477.163-.105.371-.075.476.09.372.551.744 1.148 1.117 1.805a.365.365 0 0 1-.134.478.534.534 0 0 1-.164.03.328.328 0 0 1-.298-.18Zm26.734.044a.344.344 0 0 1-.283-.403c.12-.686.224-1.373.343-2.074a.343.343 0 0 1 .402-.284c.193.03.313.21.283.403-.12.687-.239 1.373-.343 2.075a.35.35 0 0 1-.342.283h-.06Zm37.324-.657c-.164-.641-.328-1.328-.507-2.044a.347.347 0 0 1 .253-.418.346.346 0 0 1 .417.254c.164.716.343 1.403.507 2.03a.342.342 0 0 1-.253.417c-.015.03-.045.03-.075.03a.362.362 0 0 1-.342-.269ZM14.417 64.5c-.164-.104-.193-.328-.09-.492.433-.612.865-1.18 1.311-1.672a.338.338 0 0 1 .492-.03.34.34 0 0 1 .03.493 21.69 21.69 0 0 0-1.266 1.612.36.36 0 0 1-.283.149.299.299 0 0 1-.194-.06Zm11.84-2.238c-.49-.538-.982-1-1.474-1.359a.355.355 0 0 1-.074-.492.354.354 0 0 1 .491-.075c.536.388 1.073.88 1.579 1.448a.34.34 0 0 1-.03.492.34.34 0 0 1-.238.105.34.34 0 0 1-.253-.12Zm79.31.104c-.194-.03-.328-.209-.298-.388.089-.657.178-1.328.268-2.074.03-.194.193-.329.387-.299.194.03.328.194.298.388-.09.746-.179 1.418-.268 2.09a.366.366 0 0 1-.343.283h-.045ZM56.03 61.53a.344.344 0 0 1-.283-.403l.358-2.06a.343.343 0 0 1 .402-.283c.193.03.312.21.283.403l-.358 2.06a.35.35 0 0 1-.342.283h-.06Zm-38.917-.209a.353.353 0 0 1 .045-.492 8.984 8.984 0 0 1 1.817-1.15c.178-.074.387 0 .461.165.075.179 0 .388-.164.463a7.967 7.967 0 0 0-1.668 1.06.328.328 0 0 1-.223.089.318.318 0 0 1-.268-.135Zm74.558-.373c-.15-.671-.313-1.358-.462-2.044a.345.345 0 0 1 .268-.418.344.344 0 0 1 .417.268c.149.687.313 1.373.462 2.045a.345.345 0 0 1-.268.418h-.075a.35.35 0 0 1-.342-.269Zm-68.616-.94a4.774 4.774 0 0 0-1.891-.209.339.339 0 0 1-.372-.313.339.339 0 0 1 .312-.373 5.68 5.68 0 0 1 2.175.238c.179.06.283.254.223.433a.383.383 0 0 1-.342.239c-.03 0-.075 0-.105-.015Zm83.033-1.806a.332.332 0 0 1-.298-.388c.074-.686.164-1.388.238-2.074.015-.194.194-.328.387-.314.194.015.328.195.313.389a99.617 99.617 0 0 1-.238 2.089.368.368 0 0 1-.358.298h-.044Zm-49.343-.79a.344.344 0 0 1-.283-.404c.12-.686.253-1.373.372-2.06a.35.35 0 0 1 .402-.283c.194.03.313.224.283.403a98.955 98.955 0 0 0-.372 2.06.34.34 0 0 1-.342.283h-.06Zm34.017-.553c-.149-.671-.298-1.358-.447-2.044a.345.345 0 0 1 .268-.418.344.344 0 0 1 .417.268c.15.687.298 1.373.447 2.045a.345.345 0 0 1-.268.418h-.074a.35.35 0 0 1-.343-.269Zm15.787-2.82c-.193-.015-.327-.194-.312-.388l.015-.15a84.48 84.48 0 0 0 .208-1.94c.015-.194.194-.328.387-.313.194.015.328.194.313.388-.074.642-.149 1.283-.208 1.94l-.015.15a.342.342 0 0 1-.343.313h-.045Zm-49.03-.747a.351.351 0 0 1-.283-.403l.403-2.059c.044-.194.223-.313.402-.269.193.045.313.224.268.403l-.402 2.06c-.015.149-.164.268-.328.268h-.06Zm32.35-.537-.447-2.044a.345.345 0 0 1 .268-.418.344.344 0 0 1 .417.268c.149.687.298 1.373.447 2.045a.345.345 0 0 1-.268.418h-.075a.35.35 0 0 1-.342-.269Zm17.142-2.88c-.193-.015-.327-.194-.313-.388.075-.702.164-1.403.254-2.09.03-.193.193-.328.387-.298.193.03.327.194.298.388-.09.687-.164 1.373-.253 2.074 0 .18-.15.314-.328.314h-.045Zm-48.702-.687a.345.345 0 0 1-.268-.417c.149-.687.283-1.373.432-2.06a.344.344 0 0 1 .417-.269.345.345 0 0 1 .268.418c-.15.672-.283 1.358-.432 2.045a.35.35 0 0 1-.343.283h-.074Zm30.666-.522a100.05 100.05 0 0 0-.462-2.044.345.345 0 0 1 .268-.418.344.344 0 0 1 .417.268c.15.687.313 1.358.462 2.045a.345.345 0 0 1-.268.418h-.075a.35.35 0 0 1-.342-.269Zm18.557-2.955c-.193-.03-.327-.209-.297-.388.104-.746.208-1.432.312-2.09a.343.343 0 0 1 .402-.283c.194.03.313.21.283.403a46.089 46.089 0 0 0-.297 2.075.37.37 0 0 1-.358.283h-.045Zm-48.344-.642a.345.345 0 0 1-.269-.417c.15-.702.313-1.388.462-2.045a.341.341 0 0 1 .417-.254.342.342 0 0 1 .253.418c-.149.657-.312 1.343-.461 2.045-.015.164-.164.268-.328.268-.03 0-.045 0-.074-.015Zm28.864-.492c-.164-.686-.313-1.358-.477-2.03a.347.347 0 0 1 .253-.417.353.353 0 0 1 .417.253c.164.672.328 1.358.477 2.045a.347.347 0 0 1-.253.418h-.075a.35.35 0 0 1-.342-.269Zm29.936-.582a35.756 35.756 0 0 0-.328-2.06.344.344 0 0 1 .283-.402c.194-.03.372.09.402.283.164.88.268 1.627.328 2.09a.332.332 0 0 1-.298.387h-.045a.34.34 0 0 1-.342-.298Zm-9.8-2.433a.351.351 0 0 1-.283-.403 27.63 27.63 0 0 1 .447-2.074.341.341 0 0 1 .417-.254.342.342 0 0 1 .253.418 36.358 36.358 0 0 0-.432 2.03c-.045.164-.179.283-.343.283h-.06Zm-48.062-.567a.342.342 0 0 1-.253-.418c.178-.701.342-1.387.52-2.03a.362.362 0 0 1 .433-.253c.193.045.298.239.253.433-.164.657-.343 1.328-.506 2.03a.386.386 0 0 1-.358.253c-.03 0-.06 0-.09-.015Zm26.943-.492c-.18-.687-.358-1.373-.522-2.03a.365.365 0 0 1 .253-.433.364.364 0 0 1 .432.254c.18.657.358 1.343.522 2.03a.342.342 0 0 1-.254.418.147.147 0 0 1-.089.03.362.362 0 0 1-.342-.27Zm30.16-.597a23.11 23.11 0 0 0-.567-1.985.347.347 0 0 1 .224-.433.346.346 0 0 1 .432.224c.208.627.402 1.313.58 2.045a.347.347 0 0 1-.253.418h-.074a.35.35 0 0 1-.343-.27Zm-8.088-2.418a.357.357 0 0 1-.223-.447c.253-.776.536-1.448.834-1.985a.355.355 0 0 1 .476-.135c.164.09.224.299.134.478-.283.492-.536 1.12-.79 1.865a.354.354 0 0 1-.431.224Zm-47.958-.552a.342.342 0 0 1-.238-.433c.194-.686.387-1.373.58-2.014a.368.368 0 0 1 .433-.24.37.37 0 0 1 .238.434 88.584 88.584 0 0 0-.58 2.014.353.353 0 0 1-.343.254c-.03 0-.06 0-.09-.015Zm24.813-.463c-.193-.686-.387-1.358-.58-2a.343.343 0 0 1 .238-.432c.178-.06.372.045.432.239.193.641.402 1.328.595 2.014.06.18-.06.373-.238.433h-.12c-.148 0-.297-.104-.327-.254Zm29.922-.462c-.328-.702-.686-1.269-1.058-1.687a.34.34 0 0 1 .03-.492.338.338 0 0 1 .491.03c.417.462.805 1.09 1.162 1.835.09.18.015.388-.164.463a.287.287 0 0 1-.149.045.347.347 0 0 1-.312-.194Zm-4.781-2.134c-.105-.164-.075-.373.09-.478.744-.522 1.488-.746 2.188-.671.194.015.328.194.313.388-.015.194-.193.328-.387.313-.521-.06-1.102.134-1.713.552a.584.584 0 0 1-.208.045.36.36 0 0 1-.283-.15Zm-48.762-.955a.347.347 0 0 1-.224-.433 104.2 104.2 0 0 1 .67-2 .342.342 0 0 1 .447-.209c.18.06.283.269.209.448a76.576 76.576 0 0 0-.67 1.985.341.341 0 0 1-.328.224c-.03 0-.074 0-.104-.015Zm22.4-.448a43.049 43.049 0 0 0-.685-1.97c-.06-.18.03-.388.208-.448.179-.06.388.03.447.21.224.626.462 1.298.685 1.984.06.18-.044.373-.223.448-.03.015-.075.015-.104.015a.335.335 0 0 1-.328-.24Zm-21.03-3.522a.34.34 0 0 1-.194-.448c.268-.671.537-1.328.805-1.955a.35.35 0 1 1 .64.284 39.61 39.61 0 0 0-.79 1.925c-.074.134-.208.224-.342.224a.28.28 0 0 1-.119-.03Zm19.6-.403a33.404 33.404 0 0 0-.82-1.91.35.35 0 0 1 .641-.284c.283.612.551 1.269.82 1.94a.336.336 0 0 1-.194.448c-.03.03-.075.03-.12.03a.372.372 0 0 1-.327-.224Zm-17.947-3.432a.335.335 0 0 1-.149-.463 30.84 30.84 0 0 1 1.013-1.866.345.345 0 0 1 .477-.119c.163.105.223.313.119.478a28.732 28.732 0 0 0-.983 1.82c-.09.105-.209.18-.328.18a.44.44 0 0 1-.149-.03Zm16.234-.329a31.87 31.87 0 0 0-1.027-1.79.341.341 0 0 1 .104-.478.34.34 0 0 1 .477.104c.357.567.714 1.18 1.057 1.836a.35.35 0 0 1-.149.477.528.528 0 0 1-.149.03.383.383 0 0 1-.313-.179ZM67.483 21.49a.355.355 0 0 1-.074-.492c.447-.612.923-1.15 1.385-1.612a.35.35 0 0 1 .491 0 .352.352 0 0 1 0 .492c-.446.433-.878.955-1.31 1.537a.34.34 0 0 1-.283.15.278.278 0 0 1-.209-.075Zm11.945-.179a11.054 11.054 0 0 0-1.385-1.477c-.149-.135-.149-.344-.03-.493.134-.15.343-.15.492-.03.491.448.983.97 1.46 1.567a.356.356 0 0 1-.06.493.278.278 0 0 1-.209.074.318.318 0 0 1-.268-.134Zm-9.07-2.746a.35.35 0 0 1 .134-.478c.655-.373 1.325-.626 2.01-.73h.045a.353.353 0 0 1 .402.298.354.354 0 0 1-.298.403h-.03a4.94 4.94 0 0 0-1.772.656c-.074.015-.134.03-.193.03a.328.328 0 0 1-.298-.179Zm6.062.12a6.104 6.104 0 0 0-1.832-.642.344.344 0 0 1-.283-.403.343.343 0 0 1 .402-.284c.7.12 1.385.358 2.04.717.164.09.238.298.15.477a.35.35 0 0 1-.477.134Z" id="Vector" fill="#3D5CFF" opacity=".4" mask="url(#mask-15)"/>
              <path d="M24.41 54.427c-4.765-8.935-6.682-17.59-5.748-25.968-1.212-8.426-3.45-12.73-6.717-12.909-4.9-.268-5.883 1.269-7.983 8-2.1 6.73.983 29.474 5.749 41.13 3.177 7.77 8.539 14.779 16.085 21.027l14.73-18.222C32.712 64.26 27.34 59.909 24.41 54.427Z" id="Vector" fill="#DA5742" fill-rule="nonzero" mask="url(#mask-15)"/>
              <path d="M4.453 43.562c.983-2.417 3.232-7.94 4.84-11.148 1.4-2.805 2.145-4.492 2.235-5.059l-8.162 5.417c.149 3.254.521 6.97 1.087 10.79Zm12.824 33.369 8.504 8.776 14.745-18.222s-3.083-1.373-6.717-3.82L17.277 76.93Z" id="Vector" fill="#C43D28" fill-rule="nonzero" mask="url(#mask-15)"/>
              <path d="M36.609 64.68c8.41 3.531 14.948 5.207 19.615 5.028 7-.268 15.266 1 23.115 3.955 7.849 2.955 13.866 12.91 16.115 17.55 1.489 3.085 2.844 7.671 4.066 13.76H77.79L81.99 128H27.494l7.983-34.817-13.3-10.252 14.432-18.252Z" id="Vector" fill="#3D5CFF" fill-rule="nonzero" mask="url(#mask-15)"/>
              <path d="M56.224 31.981c-3.634.468-5.878 3.04-6.732 7.716-5.253-.567-8.986.463-11.2 3.09-2.522 2.994-1.773 5.566 2.249 7.715-4.051-1.045-6.246-.25-6.583 2.387-.566 4.358 3.083 6.179 18.632 9.537 15.549 3.358 34.88 8.834 37.964 4.342 2.512-3.66-.01-6.282-7.566-7.864 3.832.378 5.749-1.075 5.749-4.358 0-3.273-3.878-6.736-11.632-10.387 0-6.735-2.572-10.476-7.715-11.222-3.624-.518-5.68-.135-6.166 1.149-1.033-1.87-3.366-2.572-7-2.105Z" id="Vector" fill="#F99A3D" fill-rule="nonzero" mask="url(#mask-15)"/>
              <path d="M77.894 104.973h5.064l-7.894-14.327 2.83 14.327Zm-48.36-31.34-1.057 1.329-.67 12.297 7.685 5.924-7.998 34.802h1.057l3.292-3.507 19.749-1.253 12.421 4.76h5.674L47.943 92.243l-18.409-18.61Z" id="Vector" fill="#224BF4" fill-rule="nonzero" mask="url(#mask-15)"/>
              <path d="M52.009 56.964c.556 2.437 2.189 4.263 4.9 5.477l-1.266 8.566c1.31 2.338 3.316 3.412 6.017 3.223 2.71-.189 4.671-.985 5.883-2.387l1.266-12.492c3.366-.09 5.56-1.492 6.583-4.208 1.072-2.836-.566-5.328-3.083-5.477-1.678-.09-2.895.612-3.65 2.104-1.777-.557-2.804-1.96-3.082-4.208-.417-3.373-.283-6.03-2.1-6.597-1.212-.378-2.24-.099-3.083.836-.09-1.214-.745-1.726-1.966-1.537-1.817.284-2.383 3.224-3.083 4.358-.7 1.134-2.487 2.656-3.336 2.94-.556 3.84-.556 6.974 0 9.402Z" id="Vector" fill="#DA5742" fill-rule="nonzero" mask="url(#mask-15)"/>
              <path d="M44.994 128.03c-4.17-1.79-6.851-5.835-7.358-11.073-.536-5.507 1.46-10.82 4.96-13.238 2.398-1.656 5.049-2.88 7.625-4.074 4.334-2.014 8.475-3.94 10.426-7.566-1.475-.299-3.128-1.06-4.706-2.388-1.981-1.686-2.935-3.73-2.532-5.447.64-2.776 2.919-3.656 4.766-3.298 2.517.492 4.855 3.268 4.05 8.178a10.812 10.812 0 0 1-.73 2.522c.94.105 1.788.015 2.429-.254 1.4-.567 2.189-1.88 2.383-3.88.357-3.895-.715-6.969-3.113-8.91-2.964-2.402-7.983-2.969-12.779-1.462-1.996.627-3.857.732-5.392.299-1.43-.403-2.457-1.239-2.889-2.358-.685-1.806.224-4.716 5.109-6.94l.238.508c-4.513 2.06-5.421 4.641-4.81 6.223.7 1.82 3.53 3 7.58 1.716 4.975-1.567 10.187-.955 13.3 1.567 2.547 2.06 3.694 5.313 3.322 9.402-.254 2.776-1.624 3.895-2.726 4.358-.745.298-1.757.418-2.89.268-1.995 3.88-6.285 5.88-10.782 7.97-2.547 1.179-5.183 2.402-7.537 4.029-3.291 2.254-5.227 7.492-4.72 12.715.49 5.03 3.052 8.894 7.029 10.61 1.355.583 2.89.926 4.557 1.016l-.06.567c-1.727-.09-3.32-.433-4.75-1.06Zm8.966-43.652c-.343 1.508.536 3.343 2.353 4.895 1.504 1.284 3.142 2.015 4.602 2.299.357-.762.61-1.597.76-2.523.744-4.536-1.356-7.088-3.605-7.536a3.315 3.315 0 0 0-.744-.075c-1.832 0-3.009 1.448-3.366 2.94Z" id="Vector" fill="#EAEAFF" opacity=".55" mask="url(#mask-15)"/>
              <path d="M53.856 124.284c-1.564-.746-2.324-2.611-2.145-5.268.238-3.552 2.055-8.044 4.84-12.013 3.188-4.522 7.209-7.73 11.35-9.074 2.472-.79 4.602-.94 6.344-.776 4.26-2.298 9.13-5.402 12.258-12.118.774-1.642.849-3.626.223-5.73l.536-.165c.655 2.224.581 4.343-.253 6.119-3.038 6.536-7.655 9.7-11.81 11.998.893.15 1.667.374 2.293.612 2.517.94 4.423 2.642 5.198 4.671.893 2.329.327 5.507-3.932 7.447-4.96 2.254-9.502 1.164-11.796-.91-1.534-1.388-2.07-3.179-1.49-4.925.969-2.895 3.888-4.432 7.284-6.208.178-.09.357-.18.536-.284-1.49-.03-3.247.18-5.213.806-9.01 2.91-15.37 14.133-15.802 20.58-.12 1.701.12 3.895 1.832 4.716 4.215 2.015 9.19 1.462 13.985.94l.834-.09.06.553-.834.09c-2.234.283-4.498.522-6.703.522-2.65 0-5.227-.359-7.595-1.493Zm19.153-25.833c-3.41 1.791-6.121 3.209-7 5.895-.506 1.522-.03 3.104 1.34 4.328 2.16 1.955 6.464 2.955 11.185.82 3.277-1.491 4.677-4.058 3.65-6.73-.73-1.88-2.503-3.462-4.87-4.342a11.91 11.91 0 0 0-2.965-.687c-.461.239-.908.478-1.34.716Z" id="Vector" fill="#EAEAFF" opacity=".55" mask="url(#mask-15)"/>
              <path d="M80.739 83.304c-2.443-1.239-4.454-3.209-5.496-5.432-1.043-2.21-.938-4.283.253-5.283l.358.432c-.998.821-1.043 2.627-.105 4.612 1.49 3.164 6.42 8.044 15.445 6.298l.104.552c-1.28.239-2.532.358-3.738.358-2.487 0-4.796-.522-6.821-1.537Z" id="Vector" fill="#EAEAFF" fill-rule="nonzero" opacity=".55" mask="url(#mask-15)"/>
              <path d="M98.954 100.899v.567H76.956v-.567h21.998Z" id="Vector" fill="#EAEAFF" mask="url(#mask-15)"/>
              <path d="M61.675 46.711s.134-.701.983-.701c.556 0 .883.233.983.701m-8.966-.283s.417-.836 1.117-.702c.467.09.745.368.834.836" id="Vector" fill="#FFF" fill-rule="nonzero" mask="url(#mask-15)"/>
              <path d="M58.398 48.383c-.149.402-.313.82-.432 1.238-.06.194-.104.418-.09.597.03.164.165.314.343.418.358.224.79.343 1.207.448-.224 0-.447-.015-.67-.06a2.58 2.58 0 0 1-.656-.209c-.044-.03-.104-.06-.149-.09a1.044 1.044 0 0 1-.149-.119.714.714 0 0 1-.193-.343c-.045-.269.03-.493.074-.716.12-.433.298-.851.507-1.254.208-.403.432-.791.685-1.15-.15.419-.313.822-.477 1.24Z" id="Vector" fill="#1F1F39" fill-rule="nonzero" mask="url(#mask-15)"/>
              <path d="M58.175 53.173s1.117.836 2.234.567c.745-.189 1.167-.517 1.266-.985" id="Vector" fill="#FFF" fill-rule="nonzero" mask="url(#mask-15)"/>
              <path d="M55.24 49.95c-.46 0-.834-.475-.834-1.06 0-.585.374-1.06.835-1.06.46 0 .834.475.834 1.06 0 .585-.374 1.06-.834 1.06Zm7.418 0c-.46 0-.834-.475-.834-1.06 0-.585.373-1.06.834-1.06.46 0 .834.475.834 1.06 0 .585-.374 1.06-.834 1.06Z" id="Vector" fill="#1F1F39" mask="url(#mask-15)"/>
              <path d="M65.361 55.778c-1.03 0-1.865-1.347-1.865-3.009s.835-3.009 1.865-3.009 1.866 1.347 1.866 3.009-.836 3.009-1.866 3.009Z" id="Vector" fill="#C43D28" mask="url(#mask-15)" transform="rotate(-85.132 65.361 52.769)"/>
              <path d="M.508 31.774a1.705 1.705 0 0 1 0-2.418L29.298.51a1.697 1.697 0 0 1 2.412 0l2.338 2.343c.67.671.67 1.746 0 2.418L5.258 34.117a1.697 1.697 0 0 1-2.412 0L.508 31.774Z" id="Vector" fill="#EAEAFF" fill-rule="nonzero" mask="url(#mask-15)"/>
              <path d="M.508 31.774a1.705 1.705 0 0 1 0-2.418L29.298.51a1.697 1.697 0 0 1 2.412 0l2.338 2.343c.67.671.67 1.746 0 2.418L5.258 34.117a1.697 1.697 0 0 1-2.412 0L.508 31.774Z" id="Vector" fill-rule="nonzero" mask="url(#mask-15)"/>
              <g id="Group" mask="url(#mask-15)" fill="#FFFFFE" fill-rule="nonzero">
                <path d="m22.31 0-1.087 1.09 2.994 3.014a.772.772 0 0 0 1.087 0 .776.776 0 0 0 0-1.09L22.311 0Zm-3.767 3.776 2.993 3.014a.772.772 0 0 0 1.088 0 .776.776 0 0 0 0-1.09L19.63 2.687l-1.087 1.09ZM16.16 6.163l2.993 3.015a.772.772 0 0 0 1.088 0 .776.776 0 0 0 0-1.09l-2.994-3.014-1.087 1.09Zm-2.83 2.836 2.993 3.015a.772.772 0 0 0 1.088 0 .776.776 0 0 0 0-1.09L14.417 7.91 13.33 8.999Zm-2.681 2.686 2.994 3.015a.772.772 0 0 0 1.087 0 .776.776 0 0 0 0-1.09l-2.994-3.014-1.087 1.09Zm-2.383 2.388 2.994 3.015a.772.772 0 0 0 1.087 0 .776.776 0 0 0 0-1.09l-2.994-3.014-1.087 1.089Zm-3.202 3.209 2.994 3.014a.772.772 0 0 0 1.087 0 .776.776 0 0 0 0-1.09L6.15 16.193l-1.087 1.09Zm-2.681 2.686 2.994 3.014a.772.772 0 0 0 1.087 0 .776.776 0 0 0 0-1.089L3.47 18.878l-1.087 1.09ZM0 22.356l2.994 3.014a.772.772 0 0 0 1.087 0 .776.776 0 0 0 0-1.09l-2.994-3.014L0 22.356Z" transform="translate(5.034 2.448)" id="Vector"/>
              </g>
              <path d="M11.513 28.609s.283-2.955 1.534-4.91c.834-1.304 1.673-2.1 2.517-2.388-2.611-1.78-3.962-3.512-4.051-5.193-.134-2.523 1.683-2.672 2.517-2.105.834.567 3.366 3.507 4.766 4.358 1.4.85 3.083.985 3.649 4.074.377 2.06-1.162 4.776-4.617 8.148" id="Vector" fill="#DA5742" fill-rule="nonzero" mask="url(#mask-15)"/>
              <path d="M1.728 21.729c-.834 2.104 1.817 5.193 3.083 5.76 1.266.567 2.383.135 3.083-.417.466-.369.7-.93.7-1.687.933.09 1.727-.144 2.383-.701.655-.557.888-1.304.7-2.239.844.09 1.499-.189 1.966-.836.7-.984.134-3.656-1.907-5.312-1.296-1.06-2.993-1.597-3.991-.747-1.847 1.582-5.481 4.806-6.017 6.179Z" id="Vector" fill="#DA5742" fill-rule="nonzero" mask="url(#mask-15)"/>
              <path d="M11.706 22.52 7.79 18.31a.14.14 0 0 1 0-.194.139.139 0 0 1 .194 0l3.932 4.224a.14.14 0 0 1 0 .194c-.03.03-.075.03-.104.03a.135.135 0 0 1-.105-.045ZM8.49 25.475 4.84 21.4c-.044-.06-.044-.15.015-.194.06-.045.15-.045.194.014l3.649 4.075c.045.06.045.149-.015.194a.211.211 0 0 1-.09.03.135.135 0 0 1-.104-.045Z" id="Vector" fill="#1F1F39" fill-rule="nonzero" mask="url(#mask-15)"/>
              <path d="M11.81 28.743c-.089-.015-.148-.075-.133-.15.014-.119.297-2.999 1.563-4.969.954-1.492 1.907-2.104 2.354-2.328-.045-.03-.09-.06-.134-.075-1.088-.671-3.62-2.268-3.783-5.089 0-.074.06-.149.134-.149.074 0 .149.06.149.135.149 2.67 2.517 4.148 3.649 4.865.134.09.253.164.357.223l.238.165-.268.09c-.015 0-1.236.432-2.442 2.327-1.222 1.91-1.52 4.82-1.52 4.85a.183.183 0 0 1-.163.105c-.01 0-.01 0 0 0Z" id="Vector" fill="#1F1F39" fill-rule="nonzero" mask="url(#mask-15)"/>
              <path d="M46.938 77.41v.566H18.872v-.566h28.066Z" id="Vector" fill="#EAEAFF" mask="url(#mask-15)" transform="rotate(-53.5 32.905 77.693)"/>
              <path d="M59.44 62.858c-1.176-.238-1.95-.283-2.516-.417l-.685 4.611c1.087-.09 2.472-.343 3.753-.955 1.777-.846 3.043-1.97 3.798-3.373-1.023.468-2.473.512-4.35.134Z" id="Vector" fill="#C43D28" fill-rule="nonzero" mask="url(#mask-15)"/>
              <path d="M60.424 63.142c-2.1-.134-3.515-.567-3.53-.567-.075-.015-.12-.105-.09-.18.015-.074.105-.119.18-.089.014 0 1.414.418 3.47.552 1.36.09 2.412 0 3.157-.268.074-.03.149.015.179.09.03.074-.015.149-.09.178-.044 0-.878.314-2.427.314-.268 0-.551-.015-.85-.03Z" id="Vector" fill="#1F1F39" fill-rule="nonzero" mask="url(#mask-15)"/>
              <path d="M70.64 56.113a7.743 7.743 0 0 1 1.4-3.373c-1.062 0-1.935.985-2.62 2.955-.64 1.836-.656 3.015-.581 3.656.119-.015.863-.044 1.832-.313-.105-.642-.209-1.761-.03-2.925Z" id="Vector" fill="#C43D28" fill-rule="nonzero" mask="url(#mask-15)"/>
              <path d="M68.973 57.949c-.09-.015-.15-.075-.134-.15 0-.06.149-1.582.849-3.134.715-1.567 2.502-2.552 2.576-2.596.075-.03.15-.015.194.06.045.074.015.149-.06.193-.015.015-1.787.985-2.457 2.463a10.685 10.685 0 0 0-.834 3.044c-.015.06-.075.12-.134.12-.015 0-.015 0 0 0Z" id="Vector" fill="#1F1F39" fill-rule="nonzero" mask="url(#mask-15)"/>
              <g id="Group" mask="url(#mask-15)">
                <g transform="translate(17.217 66.634)">
                  <path d="m8.996 60.829 40.6-6.03L0 0l8.996 60.829Zm26.54-12.044L14.06 51.98 9.294 19.804l26.242 28.981Z" id="Vector" fill="#EAEAFF"/>
                  <g id="Group" stroke-width="1" fill="#FFFFFE" transform="translate(2.785 17.811)" fill-rule="nonzero">
                    <path d="m6.598 22.229-3.292.492.224 1.523 3.291-.493a.743.743 0 0 0 .656-.865.784.784 0 0 0-.88-.657ZM5.51 14.827l-3.306.492.224 1.522 3.306-.492a.77.77 0 0 0 .655-.866.784.784 0 0 0-.878-.656Zm.552 3.701-3.292.492.224 1.523 3.291-.493a.77.77 0 0 0 .655-.865.784.784 0 0 0-.878-.657ZM7.7 29.631l-3.277.493.224 1.522 3.276-.493c.432-.044.715-.447.656-.865a.784.784 0 0 0-.879-.657ZM4.96 11.126l-3.307.492.224 1.522 3.306-.492a.76.76 0 0 0 .655-.866.784.784 0 0 0-.878-.656ZM7.149 25.93l-3.292.492.224 1.523 3.276-.493a.753.753 0 0 0 .67-.865.784.784 0 0 0-.878-.657ZM3.321.008 0 .5l.223 1.522 3.322-.492c.417-.045.715-.448.655-.866a.784.784 0 0 0-.879-.656Zm4.93 33.324-3.277.493.224 1.522 3.276-.493c.417-.044.715-.447.656-.865a.784.784 0 0 0-.879-.657ZM3.857 3.709.537 4.2.76 5.723l3.32-.492a.735.735 0 0 0 .656-.866.784.784 0 0 0-.879-.656Zm.551 3.716-3.306.492.223 1.522 3.307-.492a.76.76 0 0 0 .655-.866.784.784 0 0 0-.879-.656Z" id="Vector"/>
                  </g>
                </g>
              </g>
              <g id="Group" mask="url(#mask-15)">
                <g transform="translate(25.397 87.542)">
                  <path d="M73.259 31.474c-.7 7.865-2.95 14.461-12.75 15.162-9.8.702-23.68-7.163-30.531-14.46-4.568-4.866-9.612-10.014-15.132-15.447-1.867 0-3.594.279-5.183.836-2.383.836-4.35.702-4.9.134-.377-.378-.516-.706-.417-.985-1.122-.089-1.822-.512-2.1-1.268-.278-.746-.278-1.308 0-1.686-1.31-.09-2.056-.836-2.234-2.24-.283-2.104 4.617-4.626 6.583-5.477 1.31-.557 2.944-.98 4.9-1.268-2.056-.468-3.739-.468-5.05 0-1.965.701-3.082-.135-3.082-1.403S5.88 0 9.946 0c4.066 0 10.649 2.806 14.149 5.895 2.333 2.06 11.954 7.019 28.864 14.879l-.566-3.373h20.732v.03c.556 4.119.6 8.8.134 14.043Z" id="Vector" fill="#DA5742" fill-rule="nonzero"/>
                  <path d="M2.141 13.864a.142.142 0 0 1 .03-.194c.03-.015 2.413-1.85 4.632-3.238 2.234-1.403 3.768-1.687 3.828-1.702.074-.015.149.03.164.12.015.074-.03.149-.12.164-.014 0-1.548.298-3.738 1.671-2.204 1.388-4.587 3.209-4.617 3.224-.015 0-.044.015-.074.015-.045 0-.09-.015-.105-.06Zm2.086 2.94a.142.142 0 0 1 .03-.194c.03-.015 2.695-1.985 5.078-2.97 2.383-.985 3.113-1 3.143-1a.134.134 0 0 1 0 .269c-.487.01-1.495.333-3.024.97-2.338.97-4.989 2.91-5.019 2.925-.03.06-.06.06-.09.06a.135.135 0 0 1-.118-.06Z" id="Vector" fill="#1F1F39" fill-rule="nonzero"/>
                  <path d="m52.393 17.43.566 3.374 20.345-1.776-.18-1.597h-20.73Z" id="Vector" fill="#C43D28" fill-rule="nonzero"/>
                  <g id="Group" stroke-width="1" fill="#1F1F39" fill-rule="evenodd" transform="translate(49.522 19.21)">
                    <path id="Vector" d="M7.771 3.414.146.146"/>
                    <path d="M7.711 3.533.086.265A.138.138 0 1 1 .19.011L7.815 3.28c.074.03.104.12.074.179-.015.06-.06.09-.119.09-.015 0-.03 0-.06-.016Z" id="Vector" fill-rule="nonzero"/>
                  </g>
                </g>
              </g>
              <g id="Group" mask="url(#mask-15)" fill="#1F1F39">
                <g id="Vector">
                  <path d="m.137.137 3.5 18.804" transform="translate(74.719 89.39)"/>
                  <path d="M3.503 18.97.003.168A.137.137 0 0 1 .122.003c.074-.015.149.03.164.12l3.5 18.803c.015.075-.03.15-.12.164h-.03c-.059 0-.118-.045-.133-.12Z" fill-rule="nonzero" transform="translate(74.719 89.39)"/>
                </g>
              </g>
              <path d="M53.617 50.457c-.715-.06-1.37.03-1.906.254-.06.925-.09 1.955-.06 3a4.566 4.566 0 0 0 1.654.462c1.668.134 3.083-.582 3.157-1.612.09-1.03-1.192-1.97-2.845-2.104Z" id="Vector" fill="#C43D28" fill-rule="nonzero" mask="url(#mask-15)"/>
              <path d="M96.534 20.357a2.985 2.985 0 1 0 0-5.971 2.985 2.985 0 0 0 0 5.97Z" id="Ellipse-73" fill="#FFF" opacity=".52" mask="url(#mask-15)"/>
            </g>
          </g>
        </g>
        <g id="button" transform="translate(18.152 104.5)">
          <path d="M4 0h77a4 4 0 0 1 4 4v23a4 4 0 0 1-4 4H4a4 4 0 0 1-4-4V4a4 4 0 0 1 4-4Z" id="Rectangle-76" fill="#FF6905"/>
          <text id="시작하기" font-family="NanumGothicBold, Nanum Gothic" font-size="12" font-weight="bold" fill="#FFF">
                            <tspan x="20" y="20">시작하기</tspan>
                        </text>
        </g>
        <text id="화상채팅-사용법" font-family="NanumGothic, Nanum Gothic" font-size="16" font-weight="normal" fill="#1F1F39">
                        <tspan x="18.152" y="33.5">화상채팅 사용법</tspan>
                    </text>
      </g>
      <g transform="translate(281 249)">
        <path d="M16 0h217c8.837 0 16 7.163 16 16v122c0 8.837-7.163 16-16 16H16c-8.837 0-16-7.163-16-16V16C0 7.163 7.163 0 16 0Z" id="bg" fill="#BFE4C6"/>
        <g id="illustration">
          <mask id="mask-17" fill="#fff">
            <use xlink:href="#path-16"/>
          </mask>
          <use id="Rectangle-75" fill="#CEECFE" xlink:href="#path-16"/>
        </g>
        <g id="illustration" transform="translate(18.677 25.754)">
          <path d="M68.403 91.235c0-.155.113-.283.269-.297a17.22 17.22 0 0 0 1.669-.127.285.285 0 0 1 .311.255.285.285 0 0 1-.254.31 36.15 36.15 0 0 1-1.712.128c.01 0 .01 0 0 0-.156 0-.283-.113-.283-.269Zm-1.429.255a12.415 12.415 0 0 1-1.697-.198h-.014a.276.276 0 0 1-.226-.325.276.276 0 0 1 .325-.227h.028c.495.1 1.047.156 1.627.184a.294.294 0 0 1 .269.297.305.305 0 0 1-.297.269h-.015Zm4.81-.594a.287.287 0 0 1 .226-.326c.538-.084 1.09-.198 1.655-.31a.3.3 0 0 1 .34.211.3.3 0 0 1-.213.34 24.95 24.95 0 0 1-1.683.311c-.014.014-.028.014-.042.014a.288.288 0 0 1-.283-.24Zm-8.204.014a18.522 18.522 0 0 1-1.641-.495c-.142-.057-.226-.212-.17-.354.057-.141.212-.226.354-.17.523.184 1.06.34 1.598.481.156.043.24.198.198.34a.273.273 0 0 1-.269.212c-.028 0-.042 0-.07-.014Zm11.542-.679a.271.271 0 0 1 .212-.34 47.412 47.412 0 0 0 1.627-.438.283.283 0 0 1 .353.198.283.283 0 0 1-.198.354c-.551.155-1.117.31-1.655.438h-.07a.273.273 0 0 1-.27-.212Zm-14.782-.453A19.645 19.645 0 0 1 58.8 89c-.142-.07-.184-.254-.114-.382.071-.141.255-.183.382-.113.481.27.976.524 1.486.75.141.07.212.226.141.368a.255.255 0 0 1-.24.184.266.266 0 0 1-.114-.029Zm18.05-.466c-.043-.156.028-.312.183-.354.524-.17 1.061-.34 1.613-.538a.273.273 0 0 1 .353.17c.043.142-.028.311-.17.354-.537.184-1.088.368-1.626.537-.028.014-.057.029-.085.029a.284.284 0 0 1-.269-.198Zm3.21-1.104a.282.282 0 0 1 .17-.367c.523-.199 1.047-.397 1.584-.609a.287.287 0 0 1 .368.156.287.287 0 0 1-.156.368c-.537.212-1.075.41-1.598.608-.028.028-.07.028-.099.028a.29.29 0 0 1-.269-.184Zm-24.258-.127a19.68 19.68 0 0 1-1.358-1.075.287.287 0 0 1-.028-.396.287.287 0 0 1 .396-.028c.41.367.848.707 1.3 1.032.128.085.156.269.072.396a.233.233 0 0 1-.213.128.272.272 0 0 1-.17-.057Zm91.206-.184a.276.276 0 0 1-.226-.325.276.276 0 0 1 .325-.227c.524.085 1.061.1 1.613.029.156-.014.297.085.311.24.014.156-.085.297-.24.311a7.729 7.729 0 0 1-.792.057 5.85 5.85 0 0 1-.99-.085Zm3.112-.58a.287.287 0 0 1 .156-.368c.48-.184.976-.438 1.471-.75a.293.293 0 0 1 .396.086.293.293 0 0 1-.085.396 9.505 9.505 0 0 1-1.556.792c-.056.014-.085.028-.113.028a.29.29 0 0 1-.269-.184Zm-4.795.014a8.181 8.181 0 0 1-1.47-.962.276.276 0 0 1-.043-.396.276.276 0 0 1 .396-.042c.438.368.905.665 1.358.891.141.07.198.24.127.382a.261.261 0 0 1-.24.156c-.043 0-.085-.015-.128-.029Zm-62.096-.353a.287.287 0 0 1 .155-.368 51.406 51.406 0 0 0 1.556-.665c.142-.056.312 0 .368.142.057.141 0 .31-.141.367a72.2 72.2 0 0 1-1.57.665c-.029.028-.071.028-.114.028a.28.28 0 0 1-.254-.17Zm-30.016-1.189a16.72 16.72 0 0 1-1.089-1.343c-.099-.128-.07-.297.057-.396.127-.1.297-.071.396.056.325.453.679.877 1.046 1.287.1.114.1.297-.014.396a.206.206 0 0 1-.184.1.273.273 0 0 1-.212-.1Zm33.128-.17c-.071-.14 0-.31.141-.381.51-.24 1.033-.481 1.528-.722a.283.283 0 0 1 .382.128.283.283 0 0 1-.128.382c-.509.24-1.032.495-1.541.721a.228.228 0 0 1-.128.042.259.259 0 0 1-.254-.17Zm66.721.029a.275.275 0 0 1 .043-.396c.41-.34.834-.707 1.245-1.117a.273.273 0 0 1 .396 0 .273.273 0 0 1 0 .396c-.425.424-.849.806-1.273 1.16a.607.607 0 0 1-.198.056.276.276 0 0 1-.213-.099Zm-10.453-.495a15.928 15.928 0 0 1-.834-1.047c-.071-.099-.156-.212-.227-.31a.292.292 0 0 1 .071-.397c.127-.085.311-.057.396.07.071.1.142.199.227.312.254.368.523.707.806 1.004a.287.287 0 0 1-.028.396.338.338 0 0 1-.199.071.254.254 0 0 1-.212-.099Zm-53.199-.99a.283.283 0 0 1 .127-.382c.496-.255 1.005-.51 1.514-.764a.283.283 0 0 1 .382.127.283.283 0 0 1-.127.382c-.51.255-1.019.524-1.514.778-.042 0-.085.014-.127.014a.298.298 0 0 1-.255-.155Zm66.1-.877a.287.287 0 0 1-.029-.396c.354-.425.707-.863 1.047-1.316.099-.127.269-.155.396-.056s.156.268.057.396c-.34.467-.708.92-1.075 1.344a.33.33 0 0 1-.213.099.298.298 0 0 1-.183-.071Zm-104.32-.269a14.29 14.29 0 0 1-.778-1.542c-.056-.141 0-.31.142-.367.141-.057.311 0 .368.141.226.51.48 1.004.75 1.485.07.142.028.311-.1.382a.273.273 0 0 1-.141.043.274.274 0 0 1-.24-.142Zm41.247-.424c-.07-.142-.028-.311.113-.382l1.486-.806c.141-.071.31-.029.381.113.071.141.029.31-.113.382-.495.268-.99.551-1.485.806-.042.042-.085.042-.127.042a.298.298 0 0 1-.255-.155Zm48.164-.212a25.59 25.59 0 0 1-.891-1.472c-.071-.141-.029-.31.113-.381.141-.071.311-.029.382.113.254.452.537.933.863 1.443a.293.293 0 0 1-.085.396.503.503 0 0 1-.142.028.278.278 0 0 1-.24-.127Zm-45.193-1.415c-.071-.141-.029-.311.099-.382.48-.283.976-.566 1.47-.849a.274.274 0 0 1 .383.1.274.274 0 0 1-.1.381c-.494.297-.99.58-1.47.863-.043.014-.085.029-.142.029a.274.274 0 0 1-.24-.142ZM51.33 79.863c-.184-.538-.34-1.09-.467-1.655-.028-.156.057-.311.212-.34.156-.028.312.057.34.212.127.552.283 1.09.453 1.613.042.141-.029.311-.184.354a.184.184 0 0 1-.085.014.284.284 0 0 1-.269-.198Zm89.156-.495a10.305 10.305 0 0 1-.552-1.655.288.288 0 0 1 .212-.34.288.288 0 0 1 .34.212c.113.495.283 1.005.523 1.556.057.142 0 .312-.155.368a.266.266 0 0 1-.114.028.28.28 0 0 1-.254-.17Zm-40.61-.128a.285.285 0 0 1 .099-.396l1.442-.89a.293.293 0 0 1 .396.084.293.293 0 0 1-.084.396c-.481.297-.962.608-1.443.891a.301.301 0 0 1-.17.057.263.263 0 0 1-.24-.142Zm2.885-1.796a.293.293 0 0 1 .085-.396c.481-.311.948-.622 1.415-.934a.29.29 0 0 1 .396.071c.084.127.056.311-.071.396-.467.311-.948.623-1.415.934a.337.337 0 0 1-.17.056.278.278 0 0 1-.24-.127Zm-52.209-.934a16.695 16.695 0 0 1-.17-1.711.275.275 0 0 1 .27-.297.275.275 0 0 1 .296.269c.028.565.085 1.117.17 1.669.028.155-.085.297-.24.325-.015-.014-.029-.014-.043-.014a.288.288 0 0 1-.283-.24Zm89.481-.268c-.155-.014-.283-.142-.269-.297.029-.58.142-1.146.354-1.74a.289.289 0 0 1 .368-.17.289.289 0 0 1 .17.368 5.275 5.275 0 0 0-.326 1.57c-.014.155-.127.269-.283.269h-.014Zm-34.443-.693c-.085-.128-.056-.312.07-.397.468-.325.934-.65 1.387-.976a.292.292 0 0 1 .396.071.292.292 0 0 1-.07.396c-.453.326-.92.665-1.387.976a.272.272 0 0 1-.17.057c-.084 0-.183-.043-.226-.127Zm2.758-1.967c-.099-.127-.07-.297.057-.396.453-.34.905-.679 1.344-1.018.127-.1.297-.07.396.056.099.128.07.298-.057.397-.438.339-.905.693-1.358 1.032-.042.014-.099.043-.155.043a.295.295 0 0 1-.227-.114Zm-58.008-.495c.014-.565.028-1.131.085-1.711a.277.277 0 0 1 .311-.255.285.285 0 0 1 .255.311 33.843 33.843 0 0 0-.085 1.67.284.284 0 0 1-.566-.014Zm90.64-.07c-.14-.085-.183-.255-.098-.382.24-.41.537-.877.933-1.443a.29.29 0 0 1 .396-.07c.128.084.156.268.071.395-.382.566-.679 1.005-.905 1.4a.284.284 0 0 1-.396.1Zm-29.944-1.514c-.099-.127-.085-.297.042-.396.439-.354.892-.721 1.316-1.075.127-.099.297-.085.396.042a.276.276 0 0 1-.042.397c-.425.353-.877.72-1.316 1.075a.234.234 0 0 1-.17.07.295.295 0 0 1-.226-.113Zm31.812-1.301a.289.289 0 0 1-.07-.396c.296-.425.622-.891.961-1.387.085-.127.269-.155.396-.07a.289.289 0 0 1 .07.396c-.339.509-.678.976-.975 1.4-.028.07-.113.113-.212.113a.272.272 0 0 1-.17-.056Zm-91.985-.212a.297.297 0 0 1-.24-.326 38.34 38.34 0 0 1 .297-1.683.29.29 0 0 1 .34-.226.29.29 0 0 1 .226.34 33.849 33.849 0 0 0-.297 1.654.3.3 0 0 1-.283.24h-.043Zm62.804-.651a.287.287 0 0 1 .028-.396c.425-.368.849-.75 1.26-1.132.112-.099.296-.099.395.014.1.114.1.297-.014.396-.41.382-.835.764-1.273 1.132a.274.274 0 0 1-.184.085.255.255 0 0 1-.212-.1Zm31.105-1.938a.29.29 0 0 1-.085-.396c.311-.48.594-.962.863-1.443a.266.266 0 0 1 .382-.099c.141.07.183.255.099.382-.283.495-.566.976-.877 1.457-.043.1-.128.141-.227.141a.322.322 0 0 1-.155-.042Zm-28.587-.34a.273.273 0 0 1 .014-.395c.41-.397.82-.793 1.202-1.189a.273.273 0 0 1 .396 0 .273.273 0 0 1 0 .396c-.382.396-.792.807-1.216 1.203a.338.338 0 0 1-.198.07.28.28 0 0 1-.198-.084Zm-64.671-.41a.274.274 0 0 1-.198-.34c.141-.537.311-1.088.48-1.64.043-.156.213-.226.355-.184.155.043.226.212.183.354a34.82 34.82 0 0 0-.48 1.612.273.273 0 0 1-.27.213c-.028 0-.042 0-.07-.015Zm67.047-2.008a.273.273 0 0 1-.014-.396c.382-.425.764-.849 1.117-1.26a.287.287 0 0 1 .396-.027.287.287 0 0 1 .029.396c-.354.424-.736.848-1.132 1.287a.307.307 0 0 1-.198.07.338.338 0 0 1-.198-.07Zm27.922-.17a.283.283 0 0 1-.127-.382c.07-.141.141-.283.226-.438.17-.34.34-.708.495-1.075a.287.287 0 0 1 .368-.156.287.287 0 0 1 .156.368 13.42 13.42 0 0 1-.51 1.117c-.07.156-.155.297-.226.439a.298.298 0 0 1-.254.155.413.413 0 0 1-.128-.028Zm-93.95-1.047a.289.289 0 0 1-.17-.367c.198-.524.41-1.061.636-1.585a.27.27 0 0 1 .368-.141.27.27 0 0 1 .141.368 45.229 45.229 0 0 0-.636 1.556.242.242 0 0 1-.24.183c-.029 0-.071 0-.1-.014Zm68.249-1.358a.29.29 0 0 1-.057-.396c.354-.452.693-.92.99-1.358.085-.127.27-.155.396-.07.128.085.156.268.071.396-.311.452-.65.92-1.018 1.386a.276.276 0 0 1-.212.099c-.057 0-.128-.014-.17-.057Zm27.06-.707c-.156-.042-.227-.212-.185-.353.17-.524.326-1.061.453-1.613a.288.288 0 0 1 .34-.212c.155.042.24.184.212.34a28.239 28.239 0 0 1-.467 1.654.284.284 0 0 1-.269.198c-.028 0-.057 0-.085-.014Zm-93.994-1.06a.283.283 0 0 1-.127-.383c.127-.268.268-.537.396-.792.127-.24.254-.48.396-.735a.266.266 0 0 1 .382-.1.268.268 0 0 1 .099.383c-.142.24-.27.48-.382.707-.128.254-.269.523-.396.778a.275.275 0 0 1-.24.17.413.413 0 0 1-.128-.029Zm68.886-1.02c-.127-.084-.184-.254-.1-.381.298-.495.567-.99.793-1.471a.283.283 0 0 1 .382-.127c.141.07.198.24.127.381-.24.496-.509 1.005-.82 1.514a.315.315 0 0 1-.24.127.273.273 0 0 1-.142-.042Zm25.956-1.201a.276.276 0 0 1-.226-.326c.099-.551.17-1.103.226-1.669a.285.285 0 0 1 .311-.255.285.285 0 0 1 .255.312 22.257 22.257 0 0 1-.227 1.697c-.042.142-.17.24-.297.24h-.042Zm-93.187-.736a.277.277 0 0 1-.07-.396c.31-.453.65-.92 1.003-1.386a.29.29 0 0 1 .396-.057.29.29 0 0 1 .057.396c-.354.453-.679.92-.99 1.358a.296.296 0 0 1-.396.085Zm68.744-1.09a.289.289 0 0 1-.17-.367c.156-.438.284-.877.383-1.301.028-.1.042-.198.07-.297a.288.288 0 0 1 .34-.212c.155.042.24.183.212.339-.028.099-.043.198-.07.297-.1.439-.241.905-.411 1.372-.028.113-.141.184-.255.184a.24.24 0 0 1-.099-.014Zm24.528-1.838v-.467c0-.41-.014-.806-.029-1.202-.014-.156.114-.283.27-.297.155-.014.282.113.296.269.029.41.043.82.043 1.23v.481a.294.294 0 0 1-.297.269.284.284 0 0 1-.283-.283Zm-91.235.198a.287.287 0 0 1-.029-.396c.354-.424.736-.849 1.132-1.287a.273.273 0 0 1 .396-.014.273.273 0 0 1 .014.396 42.26 42.26 0 0 0-1.117 1.259.235.235 0 0 1-.212.113.298.298 0 0 1-.184-.071Zm67.613-1.627a.283.283 0 0 1-.198-.353c.155-.566.325-1.118.495-1.641.042-.142.212-.226.353-.184.142.042.227.212.184.354-.17.509-.34 1.06-.495 1.612a.271.271 0 0 1-.269.226c-.028 0-.056 0-.07-.014Zm-65.336-.89a.273.273 0 0 1 0-.397c.382-.396.792-.792 1.202-1.202.114-.113.297-.113.396 0 .114.113.114.297 0 .396-.41.41-.82.806-1.202 1.202a.28.28 0 0 1-.198.085.28.28 0 0 1-.198-.085Zm88.746-1.02a18.375 18.375 0 0 0-.326-1.626.273.273 0 0 1 .198-.34.273.273 0 0 1 .34.199c.141.537.254 1.117.34 1.697.027.156-.086.297-.241.325 0-.014-.014-.014-.029-.014a.288.288 0 0 1-.282-.24ZM62.236 49.72a.273.273 0 0 1 .014-.396c.396-.368.82-.764 1.259-1.16.113-.1.297-.1.396.014.099.113.099.297-.014.396-.425.396-.849.778-1.245 1.146a.337.337 0 0 1-.198.085.312.312 0 0 1-.212-.085Zm63.963.042a.287.287 0 0 1-.155-.367c.212-.552.452-1.075.679-1.57a.283.283 0 0 1 .382-.128c.141.07.198.24.127.382a26.528 26.528 0 0 0-.665 1.542.315.315 0 0 1-.269.155.24.24 0 0 1-.099-.014Zm21.529-1.91a10.413 10.413 0 0 0-.707-1.499c-.071-.141-.029-.31.113-.382.141-.07.311-.028.382.114.269.495.523 1.018.735 1.57a.287.287 0 0 1-.155.367c-.029.015-.057.015-.1.015a.29.29 0 0 1-.268-.184Zm-82.988-.438c-.1-.113-.1-.297.028-.396.424-.368.849-.75 1.287-1.117a.287.287 0 0 1 .396.028.287.287 0 0 1-.028.396c-.425.368-.863.75-1.273 1.118a.338.338 0 0 1-.198.07.255.255 0 0 1-.212-.099Zm62.888-.735c-.141-.085-.184-.255-.099-.382.297-.51.622-.99.948-1.443.099-.127.268-.156.396-.057.127.1.155.27.056.396-.31.425-.622.892-.92 1.387a.274.274 0 0 1-.24.141.273.273 0 0 1-.141-.042Zm-60.314-1.486a.287.287 0 0 1 .028-.396c.425-.367.863-.735 1.302-1.103a.287.287 0 0 1 .396.028.287.287 0 0 1-.029.396c-.438.368-.863.736-1.301 1.104a.298.298 0 0 1-.184.07.254.254 0 0 1-.212-.099Zm78.816-.212a9.12 9.12 0 0 0-1.118-1.216.273.273 0 0 1-.014-.396.273.273 0 0 1 .396-.014c.424.396.82.82 1.174 1.287.1.127.07.297-.056.396a.297.297 0 0 1-.156.056.295.295 0 0 1-.226-.113Zm-16.522-1.06a.273.273 0 0 1 0-.397c.41-.424.849-.806 1.302-1.145.127-.1.297-.071.396.056.099.128.07.297-.057.396a11.04 11.04 0 0 0-1.23 1.09.34.34 0 0 1-.213.084.28.28 0 0 1-.198-.085ZM69.917 43a.276.276 0 0 1 .042-.396c.439-.368.877-.721 1.301-1.09a.276.276 0 0 1 .396.043.276.276 0 0 1-.042.396c-.439.368-.877.722-1.301 1.09a.46.46 0 0 1-.184.056.254.254 0 0 1-.212-.099Zm73.794-.24a10.229 10.229 0 0 0-1.457-.778.27.27 0 0 1-.142-.368.27.27 0 0 1 .368-.142c.538.24 1.047.51 1.528.82a.29.29 0 0 1 .085.397c-.043.07-.142.113-.227.113a.322.322 0 0 1-.155-.042Zm-11.458-.934a.283.283 0 0 1 .128-.382 9.353 9.353 0 0 1 1.612-.65.286.286 0 0 1 .354.183.286.286 0 0 1-.184.354c-.523.155-1.033.368-1.528.608-.042.043-.085.043-.127.043a.298.298 0 0 1-.255-.156Zm8.445-.396a12.61 12.61 0 0 0-1.259-.283c-.127-.028-.24-.042-.354-.057a.297.297 0 0 1-.24-.325.297.297 0 0 1 .325-.24c.128.014.255.042.368.056.453.085.891.184 1.316.297.155.043.24.198.198.354a.301.301 0 0 1-.283.212c-.029 0-.057 0-.071-.014Zm-5.248-.679c-.014-.156.085-.297.24-.311.552-.071 1.132-.1 1.74-.085a.27.27 0 0 1 .27.297.275.275 0 0 1-.298.269 12.738 12.738 0 0 0-1.655.07c.014.015 0 .015-.014.015a.278.278 0 0 1-.283-.255Zm-62.93.07a.276.276 0 0 1 .042-.395l1.301-1.09a.287.287 0 0 1 .396.029.287.287 0 0 1-.028.396l-1.302 1.089a.375.375 0 0 1-.198.07.254.254 0 0 1-.212-.098Zm2.602-2.178a.287.287 0 0 1 .028-.396c.439-.367.863-.735 1.287-1.103a.287.287 0 0 1 .396.028.287.287 0 0 1-.028.396c-.424.368-.863.736-1.301 1.104a.234.234 0 0 1-.17.07.255.255 0 0 1-.212-.099Zm2.574-2.22a.287.287 0 0 1 .029-.396c.452-.397.862-.764 1.273-1.132.113-.1.297-.1.396.028.099.113.099.297-.029.396-.396.368-.82.736-1.273 1.132a.269.269 0 0 1-.184.07.254.254 0 0 1-.212-.098Zm2.532-2.264a.273.273 0 0 1 .014-.396c.425-.396.835-.792 1.231-1.16a.286.286 0 0 1 .396 0 .286.286 0 0 1 0 .397c-.396.381-.806.777-1.245 1.174-.042.056-.113.07-.184.07a.312.312 0 0 1-.212-.085Zm2.447-2.362a.273.273 0 0 1 0-.396c.41-.41.807-.834 1.16-1.23a.273.273 0 0 1 .396-.015.273.273 0 0 1 .014.396c-.367.396-.763.82-1.174 1.245-.042.057-.113.085-.198.085a.28.28 0 0 1-.198-.085Zm2.32-2.49c-.113-.098-.141-.282-.028-.395.382-.453.735-.892 1.047-1.316a.277.277 0 0 1 .396-.056.277.277 0 0 1 .056.396c-.325.438-.693.89-1.075 1.343a.273.273 0 0 1-.212.1.298.298 0 0 1-.184-.071Zm2.065-2.687a.29.29 0 0 1-.085-.396c.312-.495.594-.976.835-1.443a.283.283 0 0 1 .382-.127c.141.07.198.24.127.382-.254.48-.537.99-.863 1.485a.278.278 0 0 1-.24.142.322.322 0 0 1-.156-.043Zm1.585-2.984a.289.289 0 0 1-.17-.368 8.727 8.727 0 0 0 .41-1.584.297.297 0 0 1 .325-.24.294.294 0 0 1 .24.324 8.45 8.45 0 0 1-.438 1.684.284.284 0 0 1-.268.198c-.029 0-.057 0-.1-.014ZM57.85 20.935c0-.156.127-.283.283-.283a14.01 14.01 0 0 0 1.655-.141c.155-.029.297.084.325.24.028.156-.085.297-.24.325-.623.085-1.203.128-1.74.142a.284.284 0 0 1-.283-.283Zm-1.457.17a8.101 8.101 0 0 1-1.697-.467.287.287 0 0 1-.156-.368.287.287 0 0 1 .368-.156 7.74 7.74 0 0 0 1.57.439c.155.028.254.17.24.325a.289.289 0 0 1-.283.227h-.042Zm4.823-.58a.271.271 0 0 1 .213-.34c.509-.127 1.06-.269 1.612-.452a.286.286 0 0 1 .354.183.286.286 0 0 1-.184.354c-.58.184-1.132.325-1.655.453-.028.014-.057.014-.07.014a.273.273 0 0 1-.27-.212Zm27.725-.453a6.117 6.117 0 0 0-.354-1.584c-.057-.142.028-.311.17-.368.141-.057.31.028.367.17.198.551.326 1.131.382 1.725a.285.285 0 0 1-.254.312h-.029a.29.29 0 0 1-.282-.255Zm-35.773-.311a7.437 7.437 0 0 1-.99-.905 2.828 2.828 0 0 1-.269-.312.287.287 0 0 1 .028-.396.287.287 0 0 1 .396.029l.255.297c.283.31.594.594.92.848a.29.29 0 0 1 .056.396.334.334 0 0 1-.226.1.272.272 0 0 1-.17-.057Zm11.288-.184c-.057-.141.028-.311.17-.368.494-.184 1.018-.368 1.584-.594a.287.287 0 0 1 .367.156.287.287 0 0 1-.155.367c-.566.227-1.09.425-1.599.595a.204.204 0 0 1-.099.028.29.29 0 0 1-.268-.184Zm3.168-1.217a.287.287 0 0 1 .156-.367c.523-.212 1.046-.439 1.57-.651a.287.287 0 0 1 .368.156.287.287 0 0 1-.156.367c-.523.227-1.047.439-1.57.651-.028 0-.057.014-.1.014a.317.317 0 0 1-.268-.17ZM50.85 17.172a14.76 14.76 0 0 1-.877-1.5.283.283 0 0 1 .127-.381.283.283 0 0 1 .382.127c.24.481.524.962.835 1.429.085.127.057.311-.07.396a.236.236 0 0 1-.156.057.296.296 0 0 1-.24-.128Zm19.93-.127a.287.287 0 0 1 .156-.368 73.687 73.687 0 0 1 1.57-.65.287.287 0 0 1 .368.155.287.287 0 0 1-.156.368c-.523.212-1.046.424-1.57.65-.042 0-.085.015-.113.015a.28.28 0 0 1-.255-.17Zm17.073 0a7.116 7.116 0 0 0-1.032-1.259.273.273 0 0 1 0-.396.273.273 0 0 1 .396 0c.396.396.778.849 1.117 1.358a.293.293 0 0 1-.085.396c-.056.014-.099.028-.155.028a.278.278 0 0 1-.24-.127Zm-13.947-1.287a.287.287 0 0 1 .156-.368c.58-.226 1.103-.41 1.598-.594a.273.273 0 0 1 .354.17.273.273 0 0 1-.17.353c-.495.17-1.018.368-1.584.58-.014.029-.042.043-.085.043a.29.29 0 0 1-.269-.184Zm11.613-.934a6.1 6.1 0 0 0-1.513-.58.288.288 0 0 1-.212-.34.288.288 0 0 1 .34-.211 6.48 6.48 0 0 1 1.654.636c.142.07.184.24.113.382a.274.274 0 0 1-.24.142.503.503 0 0 1-.142-.029Zm-8.402-.198a.283.283 0 0 1 .198-.353c.58-.17 1.146-.312 1.67-.439a.288.288 0 0 1 .339.212.288.288 0 0 1-.212.34 22.95 22.95 0 0 0-1.627.424c-.042.014-.07.014-.099.014a.276.276 0 0 1-.269-.198Zm-27.794-.566a11.762 11.762 0 0 1-.382-1.697c-.029-.156.084-.297.24-.325.156-.029.297.085.325.24a9.47 9.47 0 0 0 .368 1.613.286.286 0 0 1-.184.353c-.042.014-.07.014-.099.014a.272.272 0 0 1-.268-.198Zm31.104-.198a.285.285 0 0 1 .255-.31 12.34 12.34 0 0 1 1.74-.086c.155 0 .283.142.268.297a.275.275 0 0 1-.297.27 11.189 11.189 0 0 0-1.655.084h-.028a.278.278 0 0 1-.283-.255ZM49.138 10.92c-.17 0-.283-.141-.283-.297a12.08 12.08 0 0 1 .184-1.725.276.276 0 0 1 .325-.227c.156.028.255.17.226.326-.099.551-.17 1.103-.184 1.64 0 .156-.127.283-.268.283-.015 0-.015 0 0 0Zm.523-3.352c-.141-.043-.226-.212-.184-.354.184-.537.396-1.075.65-1.612a.302.302 0 0 1 .383-.142c.141.071.198.24.141.382-.24.51-.452 1.033-.622 1.542a.316.316 0 0 1-.283.198c-.028 0-.057 0-.085-.014Zm1.372-3.098c-.127-.085-.184-.254-.099-.382.297-.48.608-.962.962-1.428.099-.128.269-.156.396-.057s.156.269.057.396c-.34.453-.651.92-.934 1.386-.042.085-.141.128-.24.128a.239.239 0 0 1-.142-.043ZM53 1.712a.287.287 0 0 1-.028-.396C53.664.524 54.159.086 54.173.07c.113-.099.297-.099.396.028.1.114.1.297-.028.396-.33.293-.717.694-1.16 1.203a.287.287 0 0 1-.198.085.298.298 0 0 1-.184-.071Z" id="Vector" fill="#5DB571"/>
          <path d="m76.96 89.665-3.818 24.33h65.774l-4.81-20.228 15.843-1.414c-4.527-15.088-11.316-25.084-20.369-29.988-13.579-7.355-33.1-6.93-45.264-.99-7.497 3.664-19.661 16.833-21.924 28.29H76.96Z" id="Vector" fill="#3D5CFF" fill-rule="nonzero"/>
          <path d="m76.96 89.665-3.818 24.33h65.774l-4.81-20.228 15.843-1.414c-2.452-13.58-9.241-23.575-20.369-29.988-13.381-7.709-32.915-6.563-45.264-.99-8.77 3.96-18.388 13.862-21.924 28.29H76.96Z" id="Vector" fill="#3D5CFF" fill-rule="nonzero"/>
          <path d="M57.681 47.74c-1.598.622-2.404 2.418-1.782 4.017l2.9 7.539c.622 1.598 2.419 2.405 4.017 1.782l6.224-2.404a.241.241 0 0 1 .141 0l7.554 3.083a.76.76 0 0 0 .679-.056c.014 0 .014-.015.028-.015h.014a.93.93 0 0 0 .538-1.202L76.296 56.1c-.042-.099.014-.212.113-.254l3.706-1.429c1.599-.622 2.405-2.419 1.783-4.017l-2.9-7.54a3.104 3.104 0 0 0-4.017-1.782l-17.3 6.663Zm12.024 7.044a.128.128 0 0 1-.071.014l-3.183.113a.506.506 0 0 1-.509-.34l-1.966-5.106a.516.516 0 0 1 .297-.679c.057-.028.113-.028.17-.042l2.815-.113c.212 0 .41.127.495.325l2.093 5.502a.263.263 0 0 1-.141.326Zm1.145-.467a.244.244 0 0 1-.34-.028c-.013-.014-.027-.043-.042-.071l-2.121-5.502a.53.53 0 0 1 .141-.566l2.15-1.81a.519.519 0 0 1 .736.07c.028.042.07.085.085.141l1.966 5.12a.46.46 0 0 1-.128.595l-2.447 2.051Z" id="Vector" fill="#FFF"/>
          <path d="m76.607 91.9.594.156 4.017-14.838-8.317 12.447h4.06l-.354 2.235Z" id="Vector" fill="#224BF4" fill-rule="nonzero"/>
          <path d="M95.632 92.381c.792-.679.679-2.15.34-3.055-.199-.51-.708-1.245-1.118-1.783-.438-.565-.523-1.33-.141-1.853.509-.693 2.008-.806 3.182-.48.778.212 1.584.58 2.136 1.202.905 1.056 1.471 2.046 1.698 2.97 1.603-.943 3.159-.943 4.667 0 .745.462 1.075 1.17.99 2.122.83-.019 1.585.311 2.264.99.679.68.773 1.528.283 2.546.97.924 1.131 1.971.48 3.14-.622 1.104-2.942 3.805-7.496 6.168-6.818 3.536-21.062 12.023-30.893 13.041-6.351.651-15.135-1.556-12.589-13.296 1.697-7.827 2.876-12.636 3.536-14.428h14.853l-2.278 8.912c12.863-3.678 19.558-5.743 20.086-6.196Z" id="Vector" fill="#F9D2DD" fill-rule="nonzero"/>
          <path d="M67.073 101.406c-.042-.114.029-.227.128-.27l8.274-2.757c.114-.043.227.028.27.127.042.113-.03.226-.128.269l-8.275 2.758c-.028.014-.042.014-.07.014a.213.213 0 0 1-.199-.141Z" id="Vector" fill="#1F1F39" fill-rule="nonzero"/>
          <path d="M77.81 89.665H62.956c-.264.708-.702 2.301-1.315 4.781l15.771-3.21.396-1.57Z" id="Vector" fill="#F9ACC0" fill-rule="nonzero"/>
          <g id="Group" transform="translate(69.464 65.05)" fill="#EAEAFF" fill-rule="nonzero">
            <path d="M.141 13.456 0 10.344c0-.156.113-.283.269-.297.155 0 .283.113.297.268l.141 3.112a.296.296 0 0 1-.283.297c.01 0 .01 0 0 0-.155 0-.268-.113-.283-.268Z" id="Vector"/>
          </g>
          <path d="M62.646 87.43c0-.155.113-.282.269-.297l15.46-.509c.156 0 .283.113.297.269a.294.294 0 0 1-.269.297l-15.474.51a.282.282 0 0 1-.283-.27Z" id="Vector" fill="#EAEAFF" fill-rule="nonzero"/>
          <g id="Group-133" transform="translate(0 4.71)">
            <path d="M5 0h27.174a5 5 0 0 1 5 5v34.1a5 5 0 0 1-5 5H5a5 5 0 0 1-5-5V5a5 5 0 0 1 5-5Z" id="Rectangle-79" fill="#FFF"/>
            <path d="M8.307 30.71h20.56v2.243H8.307V30.71Z" id="Rectangle-80" fill="#63926C"/>
            <path d="M11.876 35.505h13.422v2.243H11.876v-2.243Z" id="Rectangle-81" fill="#8FAC94"/>
            <g id="Group-135" transform="translate(9.223 6.775)">
              <path d="M9.364 18.728A9.364 9.364 0 1 0 9.364 0a9.364 9.364 0 0 0 0 18.728Z" id="Ellipse-74" fill="#C2E3DF"/>
              <path d="m8.29 10.234 4.2-4.17 1.212 1.26-5.412 5.34-3.264-3.317 1.153-1.171 2.111 2.058Z" id="Vector-8" fill="#63926C"/>
            </g>
          </g>
        </g>
      </g>
    </g>
    <g id="title" mask="url(#mask-2)" font-family="NanumGothic, Nanum Gothic" font-weight="normal">
      <g transform="translate(20 61)">
        <text id="Hi,-철수" font-size="24">
                    <tspan x="0" y="22" fill="#FFF">Hi, 철수</tspan>
                </text>
        <text id="Let’s-start-learning" font-size="14">
                    <tspan x="0" y="49" fill="#FFF">Let’s start learning</tspan>
                </text>
      </g>
    </g>
    <g id="Status" mask="url(#mask-2)">
      <g id="status/dark">
        <mask id="mask-19" fill="#fff">
          <use xlink:href="#path-18"/>
        </mask>
        <g id="Status-Icons" mask="url(#mask-19)">
          <g transform="translate(292 16)">
            <g id="Network-Signal-/-Dark">
              <path d="M0 0h20v14H0V0Z" id="Network-Signal-/-Dark-(Background)"/>
              <path d="M13 4a1 1 0 0 1 1 1v6a1 1 0 0 1-1 1h-1a1 1 0 0 1-1-1V5a1 1 0 0 1 1-1h1ZM8.5 6a1 1 0 0 1 1 1v4a1 1 0 0 1-1 1h-1a1 1 0 0 1-1-1V7a1 1 0 0 1 1-1h1ZM4 7.5a1 1 0 0 1 1 1V11a1 1 0 0 1-1 1H3a1 1 0 0 1-1-1V8.5a1 1 0 0 1 1-1h1Z" id="Path" fill="#D1D1D6"/>
              <path d="M17.5 2a1 1 0 0 1 1 1v8a1 1 0 0 1-1 1h-1a1 1 0 0 1-1-1V3a1 1 0 0 1 1-1h1Z" id="Empty-Bar" fill-opacity=".3" fill="#EBEBF5"/>
              <path d="M13 4a1 1 0 0 1 1 1v6a1 1 0 0 1-1 1h-1a1 1 0 0 1-1-1V5a1 1 0 0 1 1-1h1ZM8.5 6a1 1 0 0 1 1 1v4a1 1 0 0 1-1 1h-1a1 1 0 0 1-1-1V7a1 1 0 0 1 1-1h1ZM4 7.5a1 1 0 0 1 1 1V11a1 1 0 0 1-1 1H3a1 1 0 0 1-1-1V8.5a1 1 0 0 1 1-1h1Z" id="Path" fill="#FFF"/>
            </g>
            <g id="WiFi-Signal-/-Dark" transform="translate(24)">
              <path d="M0 0h16v14H0V0Z" id="WiFi-Signal-/-Dark-(Background)"/>
              <path d="m9.941 9.428.222.13a.297.297 0 0 1 .06.466l-1.894 1.889a.298.298 0 0 1-.422 0l-1.881-1.877a.297.297 0 0 1 .058-.465l.219-.13a3.571 3.571 0 0 1 1.83-.501c.64 0 1.26.168 1.808.488Zm2.554-2.453.176.138c.14.11.153.318.026.443l-1.13 1.128a.299.299 0 0 1-.39.028l-.137-.102a4.858 4.858 0 0 0-2.907-.96c-1.06 0-2.08.34-2.923.971l-.138.104a.299.299 0 0 1-.39-.028L3.552 7.57a.297.297 0 0 1 .026-.443l.175-.138a7.04 7.04 0 0 1 4.38-1.52 7.04 7.04 0 0 1 4.362 1.506Z" id="Path" fill="#FFF" fill-rule="nonzero"/>
              <path d="m14.983 4.523.163.14c.132.112.14.313.017.435l-1.127 1.124a.299.299 0 0 1-.402.018l-.14-.117A8.33 8.33 0 0 0 8.133 4.18a8.33 8.33 0 0 0-5.377 1.955l-.14.118a.299.299 0 0 1-.402-.017L1.087 5.112a.297.297 0 0 1 .017-.436l.162-.139A10.513 10.513 0 0 1 8.133 2c2.524 0 4.939.89 6.85 2.523Z" id="Path" fill="#FFF" fill-rule="nonzero"/>
            </g>
            <g id="Battery-/-Dark" transform="translate(44 1)">
              <path d="M0 0h25v12H0V0Z" id="Battery-/-Dark-(Background)"/>
              <path d="M25 5v2a1 1 0 0 1-1 1V4a1 1 0 0 1 1 1Z" id="Rectangle-23" fill-opacity=".3" fill="#EBEBF5" fill-rule="nonzero"/>
              <path d="M20 0a3 3 0 0 1 3 3v6a3 3 0 0 1-3 3H3a3 3 0 0 1-3-3V3a3 3 0 0 1 3-3h17ZM1 3v6a2 2 0 0 0 2 2h17a2 2 0 0 0 2-2V3a2 2 0 0 0-2-2H3a2 2 0 0 0-2 2Z" id="Rectangle-21-(Stroke)" fill-opacity=".3" fill="#EBEBF5"/>
              <path d="M3 2h17a1 1 0 0 1 1 1v6a1 1 0 0 1-1 1H3a1 1 0 0 1-1-1V3a1 1 0 0 1 1-1Z" id="Rectangle-20" fill="#FFF"/>
            </g>
          </g>
        </g>
        <g id="Time-/-Dark" mask="url(#mask-19)">
          <g transform="translate(21 12)">
            <mask id="mask-21" fill="#fff">
              <use xlink:href="#path-20"/>
            </mask>
            <g id="9:41" stroke="none" stroke-width="1" fill="none" fill-rule="evenodd" mask="url(#mask-21)">
              <g transform="translate(11 3)">
                <path d="M0 0h33v15H0V0Z" id="9:41-(Background)" fill="none"/>
                <path d="M10.152 7.427c0-1.34-.256-2.468-.747-3.34C8.695 2.732 7.47 2 5.925 2 3.627 2 2 3.545 2 5.713 2 7.75 3.465 9.23 5.479 9.23c1.238 0 2.241-.579 2.74-1.582h.124c0 2.417-.916 3.86-2.461 3.86-.908 0-1.611-.498-1.853-1.297H2.146c.315 1.736 1.788 2.879 3.721 2.879 2.688 0 4.285-2.102 4.285-5.662ZM3.853 5.655c0-1.18.908-2.08 2.087-2.08 1.18 0 2.088.915 2.088 2.11 0 1.178-.886 2.043-2.095 2.043-1.216 0-2.08-.865-2.08-2.073Zm10.562 6.174c0-.666-.476-1.157-1.172-1.157-.689 0-1.172.49-1.172 1.157 0 .66.483 1.157 1.172 1.157.696 0 1.172-.498 1.172-1.157Zm0-5.486c0-.666-.476-1.157-1.172-1.157-.689 0-1.172.49-1.172 1.157 0 .66.483 1.15 1.172 1.15.696 0 1.172-.49 1.172-1.15Zm8.665 6.49v-1.97h1.428V9.265H23.08V2.264h-2.666c-1.868 2.812-3.355 5.163-4.307 6.914v1.684h5.164v1.97h1.809Zm-1.883-9.031h.103V9.31h-3.442V9.2a79.597 79.597 0 0 1 3.34-5.398Zm9.23 9.03V2.265h-1.883l-2.761 1.933v1.817l2.629-1.846h.125v8.665h1.89Z" id="9:41" fill="#FFF" fill-rule="evenodd"/>
              </g>
            </g>
          </g>
        </g>
      </g>
    </g>
    <g id="Avatar" mask="url(#mask-2)">
      <g transform="translate(318 50.879)">
        <path d="M18 36c9.941 0 18-8.059 18-18S27.941 0 18 0 0 8.059 0 18s8.059 18 18 18Z" id="Ellipse-212" fill="#EAEAFF"/>
        <g id="Mask-Group" stroke-width="1" fill="none">
          <g id="Avatar" fill="#FFEBF0">
            <path d="M18 36C8.059 36 0 27.941 0 18S8.059 0 18 0s18 8.059 18 18-8.059 18-18 18Z" id="Vector"/>
          </g>
          <path d="M20.2 14.01s.393-.241 1.027-.161c.422.054.729.16.92.321m-5.071-.16s-.393-.241-1.026-.161c-.423.054-.73.16-.92.321" id="Vector" fill="#FFF" fill-rule="nonzero"/>
          <g id="Group" transform="translate(0 27.478)" fill-rule="nonzero">
            <path d="m27.038 12.82 2.633 7.033A27.71 27.71 0 0 0 36 15.72a59.234 59.234 0 0 0-.866-2.383l-8.096-.518ZM6.356 19.987l2.749-7.355-8.096.518C.999 13.159.518 14.4 0 15.953a27.504 27.504 0 0 0 6.356 4.034Z" id="Vector" fill="#DA5742"/>
            <path d="m27.038 12.82.91 2.392 8.034.5-.848-2.375-8.096-.518Zm-17.853-.447-.91 2.392-8.16.795.974-2.669 8.096-.518Z" id="Vector" fill="#C43D28"/>
            <path d="M8.847 1.804C5.312 3.411 1.437 8.374.01 14.194h6.32l-1.045 5.284a27.581 27.581 0 0 0 12.577 3.018c4.553 0 8.837-1.098 12.622-3.044l-1.107-4.58 6.391-.57c-.009 0-1.481-8.213-8.22-12.096C22.146-.9 13.827-.436 8.846 1.804Z" id="Vector" fill="#3D5CFF"/>
            <path d="m8.052 8.204-3.758 5.99 2.133-.009 1.625-5.98Zm21.325 6.669 1.9-.161-4.24-7.257 2.34 7.418Z" id="Vector" fill="#224BF4"/>
            <path d="M6.41 14.283c-.045-.009-.072-.062-.063-.107l1.785-6.623c.009-.045.062-.072.107-.063.045.01.071.063.063.108L6.516 14.22a.086.086 0 0 1-.08.062h-.027Zm22.797.59-2.285-7.418c-.018-.045.009-.09.053-.107.045-.018.09.009.107.053l2.294 7.418c.018.045-.009.09-.053.107-.018 0-.027.01-.036.01a.086.086 0 0 1-.08-.063Z" id="Vector" fill="#1F1F39"/>
          </g>
          <path d="M11.609 14.715c-1.393 0-2.276-.304-2.651-.91-.375-.602-.289-1.122.259-1.563-.756-1-.935-1.958-.536-2.874.47-1.077 1.256-1.503 2.357-1.277-.804-1.422-.715-2.665.267-3.73 1.202-1.31 2.81-1.31 4.82 0 .132-.852.634-1.277 1.51-1.277.868 0 1.302.262 1.302.785.78-1.053 1.851-1.38 3.214-.982 2.005.59 2.835 1.997 2.49 4.223.804-.197 1.34.163 1.607 1.08.268.916-.033 1.538-.902 1.865.81-.13 1.316.131 1.518.786.303.982.036 1.734-.803 2.258l-.706 3.437-13.46.553-.286-2.374Z" id="Vector" fill="#1F1F39" fill-rule="nonzero"/>
          <g id="Group" transform="translate(8.051 9.702)">
            <g id="Vector">
              <path d="M1.228 4.709C-.227 5.379-.38 7.395.719 8.663c.732.845 2.02 1.17 3.865.973l-.402-4.535c-1-.708-1.984-.839-2.954-.392Z" fill="#C43D28" fill-rule="nonzero"/>
              <path d="M16.855 4.709c1.455.67 1.606 2.686.508 3.954-.732.845-2.02 1.17-3.865.973l.741-4.597c.768-.667 1.64-.777 2.616-.33Z" fill="#C43D28" fill-rule="nonzero" transform="translate(1.815)"/>
              <path d="M14.284 8.699c0-.027.009-.563.598-1.473.598-.92 1.696-1.223 1.74-1.24.063-.019.116.017.134.08.018.062-.018.115-.08.133-.009 0-1.062.304-1.616 1.143-.553.848-.562 1.348-.562 1.357a.109.109 0 0 1-.107.107.109.109 0 0 1-.107-.107Zm-12.024 0c-.006-.34-.193-.792-.562-1.357C1.144 6.494.09 6.199.082 6.199a.115.115 0 0 1-.08-.133c.009-.054.08-.09.134-.08.044.008 1.142.32 1.74 1.24.598.91.598 1.455.598 1.473a.109.109 0 0 1-.107.107.109.109 0 0 1-.107-.107Z" fill="#1F1F39" fill-rule="nonzero" transform="translate(1.815)"/>
              <path d="m5.099 13.724-.366 5.07c.339.744 1.407 1.116 3.204 1.116 1.946 0 3.187-.372 3.722-1.116l-.142-4.99c1.214-.196 2.112-1.389 2.695-3.579.584-2.184.73-4.246.438-6.186-2.869.447-4.788.075-5.758-1.116C7.437 1.138 5.973-.656 3.858.237c-2.116.892-1.848 6.65-1.295 9.39.358 1.768 1.203 3.133 2.536 4.097Z" fill="#DA5742" fill-rule="nonzero" transform="translate(1.815)"/>
              <path d="M6.045 6.887c-.365 0-.66-.352-.66-.786 0-.434.295-.785.66-.785.365 0 .66.351.66.785 0 .434-.295.786-.66.786Zm4.811 0c-.365 0-.66-.352-.66-.786 0-.434.295-.785.66-.785.365 0 .66.351.66.785 0 .434-.295.786-.66.786Z" fill="#1F1F39" transform="translate(1.815)"/>
              <path d="M7.946 7.181c.149.298.416.372.803.224-.387-.102-.58-.301-.58-.599-.006-.297-.02-.955-.045-1.972-.267 1.267-.327 2.05-.178 2.347Z" fill="#1F1F39" fill-rule="nonzero" transform="translate(1.815)"/>
              <path d="M4.893 17.42c.045-.009 4.83-1.866 5.731-2.714 0-.345.006-.645.018-.901-.583.345-1.58.494-2.99.446-.982-.036-2.045-.223-2.553-.527.009.456-.161 3.517-.206 3.696Z" fill="#C43D28" fill-rule="nonzero" transform="translate(1.815)"/>
              <path d="M8.926 1.785c-.784 0-1.42-.4-1.42-.892C7.507.4 8.143 0 8.927 0s1.42.4 1.42.893-.636.892-1.42.892Zm-7.506 0c-.785 0-1.42-.4-1.42-.892C0 .4.635 0 1.42 0c.783 0 1.419.4 1.419.893s-.636.892-1.42.892Z" transform="translate(4.95 7.039)" fill="#C43D28"/>
            </g>
            <path d="M10.252 9.029c.238-.06.595-.268 1.071-.625.12-.06.208-.06.268 0 .09.09-.482 1.107-.982 1.25-.625.178-1.071-.09-1.339-.446-.179-.238-.149-.328.09-.268.356.119.654.149.892.089Z" id="Vector" fill="#FFF" fill-rule="nonzero"/>
            <path d="M6.86 11.886c1.34.357 1.09.981 1.67.714.588-.268.75-.804 1.927-.625 1.17.178.92.803 1.67.714.75-.09 2.008-.982 2.588-1.518.393-.357.866-.833 1.42-1.428-.357 2.5-1.53 4.047-3.517 4.642-2.24.67-5.419.357-6.838-1.696-.946-1.369-1.449-2.44-1.509-3.214.834 1.37 1.696 2.172 2.59 2.41Z" id="Vector" fill="#1F1F39" fill-rule="nonzero"/>
            <path d="M8.226 11.44c-.054-.037-.063-.099-.027-.153l.357-.535c.036-.054.098-.063.152-.027.053.036.062.098.026.152l-.357.535a.11.11 0 0 1-.089.045.165.165 0 0 1-.062-.018Zm-1.901-.376c-.036-.053-.018-.116.027-.151l.535-.357c.054-.036.116-.018.152.026.036.054.018.116-.027.152l-.535.357a.129.129 0 0 1-.063.018.11.11 0 0 1-.09-.045Zm3.82.465v-.447c0-.062.054-.107.107-.107.054 0 .107.054.107.107v.447a.103.103 0 0 1-.107.107.109.109 0 0 1-.107-.107Zm1.696-.233-.178-.446c-.027-.053.009-.125.062-.143.054-.026.125.01.143.063l.179.446c.026.054-.01.125-.063.143-.009.009-.018.009-.036.009a.116.116 0 0 1-.107-.072Zm2.017-.125-.625-.357c-.053-.026-.071-.098-.044-.151.027-.054.098-.072.152-.045l.624.357c.054.027.072.098.045.152-.027.044-.062.062-.098.062-.018 0-.036-.009-.054-.018Z" id="Vector" fill="#1F1F39" fill-rule="nonzero"/>
          </g>
          <g id="Group" opacity=".592" transform="translate(.313 31.501)" fill="#BFE3C6">
            <path d="M8.37 2.387c.16.107.375.09.563.045.232-.063.473-.179.705-.054a.51.51 0 0 1 .25.572c-.018.08.107.116.125.035a.635.635 0 0 0-.697-.785c-.232.026-.455.16-.696.143-.259-.018-.321-.25-.366-.474-.018-.098-.143-.062-.125.027.036.179.08.375.241.491ZM7.112 6.824c.098.214.268.339.464.464.205.125.42.285.366.553-.062.286-.34.446-.571.58-.072.045-.01.161.071.116.232-.134.473-.285.59-.535a.556.556 0 0 0-.09-.616c-.16-.17-.393-.25-.553-.41a.7.7 0 0 1-.143-.777c.018-.072-.116-.099-.143-.027a.826.826 0 0 0 .009.652ZM.131 4.494c-.009-.179.01-.34.179-.438.339-.214.678.099 1.008.125.304.027.5-.24.58-.508a.993.993 0 0 0-.115-.795c-.045-.071-.161-.009-.116.071.17.26.178.607.017.875-.107.179-.258.26-.455.197-.16-.045-.312-.134-.482-.161-.259-.045-.571.018-.696.286-.063.134-.054.285-.045.428.01.179.036.357.08.527.019.08.143.044.126-.036a2.518 2.518 0 0 1-.08-.571Zm4.517 9.14c.072-.035.152-.009.223.027.134.072.241.197.357.295.232.187.518.33.813.366.526.053 1.098-.357 1-.929-.018-.08-.143-.044-.126.036.054.312-.187.607-.473.714-.312.116-.66.018-.937-.152a2.624 2.624 0 0 1-.393-.312c-.098-.09-.214-.17-.339-.187-.214-.027-.446.187-.339.401.036.072.152.01.116-.071-.036-.08.036-.152.098-.188Zm9.078-1.749c0 .268.17.464.375.616.223.17.545.321.598.625.054.339-.339.41-.589.383-.09-.009-.08.125 0 .134.232.027.527-.018.66-.232.152-.24.019-.518-.16-.696-.205-.205-.5-.304-.66-.554-.197-.303-.01-.669.205-.91.053-.054-.045-.152-.098-.09-.179.197-.33.447-.33.724Zm7.48 1.571c-.142.24-.107.5.027.74.072.134.17.268.188.429a.581.581 0 0 1-.116.42c-.197.258-.58.267-.813.044-.062-.062-.16.036-.098.098.205.188.509.25.768.134a.697.697 0 0 0 .392-.66c-.017-.313-.312-.536-.312-.857 0-.295.25-.571.553-.58.09 0 .09-.134 0-.134a.712.712 0 0 0-.589.366ZM17.27 1.155c.098.26.285.429.464.634.107.116.196.286.027.393-.143.09-.33.107-.491.098-.09 0-.09.134 0 .134.223.009.616-.036.705-.277.09-.232-.143-.437-.286-.589-.205-.214-.366-.5-.357-.803.01-.268.17-.527.429-.607.089-.036.053-.161-.036-.134-.482.152-.625.714-.455 1.151Zm-.107 5.205c.267.142.321.472.41.731.09.26.232.473.5.572.25.089.563.098.812 0 .304-.125.527-.393.652-.706.036-.08-.098-.116-.125-.035-.116.285-.34.544-.643.642-.267.08-.642.036-.856-.16-.215-.197-.233-.518-.34-.777-.098-.223-.259-.402-.5-.464a.784.784 0 0 0-.74.205c-.072.08.017.17.08.107a.623.623 0 0 1 .75-.116Zm8.221-2.527c-.107.223-.036.473.009.696.045.233.053.5-.179.634-.214.116-.464.027-.598-.16-.044-.072-.16 0-.116.071.125.179.322.303.545.286a.562.562 0 0 0 .482-.366c.08-.25-.018-.51-.054-.76-.018-.124-.018-.267.063-.383.062-.09.17-.152.285-.116.08.009.116-.116.036-.143-.196-.062-.384.072-.473.241Z" transform="translate(4.305)" fill-rule="nonzero" id="Vector"/>
            <path d="M35.143 9.365v.09H28.6v-.09h6.543Z" id="Vector" transform="rotate(-5.947 31.872 9.41)"/>
            <path d="M6.445 8.735v.09H0v-.09h6.445Z" id="Vector" transform="rotate(-1.231 3.223 8.78)"/>
          </g>
        </g>
      </g>
    </g>
  </g>
</svg>
