<svg width="375" height="812" viewBox="0 0 375 812" xmlns="http://www.w3.org/2000/svg" xmlns:xlink="http://www.w3.org/1999/xlink">
  <defs>
    <path id="path-1" d="M0 0h260v260H0z"/>
  </defs>
  <g id="intro2" stroke="none" stroke-width="1" fill="none" fill-rule="evenodd">
    <path fill="#FFF" d="M0 0h375v812H0z"/>
    <g id="Pavigation" transform="translate(155 615)">
      <path d="M2.5 0h4a2.5 2.5 0 0 1 0 5h-4a2.5 2.5 0 0 1 0-5Z" id="Rectangle-3" fill="#EAEAFF"/>
      <path d="M21.5 0h23a2.5 2.5 0 1 1 0 5h-23a2.5 2.5 0 1 1 0-5Z" id="Rectangle-2" fill="#3D5CFF"/>
      <path d="M59.5 0h4a2.5 2.5 0 1 1 0 5h-4a2.5 2.5 0 1 1 0-5Z" id="Rectangle-4" fill="#EAEAFF"/>
    </g>
    <text id="desc" font-family="NanumGothic, Nanum Gothic" font-size="20" font-weight="normal" fill="#858597">
            <tspan x="140.5" y="529">실시간으로 </tspan>
            <tspan x="105.26" y="561">한국어를 공부해요!</tspan>
        </text>
    <text id="title" font-family="AppleSDGothicNeo-Regular, Apple SD Gothic Neo" font-size="22" font-weight="normal" fill="#1F1F39">
            <tspan x="77.049" y="452">화상채팅으로 한국어 학습</tspan>
        </text>
    <g id="illustration" transform="translate(57 112)">
      <mask id="mask-2" fill="#fff">
        <use xlink:href="#path-1"/>
      </mask>
      <path d="M260 60v140c0 33.137-26.863 60-60 60H60c-33.137 0-60-26.863-60-60V60C0 26.863 26.863 0 60 0h140c33.137 0 60 26.863 60 60Z" id="Vector" fill="#D9F4F1" mask="url(#mask-2)"/>
      <g id="Group" mask="url(#mask-2)">
        <g id="Vector">
          <path d="M46.719 7.617 0 11.172l49.258 13.457-2.54-17.012Z" fill="#DADAF7" fill-rule="nonzero" transform="translate(24.629 24.832)"/>
          <path d="M201.373 183.27a.509.509 0 0 1-.228-.686c.237-.474.567-1.338.99-2.59.101-.254.38-.406.635-.305.253.102.406.381.304.635-.685 1.955-1.04 2.666-1.04 2.691a.456.456 0 0 1-.432.305c-.077 0-.153-.025-.229-.05Zm2.057-5.51c-.28-.077-.407-.356-.33-.635.279-.914.558-1.88.863-2.92a.508.508 0 0 1 .635-.356.508.508 0 0 1 .355.635c-.305 1.041-.584 2.006-.863 2.92-.102.254-.305.38-.508.38-.05 0-.102 0-.152-.025Zm1.675-5.866a.492.492 0 0 1-.355-.61c.203-.812.432-1.65.66-2.564l.102-.38a.53.53 0 0 1 .61-.381.53.53 0 0 1 .38.609l-.102.38a91.994 91.994 0 0 1-.685 2.59.49.49 0 0 1-.483.382c-.05 0-.076 0-.127-.026Zm1.499-5.89a.487.487 0 0 1-.381-.61c.203-.965.406-1.98.609-2.97a.495.495 0 0 1 .584-.407c.28.051.457.33.406.584a307.814 307.814 0 0 1-.61 2.996.514.514 0 0 1-.507.407h-.101Zm1.167-5.967a.533.533 0 0 1-.431-.584l.457-2.996c.05-.28.305-.483.584-.432.28.05.482.305.432.584a819.678 819.678 0 0 1-.458 3.022.519.519 0 0 1-.507.406h-.077Zm.864-6.043a.512.512 0 0 1-.457-.559c.101-1.015.228-2.031.304-3.021a.498.498 0 0 1 .559-.457c.28.025.482.279.457.558-.076 1.016-.203 2.032-.305 3.047-.025.229-.254.432-.507.432h-.051Zm.558-6.069a.527.527 0 0 1-.482-.533c.05-1.015.101-2.031.127-3.021 0-.28.228-.483.508-.483h.025c.28 0 .508.254.483.534a63.774 63.774 0 0 1-.153 3.072c0 .203-.228.431-.482.431h-.026Zm-.304-6.601c0-1.016-.026-2.031-.051-3.022 0-.279.203-.507.482-.533.28 0 .508.203.534.483.025.99.05 2.03.05 3.072a.51.51 0 0 1-.508.508.51.51 0 0 1-.507-.508Zm-177.963-3.2a.477.477 0 0 1-.432-.558.477.477 0 0 1 .559-.432c.94.127 1.93.178 2.97.178a.51.51 0 0 1 .508.508.51.51 0 0 1-.508.508c-1.091 0-2.132-.076-3.097-.203Zm5.637-.38a.512.512 0 0 1 .457-.559 34.788 34.788 0 0 0 2.996-.38c.279-.051.533.152.584.431.05.28-.153.533-.432.584a35.63 35.63 0 0 1-3.047.38h-.05a.52.52 0 0 1-.508-.456Zm-8.684-.229a14.966 14.966 0 0 1-2.92-1.193c-.254-.127-.33-.432-.203-.686.127-.254.431-.33.685-.203.813.457 1.727.813 2.717 1.117.28.077.432.356.33.635a.488.488 0 0 1-.457.356c-.05 0-.101 0-.152-.026Zm14.701-.66a.539.539 0 0 1 .38-.61 54.46 54.46 0 0 0 2.946-.71.49.49 0 0 1 .61.355.49.49 0 0 1-.356.61 49.846 49.846 0 0 1-2.996.71c0 .051-.025.051-.076.051a.514.514 0 0 1-.508-.406Zm5.916-1.473a.514.514 0 0 1 .33-.634 95.02 95.02 0 0 0 2.895-.914c.254-.076.558.05.634.33.077.254-.05.558-.33.635-.99.33-1.98.634-2.92.914-.025.025-.076.025-.126.025a.495.495 0 0 1-.483-.356Zm160.164-.126a111.12 111.12 0 0 0-.28-3.022c-.025-.28.179-.533.433-.559.279-.025.533.153.558.432.127.99.229 2.006.305 3.047.025.28-.178.533-.457.533-.026.051-.026.051-.051.051a.522.522 0 0 1-.508-.482Zm-186.265-.762a13.282 13.282 0 0 1-2.032-2.412.504.504 0 0 1 .153-.711.504.504 0 0 1 .71.152 13.466 13.466 0 0 0 1.88 2.234.49.49 0 0 1 .025.711c-.127.077-.254.153-.381.153a.607.607 0 0 1-.355-.127Zm31.89-1.016c-.101-.254.05-.558.305-.66.94-.33 1.879-.71 2.844-1.066a.515.515 0 0 1 .66.279.515.515 0 0 1-.28.66c-.964.381-1.93.736-2.869 1.092-.05.025-.127.025-.177.025a.52.52 0 0 1-.483-.33Zm5.713-2.183a.515.515 0 0 1 .28-.66 85.06 85.06 0 0 0 2.792-1.22c.254-.1.559 0 .66.255.102.254 0 .558-.253.66-.94.406-1.88.838-2.819 1.219a.785.785 0 0 1-.203.05.502.502 0 0 1-.457-.304Zm147.926-2.032a60.538 60.538 0 0 0-.483-2.463l-.101-.507a.517.517 0 0 1 .38-.61c.28-.05.534.102.61.381l.102.508c.177.812.355 1.65.507 2.514a.495.495 0 0 1-.406.584c-.025.025-.05.025-.101.025a.516.516 0 0 1-.508-.432Zm-189.033 0a19.397 19.397 0 0 1-.94-2.97.487.487 0 0 1 .381-.61.487.487 0 0 1 .61.381c.228 1.016.533 1.955.888 2.819a.515.515 0 0 1-.28.66c-.05.05-.126.05-.177.05-.203 0-.38-.127-.482-.33Zm46.668-.431c-.127-.254 0-.559.254-.686.914-.431 1.828-.863 2.742-1.32a.509.509 0 0 1 .685.228.509.509 0 0 1-.228.686c-.914.457-1.854.889-2.768 1.32a.722.722 0 0 1-.228.051.48.48 0 0 1-.457-.28Zm5.484-2.692a.509.509 0 0 1 .228-.685c.89-.457 1.803-.94 2.692-1.422.254-.127.558-.05.685.203.127.254.051.559-.203.686-.888.482-1.802.964-2.691 1.421a.568.568 0 0 1-.254.077.535.535 0 0 1-.457-.28Zm135.611-2.793c-.254-1.04-.482-2.006-.736-2.945a.49.49 0 0 1 .355-.61.49.49 0 0 1 .61.356c.254.965.508 1.93.736 2.97a.487.487 0 0 1-.38.61h-.102a.49.49 0 0 1-.483-.38Zm-189.236-.101a29.08 29.08 0 0 1-.229-3.072c0-.28.204-.508.483-.534.28-.025.508.203.533.483.025 1.04.102 2.056.229 2.996.025.28-.178.533-.432.558-.025.026-.05.026-.076.026a.5.5 0 0 1-.508-.457Zm59.008 0c-.127-.254-.051-.559.203-.686.889-.508 1.752-1.015 2.64-1.523a.492.492 0 0 1 .686.178.492.492 0 0 1-.178.685c-.863.508-1.752 1.041-2.64 1.524-.127.05-.203.076-.28.076a.491.491 0 0 1-.431-.254Zm5.23-3.072a.511.511 0 0 1 .178-.711c.863-.534 1.727-1.067 2.564-1.625a.527.527 0 0 1 .711.152.527.527 0 0 1-.152.71c-.838.56-1.727 1.093-2.59 1.626a.512.512 0 0 1-.28.076.499.499 0 0 1-.43-.228Zm123.45-2.692a96.337 96.337 0 0 0-.89-2.894c-.075-.28.052-.559.33-.635.28-.076.56.05.636.33.304.965.609 1.955.888 2.92a.508.508 0 0 1-.355.635c-.026-.026-.076 0-.127 0a.495.495 0 0 1-.483-.356Zm-187.917-.406c.026-.508.051-1.041.077-1.6.025-.482.076-.99.177-1.498a.533.533 0 0 1 .584-.431c.28.05.457.304.432.584a14.51 14.51 0 0 0-.152 1.396c-.026.533-.051 1.066-.077 1.574a.53.53 0 0 1-.533.508c-.304 0-.508-.254-.508-.533Zm69.596-.203c-.152-.229-.101-.559.127-.711.838-.559 1.676-1.143 2.514-1.727.228-.152.558-.101.71.127.153.229.102.559-.126.711-.838.584-1.676 1.168-2.514 1.727a.382.382 0 0 1-.28.101.53.53 0 0 1-.43-.228Zm5.028-3.504c-.178-.229-.127-.533.101-.711l2.438-1.828c.228-.178.533-.127.71.101a.497.497 0 0 1-.101.711 198.69 198.69 0 0 1-2.438 1.854.676.676 0 0 1-.304.076.53.53 0 0 1-.406-.203Zm111.439-1.676a93.857 93.857 0 0 0-1.041-2.844.507.507 0 0 1 .305-.66.507.507 0 0 1 .66.305c.355.94.71 1.904 1.04 2.869a.49.49 0 0 1-.304.635c-.076 0-.127.025-.178.025a.52.52 0 0 1-.482-.33Zm-184.742-.102c-.28-.076-.406-.38-.33-.634.304-.94.66-1.905 1.091-2.895a.483.483 0 0 1 .66-.254.483.483 0 0 1 .255.66 25.869 25.869 0 0 0-1.067 2.793.46.46 0 0 1-.457.356c-.05 0-.101 0-.152-.026Zm78.127-1.904c-.178-.228-.153-.533.076-.71.787-.636 1.574-1.296 2.336-1.93a.515.515 0 0 1 .71.05.515.515 0 0 1-.05.711c-.762.66-1.549 1.32-2.361 1.955a.622.622 0 0 1-.305.102.6.6 0 0 1-.406-.178Zm104.457-3.681c-.381-.94-.787-1.88-1.219-2.793a.483.483 0 0 1 .254-.66.483.483 0 0 1 .66.253c.406.914.838 1.88 1.219 2.819a.515.515 0 0 1-.28.66c-.05.025-.101.025-.177.025a.502.502 0 0 1-.457-.304ZM20.82 105.98c-.254-.127-.33-.431-.203-.685.457-.864.965-1.778 1.524-2.666a.528.528 0 0 1 .685-.178.528.528 0 0 1 .178.685 74.087 74.087 0 0 0-1.498 2.616.535.535 0 0 1-.457.279.754.754 0 0 1-.229-.05Zm80.489-.254c-.178-.203-.178-.533.05-.71.762-.686 1.498-1.372 2.235-2.057a.49.49 0 0 1 .71.025.49.49 0 0 1-.025.711c-.736.686-1.472 1.397-2.26 2.082a.455.455 0 0 1-.33.127.49.49 0 0 1-.38-.178Zm4.418-4.164a.49.49 0 0 1 0-.71 85.51 85.51 0 0 0 2.107-2.184.515.515 0 0 1 .71-.026.515.515 0 0 1 .026.711 86.03 86.03 0 0 1-2.132 2.21c-.077.1-.204.152-.356.152a.501.501 0 0 1-.355-.153Zm-81.784-.812c-.228-.153-.279-.483-.127-.711a75.431 75.431 0 0 1 1.778-2.489c.177-.228.482-.279.71-.101.23.178.28.482.102.71a49.198 49.198 0 0 0-1.752 2.464.581.581 0 0 1-.431.203.512.512 0 0 1-.28-.076Zm174.637-.28c-.432-.914-.914-1.802-1.371-2.691a.523.523 0 0 1 .203-.686.523.523 0 0 1 .686.204c.482.888.94 1.828 1.396 2.742a.509.509 0 0 1-.228.685.703.703 0 0 1-.229.026c-.178 0-.38-.102-.457-.28Zm-88.664-3.326a.515.515 0 0 1-.05-.71c.66-.762 1.32-1.55 1.954-2.311a.495.495 0 0 1 .711-.076.495.495 0 0 1 .076.71 56.693 56.693 0 0 1-1.98 2.336.457.457 0 0 1-.38.178.535.535 0 0 1-.331-.127Zm-82.393-1.32a.495.495 0 0 1-.076-.711c.635-.787 1.295-1.574 1.955-2.361a.515.515 0 0 1 .711-.051.515.515 0 0 1 .051.71 56.89 56.89 0 0 0-1.93 2.337c-.076.127-.228.177-.38.177a.558.558 0 0 1-.33-.101Zm168.239-.711c-.508-.863-1.016-1.752-1.55-2.615a.511.511 0 0 1 .179-.711.511.511 0 0 1 .71.178 90.506 90.506 0 0 1 1.575 2.64c.127.254.05.559-.178.686a.878.878 0 0 1-.305.076.491.491 0 0 1-.431-.254ZM113.8 92.447c-.229-.178-.28-.482-.102-.711.61-.812 1.194-1.65 1.778-2.463.152-.228.482-.28.71-.127.229.153.28.483.127.711a41.109 41.109 0 0 1-1.802 2.488.53.53 0 0 1-.407.204.488.488 0 0 1-.304-.102Zm-82.317-1.27a.49.49 0 0 1-.025-.71c.686-.737 1.396-1.499 2.107-2.235a.49.49 0 0 1 .711 0 .49.49 0 0 1 0 .711c-.71.736-1.422 1.473-2.082 2.209-.076.102-.203.152-.355.152a.607.607 0 0 1-.356-.127Zm161.079-1.218a86.535 86.535 0 0 0-1.727-2.489.525.525 0 0 1 .127-.71.525.525 0 0 1 .71.126c.585.813 1.169 1.676 1.753 2.514a.504.504 0 0 1-.432.787.53.53 0 0 1-.431-.228Zm-75.284-2.514a.521.521 0 0 1-.152-.71c.533-.864 1.066-1.727 1.549-2.59.127-.255.457-.33.685-.204.254.127.33.457.203.686a40.182 40.182 0 0 1-1.574 2.64.499.499 0 0 1-.431.254.579.579 0 0 1-.28-.076Zm-81.554-.66c-.204-.203-.204-.533 0-.711a84.627 84.627 0 0 1 2.209-2.108.49.49 0 0 1 .71.026.49.49 0 0 1-.025.71c-.736.686-1.473 1.397-2.209 2.083a.41.41 0 0 1-.33.152.501.501 0 0 1-.355-.152Zm153.308-1.752c-.61-.787-1.244-1.6-1.879-2.361-.177-.229-.152-.534.076-.711a.495.495 0 0 1 .711.076c.66.787 1.295 1.574 1.905 2.387a.496.496 0 0 1-.102.71c-.076.077-.178.102-.305.102a.53.53 0 0 1-.406-.203ZM40.168 82.62c-.178-.203-.178-.533.05-.711.762-.66 1.55-1.346 2.311-2.006a.515.515 0 0 1 .711.05.515.515 0 0 1-.05.712c-.762.66-1.55 1.32-2.311 1.98a.41.41 0 0 1-.33.153.457.457 0 0 1-.381-.178Zm80.107-.457a.509.509 0 0 1-.228-.686c.457-.914.863-1.828 1.27-2.742a.515.515 0 0 1 .66-.28c.253.102.38.407.279.66-.406.94-.838 1.88-1.27 2.794a.569.569 0 0 1-.482.305c-.076 0-.152-.026-.229-.051Zm64.899-1.803c-.66-.762-1.371-1.498-2.057-2.234a.49.49 0 0 1 .026-.711.49.49 0 0 1 .71.025c.711.736 1.397 1.498 2.083 2.26.177.203.177.533-.051.71-.076.102-.203.128-.33.128a.457.457 0 0 1-.381-.178Zm-140.36-1.676c-.177-.228-.152-.533.077-.71.787-.635 1.6-1.27 2.412-1.88a.496.496 0 0 1 .71.102.496.496 0 0 1-.1.71c-.813.61-1.6 1.245-2.388 1.88-.076.025-.203.076-.304.076a.6.6 0 0 1-.407-.178Zm77.924-2.107a.515.515 0 0 1-.279-.66c.355-.94.71-1.905 1.041-2.844.102-.254.38-.406.635-.305.254.102.406.381.304.635-.33.965-.685 1.93-1.04 2.87a.52.52 0 0 1-.483.33c-.05 0-.127 0-.178-.026Zm58.246-.584a84.624 84.624 0 0 0-2.209-2.057.515.515 0 0 1-.05-.71.515.515 0 0 1 .71-.052 89.808 89.808 0 0 1 2.235 2.083.49.49 0 0 1 0 .71.37.37 0 0 1-.33.178.501.501 0 0 1-.356-.152ZM49.64 74.927c-.178-.228-.127-.533.101-.71.813-.61 1.65-1.194 2.489-1.778.228-.152.558-.101.71.127.153.229.102.559-.126.711a86.753 86.753 0 0 0-2.463 1.777.603.603 0 0 1-.305.077.53.53 0 0 1-.406-.204Zm126.851-2.97c-.761-.635-1.574-1.27-2.361-1.905a.52.52 0 0 1-.102-.71.52.52 0 0 1 .711-.102c.813.61 1.6 1.27 2.387 1.93.203.177.254.507.076.71a.522.522 0 0 1-.38.204.535.535 0 0 1-.33-.127Zm-121.875-.533a.504.504 0 0 1 .153-.711c.837-.559 1.7-1.118 2.564-1.676a.527.527 0 0 1 .711.152.527.527 0 0 1-.152.711 87.03 87.03 0 0 0-2.54 1.65.488.488 0 0 1-.304.102.53.53 0 0 1-.432-.228Zm70.155-.584c-.28-.077-.407-.356-.33-.635.304-.965.583-1.93.863-2.895a.508.508 0 0 1 .634-.355c.28.076.432.355.356.635-.28.99-.559 1.955-.863 2.945-.102.178-.28.33-.508.33-.05 0-.102 0-.152-.025Zm-65-2.717a.478.478 0 0 1 .177-.686 89.91 89.91 0 0 1 2.64-1.549.492.492 0 0 1 .686.178.492.492 0 0 1-.177.686c-.864.507-1.752 1.015-2.616 1.548a.662.662 0 0 1-.279.077.471.471 0 0 1-.431-.254Zm111.921.127a86.535 86.535 0 0 0-2.488-1.727.527.527 0 0 1-.152-.71.521.521 0 0 1 .71-.153 55.713 55.713 0 0 1 2.514 1.752c.229.152.28.482.127.71a.488.488 0 0 1-.71.128ZM65.025 65.076c-.127-.254-.05-.559.204-.686.888-.482 1.802-.965 2.69-1.447a.509.509 0 0 1 .686.229.509.509 0 0 1-.228.685c-.889.457-1.803.94-2.691 1.422a.478.478 0 0 1-.204.05.567.567 0 0 1-.457-.253Zm101.64-.178a88.535 88.535 0 0 0-2.616-1.549c-.254-.127-.33-.457-.203-.685.127-.254.457-.33.685-.203a86.521 86.521 0 0 1 2.64 1.548.554.554 0 0 1 .179.711c-.077.178-.254.254-.432.254a.429.429 0 0 1-.254-.076Zm-40.245.05a.517.517 0 0 1-.38-.608c.228-.99.456-1.98.66-2.946a.52.52 0 0 1 .609-.406.52.52 0 0 1 .406.61c-.203.99-.432 2.005-.66 2.995a.541.541 0 0 1-.508.381c-.05 0-.076 0-.127-.025Zm-55.986-2.69a.509.509 0 0 1 .228-.686c.914-.457 1.854-.889 2.768-1.32.254-.127.558 0 .685.254.127.253 0 .558-.254.685-.914.406-1.828.863-2.742 1.295-.076.025-.152.05-.228.05-.178 0-.381-.1-.457-.278Zm90.974-.33a90.063 90.063 0 0 0-2.717-1.346.509.509 0 0 1-.228-.686.509.509 0 0 1 .685-.228c.914.431 1.829.914 2.743 1.37a.48.48 0 0 1 .203.686.567.567 0 0 1-.457.254.741.741 0 0 1-.229-.05Zm-85.44-2.235c-.1-.254 0-.559.255-.66.94-.406 1.879-.787 2.818-1.168a.515.515 0 0 1 .66.28.515.515 0 0 1-.28.66 90.77 90.77 0 0 0-2.792 1.167c-.076 0-.127.026-.203.026a.502.502 0 0 1-.457-.305Zm79.956-.406c-.914-.406-1.854-.787-2.793-1.168a.515.515 0 0 1-.28-.66.515.515 0 0 1 .66-.28c.94.381 1.905.787 2.82 1.194.253.101.38.406.253.66a.465.465 0 0 1-.457.305c-.076 0-.127-.026-.203-.051Zm-28.26-.28a.495.495 0 0 1-.406-.583c.178-.99.305-2.006.431-2.997a.477.477 0 0 1 .559-.431c.28.025.482.28.432.558-.127.99-.28 2.032-.457 3.022a.473.473 0 0 1-.483.432h-.076Zm-46.059-1.6a.507.507 0 0 1 .305-.66c.965-.355 1.93-.71 2.87-1.015a.49.49 0 0 1 .634.305.49.49 0 0 1-.305.635c-.94.33-1.904.66-2.843 1.015-.077.026-.127.051-.178.051a.52.52 0 0 1-.483-.33Zm68.707-.355a54.568 54.568 0 0 0-2.869-.99c-.254-.076-.406-.38-.33-.635.076-.253.381-.406.635-.33.965.33 1.93.66 2.895 1.016.253.102.406.38.304.66-.05.178-.254.305-.457.305-.05 0-.127 0-.178-.026Zm-62.968-1.65a.514.514 0 0 1 .33-.635 63.47 63.47 0 0 1 2.92-.863.508.508 0 0 1 .635.355.508.508 0 0 1-.356.635c-.965.28-1.93.559-2.894.864h-.153a.488.488 0 0 1-.482-.356Zm57.23-.28c-.965-.279-1.93-.558-2.92-.837a.508.508 0 0 1-.355-.635.508.508 0 0 1 .635-.355c.99.279 1.98.558 2.945.838.28.076.432.355.33.634-.076.229-.28.381-.482.381-.051 0-.102 0-.153-.025Zm-51.39-1.396a.49.49 0 0 1 .355-.61c.99-.253 1.98-.482 2.97-.71.28-.05.534.102.61.38a.517.517 0 0 1-.38.61c-.966.229-1.956.457-2.946.711-.025-.025-.076 0-.127 0a.49.49 0 0 1-.482-.38Zm45.525-.203a529.57 529.57 0 0 0-2.945-.685.487.487 0 0 1-.381-.61c.05-.28.33-.457.61-.38.99.202 2.005.431 2.97.685.28.076.432.33.38.61-.075.253-.279.406-.507.406-.05 0-.076 0-.127-.026Zm-10.232-.558a.512.512 0 0 1-.457-.56c.101-1.015.152-2.03.203-3.02a.527.527 0 0 1 .533-.483c.28.025.508.254.482.533-.05 1.016-.127 2.031-.203 3.047a.522.522 0 0 1-.508.483h-.05Zm-29.377-.61a.495.495 0 0 1 .406-.584c.99-.203 2.006-.38 2.996-.533.28-.05.533.152.584.432.05.279-.152.533-.432.584-.99.152-1.98.33-2.97.533-.026-.026-.051-.026-.077-.026a.541.541 0 0 1-.507-.406Zm33.668-.076c-.99-.178-2.006-.33-2.997-.482-.279-.051-.482-.305-.431-.584.05-.28.305-.483.584-.432 1.015.152 2.031.305 3.021.482.28.051.457.305.407.584a.473.473 0 0 1-.483.432h-.101Zm-27.676-.94c-.026-.279.152-.533.431-.558a138.66 138.66 0 0 1 3.022-.356.512.512 0 0 1 .559.458.512.512 0 0 1-.458.558c-.99.102-2.005.229-2.996.356 0-.026-.025-.026-.05-.026a.516.516 0 0 1-.508-.431Zm21.709.102a58.129 58.129 0 0 0-3.022-.254.527.527 0 0 1-.482-.533.527.527 0 0 1 .533-.482c1.016.076 2.057.152 3.047.253.28.026.482.28.457.56 0 .253-.229.456-.482.456h-.051Zm-15.666-.736a.494.494 0 0 1 .482-.533 61.176 61.176 0 0 1 3.047-.153c.28 0 .508.203.533.483a.528.528 0 0 1-.482.533 61.5 61.5 0 0 0-3.022.152h-.05a.522.522 0 0 1-.508-.482Zm9.648.304c-.99-.025-1.98-.05-2.97-.05h-.077a.51.51 0 0 1-.507-.508.51.51 0 0 1 .507-.508h.076c.99 0 1.981.025 2.971.05.28 0 .508.255.483.534 0 .28-.229.482-.483.482-.025 0-.025 0 0 0Zm7.516-4.62v-.356c0-.889-.026-1.777-.051-2.666 0-.28.203-.508.482-.533.28 0 .508.203.534.482.025.889.05 1.803.05 2.692v.355a.515.515 0 0 1-.507.533.51.51 0 0 1-.508-.508Zm-.254-6.044c-.102-1.015-.203-2.03-.33-2.996-.05-.279.152-.533.431-.584.28-.05.534.153.584.432.153.99.254 2.031.356 3.047a.512.512 0 0 1-.457.558h-.076a.52.52 0 0 1-.508-.457Zm-.838-5.966c-.203-.99-.432-1.98-.66-2.946a.49.49 0 0 1 .355-.61.49.49 0 0 1 .61.356c.254.965.482 1.98.685 2.996a.495.495 0 0 1-.406.584c-.025 0-.05.026-.076.026a.541.541 0 0 1-.508-.406Zm-1.523-5.866a33.806 33.806 0 0 0-1.041-2.818.515.515 0 0 1 .279-.66.515.515 0 0 1 .66.28c.38.939.736 1.903 1.066 2.894.077.254-.05.558-.33.634a.322.322 0 0 1-.152.026.51.51 0 0 1-.482-.356Zm-2.26-5.535a53.285 53.285 0 0 0-1.447-2.64.478.478 0 0 1 .177-.686.478.478 0 0 1 .686.178 30.844 30.844 0 0 1 1.472 2.717.509.509 0 0 1-.228.685c-.05 0-.127.026-.203.026a.535.535 0 0 1-.457-.28Zm-3.072-5.154a42.142 42.142 0 0 0-1.854-2.361.515.515 0 0 1 .05-.711.515.515 0 0 1 .712.05c.66.762 1.295 1.6 1.904 2.438a.525.525 0 0 1-.127.71.512.512 0 0 1-.28.077.53.53 0 0 1-.405-.203Zm-3.91-4.57a41.922 41.922 0 0 0-2.235-2.006.495.495 0 0 1-.076-.711.495.495 0 0 1 .71-.076 44.5 44.5 0 0 1 2.311 2.056.49.49 0 0 1 0 .711.443.443 0 0 1-.355.178.501.501 0 0 1-.356-.152Zm-60.278-1.6a.509.509 0 0 1 .229-.686c.05-.025 1.04-.533 2.793-1.294.253-.102.558 0 .66.253.101.254 0 .559-.254.66a65.853 65.853 0 0 0-2.742 1.27.41.41 0 0 1-.229.076.535.535 0 0 1-.457-.279Zm55.63-2.158a45.694 45.694 0 0 0-1.853-1.168c-.228-.127-.482-.28-.71-.406-.254-.127-.33-.457-.204-.686.127-.254.457-.33.686-.203.254.127.482.28.736.406.635.381 1.295.787 1.905 1.194a.498.498 0 0 1 .126.71c-.076.153-.253.229-.406.229a.512.512 0 0 1-.28-.076Zm-50.07-.33a.515.515 0 0 1 .28-.66 55.34 55.34 0 0 1 2.869-1.067c.254-.101.559.05.66.305.102.254-.05.558-.304.66-.965.33-1.905.71-2.844 1.066-.051 0-.102.026-.178.026a.52.52 0 0 1-.482-.33Zm5.764-2.082c-.076-.28.051-.559.33-.635.965-.305 1.955-.61 2.92-.889a.508.508 0 0 1 .635.356.508.508 0 0 1-.355.634c-.965.28-1.93.584-2.895.89h-.152a.51.51 0 0 1-.483-.356Zm39.051-.508c-.914-.381-1.853-.762-2.793-1.067-.254-.076-.406-.38-.33-.634.076-.254.38-.407.635-.33a35.8 35.8 0 0 1 2.894 1.091.484.484 0 0 1 .254.66.488.488 0 0 1-.457.33c-.076 0-.127-.025-.203-.05ZM73.33 5.383a.487.487 0 0 1 .38-.61 63.62 63.62 0 0 1 2.996-.685.54.54 0 0 1 .61.38.539.539 0 0 1-.381.61c-.965.203-1.955.431-2.946.685-.076-.025-.127 0-.177 0a.49.49 0 0 1-.483-.38Zm27.523-.711a37.743 37.743 0 0 0-2.946-.584.533.533 0 0 1-.431-.584.533.533 0 0 1 .584-.432c1.015.178 2.056.38 3.021.61.28.076.432.33.38.609a.487.487 0 0 1-.481.406c-.051 0-.077 0-.127-.025Zm-21.582-.61a.495.495 0 0 1 .406-.584 63.015 63.015 0 0 1 3.047-.457c.279-.025.533.153.558.432.026.28-.152.533-.431.558-.99.127-1.98.28-2.996.457 0 .026-.051.026-.077.026a.516.516 0 0 1-.507-.432Zm15.64-.33c-.99-.076-1.98-.152-3.021-.178a.494.494 0 0 1-.483-.533.48.48 0 0 1 .533-.482c1.041.025 2.082.101 3.073.177.279.026.482.28.457.56a.52.52 0 0 1-.508.456h-.05Zm-9.598-.457a.512.512 0 0 1 .458-.559c1.04-.076 2.056-.152 3.072-.177h.025c.28 0 .508.228.508.482 0 .28-.203.508-.482.533-.99.026-2.006.077-3.022.178h-.05a.52.52 0 0 1-.509-.457Z" fill="#EAEAFF" transform="translate(24.629 24.832)"/>
          <path d="m49.258 24.629-21.582-5.891 14.98-3.758 6.602 9.649Z" fill="#EAE9FF" fill-rule="nonzero" transform="translate(24.629 24.832)"/>
          <path d="M42.656 14.98 29.961 26.66 0 11.172l42.656 3.808ZM55.352 0 0 11.172l46.719-3.555L55.352 0Z" fill="#F4F3FD" fill-rule="nonzero" transform="translate(24.629 24.832)"/>
        </g>
      </g>
      <path d="M36.08 216.023c-.745 5.79-1.27 12.002-1.574 18.637h33.87l6.45-31.23-33.972-7.846c-2.421 7.837-4.012 14.65-4.774 20.44Z" id="Vector" fill="#F9D2DD" fill-rule="nonzero" mask="url(#mask-2)"/>
      <path d="M36.08 216.023c-.745 5.79-1.27 12.002-1.574 18.637h33.87l6.45-31.23-33.972-7.846c-2.421 7.837-4.012 14.65-4.774 20.44Z" id="Vector" fill="#DA5742" fill-rule="nonzero" mask="url(#mask-2)"/>
      <g id="Group" mask="url(#mask-2)" fill="#C43D28" fill-rule="nonzero">
        <path d="m0 9.42 33.719 12.137 2.818-13.711L2.59 0C1.727 2.793.863 5.933 0 9.42Z" transform="translate(38.264 195.584)" id="Vector"/>
      </g>
      <path d="m71.17 209.574-32.703-7.845c.372-1.625.93-3.75 1.676-6.373 3.377-11.832 12.035-37.096 26.634-48.42 25.899-20.059 51.112-19.373 71.348-16.504 25.137 3.554 42.707 27.168 47.734 34.277 4.47 6.33 9.209 14.65 14.22 24.96l-34.456 14.573 5.053 30.52H68.377v.025l2.793-25.213Z" id="Vector" fill="#3D5CFF" fill-rule="nonzero" mask="url(#mask-2)"/>
      <path d="M157.422 125.861c-3.2-.482-5.408-3.453-4.926-6.652l6.424-42.986c.482-3.2 3.453-5.409 6.652-4.926l18.053 2.691c3.2.483 5.408 3.453 4.926 6.653l-6.424 42.986c-.457 3.199-3.453 5.408-6.652 4.926l-18.053-2.692Z" id="Vector" fill="#B7B8D1" fill-rule="nonzero" mask="url(#mask-2)"/>
      <path d="M248.752 234.229v.837H11.248v-.837h237.504Z" id="Vector" fill="#1F1F39" mask="url(#mask-2)"/>
      <path d="M157.422 125.861c-3.2-.482-5.408-3.453-4.926-6.652l6.424-42.986c.482-3.2 3.453-5.409 6.652-4.926l18.053 2.691c3.2.483 5.408 3.453 4.926 6.653l-6.424 42.986c-.457 3.199-3.453 5.408-6.652 4.926l-18.053-2.692Z" id="Vector" fill="#1F1F39" fill-rule="nonzero" mask="url(#mask-2)"/>
      <path d="M165.648 204.268c2.844 11.984 10.52 21.15 23.03 27.498 18.763 9.521 41.386-2.286 43.088-18.815 1.421-13.863-2.793-45.094-11.756-66.092-8.963-20.998-22.395-43.976-32.221-53.777-9.826-9.8-23.816-8.684-27.168-8.125-3.352.559-6.17 3.072-4.19 5.332 1.304 1.49 5.781 2.607 13.432 3.352-5.857-.796-10.588-.195-14.193 1.802-3.834 2.133-3.606 4.698-3.047 6.094.372.931 1.303 1.608 2.793 2.031-1.54 1.033-2.133 2.387-1.777 4.063.507 2.37 1.904 3.495 4.189 3.377-.559.745-.559 1.769 0 3.072.838 1.955 3.63 2.793 7.008 3.352 3.351.558 6.728-.559 9.242 2.793 1.676 2.234 7.77 26.482 18.281 72.744l-26.71 11.299Z" id="Vector" fill="#DA5742" fill-rule="nonzero" mask="url(#mask-2)"/>
      <path d="M153.639 96.89a.368.368 0 0 1 .025-.532c.508-.458 1.092-.864 1.803-1.27 2.285-1.27 5.408-1.955 9.293-2.057 2.869-.076 5.053.203 5.129.229a.394.394 0 0 1 .33.431.394.394 0 0 1-.432.33c-.076 0-8.734-1.142-13.965 1.753a7.862 7.862 0 0 0-1.65 1.167c-.076.026-.178.077-.254.077a.408.408 0 0 1-.28-.127Zm11.73 107.91-8.404-32.779c-.051-.228.076-.457.304-.507.229-.051.457.076.508.304l8.405 32.78c.05.228-.077.457-.305.507h-.102a.435.435 0 0 1-.406-.304Zm-94.123 5.054c-.228-.051-.38-.254-.33-.483l5.611-31.941c.051-.229.254-.381.483-.33.228.05.38.254.33.482l-5.611 31.942c-.026.203-.204.33-.407.33h-.076Z" id="Vector" fill="#1F1F39" fill-rule="nonzero" mask="url(#mask-2)"/>
      <path d="M248.752 234.229v.837H11.248v-.837h237.504Z" id="Vector" fill="#1F1F39" mask="url(#mask-2)"/>
      <g id="Group" mask="url(#mask-2)" fill="#1F1F39" fill-rule="nonzero">
        <path d="M.045 13.625c-.101-.177-.025-.406.153-.507.178-.102 4.672-2.387 9.75-2.895 5.103-.508 6.703 0 6.754.025.203.077.304.28.228.483-.076.203-.279.305-.482.228-1.05-.321-3.2-.313-6.45.026-4.95.482-9.445 2.793-9.495 2.793 0 .05-.077.05-.127.05-.127 0-.28-.076-.33-.203Zm1.524 7.872c-.102-.178-.025-.407.152-.508.178-.102 4.672-2.387 9.75-2.895 5.104-.508 6.703 0 6.754.026.203.076.305.279.229.482-.076.203-.28.305-.483.228-1.05-.321-3.199-.313-6.449.026-4.951.482-9.445 2.793-9.496 2.793 0 .05-.076.05-.127.05-.127 0-.28-.076-.33-.202ZM1.036 5.704c-.102-.178-.026-.407.152-.508C3.524 3.9 6.47 3.368 9.085 3.19 6.038 2.606 2.838 1.768 1.848.625 1.721.473 1.721.22 1.874.092c.152-.127.406-.127.533.026 1.396 1.6 8.556 2.716 12.213 3.123.558.05.914.101.99.101l-.076.762a11.3 11.3 0 0 1-.762-.076c-2.209-.203-8.887-.559-13.203 1.828a.785.785 0 0 1-.203.05.396.396 0 0 1-.33-.202Z" transform="translate(154.279 89.892)" id="Vector"/>
      </g>
      <path d="m192.334 192.969-26.711 11.299c.813 3.453 2.565 7.27 5.256 11.45l22.267-19.118-.812-3.631Z" id="Vector" fill="#C43D28" fill-rule="nonzero" mask="url(#mask-2)"/>
      <path d="m194.72 205.334-2.792-12.188a.436.436 0 0 1 .304-.507.436.436 0 0 1 .508.304l2.793 12.188a.436.436 0 0 1-.304.508c-.051 0-.077.025-.102.025-.203 0-.355-.127-.406-.33Z" id="Vector" fill="#1F1F39" fill-rule="nonzero" mask="url(#mask-2)"/>
      <path d="m61.191 207.188 9.979 2.386-.66 6.043 5.865-34.988-15.184 26.559Zm104.635-1.803-.203-1.118 9.065-3.833-17.317-26.737 8.455 31.688Z" id="Vector" fill="#224BF4" fill-rule="nonzero" mask="url(#mask-2)"/>
      <path d="M57.27 180.632v32.982h-1.015v-32.982h1.016Z" id="Vector" fill="#EAEAFF" mask="url(#mask-2)" transform="rotate(-77.983 56.763 197.123)"/>
      <path d="M191.508 189.59v1.015h-29.352v-1.015h29.352Z" id="Vector" fill="#EAEAFF" mask="url(#mask-2)" transform="rotate(-21.881 176.832 190.098)"/>
      <path d="M54.107 196.6c.051-.254 5.485-24.655 16.098-38.29 10.613-13.66 28.97-21.404 29.149-21.48l.38.94c-.177.076-18.28 7.718-28.742 21.175-10.486 13.457-15.844 37.655-15.894 37.883l-.99-.228Z" id="Vector" fill="#EAEAFF" fill-rule="nonzero" mask="url(#mask-2)"/>
      <path d="M51.035 195.406c.17-.761.406-1.76.711-2.996l.483.127-.686 2.97-.508-.1Zm1.524-5.941c.279-.965.558-1.955.837-2.945l.483.152a63.027 63.027 0 0 0-.838 2.92l-.482-.127Zm1.752-5.865c.304-.99.634-1.955.964-2.895l.483.178c-.33.94-.66 1.904-.965 2.869l-.482-.152Zm1.98-5.764c.355-.965.736-1.93 1.092-2.844l.482.178c-.355.914-.736 1.879-1.092 2.844l-.482-.178Zm2.285-5.687c.406-.94.838-1.88 1.244-2.793l.457.228c-.406.889-.838 1.828-1.244 2.768l-.457-.203Zm2.59-5.51c.482-.94.965-1.828 1.447-2.692l.432.254c-.457.838-.94 1.727-1.422 2.666l-.457-.228Zm3.047-5.332a55.064 55.064 0 0 1 1.701-2.54l.406.305c-.558.787-1.142 1.625-1.675 2.514l-.432-.28Zm3.555-4.977a56.693 56.693 0 0 1 1.98-2.336l.38.33c-.66.787-1.32 1.55-1.954 2.336l-.406-.33Zm4.062-4.57c.711-.736 1.422-1.473 2.158-2.158l.356.355a86.486 86.486 0 0 0-2.158 2.158l-.356-.355Zm4.418-4.24a56.693 56.693 0 0 1 2.336-1.98l.33.405c-.812.61-1.6 1.27-2.336 1.955l-.33-.38Zm4.723-3.86c.812-.61 1.65-1.193 2.488-1.777l.28.432a73.592 73.592 0 0 0-2.464 1.751l-.304-.406Zm5.052-3.453a55.157 55.157 0 0 1 2.641-1.549l.254.432c-.889.482-1.752 1.016-2.615 1.549l-.28-.432Zm5.332-2.996c.94-.457 1.854-.914 2.768-1.295l.203.457c-.889.406-1.828.838-2.742 1.295l-.229-.457Zm5.612-2.437c.94-.33 1.447-.483 1.472-.483l.127.483c.026 0-.507.152-1.421.482l-.178-.482Zm89.629 45.169.457-.228c.482.914.965 1.828 1.396 2.717l-.457.228a92.686 92.686 0 0 0-1.396-2.717Zm-2.946-5.306.432-.254 1.523 2.666-.457.228a88.77 88.77 0 0 0-1.498-2.64Zm-3.199-5.205.432-.28c.533.838 1.092 1.727 1.625 2.59l-.432.28c-.533-.864-1.066-1.752-1.625-2.59Zm-3.377-5.078.406-.305a87.81 87.81 0 0 1 1.727 2.514l-.406.304a87.808 87.808 0 0 0-1.727-2.513Zm-3.63-4.875.406-.305c.609.787 1.244 1.6 1.853 2.437l-.406.28a86.644 86.644 0 0 0-1.854-2.412Zm-3.885-4.672.38-.33c.66.736 1.346 1.523 2.006 2.31l-.406.33a93.402 93.402 0 0 0-1.98-2.31Zm-4.19-4.393.356-.355c.71.685 1.447 1.422 2.158 2.158l-.381.355a85.975 85.975 0 0 0-2.133-2.158Zm-4.57-4.012.305-.406c.787.61 1.574 1.27 2.335 1.955l-.304.407a41.412 41.412 0 0 0-2.336-1.956Zm-4.951-3.529.279-.432a63.085 63.085 0 0 1 2.539 1.702l-.305.431c-.812-.584-1.675-1.142-2.513-1.7Zm-5.256-2.996.228-.457c.914.457 1.803.94 2.692 1.447l-.254.457a54.068 54.068 0 0 0-2.666-1.447Zm-5.535-2.514.177-.482c.94.38 1.905.787 2.819 1.193l-.203.483a92.274 92.274 0 0 0-2.793-1.194Zm-5.739-1.98.153-.483c.965.305 1.955.61 2.92.94l-.178.482c-.94-.33-1.93-.634-2.895-.94Zm-5.89-1.498.101-.508c.99.203 2.006.432 2.971.686l-.102.507c-.99-.254-1.98-.482-2.97-.685Zm-5.967-.99.05-.508c.991.127 2.007.254 3.022.431l-.076.508c-1.016-.152-2.006-.304-2.996-.431Zm-5.738-.381h-.33l-.026-.508h.356c.457 0 1.396.025 2.716.102l-.025.507a52.286 52.286 0 0 0-2.691-.101Z" id="Vector" fill="#EAEAFF" mask="url(#mask-2)"/>
      <path d="M155.086 146.606c-17.672-12.696-37.07-12.315-37.248-12.315l-.025-1.016c.203 0 19.906-.406 37.882 12.493 17.926 12.873 30.52 40.295 30.647 40.574l-.94.431c-.127-.279-12.619-27.447-30.316-40.167Z" id="Vector" fill="#EAEAFF" fill-rule="nonzero" mask="url(#mask-2)"/>
      <path d="m71.17 209.574-32.703-7.845c.372-1.625.93-3.75 1.676-6.373 3.377-11.832 12.035-37.096 26.634-48.42 25.899-20.059 51.112-19.373 71.348-16.504 25.137 3.554 42.707 27.168 47.734 34.277 4.47 6.33 9.209 14.65 14.22 24.96l-34.456 14.573 5.053 30.52H68.377v.025l2.793-25.213Z" id="Vector" fill-rule="nonzero" mask="url(#mask-2)"/>
      <path d="M71.246 209.854c-.228-.051-.38-.254-.33-.483l5.611-31.941c.051-.229.254-.381.483-.33.228.05.38.254.33.482l-5.611 31.942c-.026.203-.204.33-.407.33h-.076Zm94.123-5.054-8.404-32.779c-.051-.228.076-.457.304-.507.229-.051.457.076.508.304l8.405 32.78c.05.228-.077.457-.305.507h-.102a.435.435 0 0 1-.406-.304Z" id="Vector" fill="#1F1F39" fill-rule="nonzero" mask="url(#mask-2)"/>
      <path d="M113.09 142.873c10.638-.787 18.967-5.154 18.636-9.775-.101-1.397-.964-2.641-2.437-3.682-10.639-.94-22.37-.686-34.607 2.945-1.016 1.143-1.524 2.336-1.448 3.555.33 4.621 9.217 7.719 19.856 6.957Z" id="Vector" fill="#224BF4" fill-rule="nonzero" mask="url(#mask-2)"/>
      <g id="Group" mask="url(#mask-2)">
        <g transform="translate(63.838 42.613)">
          <path d="M68.168 33.382c5.789-5.23 6.627-10.927 2.513-17.088-4.113-6.162-9.995-8.032-17.646-5.612C50.784 3.032 45.18-.515 36.226.044c-8.954.558-13.152 6.068-12.593 16.529-1.744-2.539-4.545-2.911-8.405-1.117-2.793 1.303-3.444 4.29-1.955 8.963-6.72.558-10.918 4.105-12.594 10.638-2.767 10.74 3.631 15.971 6.45 17.368 1.862.93 3.639 1.21 5.332.837-3.555 2.049-4.672 5.036-3.352 8.963 1.304 3.927 4.757 5.705 10.36 5.332l16.935 14.346 34.277-36.486-2.513-12.035Z" id="Vector" fill="#FF7F2D" fill-rule="nonzero"/>
          <path d="M70.732 44.96c3.885.736 5.078 5.56 3.403 10.41-1.135 3.233-4.038 5.332-8.71 6.297l-1.472-14.295c1.93-2.099 4.19-2.903 6.78-2.412Z" id="Vector" fill="#F9ACC0" fill-rule="nonzero"/>
          <path d="M26.68 56.056c-4.47.558-5.891 6.728-2.794 11.197 2.066 2.979 5.612 4.282 10.64 3.91 1.116 4.486 1.861 9.623 2.234 15.412.372 5.79.558 8.218.558 7.287 3.182 2.793 7.947 3.538 14.295 2.235 6.348-1.304 9.335-3.454 8.963-6.45-.186-.93-.652-2.615-1.397-5.052a50.097 50.097 0 0 1-1.675-7.567c7.837-2.979 11.383-9.14 10.638-18.484-.744-9.344-2.708-17.19-5.89-23.537h-3.073c-.186 2.793-1.396 4.57-3.63 5.332-2.235.761-4.85.11-7.846-1.955-.373 3.368-2.243 5.704-5.611 7.007-3.369 1.304-6.45 1.676-9.243 1.118 1.32 6.178 1.134 10.198-.558 12.06-.745-2.048-2.615-2.886-5.612-2.513Z" id="Vector" fill="#F9D2DD" fill-rule="nonzero"/>
          <path d="M67.228 55.98c0-.102 0-2.514.737-4.723.736-2.235 2.209-3.707 2.26-3.783.152-.153.38-.153.507 0 .153.152.153.38 0 .507-.025.026-1.396 1.422-2.082 3.504-.71 2.108-.71 4.47-.71 4.494a.347.347 0 0 1-.356.356.347.347 0 0 1-.356-.356ZM33.357 67.202c-.025-.025-1.802-2.87-3.935-4.215-2.133-1.345-5.002-1.752-5.028-1.752-.228-.025-.38-.254-.355-.482.025-.229.254-.381.482-.356.127.026 3.047.457 5.332 1.88 2.285 1.447 4.114 4.341 4.19 4.468a.438.438 0 0 1-.127.584.288.288 0 0 1-.203.076.405.405 0 0 1-.356-.203Zm7.49-14.015c.457-.584 1.092-1.092 1.829-1.346.38-.127.736-.203 1.142-.203.381-.026.787.025 1.143.152.736.229 1.396.762 1.625 1.447a4.543 4.543 0 0 0-1.828-.38c-.127 0-.28.025-.407.025-.127.025-.279.025-.406.076a.559.559 0 0 1-.203.025l-.203.051c-.153.026-.254.076-.406.127a5.671 5.671 0 0 0-1.498.787c-.483.356-.965.762-1.499 1.27 0-.737.28-1.422.711-2.031Zm16.479-4.952a3.363 3.363 0 0 1 1.828-1.193c.178-.025.38-.076.559-.102.177 0 .355-.025.533 0 .355 0 .71.077 1.04.178.331.102.661.28.94.508.127.127.254.254.356.38.101.153.203.306.228.483a3.062 3.062 0 0 0-.888-.228c-.28-.051-.559-.051-.838-.051-.28.025-.533.025-.813.076-.127 0-.279.05-.406.05l-.38.077c-.483.127-.94.33-1.397.635-.457.28-.914.66-1.422 1.117-.026-.686.228-1.371.66-1.93Zm-4.012 4.393c.305.304.559.66.813 1.015.254.356.457.762.61 1.194.024.127.075.203.1.33.026.127.051.254.051.406 0 .28-.05.533-.177.787-.229.483-.584.813-.94 1.067a5.465 5.465 0 0 1-2.437.888c.736-.431 1.447-.863 2.006-1.396a2.53 2.53 0 0 0 .634-.863 1.41 1.41 0 0 0 .077-.432c0-.076 0-.152-.026-.229 0-.076-.05-.177-.076-.254a5.633 5.633 0 0 0-.508-1.04 8.68 8.68 0 0 0-.66-1.016c-.432-.711-.94-1.371-1.447-2.082.736.431 1.396.99 1.98 1.625Z" id="Vector" fill="#1F1F39" fill-rule="nonzero"/>
          <path d="M59.18 60.55c1.489 4.858 1.396 8.125-.28 9.8-2.514 2.514-8.988 2.92-10.639-1.675-1.1-3.064-1.472-4.934-1.117-5.611L59.18 60.55Z" id="Vector" fill="#F95368" fill-rule="nonzero"/>
          <path d="M53.873 66.415a10.338 10.338 0 0 0-5.13 3.224c2.184 3.53 7.847 3.022 10.157.686.813-.787 1.117-2.082 1.194-3.453-1.55-.66-3.708-1.143-6.221-.457Z" id="Vector" fill="#F9ACC0" fill-rule="nonzero"/>
          <g id="Group" stroke-width="1" fill="none" fill-rule="evenodd" transform="translate(35.672 50.329)">
            <g fill="#F9ACC0" id="Vector">
              <path d="M28.945 7.767c-3.015 0-5.46-1.5-5.46-3.352 0-1.85 2.445-3.351 5.46-3.351 3.014 0 5.459 1.5 5.459 3.351s-2.445 3.352-5.46 3.352Z" transform="rotate(-12.022 28.945 4.415)"/>
              <path d="M6.038 13.481c-3.015 0-5.46-1.5-5.46-3.351s2.445-3.352 5.46-3.352c3.014 0 5.459 1.5 5.459 3.352 0 1.85-2.445 3.351-5.46 3.351Z" transform="rotate(-12.022 6.038 10.13)"/>
            </g>
            <path d="M10.431 27.944c-.203-.127-.28-.381-.152-.584.127-.203.38-.28.558-.152.026.025 1.98 1.04 6.907.634 3.834-.304 6.22-1.879 6.246-1.879a.415.415 0 0 1 .584.127.415.415 0 0 1-.127.584c-.102.077-2.59 1.702-6.653 2.032-.812.05-1.574.076-2.234.076-3.605 0-5.053-.813-5.129-.838Z" id="Vector" fill="#1F1F39" fill-rule="nonzero"/>
          </g>
          <path d="M41.939 49.454c-1.67 0-3.022-.83-3.022-1.854 0-1.023 1.353-1.853 3.022-1.853 1.668 0 3.021.83 3.021 1.853 0 1.024-1.353 1.854-3.021 1.854Z" id="Vector" fill="#1F1F39" fill-rule="evenodd" transform="rotate(-30.001 41.939 47.6)"/>
          <path d="M58.177 45.582c-1.023 0-1.853-1.353-1.853-3.022 0-1.669.83-3.021 1.853-3.021 1.024 0 1.854 1.352 1.854 3.021 0 1.669-.83 3.022-1.854 3.022Z" id="Vector" fill="#1F1F39" fill-rule="evenodd" transform="rotate(-86.901 58.177 42.56)"/>
          <path d="M68.168 33.382c5.789-5.23 6.627-10.927 2.513-17.088-4.113-6.162-9.995-8.032-17.646-5.612C50.784 3.032 45.18-.515 36.226.044c-8.954.558-13.152 6.068-12.593 16.529-1.744-2.539-4.545-2.911-8.405-1.117-2.793 1.303-3.444 4.29-1.955 8.963-6.72.558-10.918 4.105-12.594 10.638-2.767 10.74 3.631 15.971 6.45 17.368 1.862.93 3.639 1.21 5.332.837-3.555 2.049-4.672 5.036-3.352 8.963 1.304 3.927 4.757 5.705 10.36 5.332l16.935 14.346 34.277-36.486-2.513-12.035Z" id="Vector" fill="#F99A3D" fill-rule="nonzero"/>
          <path d="M70.732 44.96c3.885.736 5.002 5.053 3.301 9.902-1.134 3.233-4.012 5.51-8.633 6.83l-1.447-14.32c1.93-2.099 4.19-2.903 6.78-2.412Z" id="Vector" fill="#C43D28" fill-rule="nonzero"/>
          <path d="M26.68 56.056c-4.47.558-5.891 6.728-2.794 11.197 2.066 2.979 5.612 4.282 10.64 3.91 1.116 4.486 1.861 9.623 2.234 15.412.372 5.79.558 8.218.558 7.287 3.182 2.793 7.947 3.538 14.295 2.235 6.348-1.304 9.335-3.454 8.963-6.45-.186-.93-.652-2.615-1.397-5.052a50.097 50.097 0 0 1-1.675-7.567c7.837-2.979 11.383-9.14 10.638-18.484-.744-9.344-2.877-17.951-6.398-25.822h-3.072c-.187 2.793-1.397 4.57-3.631 5.332-2.235.761-4.85.11-7.846-1.955-.372 3.368-2.243 5.704-5.611 7.007-3.369 1.304-6.45 1.676-9.242 1.118 1.658 7.701 1.641 12.483-.051 14.345-.745-2.048-2.615-2.886-5.612-2.513Z" id="Vector" fill="#DA5742" fill-rule="nonzero"/>
          <path d="M57.275 77.18c-5.586 2.201-9.225 2.455-10.918.762 3.072 8.38 8.201 9.979 14.016 10.817a77.416 77.416 0 0 0-1.194-4.114 49.197 49.197 0 0 1-1.675-7.566" id="Vector" fill="#C43D28" fill-rule="nonzero"/>
          <g id="Group" stroke-width="1" fill="none" fill-rule="evenodd" transform="translate(22.255 56.013)">
            <path d="M10.062 2.582C9.317.533 7.446-.305 4.45.068-.019.626-1.44 6.796 1.657 11.265c2.87 4.19 10.664 8.201 11.553 8.15.228-1.6-1.93-14.904-2.844-17.265a6.462 6.462 0 0 1-.304.432Z" id="Vector" fill="#C43D28" fill-rule="nonzero"/>
          </g>
          <path d="M67.228 55.98c0-.102 0-2.514.737-4.723.736-2.235 2.209-3.707 2.26-3.783.152-.153.38-.153.507 0 .153.152.153.38 0 .507-.025.026-1.396 1.422-2.082 3.504-.71 2.108-.71 4.47-.71 4.494a.347.347 0 0 1-.356.356.347.347 0 0 1-.356-.356ZM33.357 67.202c-.025-.025-1.802-2.87-3.935-4.215-2.133-1.345-5.002-1.752-5.028-1.752-.228-.025-.38-.254-.355-.482.025-.229.254-.381.482-.356.127.026 3.047.457 5.332 1.88 2.285 1.447 4.114 4.341 4.19 4.468a.438.438 0 0 1-.127.584.288.288 0 0 1-.203.076.405.405 0 0 1-.356-.203Zm7.49-14.015c.457-.584 1.092-1.092 1.829-1.346.38-.127.736-.203 1.142-.203.381-.026.787.025 1.143.152.736.229 1.396.762 1.625 1.447a4.543 4.543 0 0 0-1.828-.38c-.127 0-.28.025-.407.025-.127.025-.279.025-.406.076a.559.559 0 0 1-.203.025l-.203.051c-.153.026-.254.076-.406.127a5.671 5.671 0 0 0-1.498.787c-.483.356-.965.762-1.499 1.27 0-.737.28-1.422.711-2.031Zm16.479-4.952a3.363 3.363 0 0 1 1.828-1.193c.178-.025.38-.076.559-.102.177 0 .355-.025.533 0 .355 0 .71.077 1.04.178.331.102.661.28.94.508.127.127.254.254.356.38.101.153.203.306.228.483a3.062 3.062 0 0 0-.888-.228c-.28-.051-.559-.051-.838-.051-.28.025-.533.025-.813.076-.127 0-.279.05-.406.05l-.38.077c-.483.127-.94.33-1.397.635-.457.28-.914.66-1.422 1.117-.026-.686.228-1.371.66-1.93Zm-4.012 4.393c.305.304.559.66.813 1.015.254.356.457.762.61 1.194.024.127.075.203.1.33.026.127.051.254.051.406 0 .28-.05.533-.177.787-.229.483-.584.813-.94 1.067a5.465 5.465 0 0 1-2.437.888c.736-.431 1.447-.863 2.006-1.396a2.53 2.53 0 0 0 .634-.863 1.41 1.41 0 0 0 .077-.432c0-.076 0-.152-.026-.229 0-.076-.05-.177-.076-.254a5.633 5.633 0 0 0-.508-1.04 8.68 8.68 0 0 0-.66-1.016c-.432-.711-.94-1.371-1.447-2.082.736.431 1.396.99 1.98 1.625Z" id="Vector" fill="#1F1F39" fill-rule="nonzero"/>
          <path d="M59.18 60.55c1.489 4.858 1.396 8.125-.28 9.8-2.514 2.514-8.988 2.92-10.639-1.675-1.1-3.064-1.472-4.934-1.117-5.611L59.18 60.55Z" id="Vector" fill="#FFF" fill-rule="nonzero"/>
          <path d="M53.873 66.415a10.338 10.338 0 0 0-5.13 3.224c2.184 3.53 7.847 3.022 10.157.686.813-.787 1.117-2.082 1.194-3.453-1.55-.66-3.708-1.143-6.221-.457Z" id="Vector" fill="#F9D2DD" fill-rule="nonzero"/>
          <g id="Group" stroke-width="1" fill="#C43D28" fill-rule="evenodd" transform="translate(35.672 50.329)">
            <path d="M28.945 7.767c-3.015 0-5.46-1.5-5.46-3.352 0-1.85 2.445-3.351 5.46-3.351 3.014 0 5.459 1.5 5.459 3.351s-2.445 3.352-5.46 3.352Z" id="Vector" transform="rotate(-12.022 28.945 4.415)"/>
            <path d="M6.038 13.481c-3.015 0-5.46-1.5-5.46-3.351s2.445-3.352 5.46-3.352c3.014 0 5.459 1.5 5.459 3.352 0 1.85-2.445 3.351-5.46 3.351Z" id="Vector" transform="rotate(-12.022 6.038 10.13)"/>
          </g>
          <path d="M46.103 78.374a.388.388 0 0 1-.152-.559.417.417 0 0 1 .559-.177c.025.025 1.98 1.015 6.906.558 1.346-.127 2.666-.508 3.935-1.092.203-.101.457 0 .559.204.102.203 0 .457-.203.558-1.346.635-2.768 1.041-4.215 1.168a33.78 33.78 0 0 1-2.564.127c-3.352 0-4.749-.736-4.825-.787Z" id="Vector" fill="#1F1F39" fill-rule="nonzero"/>
          <path d="M26.68 56.056c-4.47.558-5.891 6.728-2.794 11.197 2.066 2.979 5.612 4.282 10.64 3.91 1.116 4.486 1.861 9.623 2.234 15.412.372 5.79 0 7.186-1.118 4.19 3.555 2.792 8.506 3.537 14.854 2.234 6.347-1.303 10.08-3.453 11.197-6.45-.93 1.118-1.769.466-2.514-1.954a49.197 49.197 0 0 1-1.675-7.567c7.837-2.979 11.383-9.14 10.638-18.484-.744-9.344-2.708-17.19-5.89-23.537h-3.073c-.186 2.793-1.396 4.57-3.63 5.332-2.235.761-4.85.11-7.846-1.955-.373 3.368-2.243 5.704-5.611 7.007-3.369 1.304-6.45 1.676-9.243 1.118 1.32 6.178 1.134 10.198-.558 12.06-.745-2.048-2.615-2.886-5.612-2.513Z" id="Vector" fill="none" fill-rule="nonzero"/>
          <path d="M41.939 49.454c-1.67 0-3.022-.83-3.022-1.854 0-1.023 1.353-1.853 3.022-1.853 1.668 0 3.021.83 3.021 1.853 0 1.024-1.353 1.854-3.021 1.854Z" id="Vector" fill="#FFF" fill-rule="evenodd" transform="rotate(-30.001 41.939 47.6)"/>
          <path d="M58.177 45.582c-1.023 0-1.853-1.353-1.853-3.022 0-1.669.83-3.021 1.853-3.021 1.024 0 1.854 1.352 1.854 3.021 0 1.669-.83 3.022-1.854 3.022Z" id="Vector" fill="#FFF" fill-rule="evenodd" transform="rotate(-86.901 58.177 42.56)"/>
        </g>
      </g>
      <path d="M114.385 196.219v-.508c1.04.025 2.031.025 3.047 0v.508h-3.048Zm6.094-.584c.99-.026 2.005-.051 3.046-.102l.026.508c-1.041.05-2.082.076-3.047.102l-.025-.508Zm-12.188.33.025-.508c1.041.05 2.082.102 3.047.152l-.025.508a66.11 66.11 0 0 1-3.047-.152Zm18.281-.584c.99-.051 2.006-.127 3.047-.178l.026.508c-1.041.076-2.057.127-3.047.178l-.026-.508Zm-24.375.178.051-.508c.99.076 2.006.152 3.047.228l-.05.508a819.046 819.046 0 0 1-3.048-.228Zm30.444-.559a92.31 92.31 0 0 0 3.047-.254l.05.508c-.965.076-1.98.178-3.047.254l-.05-.508Zm-36.537.05.05-.507c.94.076 1.955.178 3.047.28l-.05.507c-1.067-.102-2.108-.178-3.047-.28Zm42.605-.583c1.193-.102 2.209-.229 3.021-.305l.051.508c-.787.101-1.828.203-3.021.305l-.051-.508Zm-48.547-.026h-.101v-.507h.152c.745.084 1.718.186 2.92.304l-.076.508c-1.676-.178-2.768-.305-2.895-.305Zm54.615-.584a6.073 6.073 0 0 0 2.692-1.066l.304.406a6.234 6.234 0 0 1-2.92 1.168l-.076-.508Zm-60.1-2.336.432-.279a6.377 6.377 0 0 0 2.159 1.955l-.254.432a6.642 6.642 0 0 1-2.336-2.108Zm64.696-.888a6.004 6.004 0 0 0 .686-2.819h.507a6.739 6.739 0 0 1-.736 3.047l-.457-.228Zm-65.838-2.819v-.025l.33-2.26.508.076-.33 2.235c0 .228.025.482.05.71l-.507.052a8.189 8.189 0 0 1-.05-.788Zm65.965-3.91.508-.076.431 3.022-.507.076-.432-3.022Zm-65.203-1.422.432-3.021.507.076-.431 3.022-.508-.077Zm64.314-4.595.508-.076.432 3.021-.508.076-.432-3.021Zm-63.425-1.422.431-3.022.508.076-.432 3.022-.507-.076Zm62.537-4.621.507-.076.432 3.021-.508.076-.431-3.021Zm-61.649-1.397.432-3.021.508.076-.432 3.021-.508-.076Zm60.76-4.62.508-.077.431 3.021-.507.077-.432-3.022Zm-59.947-1.423a6.472 6.472 0 0 1 1.142-2.92l.407.28a6.252 6.252 0 0 0-1.041 2.716l-.508-.076Zm57.662-3.834.33-.38a6.691 6.691 0 0 1 1.853 2.513l-.457.203a6.237 6.237 0 0 0-1.726-2.336Zm-29.86.33v-.507c1.041.025 2.057.025 3.047.025v.508H117c-.762 0-1.523 0-2.31-.026Zm6.12-.533c1.015-.025 2.03-.05 3.046-.101l.026.507c-1.041.051-2.082.077-3.072.102v-.508Zm-12.213.28.025-.508c1.041.05 2.057.127 3.047.152l-.025.508c-.99-.051-2.006-.102-3.047-.153Zm18.281-.534c1.016-.05 2.031-.127 3.047-.203l.05.508c-1.04.076-2.056.152-3.072.203l-.025-.508Zm-24.375.076.05-.507c1.016.101 2.032.177 3.048.254l-.051.507a123.154 123.154 0 0 1-3.047-.254Zm30.418-.558a91.868 91.868 0 0 0 3.021-.33l.051.508c-.94.127-1.98.228-3.021.33l-.051-.508Zm-36.512-.102.051-.508c.99.127 2.006.229 3.021.356l-.025.508a111.378 111.378 0 0 1-3.047-.356Zm-6.017-.127a6.685 6.685 0 0 1 3.046-.761v.507c-.99 0-1.955.254-2.818.711l-.228-.457Zm48.572-.508 1.6-.253h.05c.483 0 .99.05 1.448.152l-.102.508a5.855 5.855 0 0 0-1.32-.153c-.102.026-.66.127-1.6.254l-.076-.508ZM93.97 192.309a5.993 5.993 0 0 1-5.94-5.993v-.076l2.818-19.271a5.993 5.993 0 0 1 5.992-5.942h.076c.102.026 10.486 1.524 20.084 1.524 11.629 0 20.084-1.498 20.16-1.524h.102c3.275 0 5.967 2.666 5.992 5.942l2.818 19.297v.025c0 3.3-2.666 5.967-5.941 5.992-.711.102-13.203 1.55-24.045 1.55-8.557 0-21.404-1.448-22.115-1.524Zm.051-1.016h.051c.127.025 13.305 1.523 22.014 1.523 11.02 0 23.816-1.498 23.943-1.523h.051c2.717 0 4.951-2.209 4.977-4.926l-2.819-19.297v-.025c0-2.717-2.209-4.951-4.926-4.977-.71.127-9.039 1.524-20.312 1.524-9.37 0-19.475-1.422-20.186-1.524a4.974 4.974 0 0 0-4.925 4.977v.076l-2.844 19.246a4.974 4.974 0 0 0 4.976 4.926Z" id="Vector" fill="#EAEAFF" mask="url(#mask-2)"/>
    </g>
    <g id="skip" transform="translate(300.245 60)">
      <path d="M0 0h55v40H0V0Z" id="skip-(Background)" fill="#FFF"/>
      <text id="건너뛰기" font-family="AppleSDGothicNeo-Regular, Apple SD Gothic Neo" font-size="14" font-weight="normal" fill="#858597">
                <tspan x="1.035" y="21">건너뛰기</tspan>
            </text>
    </g>
  </g>
</svg>
