<svg width="375" height="812" viewBox="0 0 375 812" xmlns="http://www.w3.org/2000/svg">
  <g id="intro1" stroke="none" stroke-width="1" fill="none" fill-rule="evenodd">
    <path fill="#FFF" d="M0 0h375v812H0z"/>
    <text id="title" font-family="AppleSDGothicNeo-Regular, Apple SD Gothic Neo" font-size="22" font-weight="normal" fill="#1F1F39">
            <tspan x="127.187" y="452">한국어</tspan>
            <tspan x="184.277" y="452" font-family="Roboto-Regular, Roboto"> </tspan>
            <tspan x="189.723" y="452">배우기</tspan>
        </text>
    <text id="desc" font-family="NanumGothic, Nanum Gothic" font-size="20" font-weight="normal" fill="#858597">
            <tspan x="93.6" y="536">‘한국어 말하기’를 통해</tspan>
            <tspan x="114.66" y="568">한국어 공부하기!</tspan>
        </text>
    <g id="Pavigation" transform="translate(155 615)">
      <path d="M2.5 0h23a2.5 2.5 0 1 1 0 5h-23a2.5 2.5 0 0 1 0-5Z" id="Rectangle-2" fill="#3D5CFF"/>
      <path d="M40.5 0h4a2.5 2.5 0 1 1 0 5h-4a2.5 2.5 0 1 1 0-5Z" id="Rectangle-3" fill="#EAEAFF"/>
      <path d="M59.5 0h4a2.5 2.5 0 1 1 0 5h-4a2.5 2.5 0 1 1 0-5Z" id="Rectangle-4" fill="#EAEAFF"/>
    </g>
    <g id="illustration" transform="translate(57 112)">
      <path d="M0 0h260v260H0V0Z" id="illustration-01-(Background)"/>
      <path d="M260 60v140c0 33.137-26.863 60-60 60H60c-33.137 0-60-26.863-60-60V60C0 26.863 26.863 0 60 0h140c33.137 0 60 26.863 60 60Z" id="Vector" fill="#CDECFE"/>
      <g id="Group" transform="translate(4.824 27.498)" fill="#87C0F4">
        <path d="M25.264 1.523c.228-.94.406-1.498.406-1.523l.965.33c0 .025-.178.533-.381 1.422l-.99-.229Z" id="Vector" fill-rule="nonzero"/>
        <path d="M11.73 192.969c.915-.026 1.905-.153 2.946-.33l.178.99c-1.092.228-2.133.33-3.098.355l-.026-1.015Zm-6.093-.229.482-.889c.813.432 1.727.737 2.717.94l-.203.99a10.466 10.466 0 0 1-2.996-1.04Zm11.908-.812.076-.026a48.839 48.839 0 0 0 2.742-.965l.381.94c-.889.355-1.828.71-2.818 1.015h-.102l-.28-.964ZM1.32 188.17l.914-.457c.432.888.99 1.7 1.625 2.386l-.761.686a10.556 10.556 0 0 1-1.778-2.615Zm21.71 1.472a25.857 25.857 0 0 0 2.488-1.6l.609.813a25.424 25.424 0 0 1-2.615 1.676l-.483-.889Zm4.747-3.503a33.825 33.825 0 0 0 2.057-2.159l.762.66a29.794 29.794 0 0 1-2.108 2.235l-.71-.736Zm3.936-4.495a57.859 57.859 0 0 0 1.726-2.463l.838.56c-.584.888-1.168 1.751-1.752 2.513l-.812-.61Zm3.377-5.002c.508-.812 1.015-1.65 1.574-2.59l.863.508a88.465 88.465 0 0 1-1.574 2.616l-.863-.534Zm3.072-5.205c.483-.838.965-1.726 1.473-2.64l.888.482c-.507.94-.99 1.828-1.472 2.666l-.889-.508Zm2.945-5.28c.457-.864.94-1.753 1.448-2.667l.888.482c-.507.915-.99 1.803-1.447 2.667l-.889-.483Zm2.87-5.333c.457-.863.939-1.752 1.421-2.666l.89.482c-.483.89-.94 1.778-1.423 2.666l-.888-.482Zm2.92-5.383c.507-.812 1.142-1.6 1.93-2.463l.735.686c-.71.812-1.345 1.6-1.802 2.336l-.864-.559Zm4.164-4.595c.71-.61 1.472-1.27 2.36-1.956l.636.788c-.914.71-1.65 1.32-2.336 1.93l-.66-.762Zm4.773-3.784c.71-.507 1.498-1.091 2.463-1.777l.584.838c-.965.685-1.752 1.244-2.438 1.752l-.609-.813Zm4.951-3.529c.813-.584 1.65-1.168 2.463-1.752l.584.838c-.812.584-1.65 1.168-2.463 1.752l-.584-.838Zm4.926-3.53c.863-.634 1.65-1.243 2.412-1.827l.635.812c-.787.584-1.574 1.168-2.438 1.828l-.61-.812Zm4.748-3.757c.787-.66 1.549-1.346 2.26-1.98l.685.736a36.051 36.051 0 0 1-2.285 2.031l-.66-.787Zm4.418-4.063a53.539 53.539 0 0 0 2.031-2.209l.762.66a53.623 53.623 0 0 1-2.057 2.26l-.736-.71Zm3.885-4.544a34.63 34.63 0 0 0 1.625-2.489l.863.508a27.53 27.53 0 0 1-1.676 2.564l-.812-.583Zm119.437-4.063v-1.016c1.016 0 2.031 0 2.996-.05l.051 1.015a70.22 70.22 0 0 1-2.361.051h-.686Zm-6.094-.38.102-1.016c1.016.101 2.031.177 2.996.253l-.05 1.016c-.99-.05-2.007-.152-3.048-.254Zm12.112-.915a36.342 36.342 0 0 0 2.97-.432l.178.99a29.2 29.2 0 0 1-3.047.458l-.101-1.016Zm-122.46.203c.407-.888.763-1.828 1.067-2.767l.965.304a31.88 31.88 0 0 1-1.092 2.87l-.94-.407Zm104.28-.127.178-.99c1.015.178 2.006.33 2.97.457l-.126 1.016a67.634 67.634 0 0 1-3.022-.483Zm24.07-1.142c.99-.254 1.93-.584 2.844-.914l.356.94c-.94.355-1.93.685-2.946.964l-.254-.99Zm-30.037-.051.229-.99c.99.228 1.98.457 2.945.634l-.203 1.016c-.99-.203-1.98-.432-2.97-.66Zm-5.916-1.549.28-.965c.99.28 1.955.559 2.92.787l-.254.99c-.965-.253-1.955-.507-2.946-.812Zm41.514-.533c.889-.457 1.752-.99 2.539-1.549l.584.838a28.48 28.48 0 0 1-2.666 1.6l-.457-.89Zm-47.328-1.27.33-.964c.965.33 1.93.634 2.894.914l-.33.99c-.964-.305-1.93-.61-2.894-.94Zm-84.729-.99c.203-.94.381-1.904.559-2.945l1.016.152a45.655 45.655 0 0 1-.584 3.022l-.99-.229Zm78.99-1.016.356-.939c.94.356 1.904.711 2.844 1.041l-.33.94c-.94-.33-1.905-.686-2.87-1.042Zm57.891-.126a18.233 18.233 0 0 0 2.006-2.184l.787.635a22.471 22.471 0 0 1-2.107 2.285l-.686-.736Zm-63.553-2.108.381-.94c.94.382 1.88.762 2.793 1.143l-.355.94-2.819-1.143Zm-5.61-2.463.43-.914c.915.406 1.854.838 2.768 1.244l-.406.914c-.94-.406-1.853-.812-2.793-1.244Zm72.845-.025c.482-.838.94-1.727 1.346-2.64l.939.405c-.432.94-.914 1.854-1.422 2.743l-.863-.508Zm-139.623-.178c.101-1.04.203-2.082.28-3.021l1.015.101c-.076.914-.178 1.955-.28 3.022l-1.015-.102Zm61.293-2.412.457-.914a89.63 89.63 0 0 0 2.717 1.32l-.432.94c-.914-.432-1.828-.889-2.742-1.346Zm-5.408-2.793.482-.889c.889.483 1.777.965 2.666 1.422l-.457.889c-.914-.483-1.803-.965-2.691-1.422Zm86.125-.076c.304-.965.558-1.93.761-2.87l.99.204c-.203.99-.482 1.98-.787 2.97l-.964-.304Zm-141.452-.762a50.02 50.02 0 0 1 .407-3.047l.99.178a76.737 76.737 0 0 0-.381 2.97l-1.016-.1Zm50.045-2.183.508-.864c.838.508 1.727 1.016 2.615 1.524l-.482.863a255.342 255.342 0 0 1-2.64-1.523Zm-5.18-3.25.56-.838c.837.533 1.675 1.091 2.538 1.625l-.533.863a88.35 88.35 0 0 1-2.564-1.65Zm97.805.38a26.12 26.12 0 0 0 .127-2.437v-.533l1.016-.026v.559c0 .838-.05 1.676-.127 2.539l-1.016-.102ZM86.227 98.795c.33-1.067.685-2.006 1.142-2.895l.914.457a16.39 16.39 0 0 0-1.092 2.717l-.964-.28Zm38.72-2.844.61-.812c.787.584 1.625 1.167 2.463 1.751l-.584.838a70.39 70.39 0 0 1-2.489-1.777Zm-4.773-3.809.66-.761c.71.634 1.498 1.27 2.31 1.93l-.609.787a69.26 69.26 0 0 1-2.361-1.956ZM89.146 93.31a13.79 13.79 0 0 1 1.98-1.853l.331-.254.61.812-.33.254a9.695 9.695 0 0 0-1.829 1.702l-.762-.66ZM227.018 91l.964-.28c.28.99.508 2.006.686 3.022l-1.016.152a22.637 22.637 0 0 0-.634-2.894ZM93.92 89.375a87.81 87.81 0 0 1 2.514-1.727l.558.838c-.838.584-1.676 1.143-2.488 1.727l-.584-.838Zm21.887-1.574.787-.66c.584.71 1.27 1.421 2.031 2.183l-.71.736c-.788-.787-1.499-1.523-2.108-2.26Zm108.773-2.21.863-.533c.534.89 1.041 1.803 1.448 2.743l-.914.406a21.583 21.583 0 0 0-1.397-2.615Zm-125.582.432a89.91 89.91 0 0 1 2.64-1.549l.508.89c-.888.507-1.751 1.015-2.615 1.523l-.533-.864Zm14.27-2.107a24.943 24.943 0 0 1-.559-1.473l.965-.33c.178.483.355.965.533 1.422.178.406.38.813.635 1.244l-.863.508c-.28-.482-.534-.94-.711-1.371Zm-8.938-.863c.889-.457 1.803-.914 2.717-1.372l.432.915c-.89.431-1.803.888-2.692 1.345l-.457-.888Zm116.568-2.108.711-.71a25.235 25.235 0 0 1 2.057 2.31l-.787.61a26.808 26.808 0 0 0-1.98-2.21Zm-111.084-.558a94.43 94.43 0 0 1 2.362-1.016l-.305.076c-.203-.965-.406-1.98-.533-3.021l1.016-.127a47 47 0 0 0 .533 2.945l-.229.05.356.864c-.94.38-1.88.762-2.793 1.168l-.407-.94Zm5.663-2.286a95.759 95.759 0 0 1 2.869-1.015l.33.965c-.965.33-1.93.66-2.844 1.015l-.355-.965Zm100.775-.888.559-.838a36.955 36.955 0 0 1 2.488 1.828l-.635.762a34.522 34.522 0 0 0-2.412-1.752Zm-95.012-1.041c.965-.305 1.955-.584 2.92-.864l.28.99a54.81 54.81 0 0 0-2.895.839l-.305-.965Zm89.781-1.828.407-.914c.94.431 1.879.888 2.742 1.37l-.457.864a37.863 37.863 0 0 0-2.692-1.32Zm-83.916.177c.965-.254 1.98-.482 2.971-.71l.229.99c-.99.228-1.98.457-2.946.71l-.254-.99Zm5.942-1.32c.99-.203 1.98-.38 2.996-.559l.178.99c-.99.153-1.98.356-2.971.56l-.203-.991Zm-22.192-2.87 1.016-.025a53.67 53.67 0 0 0 .152 2.997l-1.015.076a55.583 55.583 0 0 1-.153-3.047Zm94.555 1.93.28-.964c.99.304 1.98.61 2.92.965l-.356.939c-.914-.33-1.879-.66-2.844-.94Zm-66.346-.152c.99-.152 2.006-.304 3.022-.457l.152 1.016c-1.04.152-2.056.28-3.021.457l-.153-1.016Zm6.018-.838c.99-.127 2.006-.228 3.022-.355l.101 1.015c-1.016.102-2.006.229-2.996.356l-.127-1.016Zm6.043-.66c.99-.101 2.006-.178 3.021-.254l.077 1.016c-1.016.101-2.032.178-2.996.254l-.102-1.016Zm48.42.28.178-.99a52.04 52.04 0 0 1 2.996.609l-.229.99a54.962 54.962 0 0 0-2.945-.61Zm-42.352-.737c1.016-.076 2.032-.127 3.047-.178l.051 1.016c-.99.05-2.006.102-3.021.178l-.077-1.016Zm6.069-.355c1.015-.051 2.031-.102 3.047-.127l.05 1.015c-1.015.051-2.03.077-3.047.127l-.05-1.015Zm6.068-.254c1.016-.051 2.031-.076 3.047-.102l.025 1.016c-.99.025-2.006.076-3.021.101l-.05-1.015Zm24.248.584.076-1.016c1.016.076 2.057.203 3.047.305l-.127 1.015a54.32 54.32 0 0 0-2.996-.304Zm-18.154-.813a112.76 112.76 0 0 0 3.021-.127l.051 1.016c-1.016.05-2.031.101-3.047.127l-.025-1.016Zm6.043-.228c.61-.026 1.219-.051 1.828-.102.406-.025.812-.05 1.219-.05l.05 1.015c-.406.025-.787.025-1.193.05a45.21 45.21 0 0 0-1.853.102l-.051-1.015Zm6.195.812h-.101v-1.015h.101c.99 0 1.98.025 2.945.05l-.025 1.016c-.965-.025-1.93-.05-2.92-.05Zm-76.832-2.615c0-.94.025-1.93.05-3.047l1.016.026c-.025 1.091-.025 2.082-.05 3.021h-1.016Zm.178-6.12c.025-.735.05-1.472.101-2.208l.026-.813 1.015.051-.025.813c-.05.736-.076 1.472-.102 2.209l-1.015-.051Zm.254-6.042c.05-1.117.076-2.108.076-3.022l1.016.026c0 .914-.051 1.904-.077 3.021l-1.015-.025Zm-.051-9.04 1.016-.075c.05.965.101 1.955.127 3.047l-1.016.025c-.026-1.092-.05-2.057-.127-2.996Zm-.838-5.915.99-.254c.229.94.432 1.955.584 3.021l-1.015.153c-.153-1.041-.33-2.032-.559-2.92Zm-2.285-5.408.838-.559a16.78 16.78 0 0 1 1.472 2.768l-.939.38a15.63 15.63 0 0 0-1.371-2.59Zm-57.942-1.422.051-1.016c.864.05 1.752.076 2.692.076h.33v1.016h-.33c-.94 0-1.854-.025-2.743-.076Zm6.094-1.041c.965-.051 1.955-.153 2.996-.254l.102 1.015c-1.067.102-2.082.204-3.047.254l-.05-1.015Zm-12.162.101.254-.99c.94.229 1.93.432 2.92.584l-.152 1.016a27.647 27.647 0 0 1-3.022-.61Zm18.154-.736c.94-.127 1.93-.28 2.997-.457l.152.99a60.864 60.864 0 0 1-3.022.483l-.127-1.016Zm41.616-.762.482-.888c.94.507 1.803 1.117 2.565 1.802l-.686.762a13.196 13.196 0 0 0-2.361-1.676Zm-35.674-.177 2.97-.534.178.99c-.965.178-1.955.356-2.97.534l-.178-.99Zm-29.885-.508.482-.889c.864.457 1.778.863 2.692 1.219l-.356.94c-.964-.382-1.93-.788-2.818-1.27Zm35.877-.584c.99-.178 2.006-.356 2.996-.533l.178.99c-1.016.177-2.006.355-2.996.533l-.178-.99Zm24.07-.559.178-.99c1.041.203 2.057.457 2.996.762l-.28.94a24.118 24.118 0 0 0-2.894-.712Zm-18.078-.508c1.067-.177 2.057-.304 3.022-.457l.127 1.016c-.965.127-1.93.28-2.996.457l-.153-1.016Zm6.043-.787a72.257 72.257 0 0 1 3.047-.228l.05 1.015c-.964.051-1.954.127-2.995.229l-.102-1.016Zm6.094.711v-1.015c1.066 0 2.082.05 3.072.152l-.076 1.015a54.951 54.951 0 0 0-2.996-.152Zm-59.11-1.726.66-.788c.737.635 1.55 1.22 2.387 1.803l-.584.838a31.173 31.173 0 0 1-2.462-1.853Zm-4.189-4.52.838-.584a19.95 19.95 0 0 0 1.879 2.285l-.762.686a24.356 24.356 0 0 1-1.955-2.387Zm-2.92-5.459.965-.355c.33.939.736 1.828 1.219 2.716l-.914.457a23.34 23.34 0 0 1-1.27-2.818Zm-1.37-6.018 1.015-.101c.101.99.254 1.98.482 2.92l-.99.228a23.834 23.834 0 0 1-.508-3.047Zm-.153-3.097c0-1.016.076-2.057.177-3.072l1.016.127a37.43 37.43 0 0 0-.178 2.945h-1.015Z" id="Vector"/>
        <path d="m0 183.549 1.016-.051c.017.39.093.863.228 1.422l-.99.203c-.203-.94-.229-1.549-.254-1.574Z" id="Vector" fill-rule="nonzero"/>
      </g>
      <path d="M118.574 67.285c-11.68 5.84-13.203 18.535-14.219 26.153-1.015 7.617-5.332 18.027-11.933 23.613-6.602 5.586-12.188 11.68-14.727 25.137-2.539 13.457 1.016 22.851-2.793 35.039-3.808 12.187-15.742 28.945-14.98 42.656.508 9.14 4.655 13.203 12.441 12.187h154.883c4.96-12.001 5.298-25.289 1.016-39.863-5.586-19.043-22.344-21.836-26.914-46.719-2.362-12.847-2.032-16.504-11.426-28.437-9.674-12.29-16.25-12.442-20.567-23.613-4.316-11.172-6.855-32.247-32.5-25.899-4.4-4.062-10.494-4.147-18.28-.254Z" id="Vector" fill="#1F1F39" fill-rule="nonzero"/>
      <path d="M208.94 231.943h-39.838l-9.903-38.466 42.225-6.678 7.515 45.144Z" id="Vector" fill="#F9D2DD" fill-rule="nonzero"/>
      <path d="M34.277 206.934c-8.125-1.524-21.328-9.902-19.804-27.676 1.015-11.849 12.61-35.208 34.785-70.078-3.555-4.062-4.57-8.548-3.047-13.457 2.285-7.363 10.41-9.395 15.742-9.648 3.555-.17 6.602.169 9.14 1.015l11.68-16.504c1.693-2.2 3.555-2.793 5.586-1.777 2.032 1.016 1.016 4.824-3.047 11.426L79.727 91.66c-.678 6.602-1.778 11.765-3.301 15.489-1.524 3.724-2.709 6.009-3.555 6.855l-12.187 40.117 13.964-3.808-12.695 52.558c-13.034 3.724-22.259 5.079-27.676 4.063Z" id="Vector" fill="#FFEBF0" fill-rule="nonzero"/>
      <path d="m61.953 202.871 12.695-52.559-12.492 3.403-12.39 51.95 12.187-2.794Zm97.247-9.394 3.503 13.66 43.291 7.185-4.57-27.523-42.225 6.678Z" id="Vector" fill="#F9ACC0" fill-rule="nonzero"/>
      <path d="M205.918 206.172c-3.893-38.424-15.488-60.599-34.785-66.523-28.946-8.887-49.004-6.094-58.145-3.301-6.093 1.862-22.174 6.94-48.242 15.234l-8.379 55.606 22.598-2.286-3.809 27.168h100.09c-1.388-10.664-2.928-19.296-4.621-25.898h35.293Z" id="Vector" fill="#3D5CFF" fill-rule="nonzero"/>
      <path d="M205.918 206.172c-3.893-38.424-15.488-60.599-34.785-66.523-28.946-8.887-49.004-6.094-58.145-3.301-6.093 1.862-22.174 6.94-48.242 15.234l-8.379 55.606 22.598-2.286-3.809 27.168h100.09c-1.388-10.664-2.928-19.296-4.621-25.898h35.293Z" id="Vector" fill="#3D5CFF" fill-rule="nonzero"/>
      <path d="M200.357 181.95c-3.884-4.368-14.218-14.55-26.634-15.133-10.258-.483-12.797-6.78-15.057-12.315-1.447-3.555-2.793-6.931-5.916-8.836-5.662-3.453-11.477-1.6-18.79.737-3.25 1.04-6.6 2.107-10.358 2.843-6.577 1.295-10.588-1.675-12.823-4.392-2.386-2.92-3.224-6.094-3.275-6.246a.49.49 0 0 1 .355-.61.49.49 0 0 1 .61.356c0 .025.838 3.123 3.097 5.865 2.996 3.63 6.957 4.977 11.832 4.037 3.682-.736 7.034-1.803 10.258-2.818 7.287-2.336 13.584-4.342 19.627-.635 3.403 2.082 4.9 5.764 6.348 9.318 2.234 5.535 4.545 11.248 14.168 11.68 12.797.584 23.385 11.02 27.346 15.463.177.203.177.533-.051.71a.605.605 0 0 1-.356.153.457.457 0 0 1-.38-.178Zm-75.486 45.575c-.457-11.68-6.5-13.38-13.482-15.336-3.25-.914-6.627-1.853-9.547-3.91-6.424-4.494-5.662-9.242-4.774-14.752.407-2.513.838-5.357.686-8.506-.432-8.125-6.983-10.308-16.022-13.304a191.994 191.994 0 0 1-5.306-1.828c-4.85-1.752-7.44-5.815-7.49-11.705-.051-4.368 1.294-8.15 1.345-8.329l.965.33c-.025.026-1.346 3.81-1.295 7.999.076 5.484 2.361 9.115 6.83 10.74 1.803.66 3.58 1.244 5.281 1.803 9.09 3.021 16.25 5.408 16.733 14.218.178 3.25-.28 6.145-.686 8.71-.888 5.585-1.523 9.648 4.368 13.761 2.792 1.955 6.068 2.87 9.242 3.758 7.058 1.98 13.736 3.834 14.218 16.275a37.99 37.99 0 0 0 .407 4.418l-1.067.178a39.313 39.313 0 0 1-.406-4.52Zm23.41-45.145c-1.193-.177-2.412-.38-3.758-.609-7.109-1.269-8.074-5.89-9.09-10.765-.609-2.945-1.269-5.992-3.148-8.912-3.021-4.647-8.125-3.479-15.183-1.854-4.545 1.041-9.674 2.21-15.387 2.057-4.291-.127-10.131-1.752-13.711-8.887-2.108-4.215-2.412-8.328-2.412-8.506l1.015-.076c0 .05.305 4.113 2.336 8.15 2.692 5.358 7.008 8.15 12.823 8.303 5.586.153 10.638-1.015 15.132-2.031 7.186-1.65 12.848-2.945 16.276 2.285 2.006 3.072 2.691 6.348 3.3 9.242 1.042 4.926 1.854 8.836 8.278 9.979 1.32.228 2.539.431 3.732.61 6.932 1.091 11.528 1.802 17.952 8.708l-.788.711c-6.195-6.652-10.638-7.338-17.367-8.404Z" id="Vector" fill="#EAEAFF" fill-rule="nonzero"/>
      <path d="M205.918 206.172c-3.893-38.424-15.488-60.599-34.785-66.523-28.946-8.887-49.004-6.094-58.145-3.301-6.093 1.862-22.174 6.94-48.242 15.234l-8.379 55.606 22.598-2.286-3.809 27.168h100.09c-1.388-10.664-2.928-19.296-4.621-25.898h35.293Z" id="Vector" fill-rule="nonzero"/>
      <path d="M109.18 94.96c-3.555 3.047-1.524 9.395 3.3 11.172 3.217 1.185 5.248 1.355 6.094.508l-2.285-12.187c-2.37-1.693-4.74-1.524-7.11.508Z" id="Vector" fill="#F9ACC0" fill-rule="nonzero"/>
      <path d="M117.812 111.465c1.862 4.232 4.74 6.94 8.633 8.125.339 3.047.17 6.094-.508 9.14-.677 3.047-1.438 5.417-2.285 7.11 1.016 2.2 5.078 3.47 12.188 3.808 7.11.339 11.172-.93 12.187-3.808-.846-4.74-1.185-8.802-1.015-12.188.169-3.385.761-7.701 1.777-12.949 4.57 1.524 8.294.846 11.172-2.031 4.316-4.317 3.3-12.442-2.031-12.95-3.555-.338-6.263 1.016-8.125 4.063-5.079-2.37-8.633-5.501-10.664-9.394-2.032-3.894-3.132-7.194-3.301-9.903-9.818 1.354-16.42 6.01-19.805 13.965-.677 7.11-.085 12.78 1.777 17.012Z" id="Vector" fill="#F9D2DD" fill-rule="nonzero"/>
      <path d="M123.78 101.055c-.912 0-1.651-.91-1.651-2.032 0-1.121.739-2.03 1.65-2.03.912 0 1.65.909 1.65 2.03 0 1.122-.738 2.032-1.65 2.032Zm12.949.761c-.912 0-1.65-.909-1.65-2.03 0-1.123.738-2.032 1.65-2.032.911 0 1.65.91 1.65 2.031 0 1.122-.739 2.031-1.65 2.031Z" id="Vector" fill="#1F1F39"/>
      <path d="M134.063 107.148c.677-.17 1.692-.762 3.046-1.777.339-.17.593-.17.762 0 .254.254-1.37 3.148-2.793 3.554-1.777.508-3.047-.254-3.808-1.27-.508-.676-.424-.93.254-.76 1.015.338 1.861.422 2.539.253Z" id="Vector" fill="#F95368" fill-rule="nonzero"/>
      <path d="M129.01 99.1c-.305.533-.584 1.091-.762 1.65-.076.28-.127.559-.101.813 0 .076.025.126.025.177l.076.203c.05.127.127.254.203.381.305.457.914.737 1.524.762a1.774 1.774 0 0 1-.965.025 1.56 1.56 0 0 1-.863-.533c-.127-.127-.204-.28-.305-.432l-.102-.228a4.166 4.166 0 0 1-.076-.28c-.076-.355 0-.71.076-1.04.203-.635.534-1.194.914-1.727A8.593 8.593 0 0 1 130 97.5l-.99 1.6Z" id="Vector" fill="#1F1F39" fill-rule="nonzero"/>
      <g id="Group" transform="translate(157.168 162.246)" fill="#224BF4" fill-rule="nonzero">
        <path d="M23.816 43.926c-1.193-3.783-5.61-17.266-10.613-26.153C9.31 10.833 4.91 4.91 0 0c4.198 12.154 6.906 20.279 8.125 24.375 1.202 4.012 3.343 12.12 6.424 24.324-.356-1.676-.711-3.3-1.092-4.773h10.36Z" id="Vector"/>
      </g>
      <path d="M136.45 92.88c.507-.179 1.015-.306 1.548-.33.533-.026 1.092.024 1.6.202.507.178 1.015.457 1.295.94-.483-.203-.965-.28-1.448-.356a8.917 8.917 0 0 0-1.422-.025 13.95 13.95 0 0 0-1.447.152l-1.498.229c.406-.356.863-.61 1.371-.813Zm-15.26-1.601a5.787 5.787 0 0 1 3.808.863c.28.178.533.406.762.66.203.254.406.559.431.889a2.24 2.24 0 0 0-.685-.61 8.08 8.08 0 0 0-.813-.406 14.779 14.779 0 0 0-1.7-.558 10.338 10.338 0 0 0-1.778-.254c-.61 0-1.244 0-1.88.05.56-.355 1.194-.533 1.854-.634Z" id="Vector" fill="#1F1F39" fill-rule="nonzero"/>
      <g id="Group" transform="translate(25.898 231.816)" fill="#1F1F39">
        <path id="Vector" d="M0 .254h208.203m0-.254v.84H0V0h208.203Z"/>
      </g>
      <path d="M67.133 110.652c-.153-.127-3.631-3.173-4.393-8.277-.38-2.488-.228-6.018 1.346-7.871.457-.508.94-.787 1.447-.787 1.32 0 1.803.99 2.615 2.64.254.534.559 1.118.914 1.803 1.498 2.717 5.764 7.008 5.79 7.059a.245.245 0 0 1 0 .355.245.245 0 0 1-.356 0c-.178-.178-4.367-4.367-5.89-7.16-.382-.685-.66-1.295-.94-1.828-.813-1.676-1.193-2.361-2.158-2.361-.33 0-.711.228-1.067.609-.914 1.066-1.802 3.682-1.244 7.465.736 4.926 4.19 7.947 4.24 7.972.102.102.127.254.026.356-.026.05-.102.076-.178.076a.272.272 0 0 1-.152-.05Z" id="Vector" fill="#1F1F39" fill-rule="nonzero"/>
      <path d="M55.91 101.436c-3.935-1.32-3.986-3.2-3.986-3.276 0-.152.101-.254.254-.254.127 0 .254.102.254.254 0 .026.101 1.625 3.63 2.819 3.631 1.218 6.551-.737 6.577-.737.127-.076.279-.05.355.076.076.127.05.28-.076.356-.076 0-1.854 1.168-4.367 1.193a8.549 8.549 0 0 1-2.64-.431Z" id="Vector" fill="#1F1F39" fill-rule="nonzero"/>
      <path d="M139.648 120.098c-4.197 1.252-8.582 1.235-13.152-.051.102 1.27.28 4.976-.559 8.683a29.44 29.44 0 0 1-.228.99c2.285.026 5.865-.304 9.623-2.26 4.232-2.2 6.686-4.908 7.363-8.124-.169 0-1.185.254-3.047.762Z" id="Vector" fill="#F9ACC0" fill-rule="nonzero"/>
      <path d="M47.607 156.584c-.025-.127.051-.28.203-.305l16.708-3.402c.126-.026.279.05.304.203.026.127-.05.28-.203.305l-16.707 3.402h-.05a.247.247 0 0 1-.255-.203Zm84.297-35.344c-1.32-.05-2.64-.279-3.96-.634-.534-.153-1.067-.305-1.575-.508-.127-.05-.203-.203-.152-.33.05-.127.203-.203.33-.152.508.177 1.016.355 1.549.482 1.27.355 2.564.559 3.86.61 5.458.253 9.495-1.245 9.546-1.245.127-.05.28.026.33.153.05.126-.025.279-.152.33-.076.025-3.606 1.32-8.532 1.32-.406 0-.837 0-1.244-.025Zm-16.25-15.996c0-.025-.025-1.498-1.498-4.189-1.447-2.64-2.666-3.174-2.666-3.2-.127-.05-.203-.202-.127-.33.077-.126.204-.202.33-.152.051.026 1.372.584 2.92 3.403 1.55 2.818 1.55 4.367 1.55 4.443 0 .178-.102.28-.255.28-.152 0-.254-.102-.254-.255Zm54.514 100.7c-.94-3.2-2.31-8.15-3.63-13.66-2.515-10.538-9.573-29.733-9.65-29.936-.05-.127.026-.28.153-.33.127-.05.28.025.33.152.076.203 7.135 19.424 9.649 29.987a318.89 318.89 0 0 0 3.605 13.634c.05.127-.05.28-.178.305.026 0 0 .025-.025.025-.102 0-.203-.076-.254-.177Z" id="Vector" fill="#1F1F39" fill-rule="nonzero"/>
      <path d="M96.738 43.672a2.48 2.48 0 0 0 0 .508v-.508Z" id="Vector" fill="#EAEAFF" fill-rule="nonzero"/>
      <g id="Group" transform="translate(75.03 19.373)" fill="#FFF">
        <path d="M5.23 0A5.223 5.223 0 0 0 0 5.23v15.21a5.223 5.223 0 0 0 5.23 5.23h7.846v9.166c0 .736.584 1.32 1.32 1.32h.407c.406.076.863 0 1.193-.33l10.766-10.13h12.467a5.223 5.223 0 0 0 5.23-5.231V5.23C44.434 2.336 42.098 0 39.203 0H5.23Zm8.608 12.873c-1.693-3.216-2.116-5.755-1.27-7.617 3.064-.406 5.434.61 7.11 3.047 2.209 3.199 2.513 6.398 2.539 7.617.101-.914.71-2.945 4.062-5.332 2.37-1.693 4.655-2.2 6.856-1.524 1.523 5.756-2.37 9.31-11.68 10.665-3.385-1.355-5.924-3.64-7.617-6.856Z" id="Vector"/>
        <path d="M26.533 15.158c2.031-1.693 3.809-3.3 5.332-4.824-1.185.508-2.539 1.354-4.062 2.539-1.524 1.185-3.64 3.3-6.348 6.348 1.354-1.016 3.047-2.37 5.078-4.063Zm-9.394-2.285c1.523 2.878 2.962 4.994 4.316 6.348a175.215 175.215 0 0 0-2.793-5.84c-1.016-2.031-2.37-4.063-4.062-6.094.169.846 1.015 2.708 2.539 5.586Z" id="Vector" fill-rule="nonzero"/>
      </g>
      <path d="M178.902 60.76a5.223 5.223 0 0 0-5.23 5.23V81.2a5.223 5.223 0 0 0 5.23 5.23h12.467l10.766 10.13c.33.33.787.407 1.193.33h.406a1.31 1.31 0 0 0 1.32-1.32v-9.166h7.846a5.223 5.223 0 0 0 5.23-5.23v-15.21a5.256 5.256 0 0 0-5.255-5.204h-33.973Zm15.92 19.525c-.05 0-.076 0-.127-.025l-5.408-1.854a.93.93 0 0 1-.635-.888V67.69c0-.533.407-.94.94-.964.101 0 .203.025.304.05l4.774 1.625c.355.127.61.483.61.864v10.588c0 .253-.204.431-.458.431Zm2.26 0a.446.446 0 0 1-.559-.28c-.025-.05-.025-.1-.025-.151V69.266c0-.381.254-.737.61-.864l4.773-1.625a.926.926 0 0 1 1.193.584c.026.102.051.203.051.305v9.826c0 .457-.254.813-.635.94l-5.408 1.853Z" id="Vector" fill="#FFF"/>
      <path d="M143.33 107.91c-2.734 0-4.951-1.364-4.951-3.047 0-1.682 2.217-3.047 4.951-3.047 2.735 0 4.951 1.365 4.951 3.047 0 1.683-2.216 3.047-4.95 3.047Z" id="Vector" fill="#F9ACC0"/>
      <path d="M115.984 102.705c.102 1.524.28 3.098.584 4.621a7.257 7.257 0 0 0 2.895.584c2.742 0 4.951-1.37 4.951-3.047 0-1.675-2.209-3.047-4.951-3.047-1.371 0-2.59.33-3.479.89Zm32.78 8.201a1.07 1.07 0 0 0 .025-.203c.965.322 2.107.516 3.428.584-.026-.178-.076-.355-.127-.584-.677-2.031.084-4.993 2.285-8.887-2.37.508-4.063 2.455-5.078 5.84-.381 1.27-.533 2.438-.533 3.25Z" id="Vector" fill="#F9ACC0" fill-rule="nonzero"/>
      <path d="M148.84 108.52a.254.254 0 0 1-.152-.33c.025-.076.533-1.6 2.31-4.139 1.803-2.564 3.809-3.605 3.91-3.63.127-.051.28 0 .33.1.051.128 0 .28-.101.331-.026 0-2.006 1.016-3.707 3.478-1.151 1.66-1.905 2.988-2.26 3.987-.05.152-.152.228-.254.228-.025 0-.05 0-.076-.025Z" id="Vector" fill="#1F1F39" fill-rule="nonzero"/>
      <path d="M85.592 174.18c-2.048 7.803-5.442 14.836-10.182 21.1-4.926 6.525-13.635 10.232-18.535 11.882l21.912-2.234 6.805-30.748Z" id="Vector" fill="#224BF4" fill-rule="nonzero"/>
      <path d="M78.94 205.156a.297.297 0 0 1-.23-.28c0-.075 1.042-8.226 2.794-16.02 1.752-7.795 5.814-21.71 5.84-21.862a.276.276 0 0 1 .304-.178c.127.051.204.178.178.305-.05.127-4.088 14.041-5.84 21.81-1.752 7.77-2.767 15.895-2.793 15.971 0 .153-.101.254-.228.254h-.026Z" id="Vector" fill="#1F1F39" fill-rule="nonzero"/>
    </g>
    <g id="skip" transform="translate(295 60)">
      <path d="M2 0h45v40H2V0Z" id="skip-(Background)" fill="#FFF"/>
      <text id="건너뛰기" font-family="AppleSDGothicNeo-Regular, Apple SD Gothic Neo" font-size="14" font-weight="normal" fill="#858597">
                <tspan x="3.28" y="21">건너뛰기</tspan>
            </text>
    </g>
  </g>
</svg>
