<svg width="375" height="812" viewBox="0 0 375 812" xmlns="http://www.w3.org/2000/svg">
  <g id="intro3" stroke="none" stroke-width="1" fill="none" fill-rule="evenodd">
    <path fill="#FFF" d="M0 0h375v812H0z"/>
    <g id="register" transform="translate(25 682)">
      <path id="Rectangle" fill="#3D5CFF" d="M0 0h148v54H0z"/>
      <text id="회원가입" font-family="AppleSDGothicNeo-Medium, Apple SD Gothic Neo" font-size="20" font-weight="400" fill="#FFF">
                <tspan x="39" y="33">회원가입</tspan>
            </text>
    </g>
    <g id="login" transform="translate(201 682)">
      <path id="Rectangle-Copy" stroke="#3D5CFF" fill="#FFF" d="M0 0h148v54H0z"/>
      <text id="로그인" font-family="AppleSDGothicNeo-Medium, Apple SD Gothic Neo" font-size="20" font-weight="400" fill="#3D5CFF">
                <tspan x="48" y="33">로그인</tspan>
            </text>
    </g>
    <g id="Pavigation" transform="translate(155 615)">
      <path d="M2.5 0h4a2.5 2.5 0 0 1 0 5h-4a2.5 2.5 0 0 1 0-5Z" id="Rectangle-3" fill="#EAEAFF"/>
      <path d="M21.5 0h4a2.5 2.5 0 1 1 0 5h-4a2.5 2.5 0 1 1 0-5Z" id="Rectangle-4" fill="#EAEAFF"/>
      <path d="M40.5 0h23a2.5 2.5 0 1 1 0 5h-23a2.5 2.5 0 1 1 0-5Z" id="Rectangle-2" fill="#3D5CFF"/>
    </g>
    <g id="desc" transform="translate(80 515)" fill="#858597" font-family="NanumGothic, Nanum Gothic" font-size="20" font-weight="normal">
      <text id="무료-30분-서비스로-한국어-배우기!">
                <tspan x="23.98" y="18">무료 30분 서비스로 </tspan>
                <tspan x="44.06" y="50">한국어 배우기!</tspan>
            </text>
    </g>
    <g id="title" transform="translate(79 432)" fill="#1F1F39" font-family="AppleSDGothicNeo-Regular, Apple SD Gothic Neo" font-size="22" font-weight="normal">
      <text id="한국어-교육자와-학습자-연결">
                <tspan x="38.672" y="20">한국어</tspan>
                <tspan x="95.762" y="20" font-family="Roboto-Regular, Roboto"> </tspan>
                <tspan x="101.208" y="20">교육자와</tspan>
                
                <tspan x="57.702" y="52">학습자</tspan>
                <tspan x="114.792" y="52" font-family="Roboto-Regular, Roboto"> </tspan>
                <tspan x="120.238" y="52">연결</tspan>
            </text>
    </g>
    <g id="illustration" transform="translate(57 112)">
      <path d="M260 60v140c0 33.137-26.863 60-60 60H60c-33.137 0-60-26.863-60-60V60C0 26.863 26.863 0 60 0h140c33.137 0 60 26.863 60 60Z" id="Vector" fill="#FFF"/>
      <g id="Group" transform="translate(74.492 25)">
        <path d="M100.674 0a.51.51 0 0 0-.508.508c0 .28.229.508.508.508h3.021a.51.51 0 0 0 .508-.508.51.51 0 0 0-.508-.508h-3.021Zm-6.069 0a.51.51 0 0 0-.507.508c0 .28.228.508.507.508h3.022a.51.51 0 0 0 .508-.508.51.51 0 0 0-.508-.508h-3.022Zm-6.068 0a.51.51 0 0 0-.508.508c0 .28.229.508.508.508h3.022a.51.51 0 0 0 .507-.508A.51.51 0 0 0 91.56 0h-3.022ZM82.47 0a.51.51 0 0 0-.508.508c0 .28.228.508.508.508h3.021a.51.51 0 0 0 .508-.508A.51.51 0 0 0 85.49 0h-3.02Zm-6.043 0a.51.51 0 0 0-.508.508c0 .28.228.508.508.508h3.021a.51.51 0 0 0 .508-.508C79.93.228 79.727 0 79.447 0h-3.021Zm-6.094 0a.51.51 0 0 0-.508.508c0 .28.229.508.508.508h3.047a.51.51 0 0 0 .508-.508A.51.51 0 0 0 73.38 0h-3.047ZM64.29 0a.51.51 0 0 0-.508.508c0 .28.229.508.508.508h3.022a.51.51 0 0 0 .507-.508.51.51 0 0 0-.507-.508H64.29Zm-6.068 0a.51.51 0 0 0-.508.508c0 .28.228.508.508.508h3.021a.51.51 0 0 0 .508-.508.51.51 0 0 0-.508-.508h-3.021Zm-6.043 0a.51.51 0 0 0-.508.508c0 .28.228.508.508.508H55.2a.51.51 0 0 0 .508-.508C55.682.228 55.479 0 55.199 0h-3.021ZM46.11 0a.51.51 0 0 0-.507.508c0 .28.228.508.507.508h3.022a.51.51 0 0 0 .508-.508.51.51 0 0 0-.51-.508h-3.022Zm-6.068 0a.51.51 0 0 0-.508.508c0 .28.229.508.508.508h3.022a.51.51 0 0 0 .507-.508.51.51 0 0 0-.507-.508H40.04Zm-6.068 0a.51.51 0 0 0-.508.508c0 .28.228.508.508.508h3.021a.51.51 0 0 0 .508-.508.51.51 0 0 0-.508-.508h-3.021ZM27.93 0a.51.51 0 0 0-.508.508c0 .28.228.508.508.508h3.021a.51.51 0 0 0 .508-.508C31.434.228 31.205 0 30.951 0H27.93Zm-6.094 0a.51.51 0 0 0-.508.508c0 .28.229.508.508.508h3.047a.51.51 0 0 0 .508-.508.51.51 0 0 0-.508-.508h-3.047Zm-6.043 0a.51.51 0 0 0-.508.508c0 .28.229.508.508.508h3.021a.51.51 0 0 0 .508-.508.51.51 0 0 0-.508-.508h-3.021Zm-4.951 0h-.279c-.077 0-.153.025-.229.025a.512.512 0 0 0-.457.559.52.52 0 0 0 .508.457h.05c.33-.025.686-.05 1.042-.05h1.904a.51.51 0 0 0 .508-.509C13.254.23 13.025 0 12.746 0h-1.904ZM6.805.787c-.94.381-1.828.889-2.616 1.524-.228.177-.253.482-.076.71a.53.53 0 0 0 .407.204c.101 0 .228-.026.304-.102.737-.559 1.524-1.041 2.362-1.371a.515.515 0 0 0-.204-.99c-.05 0-.127 0-.177.025ZM2.082 4.47c-.28.38-.533.787-.787 1.218v.28c-.102.203-.178.431-.254.635-.102.253.05.558.305.66.05.025.127.025.177.025a.52.52 0 0 0 .483-.33c.305-.863.762-1.676 1.295-2.412a.52.52 0 0 0-.102-.711c-.508.482-.61.432-.71.432a.53.53 0 0 0-.407.203ZM.025 10.08v2.818c0 .28.229.508.508.508a.51.51 0 0 0 .508-.508v-2.285c0-.228 0-.457.025-.685.026-.28-.203-.508-.457-.533-.033.152-.059.228-.076.228a.52.52 0 0 0-.508.457ZM0 16.174v3.021c0 .28.229.508.508.508a.51.51 0 0 0 .508-.508v-3.021a.51.51 0 0 0-.508-.508.51.51 0 0 0-.508.508Zm0 6.068v3.022a.51.51 0 0 0 .508.507.51.51 0 0 0 .508-.507v-3.022a.494.494 0 0 0-.508-.508.51.51 0 0 0-.508.508Zm0 6.043v3.022a.51.51 0 0 0 .508.507.51.51 0 0 0 .508-.507v-3.022a.51.51 0 0 0-.508-.508.51.51 0 0 0-.508.508Zm0 6.069v3.021c0 .28.229.508.508.508a.51.51 0 0 0 .508-.508v-3.021a.51.51 0 0 0-.508-.508.51.51 0 0 0-.508.508Zm0 6.068v3.021c0 .28.229.508.508.508a.51.51 0 0 0 .508-.508v-3.021a.51.51 0 0 0-.508-.508.51.51 0 0 0-.508.508Zm0 6.068v3.022a.51.51 0 0 0 .508.508.51.51 0 0 0 .508-.508v-3.047A.51.51 0 0 0 0 46.49Zm0 6.043v3.022a.51.51 0 0 0 .508.507.51.51 0 0 0 .508-.507v-3.022a.51.51 0 0 0-.508-.508.51.51 0 0 0-.508.508Zm0 6.069v3.021c0 .28.229.508.508.508a.51.51 0 0 0 .508-.508v-3.021a.51.51 0 0 0-.508-.508.51.51 0 0 0-.508.508Zm0 6.068v2.234c0 .076 0 .153.025.229a.52.52 0 0 0 .508.457h.051a.489.489 0 0 0 .457-.533 7.892 7.892 0 0 1-.025-.787v-2.184c0 .305-.229.076-.508.076A.51.51 0 0 0 0 64.67Zm.99 5.307c-.254.101-.38.38-.304.66.05.152.126.33.203.482v.076l.025.026.025.025c0 .017.009.025.026.025a.53.53 0 0 0 .406.204.488.488 0 0 0 .305-.102c.228-.178.28-.482.101-.71a9.691 9.691 0 0 1-1.32-2.413c1.092 1.828.914 1.701.711 1.701-.05 0-.127 0-.178.026Zm3.174 4.773c-.178.229-.127.533.102.71.076.052.152.102.228.179l.026.025.025.025h.101c.381.204.788.407 1.22.559.05.025.126.025.177.025.203 0 .38-.127.482-.33a.515.515 0 0 0-.279-.66 9.622 9.622 0 0 1-2.387-1.345c.914.634.813.609.711.609a.53.53 0 0 0-.406.203Zm5.205 2.336a.512.512 0 0 0 .457.559h.026c.253.025.533.025.787.05h2.082a.51.51 0 0 0 .508-.507.51.51 0 0 0-.508-.508h-2.006c-.305 0-.635-.026-.94-.051h.102a.52.52 0 0 0-.508.457Zm6.526-.406a.51.51 0 0 0-.508.507c0 .28.228.508.508.508h3.021a.51.51 0 0 0 .508-.507.51.51 0 0 0-.508-.508h-3.021Zm6.068 0a.51.51 0 0 0-.508.507c0 .28.229.508.508.508h3.021a.51.51 0 0 0 .508-.507.51.51 0 0 0-.508-.508h-3.021Zm6.068 0a.51.51 0 0 0-.508.507c0 .28.229.508.508.508h3.022a.51.51 0 0 0 .508-.507c-.026-.28-.229-.508-.508-.508H28.03Zm6.043 0a.51.51 0 0 0-.508.507c0 .28.229.508.508.508h3.022a.51.51 0 0 0 .508-.507.51.51 0 0 0-.508-.508h-3.022Zm6.069 0a.51.51 0 0 0-.508.507c0 .28.228.508.508.508h3.021a.51.51 0 0 0 .508-.507.51.51 0 0 0-.508-.508h-3.021Zm6.068 0a.51.51 0 0 0-.508.507c0 .28.229.508.508.508h3.021a.51.51 0 0 0 .508-.507.51.51 0 0 0-.508-.508h-3.021Zm6.068 0a.51.51 0 0 0-.508.507c0 .28.229.508.508.508h3.022a.51.51 0 0 0 .508-.507.51.51 0 0 0-.508-.508h-3.022Zm6.043 0a.51.51 0 0 0-.508.507c0 .28.229.508.508.508h3.022a.51.51 0 0 0 .508-.507.51.51 0 0 0-.508-.508h-3.022Zm6.069 0a.51.51 0 0 0-.508.507c0 .28.228.508.508.508h3.021a.51.51 0 0 0 .508-.507.51.51 0 0 0-.508-.508h-3.021Zm6.068 0a.51.51 0 0 0-.508.507c0 .28.229.508.508.508h3.021a.51.51 0 0 0 .508-.507.51.51 0 0 0-.508-.508h-3.02Zm6.068 0a.51.51 0 0 0-.507.507c0 .28.228.508.507.508h3.022a.51.51 0 0 0 .508-.507.51.51 0 0 0-.508-.508h-3.022Zm6.043 0a.51.51 0 0 0-.507.507c0 .28.228.508.507.508h3.022a.51.51 0 0 0 .508-.507.51.51 0 0 0-.508-.508H82.57Zm6.069 0a.51.51 0 0 0-.508.507c0 .28.228.508.508.508h3.021a.51.51 0 0 0 .508-.507.51.51 0 0 0-.508-.508h-3.02Zm6.068 0a.51.51 0 0 0-.508.507c0 .28.229.508.508.508h3.022a.51.51 0 0 0 .507-.507.51.51 0 0 0-.507-.508h-3.022Zm6.068 0a.51.51 0 0 0-.507.507c0 .28.228.508.507.508h3.022a.51.51 0 0 0 .508-.507.51.51 0 0 0-.508-.508h-3.022Zm8.963 0h-2.92a.51.51 0 0 0-.507.507c0 .28.228.508.507.508h2.972c.28 0 .508-.228.482-.507.077-.28-.152-.508-.431-.508h-.102Zm5.282-1.55a9.2 9.2 0 0 1-2.489 1.143.476.476 0 0 0-.33.635.488.488 0 0 0 .483.356c.05 0 .101 0 .152-.026a10.228 10.228 0 0 0 1.955-.812h.102c.152-.102.33-.203.482-.305a.496.496 0 0 0 .152-.685c.102-.305-.05-.381-.228-.381a.579.579 0 0 0-.28.076Zm3.605-4.087a9.965 9.965 0 0 1-1.523 2.285c-.178.203-.178.533.05.711a.535.535 0 0 0 .33.127c.153 0 .28-.05.381-.178.66-.761 1.219-1.6 1.676-2.513a.509.509 0 0 0-.228-.686c-.077 0-.153-.025-.229-.025-.178 0-.38.101-.457.279Zm.965-5.459v1.244c0 .533-.05 1.092-.127 1.625-.05.28.152.533.406.584h.076a.516.516 0 0 0 .508-.432c.076-.457.127-.914.127-1.37v-1.346c.025-.584-.203-.813-.482-.813a.51.51 0 0 0-.508.508Zm0-6.043v3.021c0 .28.228.508.508.508a.51.51 0 0 0 .507-.508v-3.021a.51.51 0 0 0-.507-.508.51.51 0 0 0-.508.508Zm0-6.068v3.021c0 .28.228.508.508.508a.51.51 0 0 0 .507-.508v-3.021a.51.51 0 0 0-.507-.508.51.51 0 0 0-.508.508Zm0-6.069v3.022c0 .28.228.508.508.508a.51.51 0 0 0 .507-.508v-3.022a.51.51 0 0 0-.507-.508.51.51 0 0 0-.508.508Zm0-6.068v3.021c0 .28.228.508.508.508a.51.51 0 0 0 .507-.508v-3.021a.51.51 0 0 0-.507-.508.51.51 0 0 0-.508.508Zm0-6.043v3.021c0 .28.228.508.508.508a.51.51 0 0 0 .507-.508v-3.021a.51.51 0 0 0-.507-.508.51.51 0 0 0-.508.508Zm0-6.068v3.021c0 .28.228.508.508.508a.51.51 0 0 0 .507-.508v-3.021a.51.51 0 0 0-.507-.508.51.51 0 0 0-.508.508Zm0-6.069v3.022a.51.51 0 0 0 .508.508.51.51 0 0 0 .507-.508v-3.022a.51.51 0 0 0-.507-.508.51.51 0 0 0-.508.508Zm0-6.068v3.021c0 .28.228.508.508.508a.51.51 0 0 0 .507-.508v-3.021a.51.51 0 0 0-.507-.508.51.51 0 0 0-.508.508Zm0-6.043v3.021c0 .28.228.508.508.508a.51.51 0 0 0 .507-.508v-3.021a.51.51 0 0 0-.507-.508.51.51 0 0 0-.508.508Zm-1.244-5.941a.528.528 0 0 0-.178.685c.482.787.838 1.625 1.092 2.514a.49.49 0 0 0 .482.38c.051 0 .076 0 .127-.025a.492.492 0 0 0 .356-.61c-.051-.177-.102-.38-.178-.558v-.127c0-.025 0-.025-.026-.05a11.358 11.358 0 0 0-.837-1.778v-.051c-.229-.38-.407-.457-.584-.457a.429.429 0 0 0-.254.077Zm-4.367-3.708a.509.509 0 0 0 .228.686 9.12 9.12 0 0 1 2.234 1.574.475.475 0 0 0 .356.127.56.56 0 0 0 .38-.152c.178-.203.178-.533-.025-.711-.33-.305-.66-.584-1.015-.838a29.555 29.555 0 0 1-.127-.127h-.127l-.153-.076c-1.142-.736-1.218-.762-1.294-.762a.535.535 0 0 0-.457.28ZM106.717 0a.51.51 0 0 0-.508.508c0 .28.228.508.508.508h3.021a9 9 0 0 1 1.854.177h.101a.541.541 0 0 0 .508-.406.495.495 0 0 0-.406-.584 10.666 10.666 0 0 0-1.574-.178h-.178c-.28-.025-.28-.025-.305-.025.026 0 .026 0 0 0 .026 0 .026 0 0 0 .026 0 .026 0 0 0 .026 0 .026 0 0 0h-3.021Z" id="Vector" fill="#EAEAFF"/>
        <path d="M120.605 11.984v.432H0v-.432h120.605Z" id="Vector" fill="#FFF"/>
        <path d="M11.553 66.777a2.6 2.6 0 0 1-2.59-2.59v-38.06a2.6 2.6 0 0 1 2.59-2.59h1.37a2.6 2.6 0 0 1 2.59 2.59v38.035c0 1.447-1.167 2.615-2.59 2.615h-1.37Zm12.009 0a2.146 2.146 0 0 1-2.132-2.133V39.787c0-1.168.965-2.133 2.132-2.133h2.286c1.168 0 2.132.965 2.132 2.133v24.857c-.025 1.168-.964 2.133-2.132 2.133h-2.286Zm12.898 0a2.6 2.6 0 0 1-2.589-2.59v-38.06a2.6 2.6 0 0 1 2.59-2.59h1.371a2.6 2.6 0 0 1 2.59 2.59v38.035c0 1.447-1.168 2.615-2.59 2.615h-1.371Zm12.976 0a2.238 2.238 0 0 1-2.235-2.234V36.715a2.238 2.238 0 0 1 2.235-2.235h2.056a2.238 2.238 0 0 1 2.235 2.235v27.828c.025 1.219-.99 2.234-2.235 2.234h-2.056Zm12.06 0a1.864 1.864 0 0 1-1.853-1.853V46.846c0-1.016.837-1.854 1.853-1.854h2.87c1.015 0 1.853.838 1.853 1.854v18.078c-.026 1.016-.838 1.853-1.854 1.853h-2.869Zm12.848 0a2.238 2.238 0 0 1-2.235-2.234V36.715a2.238 2.238 0 0 1 2.235-2.235H76.4a2.238 2.238 0 0 1 2.235 2.235v27.828c.025 1.219-.99 2.234-2.235 2.234h-2.056ZM10.969 0C4.926 0 0 4.824 0 10.74v1.447h120.605V10.74c0-5.916-4.925-10.74-10.968-10.74H10.969Z" id="Vector" fill="#EAEAFF" fill-rule="nonzero"/>
        <path d="M94.047 7.693c-.912 0-1.65-.716-1.65-1.6 0-.883.738-1.599 1.65-1.599.911 0 1.65.716 1.65 1.6 0 .883-.739 1.6-1.65 1.6Z" id="Vector" fill="#FF8870"/>
        <path d="M101.486 7.693c-.911 0-1.65-.716-1.65-1.6 0-.883.739-1.599 1.65-1.599.912 0 1.65.716 1.65 1.6 0 .883-.738 1.6-1.65 1.6Z" id="Vector" fill="#FFD301"/>
        <path d="M108.926 7.693c-.912 0-1.65-.716-1.65-1.6 0-.883.738-1.599 1.65-1.599.911 0 1.65.716 1.65 1.6 0 .883-.739 1.6-1.65 1.6Z" id="Vector" fill="#54CDA2"/>
      </g>
      <g id="Group" transform="translate(184.434 67.148)">
        <path d="M6.45 51.543A6.458 6.458 0 0 1 0 45.093V6.45A6.458 6.458 0 0 1 6.45 0h51.34a6.458 6.458 0 0 1 6.448 6.45v38.644a6.458 6.458 0 0 1-6.449 6.449H6.45Z" id="Vector" fill="#EAEAFF" fill-rule="nonzero"/>
        <path d="M64.238 12.975v.457H0v-.457h64.238Z" id="Vector" fill="#FFF"/>
        <path d="M39.229 8.633a1.904 1.904 0 1 1 0-3.809 1.904 1.904 0 0 1 0 3.809Z" id="Vector" fill="#FF8870"/>
        <path d="M47.861 8.633a1.904 1.904 0 1 1 0-3.809 1.904 1.904 0 0 1 0 3.809Z" id="Vector" fill="#FFD301"/>
        <path d="M56.494 8.633a1.904 1.904 0 1 1 0-3.809 1.904 1.904 0 0 1 0 3.809Z" id="Vector" fill="#54CDA2"/>
        <path d="M35.826 31.23a.845.845 0 0 1-.71-1.294l5.204-8.15c.127-.204.077-.483-.127-.585-2.03-1.193-4.468-1.777-7.033-1.549-5.433.508-9.826 4.8-10.46 10.207-.813 7.059 4.697 13.051 11.603 13.051 6.297 0 11.451-4.976 11.68-11.222-.026-.254-.204-.457-.458-.457h-9.699Z" id="Vector" fill="#FFF" fill-rule="nonzero"/>
      </g>
      <g id="Group" transform="translate(44.777 29.578)">
        <path d="M28.928 146.065c9.7-17.012 20.236-28.057 26.71-32.932 4.317-3.233 8.71-5.95 13.179-8.15l-5.612 49.714-15.64 49.461-31.586.203c2.166-27.523 6.483-46.955 12.949-58.296Z" id="Vector" fill="#F9D2DD" fill-rule="nonzero"/>
        <path d="m59.422 166.63 3.783-11.933 3.606-31.814-4.342-14.32c-.102.05-.203.126-.28.177.051 4.215-.43 18.307-8.124 30.317-6.754 10.537-20.846 12.441-27.778 12.695-.203.457-.406.94-.584 1.396l33.72 13.483Z" id="Vector" fill="#F9ACC0" fill-rule="nonzero"/>
        <path d="M50.002 159.293c5.214-3.064 9.26-11.341 12.137-24.832 1.659-7.786 1.659-16.512 0-26.178 10.969-6.483 22.124-9.453 33.465-8.912 11.34.542 21.235 2.158 29.681 4.85-.727 5.569-1.091 14.117-1.091 25.644 0 11.528 2.522 23.495 7.566 35.903l-1.219 38.593H44.57l5.433-45.068Z" id="Vector" fill="#3D5CFF" fill-rule="nonzero"/>
        <path d="m88.164 148.781-3.63 36.436 46.312-12.264-25.797-3.935-16.885-20.237Z" id="Vector" fill="#224BF4" fill-rule="nonzero"/>
        <path d="M.533 4.063v97.17H0V4.062h.533ZM12.264 0v101.232h-.534V0h.534ZM24.02 4.063v97.17h-.534V4.062h.534Zm11.73 0v97.17h-.533V4.062h.533Zm11.73-2.971v100.14h-.533V1.092h.533Z" transform="translate(68.614 100.97)" fill="#FFF" id="Vector"/>
        <path d="M124.27 1.541c-1.854 1.447-2.082 3.758-2.031 5.154-3.174-1.117-7.135-.812-10.436 1.676-3.86 2.92-3.402 7.44-2.92 9.572-5.129-.406-10.537 1.499-12.594 5.586-1.422 2.844-1.7 6.069-1.65 8.557-13.152-.965-24.197 7.338-25.848 19.297-1.1 7.973.39 14.244 4.47 18.814l24.907 7.338c7.211.491 12.696-.973 16.453-4.392 5.637-5.13 9.166-17.114 4.926-26.889-1.193-2.768-3.275-5.103-5.687-7.16a40.795 40.795 0 0 0 4.29-5.053c1.778-2.564 2.286-6.094 1.194-9.191 1.295-.178 3.022-.635 5.154-1.803 3.657-1.98 4.596-6.12 3.707-9.7.965.026 2.184-.025 3.58-.304 3.53-.762 4.952-5.154 2.59-9.547-2.361-4.392-7.287-4.164-10.105-1.955Z" id="Vector" fill="#1F1F39" fill-rule="nonzero"/>
        <path d="M70.772 63.774c-4.317 1.878-4.037 10.257 2.158 12.949 4.13 1.794 7.372 1.972 9.725.533L77.78 63.774c-1.795-1.253-4.13-1.253-7.008 0Z" id="Vector" fill="#F9ACC0" fill-rule="nonzero"/>
        <path d="m78.11 76.291-2.082-4.316c-2.006-4.164-4.723-5.535-4.749-5.535-.126-.051-.177-.204-.126-.33.05-.127.203-.178.33-.127.127.05 2.92 1.421 5.002 5.789l2.082 4.316c.05.127 0 .28-.127.33-.026 0-.077.025-.102.025-.101 0-.178-.05-.228-.152Z" id="Vector" fill="#1F1F39" fill-rule="nonzero"/>
        <path d="M73.768 61.488c.127 2.666.761 12.29 3.758 17.368 2.869 4.875 6.855 6.83 8.175 7.388.28.127.457.381.432.686-.076 1.904-.38 8.607-1.066 11.35-.61 2.462-1.22 4.443-1.499 5.255a.728.728 0 0 0 .178.737c1.092 1.091 5.281 3.173 12.112 3.173 6.753 0 10.41-1.675 11.705-2.437a.755.755 0 0 0 .355-.762c-.38-1.98-1.803-9.547-1.803-13.28 0-3.554.356-8.556.483-10.231a.727.727 0 0 1 .584-.66c2.209-.407 10.46-2.413 9.978-9.903-.457-7.516-7.261-6.855-9.013-6.55a.723.723 0 0 0-.559.482c-.305.863-1.066 3.047-1.473 4.748-.203.761-1.295.71-1.396-.076a19.018 19.018 0 0 1-.203-2.616c0-1.218.127-2.031.28-2.539a.708.708 0 0 0-.534-.863c-1.93-.457-6.881-2.031-9.445-6.322-1.499-2.489-2.311-4.368-2.743-5.637-.203-.61-1.04-.66-1.32-.076-.965 1.955-2.945 4.824-6.728 6.804-4.749 2.489-8.227 3.098-9.624 3.225-.38.05-.66.356-.634.736Zm74.496 65.686c6.195 13.762 8.937 42.758 8.353 53.168-.558 9.724-4.062 20.77-15.666 23.207-7.718 1.625-25.526 1.625-53.421 0v-27.777l40.751-2.692-3.224-18.611c-2.692-12.238-3.589-23.03-2.692-32.373.88-9.378 1.685-15.328 2.413-17.85 9.936 2.59 17.765 10.233 23.486 22.928Z" id="Vector" fill="#F9D2DD" fill-rule="nonzero"/>
        <path d="M93.649 61.057a2.87 2.87 0 0 1 2.285-.102c.254.076.482.203.685.381.407.33.686.863.61 1.346a1.714 1.714 0 0 0-.813-1.041c-.38-.203-.812-.305-1.27-.356-.456-.025-.888 0-1.32.153a3.39 3.39 0 0 0-1.193.71c.178-.456.559-.837 1.016-1.091Zm-14.499.127c.381-.33.89-.584 1.423-.61.253-.025.533 0 .787.077.254.101.507.228.71.406.407.38.585.888.585 1.37-.204-.43-.483-.837-.838-1.066a1.705 1.705 0 0 0-.584-.253c-.102 0-.203-.051-.305-.051h-.305a2.441 2.441 0 0 0-1.218.431 4.176 4.176 0 0 0-1.067.94c.152-.483.432-.914.813-1.244Zm7.872 4.392c-.127.356-.254.686-.356 1.041-.101.356-.203.686-.279 1.041-.076.33-.127.711-.076.99.025.153.076.28.178.407.05.076.076.127.152.177l.076.077.102.076c.254.203.584.33.94.406.355.076.71.127 1.09.152a3.282 3.282 0 0 1-1.116.102 2.579 2.579 0 0 1-1.117-.33 1.556 1.556 0 0 1-.737-.99c-.076-.432-.025-.813.051-1.194.152-.761.432-1.447.762-2.133.279-.634.66-1.294 1.092-1.904l-.762 2.082Z" id="Vector" fill="#1F1F39" fill-rule="nonzero"/>
        <path d="M81.03 68.953c-1.038 0-1.88-.977-1.88-2.183s.842-2.184 1.88-2.184c1.037 0 1.878.978 1.878 2.184 0 1.206-.84 2.183-1.878 2.183Zm13.482 0c-1.038 0-1.879-.977-1.879-2.183s.841-2.184 1.879-2.184 1.879.978 1.879 2.184c0 1.206-.841 2.183-1.879 2.183Z" id="Vector" fill="#1F1F39"/>
        <path d="M97.406 174.984v28.565c6.027.355 12.653.635 19.881.838l-9.75-30.063-10.13.66Z" id="Vector" fill="#F9ACC0" fill-rule="nonzero"/>
        <path d="M91.287 77.027c-1.037 0-1.879-.977-1.879-2.183s.842-2.184 1.88-2.184c1.037 0 1.878.978 1.878 2.184 0 1.206-.841 2.183-1.879 2.183Z" id="Vector" fill="#F95368"/>
        <path d="M15.446 204.108c-1.98 0-4.215-1.625-4.926-3.631L.237 144.084c-.737-1.98.304-3.63 2.31-3.63h90.746c1.98 0 4.215 1.624 4.926 3.63l10.283 56.393c.737 2.006-.304 3.63-2.31 3.63H15.446Z" id="Vector" fill="#EAEAFF" fill-rule="nonzero"/>
        <path d="M53.223 176.422a6 6 0 1 1 0-12 6 6 0 0 1 0 12Z" id="Vector" fill="#FFF"/>
        <path d="M25.62 6.906c-3.114 0-5.638-1.546-5.638-3.453C19.982 1.546 22.506 0 25.62 0c3.113 0 5.637 1.546 5.637 3.453 0 1.907-2.524 3.453-5.637 3.453Zm-19.983.001C2.524 6.907 0 5.36 0 3.454 0 1.547 2.524 0 5.637 0c3.113 0 5.636 1.546 5.636 3.453 0 1.907-2.523 3.453-5.636 3.453Z" transform="translate(73.59 69.893)" opacity=".635" fill="#F9ACC0" id="Vector"/>
        <path d="M92.582 87.565a51.486 51.486 0 0 1-6.576-1.016.86.86 0 0 1 .127.432c-.05 1.6-.28 6.525-.762 9.699 2.438-.508 7.008-1.727 9.674-4.012 2.522-2.166 4.325-4.062 5.408-5.687-2.759.592-5.382.787-7.87.584Z" id="Vector" fill="#F9ACC0" fill-rule="nonzero"/>
        <path d="M86.057 86.676c-.127-.05-.203-.203-.127-.33.05-.127.203-.203.33-.127.026.025 3.25 1.32 7.719 1.066 4.494-.254 7.21-1.066 7.236-1.066.127-.05.28.025.305.178a.225.225 0 0 1-.178.304c-.025 0-2.767.813-7.338 1.092-.431 0-.838.026-1.244.026-3.91 0-6.576-1.092-6.703-1.143Z" id="Vector" fill="#1F1F39" fill-rule="nonzero"/>
        <path d="M106.75 75.326c-.838 2.59-.584 4.444-.127 5.637v-.152a.727.727 0 0 1 .584-.66c.508-.102 1.371-.28 2.362-.61-.356-1.447-.813-3.935-.457-6.068.355-2.15.905-3.885 1.65-5.205-1.557 1.235-2.895 3.588-4.012 7.058Z" id="Vector" fill="#F9ACC0" fill-rule="nonzero"/>
        <path d="M106.14 77.535c0-.101.026-2.539 1.651-5.789 1.625-3.275 4.063-4.646 4.164-4.697.127-.076.28-.025.356.101.076.127.025.28-.102.356-.025.025-2.386 1.346-3.935 4.469-1.575 3.148-1.6 5.535-1.6 5.56-.025.127-.152.254-.28.254a.254.254 0 0 1-.253-.254Z" id="Vector" fill="#1F1F39" fill-rule="nonzero"/>
        <path d="M132.319 107.928c-2.878-1.88-5.4-3.106-7.567-3.682-.728 2.522-1.54 8.455-2.437 17.799-.889 9.166.533 20.186 1.625 26.71.05-5.839.508-13.507 2.158-21.556 2.082-10.308 4.57-16.199 6.22-19.271Zm7.82 64.06-13.229-7.007 1.32 7.87 11.909-.863Z" id="Vector" fill="#F9ACC0" fill-rule="nonzero"/>
        <path d="M128.028 172.979c-.026-.127.101-.254.228-.28l12.035-1.142c.153-.026.254.101.28.228.025.127-.102.254-.229.28l-12.06 1.142c-.127 0-.229-.101-.254-.228Z" id="Vector" fill="#1F1F39" fill-rule="nonzero"/>
      </g>
      <path d="M34.237 234.691c-.132 0-.237-.222-.237-.5 0-.277.105-.5.237-.5h189.526c.132 0 .237.223.237.5 0 .278-.105.5-.237.5H34.237Z" id="Vector" fill="#1F1F39" fill-rule="nonzero"/>
    </g>
  </g>
</svg>
