<svg width="375" height="812" viewBox="0 0 375 812" xmlns="http://www.w3.org/2000/svg" xmlns:xlink="http://www.w3.org/1999/xlink">
  <defs>
    <path d="M375 12v86H0V12C0 5.373 5.373 0 12 0h351c6.627 0 12 5.373 12 12Z" id="path-2"/>
    <path id="path-4" d="M0 0h375v44H0z"/>
    <path id="path-6" d="M0 0h54v21H0z"/>
    <filter x="-8.3%" y="-7%" width="116.5%" height="121.4%" filterUnits="objectBoundingBox" id="filter-1">
      <feOffset dx="4" dy="-2" in="SourceAlpha" result="shadowOffsetOuter1"/>
      <feGaussianBlur stdDeviation="2" in="shadowOffsetOuter1" result="shadowBlurOuter1"/>
      <feColorMatrix values="0 0 0 0 0 0 0 0 0 0 0 0 0 0 0 0 0 0 0.5 0" in="shadowBlurOuter1" result="shadowMatrixOuter1"/>
      <feMerge>
        <feMergeNode in="shadowMatrixOuter1"/>
        <feMergeNode in="SourceGraphic"/>
      </feMerge>
    </filter>
    <filter x="-6.3%" y="-21.9%" width="112.5%" height="148%" filterUnits="objectBoundingBox" id="filter-3">
      <feOffset dy="2" in="SourceAlpha" result="shadowOffsetOuter1"/>
      <feGaussianBlur stdDeviation="7.5" in="shadowOffsetOuter1" result="shadowBlurOuter1"/>
      <feColorMatrix values="0 0 0 0 0.721568644 0 0 0 0 0.721568644 0 0 0 0 0.823529422 0 0 0 0.5 0" in="shadowBlurOuter1"/>
    </filter>
  </defs>
  <g id="payMenu" stroke="none" stroke-width="1" fill="none" fill-rule="evenodd">
    <path fill="#FFF" d="M0 0h375v812H0z"/>
    <g id="menu1" transform="translate(13 112)">
      <path d="M12 0h311c6.627 0 12 5.373 12 12v96c0 6.627-5.373 12-12 12H12c-6.627 0-12-5.373-12-12V12C0 5.373 5.373 0 12 0Z" id="Rectangle-34" fill="#7BB0FF"/>
      <text id="30분" fill="#440687" fill-rule="nonzero" font-family="NanumGothic, Nanum Gothic" font-size="24.357" font-weight="normal">
                <tspan x="18" y="40">30분</tspan>
            </text>
      <text id="Off-line-exchange-of-learning-experiences" fill="#440687" fill-rule="nonzero" font-family="NanumGothic, Nanum Gothic" font-size="12" font-weight="normal">
                <tspan x="18" y="66">Off-line exchange of learning </tspan>
                <tspan x="18" y="80">experiences</tspan>
            </text>
      <g id="illustration" transform="translate(224.673 8.25)">
        <path d="M48.257 96.514c26.651 0 48.257-21.606 48.257-48.257C96.514 21.605 74.908 0 48.257 0 21.605 0 0 21.605 0 48.257c0 26.651 21.605 48.257 48.257 48.257Z" id="Ellipse-75" fill="#F5ECFF" opacity=".56"/>
        <path d="M48.257 83.757c19.606 0 35.5-15.894 35.5-35.5s-15.894-35.5-35.5-35.5-35.5 15.894-35.5 35.5 15.894 35.5 35.5 35.5Z" id="Ellipse-76" fill="#F8F2FF" opacity=".8"/>
        <g id="Group-136" transform="translate(23.846 11.75)">
          <path d="m34.12 42.177 2.437 6.496a25.666 25.666 0 0 0 5.86-3.817 54.616 54.616 0 0 0-.801-2.201l-7.497-.478Zm-19.152 6.62 2.546-6.793-7.497.478a51.426 51.426 0 0 0-.934 2.589 25.477 25.477 0 0 0 5.885 3.726Z" id="Vector" fill="#DA5742" fill-rule="nonzero"/>
          <path d="m34.12 42.177.842 2.21 7.439.461-.785-2.193-7.497-.478Zm-16.532-.412-.843 2.21-7.554.733.9-2.465 7.497-.478Z" id="Vector" fill="#C43D28" fill-rule="nonzero"/>
          <path d="M17.274 32.004c-3.273 1.484-6.86 6.067-8.182 11.442h5.852l-.967 4.881a25.592 25.592 0 0 0 11.645 2.787c4.216 0 8.183-1.015 11.688-2.812l-1.025-4.229 5.918-.528c-.009 0-1.372-7.584-7.613-11.17-5-2.87-12.704-2.44-17.316-.371Z" id="Vector" fill="#3D5CFF" fill-rule="nonzero"/>
          <path d="M18.2 38.599c-.14 2.383-.273 4.757-.413 7.14-.075 1.327-.157 2.654-.232 3.973-.008.157.24.157.248 0 .14-2.374.281-4.74.414-7.115.14-2.374.272-4.748.413-7.123.074-1.31.157-2.621.231-3.932.009-.157-.24-.157-.248.008-.14 2.35-.28 4.7-.413 7.049Zm3.273-.083-.149 7.75c-.024 1.45-.058 2.91-.082 4.361 0 .157.248.157.248 0 .05-2.589.099-5.177.157-7.766l.148-7.741c.025-1.443.058-2.894.083-4.337 0-.173-.248-.173-.248-.008-.05 2.58-.099 5.161-.157 7.741Zm3.86-.024c.041 2.646.091 5.292.132 7.939l.075 4.485c0 .156.248.156.248 0-.042-2.647-.091-5.293-.132-7.94-.042-2.646-.091-5.292-.133-7.939l-.074-4.484c0-.157-.248-.157-.248 0 .041 2.646.09 5.292.132 7.939Zm3.72-4.205c.074 1.303.165 2.605.247 3.908.091 1.319.182 2.63.29 3.949.099 1.302.206 2.613.322 3.916a300.038 300.038 0 0 0 .389 4.204c.016.157.264.157.248 0-.124-1.245-.24-2.49-.348-3.726a323.089 323.089 0 0 1-.322-3.9c-.1-1.319-.198-2.63-.29-3.948a645.97 645.97 0 0 1-.255-3.925 575.244 575.244 0 0 1-.215-3.767l-.025-.445c-.008-.165-.256-.165-.248-.009.066 1.245.132 2.49.207 3.743Zm4.223 3.99 1.14 6.909.62 3.768c.025.156.265.09.24-.066-.372-2.268-.744-4.526-1.115-6.794l-1.141-6.908-.62-3.768c-.033-.156-.273-.09-.24.066l1.116 6.793Zm-18.704-1.129a332.278 332.278 0 0 0-1.347 6.175c-.034.156.206.222.24.066.272-1.328.561-2.647.85-3.974.29-1.302.587-2.613.877-3.916.173-.75.339-1.5.504-2.25.041-.149-.19-.215-.232-.058l-.892 3.957Zm22.556.272c.421 1.336.851 2.68 1.28 4.015.24.75.489 1.5.745 2.242.05.149.29.083.24-.066a322.742 322.742 0 0 1-1.306-3.998 751.86 751.86 0 0 0-1.282-4.015c-.24-.75-.487-1.5-.743-2.242-.05-.157-.29-.091-.24.066.446 1.327.876 2.662 1.306 3.998Z" id="Vector" fill="#CDECFE" fill-rule="nonzero" opacity=".467"/>
          <path d="m16.539 37.915-3.48 5.531 1.976-.008 1.504-5.523Zm19.746 6.158 1.76-.148-3.926-6.703 2.166 6.851Z" id="Vector" fill="#224BF4" fill-rule="nonzero"/>
          <path d="M15.018 43.529c-.041-.008-.066-.058-.058-.099l1.653-6.117c.009-.041.058-.066.1-.058.04.008.066.058.057.099l-1.653 6.117a.08.08 0 0 1-.074.058h-.025Zm21.11.544-2.116-6.85c-.017-.042.008-.083.05-.1.04-.016.082.008.099.05l2.124 6.85c.016.042-.009.083-.05.1-.016 0-.025.008-.033.008a.08.08 0 0 1-.074-.058Z" id="Vector" fill="#1F1F39" fill-rule="nonzero"/>
          <path d="M25.622 51.113C11.472 51.113 0 39.671 0 25.557 0 11.442 11.472 0 25.622 0c14.151 0 25.623 11.442 25.623 25.557 0 14.114-11.472 25.556-25.623 25.556Z" id="Vector"/>
          <g id="Group" transform="translate(12.842 5.688)">
            <path d="M8.88 22.26c-.497-.11-.772-.303-.827-.578-.166.33-.744.44-1.736.33-.992-.11-1.653-.632-1.984-1.567-1.212-.22-1.928-.66-2.149-1.319-.22-.66-.303-1.126-.248-1.401C1.11 17.01.724 16.268.78 15.499c.055-.77.22-1.237.496-1.402-.44-.384-.606-.742-.496-1.071.11-.33.276-.522.496-.577C.118 11.294-.268 10.085.118 8.82c.386-1.264 1.047-1.896 1.984-1.896-.166-.44 0-.797.496-1.072.496-.274.854-.384 1.074-.33-.11-1.373.193-2.225.91-2.555.716-.33 1.377-.412 1.983-.247-.055-.77.165-1.182.661-1.237.496-.055.854.082 1.075.412 0-.22.22-.357.661-.412.44-.055.689 0 .744.165.11-1.1.744-1.649 1.9-1.649 1.158 0 1.93.33 2.315.99.276-.495.744-.688 1.405-.578.661.11.992.467.992 1.072.551-.605 1.405-.742 2.562-.412 1.157.33 1.901 1.511 2.232 3.545.386-.11.744-.083 1.074.082.331.165.469.55.414 1.154 1.047.055 1.68.522 1.9 1.402.221.88.221 1.484 0 1.814.937.879 1.268 1.978.993 3.297-.276 1.32-.69 2.199-1.24 2.638.22.66.22 1.237 0 1.732-.22.494-.551.741-.992.741.165.77.055 1.292-.33 1.567-.386.275-.772.357-1.158.247-.386 1.32-1.267 2.199-2.645 2.638-1.377.44-2.755.358-4.132-.247l-4.877.742c-.33 0-.744-.055-1.24-.165Z" id="Vector" fill="#F99A3D" fill-rule="nonzero"/>
            <path d="M6.416 14.51c.265.107.48.23.645.354.016-.725.843-2.993 1.67-3.735.785-.7 2.23-1.319 3.388-.412 1.157.907 1.653 2.391 2.397 1.979.744-.412 1.57-1.237 2.397-.577.62.494.727 2.02.744 2.745a3.21 3.21 0 0 1 .645-.354c.909-.38 2.173.148 2.115 1.714.042.685-.264 1.427-.776 1.748-.49.313-1.287.423-2.39.33a5.146 5.146 0 0 1-.512 1.401c-.385.715-.964 1.374-1.735 1.979v1.954l.182 2.663a4.09 4.09 0 0 1-.521.214 3.932 3.932 0 0 1-.736.214 7.11 7.11 0 0 1-1.562.173 6.233 6.233 0 0 1-1.562-.173 3.387 3.387 0 0 1-.736-.214 4.09 4.09 0 0 1-.52-.214l.181-2.663v-1.954c-.771-.605-1.35-1.264-1.735-1.979-.38-.7-.438-1.154-.438-1.385-.463.042-1.736.116-2.472-.346-.52-.321-.826-1.063-.785-1.748-.058-1.566 1.199-2.094 2.116-1.714Z" id="Vector" fill="#DA5742" fill-rule="nonzero"/>
            <g fill-rule="nonzero" id="Vector">
              <path d="m5.426 9.252-.066 1.023c.752-.058 1.67-.223 2.703-.594 1.05-.38 1.942-.915 2.645-1.418V7.29c-1.488.907-4.63.577-5.282-.008v1.97Z" fill="#C43D28" transform="translate(4.288 14.392)"/>
              <path d="M5.368 7.34a.1.1 0 0 1-.008-.132c.033-.042.09-.042.132-.009.389.355 1.728.602 2.976.545.05 0 .09.033.09.082 0 .05-.032.09-.082.09-.124.025-.248.025-.372.025-1.19 0-2.347-.247-2.736-.601Z" fill="#1F1F39" transform="translate(4.288 14.392)"/>
              <path d="M13.46.406c-.042.602.074.289-.19 2.103-.058.37-.265 1.071-.364 1.434.562.041 1.794.05 2.447-.363.512-.321.81-1.063.776-1.747.05-1.567-1.206-2.094-2.115-1.715-.215.09-.397.19-.554.288ZM3.69 5.312c.009.016.025.04.033.057-.082-.165-.165-.33-.24-.486.059.132.125.272.207.429ZM2.12.118C1.21-.262-.054.266.004 1.833c-.042.684.264 1.426.777 1.747.702.445 1.9.396 2.405.355-.232-1.03-.413-2.473-.53-3.537a3.222 3.222 0 0 0-.536-.28Z" fill="#C43D28" transform="translate(4.288 14.392)"/>
            </g>
            <path d="M7.144 17.585c-.006-.275-.163-.64-.471-1.097-.463-.684-1.331-.923-1.34-.931a.096.096 0 0 1-.066-.108.097.097 0 0 1 .108-.065c.041.008.95.255 1.446 1.005.496.742.496 1.18.496 1.196.009.05-.033.09-.082.09a.092.092 0 0 1-.091-.09Zm10.356 0c0-.017.008-.462.496-1.196.496-.742 1.405-.99 1.446-1.006.05-.016.1.017.108.066a.082.082 0 0 1-.067.108c-.008 0-.884.239-1.339.931-.308.456-.465.822-.47 1.097.008.05-.034.09-.083.09a.092.092 0 0 1-.091-.09Z" id="Vector" fill="#1F1F39" fill-rule="nonzero"/>
            <path d="M9.706 14.84s.066-.66.545-.66c.32 0 .502.22.546.66m3.099 0s.066-.66.546-.66c.32 0 .501.22.545.66" id="Vector" fill="#FFF" fill-rule="nonzero"/>
            <path d="M12.35 16.018a1.839 1.839 0 0 0-.123.437c-.009.074 0 .14.033.182 0 .008.008.008.008.016l.016.017a.195.195 0 0 0 .042.024.174.174 0 0 0 .09.033c.133.025.29-.033.43-.099a.587.587 0 0 1-.19.157.453.453 0 0 1-.256.058.355.355 0 0 1-.132-.042c-.025-.008-.041-.024-.058-.04l-.025-.026a.375.375 0 0 1-.083-.305.916.916 0 0 1 .067-.247c.025-.074.066-.148.099-.222.066-.124.157-.256.264-.38-.066.149-.124.297-.181.437Z" id="Vector" fill="#1F1F39" fill-rule="nonzero"/>
            <path d="M11.772 17.989s.314.783 1.19.66c.474-.067.739-.375.794-.924" id="Vector" fill="#FFF" fill-rule="nonzero"/>
            <path d="M10.326 16.653c-.297 0-.538-.295-.538-.66 0-.364.24-.659.538-.659.296 0 .537.295.537.66 0 .364-.24.659-.537.659Zm4.132 0c-.297 0-.537-.295-.537-.66 0-.364.24-.659.537-.659.297 0 .537.295.537.66 0 .364-.24.659-.537.659Z" id="Vector" fill="#1F1F39"/>
            <path d="M15.836 18.78c-.446 0-.808-.628-.808-1.404 0-.776.362-1.405.808-1.405.446 0 .808.629.808 1.405s-.362 1.405-.808 1.405Z" id="Vector" fill="#C43D28" transform="rotate(-85.11 15.836 17.376)"/>
            <path d="M9.141 18.781c-.446 0-.808-.63-.808-1.405 0-.776.362-1.405.808-1.405.446 0 .808.629.808 1.405s-.362 1.405-.808 1.405Z" id="Vector" fill="#C43D28" transform="rotate(-85.11 9.141 17.376)"/>
          </g>
        </g>
        <g id="Avatar-03" transform="translate(9.775 39.006)">
          <path d="M13.222.544C10.446 1.98 9.308 5.99 7.915 8.135c-1.383 2.146-1.952 2.688-3.03 3.459a4.164 4.164 0 0 1-2.425.788c1.6 4.016 5.482 6.377 11.646 7.084 9.246 1.059 14.202-2.067 16.076-3.345a8.795 8.795 0 0 0 2.924-3.31c-2.9-.642-4.763-2.297-5.586-4.965-1.235-4.01-2.977-6.83-5.674-7.276-1.798-.298-3.14-.157-4.028.42-1.214-1.26-2.746-1.41-4.596-.446Z" id="Vector" fill="#1F1F39" fill-rule="nonzero"/>
          <path d="m26.522 32.59 2.583 6.9a27.182 27.182 0 0 0 6.208-4.054 58.085 58.085 0 0 0-.85-2.337l-7.941-.508ZM6.234 39.622l2.697-7.215-7.942.508A54.69 54.69 0 0 0 0 35.665a26.98 26.98 0 0 0 6.234 3.957Z" id="Vector" fill="#F9D2DD" fill-rule="nonzero"/>
          <path d="m26.522 32.59.893 2.347 7.88.49-.832-2.328-7.941-.508ZM9.01 32.153 8.117 34.5l-8.003.779.954-2.618 7.942-.508Z" id="Vector" fill="#F9ACC0" fill-rule="nonzero"/>
          <path d="M8.686 21.786C5.219 23.353 1.41 28.22.009 33.93h6.199l-1.024 5.184a27.019 27.019 0 0 0 12.328 2.96c4.466 0 8.668-1.078 12.38-2.978l-1.085-4.491 6.27-.56c0 .008-1.445-8.048-8.047-11.856-5.289-3.056-13.458-2.6-18.344-.403Z" id="Vector" fill="#3D5CFF" fill-rule="nonzero"/>
          <path d="m7.898 28.064-3.686 5.875 2.092-.009 1.594-5.866Zm20.918 6.541 1.865-.158-4.16-7.119 2.295 7.277Z" id="Vector" fill="#224BF4" fill-rule="nonzero"/>
          <path d="M6.287 34.027c-.044-.01-.07-.062-.061-.105l1.75-6.497c.01-.044.062-.07.106-.062.044.01.07.062.061.105l-1.751 6.497a.084.084 0 0 1-.079.062h-.026Zm22.363.578-2.242-7.277c-.017-.043.009-.087.053-.105.043-.017.087.009.105.053l2.241 7.276c.018.044-.009.088-.052.105-.01 0-.018.009-.027.009a.084.084 0 0 1-.078-.061Z" id="Vector" fill="#1F1F39" fill-rule="nonzero"/>
          <g id="Group" transform="translate(9.4 5.999)">
            <path d="M14.837 2.986c-.28.114-.508.245-.683.376 0-.502-.027-.983-.08-1.444L12.342 1.9 12.236.858l-.21 1.042-2.653-.026L9.259.858l-.184 1.007-4.378-.044L4.522 0l-.245 1.821-1.331-.009c-.012.485-.018.999-.018 1.542a3.458 3.458 0 0 0-.683-.377c-.963-.403-2.302.158-2.241 1.821-.044.727.28 1.515.823 1.857.78.499 2.049.42 2.53.367.027.245.15.727.552 1.471.409.76 1.022 1.46 1.839 2.102v2.075l-.193 2.828c.135.07.318.146.552.228.175.07.42.157.78.227a7.513 7.513 0 0 0 1.654.184c.63.009 1.19-.07 1.655-.184a3.58 3.58 0 0 0 .78-.227c.233-.082.417-.158.55-.228l-.192-2.828v-2.067c.817-.642 1.43-1.342 1.839-2.101.268-.496.45-.992.543-1.488 1.167.099 2.01-.018 2.53-.35.552-.342.876-1.13.832-1.857.061-1.664-1.27-2.224-2.241-1.821Z" id="Vector" fill="#F9D2DD" fill-rule="nonzero"/>
            <path d="M2.254 2.986c-.963-.403-2.303.157-2.241 1.821-.044.727.28 1.515.823 1.856.77.49 2.014.42 2.513.377a46.63 46.63 0 0 1-.307-1.953c-.122-.884-.105-1.76-.105-1.725a3.458 3.458 0 0 0-.683-.376Zm11.908.376c0-.026.01.815-.078 1.638a19.1 19.1 0 0 1-.342 2.014c.149.008 1.778.122 2.522-.35.543-.342.858-1.13.823-1.857.052-1.664-1.278-2.224-2.242-1.821-.28.114-.507.245-.683.376Z" id="Vector" fill="#F9ACC0" fill-rule="nonzero"/>
            <path d="M2.85 6.252c-.006-.333-.19-.777-.552-1.331C1.755 4.089.722 3.8.713 3.8c-.061-.017-.087-.079-.079-.131.018-.062.08-.088.132-.08.044.01 1.12.316 1.707 1.218.587.893.587 1.427.587 1.445a.106.106 0 0 1-.105.105.106.106 0 0 1-.105-.105Zm11.426-.122a.113.113 0 0 1-.052-.15c.017-.035.446-.902 1.094-1.567.657-.674 1.112-.762 1.13-.762.061-.009.114.027.122.088.009.061-.026.114-.087.122-.275.053-.613.286-1.016.7-.622.64-1.05 1.498-1.05 1.507a.112.112 0 0 1-.097.07c-.018 0-.035 0-.044-.009Z" id="Vector" fill="#1F1F39" fill-rule="nonzero"/>
            <path d="M8.756 1.751c-.769 0-1.392-.392-1.392-.875C7.364.392 7.987 0 8.756 0c.769 0 1.392.392 1.392.876 0 .483-.623.875-1.392.875Zm-7.364 0C.623 1.751 0 1.36 0 .876S.623 0 1.392 0c.77 0 1.392.392 1.392.876 0 .483-.623.875-1.392.875Z" transform="translate(3.445 5.411)" fill="#F9ACC0" id="Vector"/>
            <path d="M6.807 10.954a4.063 4.063 0 0 1-1.059-.298v2.023l-.088 1.26c.237-.017.5-.07.788-.183 1.349-.526 2.753-1.489 4.212-2.89-1.576.175-2.86.204-3.853.088Z" id="Vector" fill="#F9ACC0" fill-rule="nonzero"/>
            <path d="M5.126 2.68a.727.727 0 0 1 .517-.123c.175.017.35.07.499.184.14.113.236.289.219.464a.678.678 0 0 0-.298-.342 1.21 1.21 0 0 0-.429-.122.885.885 0 0 0-.429.06.902.902 0 0 0-.341.316.63.63 0 0 1 .262-.438Zm5.867.122a.758.758 0 0 1 .516-.079.675.675 0 0 1 .254.088.647.647 0 0 1 .202.175c.113.14.175.306.175.473a1.203 1.203 0 0 0-.28-.368.547.547 0 0 0-.176-.114c-.035-.009-.06-.026-.096-.035l-.105-.026a.894.894 0 0 0-.43.026.838.838 0 0 0-.393.236.667.667 0 0 1 .333-.376ZM8.576 4.798c-.088.21-.166.42-.193.64a.952.952 0 0 0-.008.157c.008.053.008.105.026.149a.388.388 0 0 0 .157.228.75.75 0 0 0 .298.105c.114.017.228.026.342.017a.926.926 0 0 1-.35.07.797.797 0 0 1-.368-.079.52.52 0 0 1-.254-.306c-.027-.061-.027-.131-.035-.193 0-.061 0-.131.008-.192a2.01 2.01 0 0 1 .246-.675c.113-.192.245-.385.411-.551-.096.21-.192.42-.28.63Z" id="Vector" fill="#1F1F39" fill-rule="nonzero"/>
            <path d="M5.759 5.357c-.416 0-.753-.275-.753-.613 0-.339.337-.613.753-.613s.753.274.753.613c0 .338-.337.613-.753.613Z" id="Vector" fill="#1F1F39" transform="rotate(-83.119 5.759 4.744)"/>
            <path d="M11.37 5.473c-.416 0-.753-.274-.753-.613 0-.339.337-.613.753-.613s.753.274.753.613c0 .339-.337.613-.753.613Z" id="Vector" fill="#1F1F39" transform="rotate(-83.119 11.37 4.86)"/>
            <path d="M8.357 6.926h.805c.167 0 .36 0 .622.009a.722.722 0 0 1-.113.35.997.997 0 0 1-.237.271 1.108 1.108 0 0 1-1.077.175.997.997 0 0 1-.333-.2.888.888 0 0 1-.219-.316.68.68 0 0 1-.026-.377c.254.062.43.08.578.088Z" id="Vector" fill="#DA5742" fill-rule="nonzero"/>
          </g>
          <path d="M14.736 16.567a.106.106 0 0 1-.008-.14c.035-.044.096-.044.14-.009.411.377 1.83.64 3.152.578.052 0 .096.035.096.088 0 .052-.035.096-.087.096-.132.026-.263.026-.394.026-1.261 0-2.487-.262-2.899-.639Z" id="Vector" fill="#1F1F39" fill-rule="nonzero"/>
          <path d="M24.858 25.603c-.665-.288-1.488-.989-1.646-2.688-.07-.796-.061-1.54.044-2.206a.184.184 0 0 1 .201-.149.184.184 0 0 1 .149.201 8.883 8.883 0 0 0-.044 2.12c.114 1.225.596 2.03 1.436 2.398 1.174.508 3.047.053 4.562-1.112a.172.172 0 0 1 .245.036c.062.078.044.183-.035.245-1.287.99-2.6 1.392-3.651 1.392-.49 0-.92-.088-1.26-.237Z" id="Vector" fill="#EAEAFF" fill-rule="nonzero" opacity=".55"/>
          <path d="m33.676 30.866-.21-.096c-3.468-1.612-6.743-3.135-7.356-6.883-.122-.77-.131-1.488-.017-2.136a.17.17 0 0 1 .201-.14.17.17 0 0 1 .14.201c-.105.613-.096 1.296.027 2.023.586 3.563 3.773 5.052 7.162 6.62l.21.096a.186.186 0 0 1 .088.236c-.053.053-.114.096-.175.096a.165.165 0 0 1-.07-.017Z" id="Vector" fill="#EAEAFF" fill-rule="nonzero" opacity=".55"/>
          <path d="M28.72 39.377c.367-1.27.113-2.636-.71-3.836-.971-1.41-2.705-2.548-5.017-3.292-2.653-.858-4.64-.613-5.84-.262-.7.21-1.313.507-1.812.884.621.061 1.26.105 1.89.149 3.407.245 6.62.481 7.382 2.767.324.963.105 1.847-.604 2.486-.692.622-1.804.981-3.135 1.007-1.418.027-2.96-.324-4.465-.998-1.13-.508-1.927-1.156-2.356-1.917-.402-.71-.464-1.471-.175-2.207.14-.368.36-.71.648-1.024-1.979-.246-3.765-.692-4.816-1.804-.726-.762-1.006-1.769-.84-2.925-.71-.017-1.471-.07-2.294-.175-1.445-.184-2.478-.516-3.573-1.147l.176-.306c.884.508 1.803.893 3.432 1.103.832.105 1.61.158 2.32.175.254-1.13.902-2.303 1.839-3.3.893-.964 1.953-1.647 2.986-1.945 1.182-.341 2.259-.149 3.108.56.578.482.736 1.156.43 1.874-.43.999-1.664 1.9-3.39 2.478-1.024.342-2.565.692-4.649.692H9.23c-.158.99.035 1.944.727 2.68 1.033 1.085 2.863 1.505 4.885 1.733 1.594-1.4 4.676-2.058 8.266-.902 2.382.77 4.177 1.953 5.201 3.424.867 1.287 1.138 2.75.744 4.124l-.332-.096ZM14.194 34.28c-.535 1.392.341 2.767 2.355 3.686 2.408 1.094 5.656 1.462 7.215.052.613-.551.788-1.278.508-2.119-.692-2.066-3.792-2.294-7.075-2.53a46.404 46.404 0 0 1-2.242-.184c-.35.333-.613.7-.761 1.095Zm-3.188-9.282c-.831.885-1.47 1.988-1.725 3.065 2.014-.009 3.503-.333 4.492-.674 1.603-.543 2.793-1.393 3.179-2.286.245-.569.131-1.077-.333-1.462-.473-.394-1.103-.63-1.83-.63-1.12 0-2.452.569-3.783 1.987Z" id="Vector" fill="#EAEAFF" opacity=".55"/>
        </g>
        <g id="Group-137" transform="translate(53.993 37.307)">
          <path d="M20.424 10.89c-.166-.131-.428-.22-.786-.263-.537-.066-.868.132-.876.132a.132.132 0 0 1-.173-.042.12.12 0 0 1 .041-.165c.016-.008.413-.239 1.033-.164.62.074.901.313.918.321.05.041.057.124.016.173a.132.132 0 0 1-.09.033.16.16 0 0 1-.083-.025Zm-6.514-.016a.128.128 0 0 1 .017-.173c.008-.008.298-.248.917-.322.62-.074 1.017.157 1.034.165.058.033.074.107.041.173-.033.058-.107.075-.174.042-.008 0-.347-.198-.876-.132-.358.044-.62.132-.785.263a.134.134 0 0 1-.074.025.153.153 0 0 1-.1-.041Z" id="Vector" fill="#1F1F39" fill-rule="nonzero"/>
          <path d="m25.036 34.922 2.438 6.496a25.665 25.665 0 0 0 5.86-3.817 54.622 54.622 0 0 0-.802-2.2l-7.496-.479Zm-19.151 6.62 2.546-6.793-7.497.478A51.423 51.423 0 0 0 0 37.816a25.477 25.477 0 0 0 5.885 3.726Z" id="Vector" fill="#F9D2DD" fill-rule="nonzero"/>
          <path d="m25.036 34.922.843 2.21 7.438.461-.785-2.193-7.496-.478ZM8.505 34.51l-.843 2.21-7.555.733.901-2.465 7.497-.478Z" id="Vector" fill="#F9ACC0" fill-rule="nonzero"/>
          <path d="M8.199 24.749c-3.273 1.475-6.868 6.06-8.19 11.434h5.85l-.966 4.88A25.558 25.558 0 0 0 16.53 43.85a25.62 25.62 0 0 0 11.688-2.803l-1.025-4.229 5.918-.528c0 .009-1.364-7.576-7.596-11.162-4.992-2.877-12.704-2.449-17.316-.38Z" id="Vector" fill="#3D5CFF" fill-rule="nonzero"/>
          <path d="m7.455 30.66-3.48 5.532 1.976-.009 1.504-5.523Zm19.746 6.158 1.76-.148-3.925-6.703 2.165 6.851Z" id="Vector" fill="#224BF4" fill-rule="nonzero"/>
          <g id="Group" opacity=".451" transform="translate(1.083 23.413)" fill="#F9EDC7">
            <path d="M12.852 12.407a1.155 1.155 0 1 1 0-2.308c.64 0 1.158.517 1.158 1.154 0 .638-.518 1.154-1.158 1.154Zm5.414-2.184a1.156 1.156 0 1 1 0-2.308 1.154 1.154 0 1 1 0 2.308ZM8.844 6.348a1.155 1.155 0 1 1 0-2.308 1.154 1.154 0 1 1-.001 2.308Zm0 11.377a1.155 1.155 0 1 1 0-2.308 1.154 1.154 0 1 1-.001 2.307Zm10.166 1.154a1.155 1.155 0 1 1 0-2.308 1.154 1.154 0 1 1 0 2.308Zm9.257-4.864a1.155 1.155 0 1 1 0-2.308c.64 0 1.158.516 1.158 1.154 0 .637-.518 1.154-1.158 1.154ZM1.157 9.646a1.156 1.156 0 1 1 0-2.308 1.154 1.154 0 1 1 0 2.308ZM28.68 7.255a1.156 1.156 0 0 1-1.157-1.154c0-.638.519-1.154 1.158-1.154a1.155 1.155 0 1 1 0 2.308Zm-7.108-4.947a1.155 1.155 0 1 1 0-2.308c.64 0 1.158.517 1.158 1.154 0 .638-.519 1.154-1.158 1.154Z" id="Vector"/>
          </g>
          <path d="M5.934 36.274c-.04-.008-.066-.058-.057-.099l1.653-6.117c.008-.041.058-.066.099-.058.041.009.066.058.058.1l-1.653 6.116a.08.08 0 0 1-.075.058h-.025Zm21.11.544-2.116-6.85c-.017-.042.008-.083.05-.1.041-.016.082.009.099.05l2.124 6.85c.017.042-.008.083-.05.1-.016 0-.024.008-.033.008a.08.08 0 0 1-.074-.058Z" id="Vector" fill="#1F1F39" fill-rule="nonzero"/>
          <g id="Group" transform="translate(7.787)">
            <path d="M.9 5.853c.716-1.429 1.57-2.198 2.562-2.308C4.4 1.182 6.438 0 9.578 0c3.141 0 5.07 1.539 5.786 4.617 1.433.44 2.122 1.374 2.066 2.803-.055 1.429-.749 3.784-2.082 7.065L2.14 11.872C.597 9.288.183 7.282.9 5.853Z" id="Vector" fill="#FFF" fill-rule="nonzero"/>
            <g id="Vector">
              <path d="M1.14 4.349C-.216 4.967-.348 6.83.668 8c.678.78 1.871 1.08 3.58.899L3.56 4.654c-.71-.616-1.518-.717-2.421-.305Z" fill="#F9ACC0" fill-rule="nonzero" transform="translate(0 6.665)"/>
              <path d="M15.607 4.349c1.347.618 1.487 2.481.47 3.652-.677.78-1.87 1.08-3.578.899l.686-4.246c.71-.616 1.518-.717 2.422-.305Z" fill="#F9ACC0" fill-rule="nonzero" transform="translate(1.683 6.665)"/>
              <path d="M2.093 8.034c-.006-.313-.18-.731-.521-1.253C1.06 5.998.084 5.726.076 5.726a.108.108 0 0 1-.074-.124c.016-.058.074-.082.124-.074.04.008 1.057.297 1.611 1.146.554.84.554 1.344.554 1.36a.1.1 0 0 1-.1.099.1.1 0 0 1-.098-.099Zm11.199-.115a.106.106 0 0 1-.05-.14c.017-.034.422-.85 1.034-1.476.62-.635 1.05-.718 1.066-.718.058-.008.107.025.116.083.008.058-.025.107-.083.115-.259.05-.578.27-.959.66a6.228 6.228 0 0 0-.992 1.418.105.105 0 0 1-.09.066c-.017 0-.033 0-.042-.008Z" fill="#1F1F39" fill-rule="nonzero" transform="translate(1.683 6.665)"/>
              <path d="M2.291 8.891c.452 1.605 1.262 2.867 2.43 3.784l-.339 4.683c.314.687 1.303 1.03 2.967 1.03 1.802 0 2.951-.343 3.447-1.03l-.132-4.608c1.124-.182 1.956-1.284 2.496-3.306.54-2.017.675-3.922.405-5.713-2.656.412-4.433.068-5.331-1.031C6.887 1.051 5.53-.606 3.572.219c-1.306.55-1.82 1.58-1.545 3.091-.276 2.116-.188 3.976.264 5.581Z" fill="#F9D2DD" fill-rule="nonzero" transform="translate(1.683 6.665)"/>
              <path d="M5.597 6.69c-.338 0-.611-.325-.611-.725 0-.401.273-.726.611-.726.338 0 .612.325.612.726 0 .4-.274.725-.612.725Zm4.455 0c-.337 0-.611-.325-.611-.725 0-.401.274-.726.611-.726.338 0 .612.325.612.726 0 .4-.274.725-.612.725Z" fill="#1F1F39" transform="translate(1.683 6.665)"/>
              <path d="M7.358 6.962c.137.275.385.344.744.206-.359-.093-.538-.277-.538-.552a503.23 503.23 0 0 0-.041-1.822c-.248 1.17-.303 1.893-.165 2.168Z" fill="#1F1F39" fill-rule="nonzero" transform="translate(1.683 6.665)"/>
              <path d="M4.531 16.088c.041-.008 4.472-1.723 5.306-2.506 0-.319.006-.596.017-.832-.54.318-1.463.456-2.769.412-.91-.033-1.893-.206-2.364-.487.008.42-.149 3.249-.19 3.413Z" fill="#F9ACC0" fill-rule="nonzero" transform="translate(1.683 6.665)"/>
              <path d="M8.265 1.649c-.726 0-1.314-.37-1.314-.825C6.95.37 7.539 0 8.265 0 8.991 0 9.58.37 9.58.824c0 .456-.588.825-1.314.825Zm-6.951 0C.588 1.649 0 1.279 0 .824 0 .37.588 0 1.314 0c.726 0 1.314.37 1.314.824 0 .456-.588.825-1.314.825Z" transform="translate(4.586 13.496)" fill="#F9ACC0"/>
            </g>
            <path d="M7.23 16.183c2.985.742 5.175-.412 6.142-1.492.645-.72.978-2.237 1-4.55l1.008-.33c.182 4.303-.165 7.035-1.041 8.194-1.314 1.74-3.182 2.276-5.207 2.193-1.455-.066-2.943-.536-4.265-2.275-.876-1.16-1.482-3.754-1.818-7.783l.66-1.154c.359 4.298 1.533 6.697 3.522 7.197Z" id="Vector" fill="#FFF" fill-rule="nonzero"/>
            <path d="M9.496 14.922c.22-.055.55-.247.991-.577.11-.055.193-.055.248 0 .083.082-.446 1.022-.909 1.154-.578.165-.992-.083-1.24-.412-.165-.22-.137-.303.083-.248.33.11.606.138.827.083Z" id="Vector" fill="#F95368" fill-rule="nonzero"/>
          </g>
        </g>
      </g>
    </g>
    <g id="menu2" transform="translate(13 262)">
      <path d="M12 0h311c6.627 0 12 5.373 12 12v96c0 6.627-5.373 12-12 12H12c-6.627 0-12-5.373-12-12V12C0 5.373 5.373 0 12 0Z" id="Rectangle-34" fill="#EFE0FF"/>
      <text id="60분" fill="#440687" fill-rule="nonzero" font-family="NanumGothic, Nanum Gothic" font-size="24.357" font-weight="normal">
                <tspan x="18" y="40">60분</tspan>
            </text>
      <text id="Off-line-exchange-of-learning-experiences" fill="#440687" fill-rule="nonzero" font-family="NanumGothic, Nanum Gothic" font-size="12" font-weight="normal">
                <tspan x="18" y="66">Off-line exchange of learning </tspan>
                <tspan x="18" y="80">experiences</tspan>
            </text>
      <g id="illustration" transform="translate(224.673 8.25)">
        <path d="M48.257 96.514c26.651 0 48.257-21.606 48.257-48.257C96.514 21.605 74.908 0 48.257 0 21.605 0 0 21.605 0 48.257c0 26.651 21.605 48.257 48.257 48.257Z" id="Ellipse-75" fill="#F5ECFF" opacity=".56"/>
        <path d="M48.257 83.757c19.606 0 35.5-15.894 35.5-35.5s-15.894-35.5-35.5-35.5-35.5 15.894-35.5 35.5 15.894 35.5 35.5 35.5Z" id="Ellipse-76" fill="#F8F2FF" opacity=".8"/>
        <g id="Group-136" transform="translate(23.846 11.75)">
          <path d="m34.12 42.177 2.437 6.496a25.666 25.666 0 0 0 5.86-3.817 54.616 54.616 0 0 0-.801-2.201l-7.497-.478Zm-19.152 6.62 2.546-6.793-7.497.478a51.426 51.426 0 0 0-.934 2.589 25.477 25.477 0 0 0 5.885 3.726Z" id="Vector" fill="#DA5742" fill-rule="nonzero"/>
          <path d="m34.12 42.177.842 2.21 7.439.461-.785-2.193-7.497-.478Zm-16.532-.412-.843 2.21-7.554.733.9-2.465 7.497-.478Z" id="Vector" fill="#C43D28" fill-rule="nonzero"/>
          <path d="M17.274 32.004c-3.273 1.484-6.86 6.067-8.182 11.442h5.852l-.967 4.881a25.592 25.592 0 0 0 11.645 2.787c4.216 0 8.183-1.015 11.688-2.812l-1.025-4.229 5.918-.528c-.009 0-1.372-7.584-7.613-11.17-5-2.87-12.704-2.44-17.316-.371Z" id="Vector" fill="#3D5CFF" fill-rule="nonzero"/>
          <path d="M18.2 38.599c-.14 2.383-.273 4.757-.413 7.14-.075 1.327-.157 2.654-.232 3.973-.008.157.24.157.248 0 .14-2.374.281-4.74.414-7.115.14-2.374.272-4.748.413-7.123.074-1.31.157-2.621.231-3.932.009-.157-.24-.157-.248.008-.14 2.35-.28 4.7-.413 7.049Zm3.273-.083-.149 7.75c-.024 1.45-.058 2.91-.082 4.361 0 .157.248.157.248 0 .05-2.589.099-5.177.157-7.766l.148-7.741c.025-1.443.058-2.894.083-4.337 0-.173-.248-.173-.248-.008-.05 2.58-.099 5.161-.157 7.741Zm3.86-.024c.041 2.646.091 5.292.132 7.939l.075 4.485c0 .156.248.156.248 0-.042-2.647-.091-5.293-.132-7.94-.042-2.646-.091-5.292-.133-7.939l-.074-4.484c0-.157-.248-.157-.248 0 .041 2.646.09 5.292.132 7.939Zm3.72-4.205c.074 1.303.165 2.605.247 3.908.091 1.319.182 2.63.29 3.949.099 1.302.206 2.613.322 3.916a300.038 300.038 0 0 0 .389 4.204c.016.157.264.157.248 0-.124-1.245-.24-2.49-.348-3.726a323.089 323.089 0 0 1-.322-3.9c-.1-1.319-.198-2.63-.29-3.948a645.97 645.97 0 0 1-.255-3.925 575.244 575.244 0 0 1-.215-3.767l-.025-.445c-.008-.165-.256-.165-.248-.009.066 1.245.132 2.49.207 3.743Zm4.223 3.99 1.14 6.909.62 3.768c.025.156.265.09.24-.066-.372-2.268-.744-4.526-1.115-6.794l-1.141-6.908-.62-3.768c-.033-.156-.273-.09-.24.066l1.116 6.793Zm-18.704-1.129a332.278 332.278 0 0 0-1.347 6.175c-.034.156.206.222.24.066.272-1.328.561-2.647.85-3.974.29-1.302.587-2.613.877-3.916.173-.75.339-1.5.504-2.25.041-.149-.19-.215-.232-.058l-.892 3.957Zm22.556.272c.421 1.336.851 2.68 1.28 4.015.24.75.489 1.5.745 2.242.05.149.29.083.24-.066a322.742 322.742 0 0 1-1.306-3.998 751.86 751.86 0 0 0-1.282-4.015c-.24-.75-.487-1.5-.743-2.242-.05-.157-.29-.091-.24.066.446 1.327.876 2.662 1.306 3.998Z" id="Vector" fill="#CDECFE" fill-rule="nonzero" opacity=".467"/>
          <path d="m16.539 37.915-3.48 5.531 1.976-.008 1.504-5.523Zm19.746 6.158 1.76-.148-3.926-6.703 2.166 6.851Z" id="Vector" fill="#224BF4" fill-rule="nonzero"/>
          <path d="M15.018 43.529c-.041-.008-.066-.058-.058-.099l1.653-6.117c.009-.041.058-.066.1-.058.04.008.066.058.057.099l-1.653 6.117a.08.08 0 0 1-.074.058h-.025Zm21.11.544-2.116-6.85c-.017-.042.008-.083.05-.1.04-.016.082.008.099.05l2.124 6.85c.016.042-.009.083-.05.1-.016 0-.025.008-.033.008a.08.08 0 0 1-.074-.058Z" id="Vector" fill="#1F1F39" fill-rule="nonzero"/>
          <path d="M25.622 51.113C11.472 51.113 0 39.671 0 25.557 0 11.442 11.472 0 25.622 0c14.151 0 25.623 11.442 25.623 25.557 0 14.114-11.472 25.556-25.623 25.556Z" id="Vector"/>
          <g id="Group" transform="translate(12.842 5.688)">
            <path d="M8.88 22.26c-.497-.11-.772-.303-.827-.578-.166.33-.744.44-1.736.33-.992-.11-1.653-.632-1.984-1.567-1.212-.22-1.928-.66-2.149-1.319-.22-.66-.303-1.126-.248-1.401C1.11 17.01.724 16.268.78 15.499c.055-.77.22-1.237.496-1.402-.44-.384-.606-.742-.496-1.071.11-.33.276-.522.496-.577C.118 11.294-.268 10.085.118 8.82c.386-1.264 1.047-1.896 1.984-1.896-.166-.44 0-.797.496-1.072.496-.274.854-.384 1.074-.33-.11-1.373.193-2.225.91-2.555.716-.33 1.377-.412 1.983-.247-.055-.77.165-1.182.661-1.237.496-.055.854.082 1.075.412 0-.22.22-.357.661-.412.44-.055.689 0 .744.165.11-1.1.744-1.649 1.9-1.649 1.158 0 1.93.33 2.315.99.276-.495.744-.688 1.405-.578.661.11.992.467.992 1.072.551-.605 1.405-.742 2.562-.412 1.157.33 1.901 1.511 2.232 3.545.386-.11.744-.083 1.074.082.331.165.469.55.414 1.154 1.047.055 1.68.522 1.9 1.402.221.88.221 1.484 0 1.814.937.879 1.268 1.978.993 3.297-.276 1.32-.69 2.199-1.24 2.638.22.66.22 1.237 0 1.732-.22.494-.551.741-.992.741.165.77.055 1.292-.33 1.567-.386.275-.772.357-1.158.247-.386 1.32-1.267 2.199-2.645 2.638-1.377.44-2.755.358-4.132-.247l-4.877.742c-.33 0-.744-.055-1.24-.165Z" id="Vector" fill="#F99A3D" fill-rule="nonzero"/>
            <path d="M6.416 14.51c.265.107.48.23.645.354.016-.725.843-2.993 1.67-3.735.785-.7 2.23-1.319 3.388-.412 1.157.907 1.653 2.391 2.397 1.979.744-.412 1.57-1.237 2.397-.577.62.494.727 2.02.744 2.745a3.21 3.21 0 0 1 .645-.354c.909-.38 2.173.148 2.115 1.714.042.685-.264 1.427-.776 1.748-.49.313-1.287.423-2.39.33a5.146 5.146 0 0 1-.512 1.401c-.385.715-.964 1.374-1.735 1.979v1.954l.182 2.663a4.09 4.09 0 0 1-.521.214 3.932 3.932 0 0 1-.736.214 7.11 7.11 0 0 1-1.562.173 6.233 6.233 0 0 1-1.562-.173 3.387 3.387 0 0 1-.736-.214 4.09 4.09 0 0 1-.52-.214l.181-2.663v-1.954c-.771-.605-1.35-1.264-1.735-1.979-.38-.7-.438-1.154-.438-1.385-.463.042-1.736.116-2.472-.346-.52-.321-.826-1.063-.785-1.748-.058-1.566 1.199-2.094 2.116-1.714Z" id="Vector" fill="#DA5742" fill-rule="nonzero"/>
            <g fill-rule="nonzero" id="Vector">
              <path d="m5.426 9.252-.066 1.023c.752-.058 1.67-.223 2.703-.594 1.05-.38 1.942-.915 2.645-1.418V7.29c-1.488.907-4.63.577-5.282-.008v1.97Z" fill="#C43D28" transform="translate(4.288 14.392)"/>
              <path d="M5.368 7.34a.1.1 0 0 1-.008-.132c.033-.042.09-.042.132-.009.389.355 1.728.602 2.976.545.05 0 .09.033.09.082 0 .05-.032.09-.082.09-.124.025-.248.025-.372.025-1.19 0-2.347-.247-2.736-.601Z" fill="#1F1F39" transform="translate(4.288 14.392)"/>
              <path d="M13.46.406c-.042.602.074.289-.19 2.103-.058.37-.265 1.071-.364 1.434.562.041 1.794.05 2.447-.363.512-.321.81-1.063.776-1.747.05-1.567-1.206-2.094-2.115-1.715-.215.09-.397.19-.554.288ZM3.69 5.312c.009.016.025.04.033.057-.082-.165-.165-.33-.24-.486.059.132.125.272.207.429ZM2.12.118C1.21-.262-.054.266.004 1.833c-.042.684.264 1.426.777 1.747.702.445 1.9.396 2.405.355-.232-1.03-.413-2.473-.53-3.537a3.222 3.222 0 0 0-.536-.28Z" fill="#C43D28" transform="translate(4.288 14.392)"/>
            </g>
            <path d="M7.144 17.585c-.006-.275-.163-.64-.471-1.097-.463-.684-1.331-.923-1.34-.931a.096.096 0 0 1-.066-.108.097.097 0 0 1 .108-.065c.041.008.95.255 1.446 1.005.496.742.496 1.18.496 1.196.009.05-.033.09-.082.09a.092.092 0 0 1-.091-.09Zm10.356 0c0-.017.008-.462.496-1.196.496-.742 1.405-.99 1.446-1.006.05-.016.1.017.108.066a.082.082 0 0 1-.067.108c-.008 0-.884.239-1.339.931-.308.456-.465.822-.47 1.097.008.05-.034.09-.083.09a.092.092 0 0 1-.091-.09Z" id="Vector" fill="#1F1F39" fill-rule="nonzero"/>
            <path d="M9.706 14.84s.066-.66.545-.66c.32 0 .502.22.546.66m3.099 0s.066-.66.546-.66c.32 0 .501.22.545.66" id="Vector" fill="#FFF" fill-rule="nonzero"/>
            <path d="M12.35 16.018a1.839 1.839 0 0 0-.123.437c-.009.074 0 .14.033.182 0 .008.008.008.008.016l.016.017a.195.195 0 0 0 .042.024.174.174 0 0 0 .09.033c.133.025.29-.033.43-.099a.587.587 0 0 1-.19.157.453.453 0 0 1-.256.058.355.355 0 0 1-.132-.042c-.025-.008-.041-.024-.058-.04l-.025-.026a.375.375 0 0 1-.083-.305.916.916 0 0 1 .067-.247c.025-.074.066-.148.099-.222.066-.124.157-.256.264-.38-.066.149-.124.297-.181.437Z" id="Vector" fill="#1F1F39" fill-rule="nonzero"/>
            <path d="M11.772 17.989s.314.783 1.19.66c.474-.067.739-.375.794-.924" id="Vector" fill="#FFF" fill-rule="nonzero"/>
            <path d="M10.326 16.653c-.297 0-.538-.295-.538-.66 0-.364.24-.659.538-.659.296 0 .537.295.537.66 0 .364-.24.659-.537.659Zm4.132 0c-.297 0-.537-.295-.537-.66 0-.364.24-.659.537-.659.297 0 .537.295.537.66 0 .364-.24.659-.537.659Z" id="Vector" fill="#1F1F39"/>
            <path d="M15.836 18.78c-.446 0-.808-.628-.808-1.404 0-.776.362-1.405.808-1.405.446 0 .808.629.808 1.405s-.362 1.405-.808 1.405Z" id="Vector" fill="#C43D28" transform="rotate(-85.11 15.836 17.376)"/>
            <path d="M9.141 18.781c-.446 0-.808-.63-.808-1.405 0-.776.362-1.405.808-1.405.446 0 .808.629.808 1.405s-.362 1.405-.808 1.405Z" id="Vector" fill="#C43D28" transform="rotate(-85.11 9.141 17.376)"/>
          </g>
        </g>
        <g id="Avatar-03" transform="translate(9.775 39.006)">
          <path d="M13.222.544C10.446 1.98 9.308 5.99 7.915 8.135c-1.383 2.146-1.952 2.688-3.03 3.459a4.164 4.164 0 0 1-2.425.788c1.6 4.016 5.482 6.377 11.646 7.084 9.246 1.059 14.202-2.067 16.076-3.345a8.795 8.795 0 0 0 2.924-3.31c-2.9-.642-4.763-2.297-5.586-4.965-1.235-4.01-2.977-6.83-5.674-7.276-1.798-.298-3.14-.157-4.028.42-1.214-1.26-2.746-1.41-4.596-.446Z" id="Vector" fill="#1F1F39" fill-rule="nonzero"/>
          <path d="m26.522 32.59 2.583 6.9a27.182 27.182 0 0 0 6.208-4.054 58.085 58.085 0 0 0-.85-2.337l-7.941-.508ZM6.234 39.622l2.697-7.215-7.942.508A54.69 54.69 0 0 0 0 35.665a26.98 26.98 0 0 0 6.234 3.957Z" id="Vector" fill="#F9D2DD" fill-rule="nonzero"/>
          <path d="m26.522 32.59.893 2.347 7.88.49-.832-2.328-7.941-.508ZM9.01 32.153 8.117 34.5l-8.003.779.954-2.618 7.942-.508Z" id="Vector" fill="#F9ACC0" fill-rule="nonzero"/>
          <path d="M8.686 21.786C5.219 23.353 1.41 28.22.009 33.93h6.199l-1.024 5.184a27.019 27.019 0 0 0 12.328 2.96c4.466 0 8.668-1.078 12.38-2.978l-1.085-4.491 6.27-.56c0 .008-1.445-8.048-8.047-11.856-5.289-3.056-13.458-2.6-18.344-.403Z" id="Vector" fill="#3D5CFF" fill-rule="nonzero"/>
          <path d="m7.898 28.064-3.686 5.875 2.092-.009 1.594-5.866Zm20.918 6.541 1.865-.158-4.16-7.119 2.295 7.277Z" id="Vector" fill="#224BF4" fill-rule="nonzero"/>
          <path d="M6.287 34.027c-.044-.01-.07-.062-.061-.105l1.75-6.497c.01-.044.062-.07.106-.062.044.01.07.062.061.105l-1.751 6.497a.084.084 0 0 1-.079.062h-.026Zm22.363.578-2.242-7.277c-.017-.043.009-.087.053-.105.043-.017.087.009.105.053l2.241 7.276c.018.044-.009.088-.052.105-.01 0-.018.009-.027.009a.084.084 0 0 1-.078-.061Z" id="Vector" fill="#1F1F39" fill-rule="nonzero"/>
          <g id="Group" transform="translate(9.4 5.999)">
            <path d="M14.837 2.986c-.28.114-.508.245-.683.376 0-.502-.027-.983-.08-1.444L12.342 1.9 12.236.858l-.21 1.042-2.653-.026L9.259.858l-.184 1.007-4.378-.044L4.522 0l-.245 1.821-1.331-.009c-.012.485-.018.999-.018 1.542a3.458 3.458 0 0 0-.683-.377c-.963-.403-2.302.158-2.241 1.821-.044.727.28 1.515.823 1.857.78.499 2.049.42 2.53.367.027.245.15.727.552 1.471.409.76 1.022 1.46 1.839 2.102v2.075l-.193 2.828c.135.07.318.146.552.228.175.07.42.157.78.227a7.513 7.513 0 0 0 1.654.184c.63.009 1.19-.07 1.655-.184a3.58 3.58 0 0 0 .78-.227c.233-.082.417-.158.55-.228l-.192-2.828v-2.067c.817-.642 1.43-1.342 1.839-2.101.268-.496.45-.992.543-1.488 1.167.099 2.01-.018 2.53-.35.552-.342.876-1.13.832-1.857.061-1.664-1.27-2.224-2.241-1.821Z" id="Vector" fill="#F9D2DD" fill-rule="nonzero"/>
            <path d="M2.254 2.986c-.963-.403-2.303.157-2.241 1.821-.044.727.28 1.515.823 1.856.77.49 2.014.42 2.513.377a46.63 46.63 0 0 1-.307-1.953c-.122-.884-.105-1.76-.105-1.725a3.458 3.458 0 0 0-.683-.376Zm11.908.376c0-.026.01.815-.078 1.638a19.1 19.1 0 0 1-.342 2.014c.149.008 1.778.122 2.522-.35.543-.342.858-1.13.823-1.857.052-1.664-1.278-2.224-2.242-1.821-.28.114-.507.245-.683.376Z" id="Vector" fill="#F9ACC0" fill-rule="nonzero"/>
            <path d="M2.85 6.252c-.006-.333-.19-.777-.552-1.331C1.755 4.089.722 3.8.713 3.8c-.061-.017-.087-.079-.079-.131.018-.062.08-.088.132-.08.044.01 1.12.316 1.707 1.218.587.893.587 1.427.587 1.445a.106.106 0 0 1-.105.105.106.106 0 0 1-.105-.105Zm11.426-.122a.113.113 0 0 1-.052-.15c.017-.035.446-.902 1.094-1.567.657-.674 1.112-.762 1.13-.762.061-.009.114.027.122.088.009.061-.026.114-.087.122-.275.053-.613.286-1.016.7-.622.64-1.05 1.498-1.05 1.507a.112.112 0 0 1-.097.07c-.018 0-.035 0-.044-.009Z" id="Vector" fill="#1F1F39" fill-rule="nonzero"/>
            <path d="M8.756 1.751c-.769 0-1.392-.392-1.392-.875C7.364.392 7.987 0 8.756 0c.769 0 1.392.392 1.392.876 0 .483-.623.875-1.392.875Zm-7.364 0C.623 1.751 0 1.36 0 .876S.623 0 1.392 0c.77 0 1.392.392 1.392.876 0 .483-.623.875-1.392.875Z" transform="translate(3.445 5.411)" fill="#F9ACC0" id="Vector"/>
            <path d="M6.807 10.954a4.063 4.063 0 0 1-1.059-.298v2.023l-.088 1.26c.237-.017.5-.07.788-.183 1.349-.526 2.753-1.489 4.212-2.89-1.576.175-2.86.204-3.853.088Z" id="Vector" fill="#F9ACC0" fill-rule="nonzero"/>
            <path d="M5.126 2.68a.727.727 0 0 1 .517-.123c.175.017.35.07.499.184.14.113.236.289.219.464a.678.678 0 0 0-.298-.342 1.21 1.21 0 0 0-.429-.122.885.885 0 0 0-.429.06.902.902 0 0 0-.341.316.63.63 0 0 1 .262-.438Zm5.867.122a.758.758 0 0 1 .516-.079.675.675 0 0 1 .254.088.647.647 0 0 1 .202.175c.113.14.175.306.175.473a1.203 1.203 0 0 0-.28-.368.547.547 0 0 0-.176-.114c-.035-.009-.06-.026-.096-.035l-.105-.026a.894.894 0 0 0-.43.026.838.838 0 0 0-.393.236.667.667 0 0 1 .333-.376ZM8.576 4.798c-.088.21-.166.42-.193.64a.952.952 0 0 0-.008.157c.008.053.008.105.026.149a.388.388 0 0 0 .157.228.75.75 0 0 0 .298.105c.114.017.228.026.342.017a.926.926 0 0 1-.35.07.797.797 0 0 1-.368-.079.52.52 0 0 1-.254-.306c-.027-.061-.027-.131-.035-.193 0-.061 0-.131.008-.192a2.01 2.01 0 0 1 .246-.675c.113-.192.245-.385.411-.551-.096.21-.192.42-.28.63Z" id="Vector" fill="#1F1F39" fill-rule="nonzero"/>
            <path d="M5.759 5.357c-.416 0-.753-.275-.753-.613 0-.339.337-.613.753-.613s.753.274.753.613c0 .338-.337.613-.753.613Z" id="Vector" fill="#1F1F39" transform="rotate(-83.119 5.759 4.744)"/>
            <path d="M11.37 5.473c-.416 0-.753-.274-.753-.613 0-.339.337-.613.753-.613s.753.274.753.613c0 .339-.337.613-.753.613Z" id="Vector" fill="#1F1F39" transform="rotate(-83.119 11.37 4.86)"/>
            <path d="M8.357 6.926h.805c.167 0 .36 0 .622.009a.722.722 0 0 1-.113.35.997.997 0 0 1-.237.271 1.108 1.108 0 0 1-1.077.175.997.997 0 0 1-.333-.2.888.888 0 0 1-.219-.316.68.68 0 0 1-.026-.377c.254.062.43.08.578.088Z" id="Vector" fill="#DA5742" fill-rule="nonzero"/>
          </g>
          <path d="M14.736 16.567a.106.106 0 0 1-.008-.14c.035-.044.096-.044.14-.009.411.377 1.83.64 3.152.578.052 0 .096.035.096.088 0 .052-.035.096-.087.096-.132.026-.263.026-.394.026-1.261 0-2.487-.262-2.899-.639Z" id="Vector" fill="#1F1F39" fill-rule="nonzero"/>
          <path d="M24.858 25.603c-.665-.288-1.488-.989-1.646-2.688-.07-.796-.061-1.54.044-2.206a.184.184 0 0 1 .201-.149.184.184 0 0 1 .149.201 8.883 8.883 0 0 0-.044 2.12c.114 1.225.596 2.03 1.436 2.398 1.174.508 3.047.053 4.562-1.112a.172.172 0 0 1 .245.036c.062.078.044.183-.035.245-1.287.99-2.6 1.392-3.651 1.392-.49 0-.92-.088-1.26-.237Z" id="Vector" fill="#EAEAFF" fill-rule="nonzero" opacity=".55"/>
          <path d="m33.676 30.866-.21-.096c-3.468-1.612-6.743-3.135-7.356-6.883-.122-.77-.131-1.488-.017-2.136a.17.17 0 0 1 .201-.14.17.17 0 0 1 .14.201c-.105.613-.096 1.296.027 2.023.586 3.563 3.773 5.052 7.162 6.62l.21.096a.186.186 0 0 1 .088.236c-.053.053-.114.096-.175.096a.165.165 0 0 1-.07-.017Z" id="Vector" fill="#EAEAFF" fill-rule="nonzero" opacity=".55"/>
          <path d="M28.72 39.377c.367-1.27.113-2.636-.71-3.836-.971-1.41-2.705-2.548-5.017-3.292-2.653-.858-4.64-.613-5.84-.262-.7.21-1.313.507-1.812.884.621.061 1.26.105 1.89.149 3.407.245 6.62.481 7.382 2.767.324.963.105 1.847-.604 2.486-.692.622-1.804.981-3.135 1.007-1.418.027-2.96-.324-4.465-.998-1.13-.508-1.927-1.156-2.356-1.917-.402-.71-.464-1.471-.175-2.207.14-.368.36-.71.648-1.024-1.979-.246-3.765-.692-4.816-1.804-.726-.762-1.006-1.769-.84-2.925-.71-.017-1.471-.07-2.294-.175-1.445-.184-2.478-.516-3.573-1.147l.176-.306c.884.508 1.803.893 3.432 1.103.832.105 1.61.158 2.32.175.254-1.13.902-2.303 1.839-3.3.893-.964 1.953-1.647 2.986-1.945 1.182-.341 2.259-.149 3.108.56.578.482.736 1.156.43 1.874-.43.999-1.664 1.9-3.39 2.478-1.024.342-2.565.692-4.649.692H9.23c-.158.99.035 1.944.727 2.68 1.033 1.085 2.863 1.505 4.885 1.733 1.594-1.4 4.676-2.058 8.266-.902 2.382.77 4.177 1.953 5.201 3.424.867 1.287 1.138 2.75.744 4.124l-.332-.096ZM14.194 34.28c-.535 1.392.341 2.767 2.355 3.686 2.408 1.094 5.656 1.462 7.215.052.613-.551.788-1.278.508-2.119-.692-2.066-3.792-2.294-7.075-2.53a46.404 46.404 0 0 1-2.242-.184c-.35.333-.613.7-.761 1.095Zm-3.188-9.282c-.831.885-1.47 1.988-1.725 3.065 2.014-.009 3.503-.333 4.492-.674 1.603-.543 2.793-1.393 3.179-2.286.245-.569.131-1.077-.333-1.462-.473-.394-1.103-.63-1.83-.63-1.12 0-2.452.569-3.783 1.987Z" id="Vector" fill="#EAEAFF" opacity=".55"/>
        </g>
        <g id="Group-137" transform="translate(53.993 37.307)">
          <path d="M20.424 10.89c-.166-.131-.428-.22-.786-.263-.537-.066-.868.132-.876.132a.132.132 0 0 1-.173-.042.12.12 0 0 1 .041-.165c.016-.008.413-.239 1.033-.164.62.074.901.313.918.321.05.041.057.124.016.173a.132.132 0 0 1-.09.033.16.16 0 0 1-.083-.025Zm-6.514-.016a.128.128 0 0 1 .017-.173c.008-.008.298-.248.917-.322.62-.074 1.017.157 1.034.165.058.033.074.107.041.173-.033.058-.107.075-.174.042-.008 0-.347-.198-.876-.132-.358.044-.62.132-.785.263a.134.134 0 0 1-.074.025.153.153 0 0 1-.1-.041Z" id="Vector" fill="#1F1F39" fill-rule="nonzero"/>
          <path d="m25.036 34.922 2.438 6.496a25.665 25.665 0 0 0 5.86-3.817 54.622 54.622 0 0 0-.802-2.2l-7.496-.479Zm-19.151 6.62 2.546-6.793-7.497.478A51.423 51.423 0 0 0 0 37.816a25.477 25.477 0 0 0 5.885 3.726Z" id="Vector" fill="#F9D2DD" fill-rule="nonzero"/>
          <path d="m25.036 34.922.843 2.21 7.438.461-.785-2.193-7.496-.478ZM8.505 34.51l-.843 2.21-7.555.733.901-2.465 7.497-.478Z" id="Vector" fill="#F9ACC0" fill-rule="nonzero"/>
          <path d="M8.199 24.749c-3.273 1.475-6.868 6.06-8.19 11.434h5.85l-.966 4.88A25.558 25.558 0 0 0 16.53 43.85a25.62 25.62 0 0 0 11.688-2.803l-1.025-4.229 5.918-.528c0 .009-1.364-7.576-7.596-11.162-4.992-2.877-12.704-2.449-17.316-.38Z" id="Vector" fill="#3D5CFF" fill-rule="nonzero"/>
          <path d="m7.455 30.66-3.48 5.532 1.976-.009 1.504-5.523Zm19.746 6.158 1.76-.148-3.925-6.703 2.165 6.851Z" id="Vector" fill="#224BF4" fill-rule="nonzero"/>
          <g id="Group" opacity=".451" transform="translate(1.083 23.413)" fill="#F9EDC7">
            <path d="M12.852 12.407a1.155 1.155 0 1 1 0-2.308c.64 0 1.158.517 1.158 1.154 0 .638-.518 1.154-1.158 1.154Zm5.414-2.184a1.156 1.156 0 1 1 0-2.308 1.154 1.154 0 1 1 0 2.308ZM8.844 6.348a1.155 1.155 0 1 1 0-2.308 1.154 1.154 0 1 1-.001 2.308Zm0 11.377a1.155 1.155 0 1 1 0-2.308 1.154 1.154 0 1 1-.001 2.307Zm10.166 1.154a1.155 1.155 0 1 1 0-2.308 1.154 1.154 0 1 1 0 2.308Zm9.257-4.864a1.155 1.155 0 1 1 0-2.308c.64 0 1.158.516 1.158 1.154 0 .637-.518 1.154-1.158 1.154ZM1.157 9.646a1.156 1.156 0 1 1 0-2.308 1.154 1.154 0 1 1 0 2.308ZM28.68 7.255a1.156 1.156 0 0 1-1.157-1.154c0-.638.519-1.154 1.158-1.154a1.155 1.155 0 1 1 0 2.308Zm-7.108-4.947a1.155 1.155 0 1 1 0-2.308c.64 0 1.158.517 1.158 1.154 0 .638-.519 1.154-1.158 1.154Z" id="Vector"/>
          </g>
          <path d="M5.934 36.274c-.04-.008-.066-.058-.057-.099l1.653-6.117c.008-.041.058-.066.099-.058.041.009.066.058.058.1l-1.653 6.116a.08.08 0 0 1-.075.058h-.025Zm21.11.544-2.116-6.85c-.017-.042.008-.083.05-.1.041-.016.082.009.099.05l2.124 6.85c.017.042-.008.083-.05.1-.016 0-.024.008-.033.008a.08.08 0 0 1-.074-.058Z" id="Vector" fill="#1F1F39" fill-rule="nonzero"/>
          <g id="Group" transform="translate(7.787)">
            <path d="M.9 5.853c.716-1.429 1.57-2.198 2.562-2.308C4.4 1.182 6.438 0 9.578 0c3.141 0 5.07 1.539 5.786 4.617 1.433.44 2.122 1.374 2.066 2.803-.055 1.429-.749 3.784-2.082 7.065L2.14 11.872C.597 9.288.183 7.282.9 5.853Z" id="Vector" fill="#FFF" fill-rule="nonzero"/>
            <g id="Vector">
              <path d="M1.14 4.349C-.216 4.967-.348 6.83.668 8c.678.78 1.871 1.08 3.58.899L3.56 4.654c-.71-.616-1.518-.717-2.421-.305Z" fill="#F9ACC0" fill-rule="nonzero" transform="translate(0 6.665)"/>
              <path d="M15.607 4.349c1.347.618 1.487 2.481.47 3.652-.677.78-1.87 1.08-3.578.899l.686-4.246c.71-.616 1.518-.717 2.422-.305Z" fill="#F9ACC0" fill-rule="nonzero" transform="translate(1.683 6.665)"/>
              <path d="M2.093 8.034c-.006-.313-.18-.731-.521-1.253C1.06 5.998.084 5.726.076 5.726a.108.108 0 0 1-.074-.124c.016-.058.074-.082.124-.074.04.008 1.057.297 1.611 1.146.554.84.554 1.344.554 1.36a.1.1 0 0 1-.1.099.1.1 0 0 1-.098-.099Zm11.199-.115a.106.106 0 0 1-.05-.14c.017-.034.422-.85 1.034-1.476.62-.635 1.05-.718 1.066-.718.058-.008.107.025.116.083.008.058-.025.107-.083.115-.259.05-.578.27-.959.66a6.228 6.228 0 0 0-.992 1.418.105.105 0 0 1-.09.066c-.017 0-.033 0-.042-.008Z" fill="#1F1F39" fill-rule="nonzero" transform="translate(1.683 6.665)"/>
              <path d="M2.291 8.891c.452 1.605 1.262 2.867 2.43 3.784l-.339 4.683c.314.687 1.303 1.03 2.967 1.03 1.802 0 2.951-.343 3.447-1.03l-.132-4.608c1.124-.182 1.956-1.284 2.496-3.306.54-2.017.675-3.922.405-5.713-2.656.412-4.433.068-5.331-1.031C6.887 1.051 5.53-.606 3.572.219c-1.306.55-1.82 1.58-1.545 3.091-.276 2.116-.188 3.976.264 5.581Z" fill="#F9D2DD" fill-rule="nonzero" transform="translate(1.683 6.665)"/>
              <path d="M5.597 6.69c-.338 0-.611-.325-.611-.725 0-.401.273-.726.611-.726.338 0 .612.325.612.726 0 .4-.274.725-.612.725Zm4.455 0c-.337 0-.611-.325-.611-.725 0-.401.274-.726.611-.726.338 0 .612.325.612.726 0 .4-.274.725-.612.725Z" fill="#1F1F39" transform="translate(1.683 6.665)"/>
              <path d="M7.358 6.962c.137.275.385.344.744.206-.359-.093-.538-.277-.538-.552a503.23 503.23 0 0 0-.041-1.822c-.248 1.17-.303 1.893-.165 2.168Z" fill="#1F1F39" fill-rule="nonzero" transform="translate(1.683 6.665)"/>
              <path d="M4.531 16.088c.041-.008 4.472-1.723 5.306-2.506 0-.319.006-.596.017-.832-.54.318-1.463.456-2.769.412-.91-.033-1.893-.206-2.364-.487.008.42-.149 3.249-.19 3.413Z" fill="#F9ACC0" fill-rule="nonzero" transform="translate(1.683 6.665)"/>
              <path d="M8.265 1.649c-.726 0-1.314-.37-1.314-.825C6.95.37 7.539 0 8.265 0 8.991 0 9.58.37 9.58.824c0 .456-.588.825-1.314.825Zm-6.951 0C.588 1.649 0 1.279 0 .824 0 .37.588 0 1.314 0c.726 0 1.314.37 1.314.824 0 .456-.588.825-1.314.825Z" transform="translate(4.586 13.496)" fill="#F9ACC0"/>
            </g>
            <path d="M7.23 16.183c2.985.742 5.175-.412 6.142-1.492.645-.72.978-2.237 1-4.55l1.008-.33c.182 4.303-.165 7.035-1.041 8.194-1.314 1.74-3.182 2.276-5.207 2.193-1.455-.066-2.943-.536-4.265-2.275-.876-1.16-1.482-3.754-1.818-7.783l.66-1.154c.359 4.298 1.533 6.697 3.522 7.197Z" id="Vector" fill="#FFF" fill-rule="nonzero"/>
            <path d="M9.496 14.922c.22-.055.55-.247.991-.577.11-.055.193-.055.248 0 .083.082-.446 1.022-.909 1.154-.578.165-.992-.083-1.24-.412-.165-.22-.137-.303.083-.248.33.11.606.138.827.083Z" id="Vector" fill="#F95368" fill-rule="nonzero"/>
          </g>
        </g>
      </g>
    </g>
    <g id="menu3" transform="translate(13 412)">
      <path d="M12 0h311c6.627 0 12 5.373 12 12v96c0 6.627-5.373 12-12 12H12c-6.627 0-12-5.373-12-12V12C0 5.373 5.373 0 12 0Z" id="Rectangle-34" fill="#EFE0FF"/>
      <path d="M272.93 104.764c26.651 0 48.256-21.606 48.256-48.257 0-26.652-21.605-48.257-48.257-48.257-26.651 0-48.256 21.605-48.256 48.257 0 26.651 21.605 48.257 48.256 48.257Z" id="Ellipse-75" fill="#F5ECFF" opacity=".56"/>
      <path d="M272.93 92.007c19.606 0 35.5-15.894 35.5-35.5s-15.894-35.5-35.5-35.5c-19.607 0-35.5 15.894-35.5 35.5s15.893 35.5 35.5 35.5Z" id="Ellipse-76" fill="#F8F2FF" opacity=".8"/>
      <text id="120분" fill="#440687" fill-rule="nonzero" font-family="NanumGothic, Nanum Gothic" font-size="24.357" font-weight="normal">
                <tspan x="18.065" y="40">120분</tspan>
            </text>
      <text id="Off-line-exchange-of-learning-experiences" fill="#440687" fill-rule="nonzero" font-family="NanumGothic, Nanum Gothic" font-size="12" font-weight="normal">
                <tspan x="22.738" y="66.099">Off-line exchange of learning </tspan>
                <tspan x="22.738" y="80.099">experiences</tspan>
            </text>
      <g id="illustration" transform="translate(234.448 20)">
        <g id="Group-136" transform="translate(14.071)">
          <path d="m34.12 42.177 2.437 6.496a25.666 25.666 0 0 0 5.86-3.817 54.616 54.616 0 0 0-.801-2.201l-7.497-.478Zm-19.152 6.62 2.546-6.793-7.497.478a51.426 51.426 0 0 0-.934 2.589 25.477 25.477 0 0 0 5.885 3.726Z" id="Vector" fill="#DA5742" fill-rule="nonzero"/>
          <path d="m34.12 42.177.842 2.21 7.439.461-.785-2.193-7.497-.478Zm-16.532-.412-.843 2.21-7.554.733.9-2.465 7.497-.478Z" id="Vector" fill="#C43D28" fill-rule="nonzero"/>
          <path d="M17.274 32.004c-3.273 1.484-6.86 6.067-8.182 11.442h5.852l-.967 4.881a25.592 25.592 0 0 0 11.645 2.787c4.216 0 8.183-1.015 11.688-2.812l-1.025-4.229 5.918-.528c-.009 0-1.372-7.584-7.613-11.17-5-2.87-12.704-2.44-17.316-.371Z" id="Vector" fill="#3D5CFF" fill-rule="nonzero"/>
          <path d="M18.2 38.599c-.14 2.383-.273 4.757-.413 7.14-.075 1.327-.157 2.654-.232 3.973-.008.157.24.157.248 0 .14-2.374.281-4.74.414-7.115.14-2.374.272-4.748.413-7.123.074-1.31.157-2.621.231-3.932.009-.157-.24-.157-.248.008-.14 2.35-.28 4.7-.413 7.049Zm3.273-.083-.149 7.75c-.024 1.45-.058 2.91-.082 4.361 0 .157.248.157.248 0 .05-2.589.099-5.177.157-7.766l.148-7.741c.025-1.443.058-2.894.083-4.337 0-.173-.248-.173-.248-.008-.05 2.58-.099 5.161-.157 7.741Zm3.86-.024c.041 2.646.091 5.292.132 7.939l.075 4.485c0 .156.248.156.248 0-.042-2.647-.091-5.293-.132-7.94-.042-2.646-.091-5.292-.133-7.939l-.074-4.484c0-.157-.248-.157-.248 0 .041 2.646.09 5.292.132 7.939Zm3.72-4.205c.074 1.303.165 2.605.247 3.908.091 1.319.182 2.63.29 3.949.099 1.302.206 2.613.322 3.916a300.038 300.038 0 0 0 .389 4.204c.016.157.264.157.248 0-.124-1.245-.24-2.49-.348-3.726a323.089 323.089 0 0 1-.322-3.9c-.1-1.319-.198-2.63-.29-3.948a645.97 645.97 0 0 1-.255-3.925 575.244 575.244 0 0 1-.215-3.767l-.025-.445c-.008-.165-.256-.165-.248-.009.066 1.245.132 2.49.207 3.743Zm4.223 3.99 1.14 6.909.62 3.768c.025.156.265.09.24-.066-.372-2.268-.744-4.526-1.115-6.794l-1.141-6.908-.62-3.768c-.033-.156-.273-.09-.24.066l1.116 6.793Zm-18.704-1.129a332.278 332.278 0 0 0-1.347 6.175c-.034.156.206.222.24.066.272-1.328.561-2.647.85-3.974.29-1.302.587-2.613.877-3.916.173-.75.339-1.5.504-2.25.041-.149-.19-.215-.232-.058l-.892 3.957Zm22.556.272c.421 1.336.851 2.68 1.28 4.015.24.75.489 1.5.745 2.242.05.149.29.083.24-.066a322.742 322.742 0 0 1-1.306-3.998 751.86 751.86 0 0 0-1.282-4.015c-.24-.75-.487-1.5-.743-2.242-.05-.157-.29-.091-.24.066.446 1.327.876 2.662 1.306 3.998Z" id="Vector" fill="#CDECFE" fill-rule="nonzero" opacity=".467"/>
          <path d="m16.539 37.915-3.48 5.531 1.976-.008 1.504-5.523Zm19.746 6.158 1.76-.148-3.926-6.703 2.166 6.851Z" id="Vector" fill="#224BF4" fill-rule="nonzero"/>
          <path d="M15.018 43.529c-.041-.008-.066-.058-.058-.099l1.653-6.117c.009-.041.058-.066.1-.058.04.008.066.058.057.099l-1.653 6.117a.08.08 0 0 1-.074.058h-.025Zm21.11.544-2.116-6.85c-.017-.042.008-.083.05-.1.04-.016.082.008.099.05l2.124 6.85c.016.042-.009.083-.05.1-.016 0-.025.008-.033.008a.08.08 0 0 1-.074-.058Z" id="Vector" fill="#1F1F39" fill-rule="nonzero"/>
          <path d="M25.622 51.113C11.472 51.113 0 39.671 0 25.557 0 11.442 11.472 0 25.622 0c14.151 0 25.623 11.442 25.623 25.557 0 14.114-11.472 25.556-25.623 25.556Z" id="Vector"/>
          <g id="Group" transform="translate(12.842 5.688)">
            <path d="M8.88 22.26c-.497-.11-.772-.303-.827-.578-.166.33-.744.44-1.736.33-.992-.11-1.653-.632-1.984-1.567-1.212-.22-1.928-.66-2.149-1.319-.22-.66-.303-1.126-.248-1.401C1.11 17.01.724 16.268.78 15.499c.055-.77.22-1.237.496-1.402-.44-.384-.606-.742-.496-1.071.11-.33.276-.522.496-.577C.118 11.294-.268 10.085.118 8.82c.386-1.264 1.047-1.896 1.984-1.896-.166-.44 0-.797.496-1.072.496-.274.854-.384 1.074-.33-.11-1.373.193-2.225.91-2.555.716-.33 1.377-.412 1.983-.247-.055-.77.165-1.182.661-1.237.496-.055.854.082 1.075.412 0-.22.22-.357.661-.412.44-.055.689 0 .744.165.11-1.1.744-1.649 1.9-1.649 1.158 0 1.93.33 2.315.99.276-.495.744-.688 1.405-.578.661.11.992.467.992 1.072.551-.605 1.405-.742 2.562-.412 1.157.33 1.901 1.511 2.232 3.545.386-.11.744-.083 1.074.082.331.165.469.55.414 1.154 1.047.055 1.68.522 1.9 1.402.221.88.221 1.484 0 1.814.937.879 1.268 1.978.993 3.297-.276 1.32-.69 2.199-1.24 2.638.22.66.22 1.237 0 1.732-.22.494-.551.741-.992.741.165.77.055 1.292-.33 1.567-.386.275-.772.357-1.158.247-.386 1.32-1.267 2.199-2.645 2.638-1.377.44-2.755.358-4.132-.247l-4.877.742c-.33 0-.744-.055-1.24-.165Z" id="Vector" fill="#F99A3D" fill-rule="nonzero"/>
            <path d="M6.416 14.51c.265.107.48.23.645.354.016-.725.843-2.993 1.67-3.735.785-.7 2.23-1.319 3.388-.412 1.157.907 1.653 2.391 2.397 1.979.744-.412 1.57-1.237 2.397-.577.62.494.727 2.02.744 2.745a3.21 3.21 0 0 1 .645-.354c.909-.38 2.173.148 2.115 1.714.042.685-.264 1.427-.776 1.748-.49.313-1.287.423-2.39.33a5.146 5.146 0 0 1-.512 1.401c-.385.715-.964 1.374-1.735 1.979v1.954l.182 2.663a4.09 4.09 0 0 1-.521.214 3.932 3.932 0 0 1-.736.214 7.11 7.11 0 0 1-1.562.173 6.233 6.233 0 0 1-1.562-.173 3.387 3.387 0 0 1-.736-.214 4.09 4.09 0 0 1-.52-.214l.181-2.663v-1.954c-.771-.605-1.35-1.264-1.735-1.979-.38-.7-.438-1.154-.438-1.385-.463.042-1.736.116-2.472-.346-.52-.321-.826-1.063-.785-1.748-.058-1.566 1.199-2.094 2.116-1.714Z" id="Vector" fill="#DA5742" fill-rule="nonzero"/>
            <g fill-rule="nonzero" id="Vector">
              <path d="m5.426 9.252-.066 1.023c.752-.058 1.67-.223 2.703-.594 1.05-.38 1.942-.915 2.645-1.418V7.29c-1.488.907-4.63.577-5.282-.008v1.97Z" fill="#C43D28" transform="translate(4.288 14.392)"/>
              <path d="M5.368 7.34a.1.1 0 0 1-.008-.132c.033-.042.09-.042.132-.009.389.355 1.728.602 2.976.545.05 0 .09.033.09.082 0 .05-.032.09-.082.09-.124.025-.248.025-.372.025-1.19 0-2.347-.247-2.736-.601Z" fill="#1F1F39" transform="translate(4.288 14.392)"/>
              <path d="M13.46.406c-.042.602.074.289-.19 2.103-.058.37-.265 1.071-.364 1.434.562.041 1.794.05 2.447-.363.512-.321.81-1.063.776-1.747.05-1.567-1.206-2.094-2.115-1.715-.215.09-.397.19-.554.288ZM3.69 5.312c.009.016.025.04.033.057-.082-.165-.165-.33-.24-.486.059.132.125.272.207.429ZM2.12.118C1.21-.262-.054.266.004 1.833c-.042.684.264 1.426.777 1.747.702.445 1.9.396 2.405.355-.232-1.03-.413-2.473-.53-3.537a3.222 3.222 0 0 0-.536-.28Z" fill="#C43D28" transform="translate(4.288 14.392)"/>
            </g>
            <path d="M7.144 17.585c-.006-.275-.163-.64-.471-1.097-.463-.684-1.331-.923-1.34-.931a.096.096 0 0 1-.066-.108.097.097 0 0 1 .108-.065c.041.008.95.255 1.446 1.005.496.742.496 1.18.496 1.196.009.05-.033.09-.082.09a.092.092 0 0 1-.091-.09Zm10.356 0c0-.017.008-.462.496-1.196.496-.742 1.405-.99 1.446-1.006.05-.016.1.017.108.066a.082.082 0 0 1-.067.108c-.008 0-.884.239-1.339.931-.308.456-.465.822-.47 1.097.008.05-.034.09-.083.09a.092.092 0 0 1-.091-.09Z" id="Vector" fill="#1F1F39" fill-rule="nonzero"/>
            <path d="M9.706 14.84s.066-.66.545-.66c.32 0 .502.22.546.66m3.099 0s.066-.66.546-.66c.32 0 .501.22.545.66" id="Vector" fill="#FFF" fill-rule="nonzero"/>
            <path d="M12.35 16.018a1.839 1.839 0 0 0-.123.437c-.009.074 0 .14.033.182 0 .008.008.008.008.016l.016.017a.195.195 0 0 0 .042.024.174.174 0 0 0 .09.033c.133.025.29-.033.43-.099a.587.587 0 0 1-.19.157.453.453 0 0 1-.256.058.355.355 0 0 1-.132-.042c-.025-.008-.041-.024-.058-.04l-.025-.026a.375.375 0 0 1-.083-.305.916.916 0 0 1 .067-.247c.025-.074.066-.148.099-.222.066-.124.157-.256.264-.38-.066.149-.124.297-.181.437Z" id="Vector" fill="#1F1F39" fill-rule="nonzero"/>
            <path d="M11.772 17.989s.314.783 1.19.66c.474-.067.739-.375.794-.924" id="Vector" fill="#FFF" fill-rule="nonzero"/>
            <path d="M10.326 16.653c-.297 0-.538-.295-.538-.66 0-.364.24-.659.538-.659.296 0 .537.295.537.66 0 .364-.24.659-.537.659Zm4.132 0c-.297 0-.537-.295-.537-.66 0-.364.24-.659.537-.659.297 0 .537.295.537.66 0 .364-.24.659-.537.659Z" id="Vector" fill="#1F1F39"/>
            <path d="M15.836 18.78c-.446 0-.808-.628-.808-1.404 0-.776.362-1.405.808-1.405.446 0 .808.629.808 1.405s-.362 1.405-.808 1.405Z" id="Vector" fill="#C43D28" transform="rotate(-85.11 15.836 17.376)"/>
            <path d="M9.141 18.781c-.446 0-.808-.63-.808-1.405 0-.776.362-1.405.808-1.405.446 0 .808.629.808 1.405s-.362 1.405-.808 1.405Z" id="Vector" fill="#C43D28" transform="rotate(-85.11 9.141 17.376)"/>
          </g>
        </g>
        <g id="Avatar-03" transform="translate(0 27.256)">
          <path d="M13.222.544C10.446 1.98 9.308 5.99 7.915 8.135c-1.383 2.146-1.952 2.688-3.03 3.459a4.164 4.164 0 0 1-2.425.788c1.6 4.016 5.482 6.377 11.646 7.084 9.246 1.059 14.202-2.067 16.076-3.345a8.795 8.795 0 0 0 2.924-3.31c-2.9-.642-4.763-2.297-5.586-4.965-1.235-4.01-2.977-6.83-5.674-7.276-1.798-.298-3.14-.157-4.028.42-1.214-1.26-2.746-1.41-4.596-.446Z" id="Vector" fill="#1F1F39" fill-rule="nonzero"/>
          <path d="m26.522 32.59 2.583 6.9a27.182 27.182 0 0 0 6.208-4.054 58.085 58.085 0 0 0-.85-2.337l-7.941-.508ZM6.234 39.622l2.697-7.215-7.942.508A54.69 54.69 0 0 0 0 35.665a26.98 26.98 0 0 0 6.234 3.957Z" id="Vector" fill="#F9D2DD" fill-rule="nonzero"/>
          <path d="m26.522 32.59.893 2.347 7.88.49-.832-2.328-7.941-.508ZM9.01 32.153 8.117 34.5l-8.003.779.954-2.618 7.942-.508Z" id="Vector" fill="#F9ACC0" fill-rule="nonzero"/>
          <path d="M8.686 21.786C5.219 23.353 1.41 28.22.009 33.93h6.199l-1.024 5.184a27.019 27.019 0 0 0 12.328 2.96c4.466 0 8.668-1.078 12.38-2.978l-1.085-4.491 6.27-.56c0 .008-1.445-8.048-8.047-11.856-5.289-3.056-13.458-2.6-18.344-.403Z" id="Vector" fill="#3D5CFF" fill-rule="nonzero"/>
          <path d="m7.898 28.064-3.686 5.875 2.092-.009 1.594-5.866Zm20.918 6.541 1.865-.158-4.16-7.119 2.295 7.277Z" id="Vector" fill="#224BF4" fill-rule="nonzero"/>
          <path d="M6.287 34.027c-.044-.01-.07-.062-.061-.105l1.75-6.497c.01-.044.062-.07.106-.062.044.01.07.062.061.105l-1.751 6.497a.084.084 0 0 1-.079.062h-.026Zm22.363.578-2.242-7.277c-.017-.043.009-.087.053-.105.043-.017.087.009.105.053l2.241 7.276c.018.044-.009.088-.052.105-.01 0-.018.009-.027.009a.084.084 0 0 1-.078-.061Z" id="Vector" fill="#1F1F39" fill-rule="nonzero"/>
          <g id="Group" transform="translate(9.4 5.999)">
            <path d="M14.837 2.986c-.28.114-.508.245-.683.376 0-.502-.027-.983-.08-1.444L12.342 1.9 12.236.858l-.21 1.042-2.653-.026L9.259.858l-.184 1.007-4.378-.044L4.522 0l-.245 1.821-1.331-.009c-.012.485-.018.999-.018 1.542a3.458 3.458 0 0 0-.683-.377c-.963-.403-2.302.158-2.241 1.821-.044.727.28 1.515.823 1.857.78.499 2.049.42 2.53.367.027.245.15.727.552 1.471.409.76 1.022 1.46 1.839 2.102v2.075l-.193 2.828c.135.07.318.146.552.228.175.07.42.157.78.227a7.513 7.513 0 0 0 1.654.184c.63.009 1.19-.07 1.655-.184a3.58 3.58 0 0 0 .78-.227c.233-.082.417-.158.55-.228l-.192-2.828v-2.067c.817-.642 1.43-1.342 1.839-2.101.268-.496.45-.992.543-1.488 1.167.099 2.01-.018 2.53-.35.552-.342.876-1.13.832-1.857.061-1.664-1.27-2.224-2.241-1.821Z" id="Vector" fill="#F9D2DD" fill-rule="nonzero"/>
            <path d="M2.254 2.986c-.963-.403-2.303.157-2.241 1.821-.044.727.28 1.515.823 1.856.77.49 2.014.42 2.513.377a46.63 46.63 0 0 1-.307-1.953c-.122-.884-.105-1.76-.105-1.725a3.458 3.458 0 0 0-.683-.376Zm11.908.376c0-.026.01.815-.078 1.638a19.1 19.1 0 0 1-.342 2.014c.149.008 1.778.122 2.522-.35.543-.342.858-1.13.823-1.857.052-1.664-1.278-2.224-2.242-1.821-.28.114-.507.245-.683.376Z" id="Vector" fill="#F9ACC0" fill-rule="nonzero"/>
            <path d="M2.85 6.252c-.006-.333-.19-.777-.552-1.331C1.755 4.089.722 3.8.713 3.8c-.061-.017-.087-.079-.079-.131.018-.062.08-.088.132-.08.044.01 1.12.316 1.707 1.218.587.893.587 1.427.587 1.445a.106.106 0 0 1-.105.105.106.106 0 0 1-.105-.105Zm11.426-.122a.113.113 0 0 1-.052-.15c.017-.035.446-.902 1.094-1.567.657-.674 1.112-.762 1.13-.762.061-.009.114.027.122.088.009.061-.026.114-.087.122-.275.053-.613.286-1.016.7-.622.64-1.05 1.498-1.05 1.507a.112.112 0 0 1-.097.07c-.018 0-.035 0-.044-.009Z" id="Vector" fill="#1F1F39" fill-rule="nonzero"/>
            <path d="M8.756 1.751c-.769 0-1.392-.392-1.392-.875C7.364.392 7.987 0 8.756 0c.769 0 1.392.392 1.392.876 0 .483-.623.875-1.392.875Zm-7.364 0C.623 1.751 0 1.36 0 .876S.623 0 1.392 0c.77 0 1.392.392 1.392.876 0 .483-.623.875-1.392.875Z" transform="translate(3.445 5.411)" fill="#F9ACC0" id="Vector"/>
            <path d="M6.807 10.954a4.063 4.063 0 0 1-1.059-.298v2.023l-.088 1.26c.237-.017.5-.07.788-.183 1.349-.526 2.753-1.489 4.212-2.89-1.576.175-2.86.204-3.853.088Z" id="Vector" fill="#F9ACC0" fill-rule="nonzero"/>
            <path d="M5.126 2.68a.727.727 0 0 1 .517-.123c.175.017.35.07.499.184.14.113.236.289.219.464a.678.678 0 0 0-.298-.342 1.21 1.21 0 0 0-.429-.122.885.885 0 0 0-.429.06.902.902 0 0 0-.341.316.63.63 0 0 1 .262-.438Zm5.867.122a.758.758 0 0 1 .516-.079.675.675 0 0 1 .254.088.647.647 0 0 1 .202.175c.113.14.175.306.175.473a1.203 1.203 0 0 0-.28-.368.547.547 0 0 0-.176-.114c-.035-.009-.06-.026-.096-.035l-.105-.026a.894.894 0 0 0-.43.026.838.838 0 0 0-.393.236.667.667 0 0 1 .333-.376ZM8.576 4.798c-.088.21-.166.42-.193.64a.952.952 0 0 0-.008.157c.008.053.008.105.026.149a.388.388 0 0 0 .157.228.75.75 0 0 0 .298.105c.114.017.228.026.342.017a.926.926 0 0 1-.35.07.797.797 0 0 1-.368-.079.52.52 0 0 1-.254-.306c-.027-.061-.027-.131-.035-.193 0-.061 0-.131.008-.192a2.01 2.01 0 0 1 .246-.675c.113-.192.245-.385.411-.551-.096.21-.192.42-.28.63Z" id="Vector" fill="#1F1F39" fill-rule="nonzero"/>
            <path d="M5.759 5.357c-.416 0-.753-.275-.753-.613 0-.339.337-.613.753-.613s.753.274.753.613c0 .338-.337.613-.753.613Z" id="Vector" fill="#1F1F39" transform="rotate(-83.119 5.759 4.744)"/>
            <path d="M11.37 5.473c-.416 0-.753-.274-.753-.613 0-.339.337-.613.753-.613s.753.274.753.613c0 .339-.337.613-.753.613Z" id="Vector" fill="#1F1F39" transform="rotate(-83.119 11.37 4.86)"/>
            <path d="M8.357 6.926h.805c.167 0 .36 0 .622.009a.722.722 0 0 1-.113.35.997.997 0 0 1-.237.271 1.108 1.108 0 0 1-1.077.175.997.997 0 0 1-.333-.2.888.888 0 0 1-.219-.316.68.68 0 0 1-.026-.377c.254.062.43.08.578.088Z" id="Vector" fill="#DA5742" fill-rule="nonzero"/>
          </g>
          <path d="M14.736 16.567a.106.106 0 0 1-.008-.14c.035-.044.096-.044.14-.009.411.377 1.83.64 3.152.578.052 0 .096.035.096.088 0 .052-.035.096-.087.096-.132.026-.263.026-.394.026-1.261 0-2.487-.262-2.899-.639Z" id="Vector" fill="#1F1F39" fill-rule="nonzero"/>
          <path d="M24.858 25.603c-.665-.288-1.488-.989-1.646-2.688-.07-.796-.061-1.54.044-2.206a.184.184 0 0 1 .201-.149.184.184 0 0 1 .149.201 8.883 8.883 0 0 0-.044 2.12c.114 1.225.596 2.03 1.436 2.398 1.174.508 3.047.053 4.562-1.112a.172.172 0 0 1 .245.036c.062.078.044.183-.035.245-1.287.99-2.6 1.392-3.651 1.392-.49 0-.92-.088-1.26-.237Z" id="Vector" fill="#EAEAFF" fill-rule="nonzero" opacity=".55"/>
          <path d="m33.676 30.866-.21-.096c-3.468-1.612-6.743-3.135-7.356-6.883-.122-.77-.131-1.488-.017-2.136a.17.17 0 0 1 .201-.14.17.17 0 0 1 .14.201c-.105.613-.096 1.296.027 2.023.586 3.563 3.773 5.052 7.162 6.62l.21.096a.186.186 0 0 1 .088.236c-.053.053-.114.096-.175.096a.165.165 0 0 1-.07-.017Z" id="Vector" fill="#EAEAFF" fill-rule="nonzero" opacity=".55"/>
          <path d="M28.72 39.377c.367-1.27.113-2.636-.71-3.836-.971-1.41-2.705-2.548-5.017-3.292-2.653-.858-4.64-.613-5.84-.262-.7.21-1.313.507-1.812.884.621.061 1.26.105 1.89.149 3.407.245 6.62.481 7.382 2.767.324.963.105 1.847-.604 2.486-.692.622-1.804.981-3.135 1.007-1.418.027-2.96-.324-4.465-.998-1.13-.508-1.927-1.156-2.356-1.917-.402-.71-.464-1.471-.175-2.207.14-.368.36-.71.648-1.024-1.979-.246-3.765-.692-4.816-1.804-.726-.762-1.006-1.769-.84-2.925-.71-.017-1.471-.07-2.294-.175-1.445-.184-2.478-.516-3.573-1.147l.176-.306c.884.508 1.803.893 3.432 1.103.832.105 1.61.158 2.32.175.254-1.13.902-2.303 1.839-3.3.893-.964 1.953-1.647 2.986-1.945 1.182-.341 2.259-.149 3.108.56.578.482.736 1.156.43 1.874-.43.999-1.664 1.9-3.39 2.478-1.024.342-2.565.692-4.649.692H9.23c-.158.99.035 1.944.727 2.68 1.033 1.085 2.863 1.505 4.885 1.733 1.594-1.4 4.676-2.058 8.266-.902 2.382.77 4.177 1.953 5.201 3.424.867 1.287 1.138 2.75.744 4.124l-.332-.096ZM14.194 34.28c-.535 1.392.341 2.767 2.355 3.686 2.408 1.094 5.656 1.462 7.215.052.613-.551.788-1.278.508-2.119-.692-2.066-3.792-2.294-7.075-2.53a46.404 46.404 0 0 1-2.242-.184c-.35.333-.613.7-.761 1.095Zm-3.188-9.282c-.831.885-1.47 1.988-1.725 3.065 2.014-.009 3.503-.333 4.492-.674 1.603-.543 2.793-1.393 3.179-2.286.245-.569.131-1.077-.333-1.462-.473-.394-1.103-.63-1.83-.63-1.12 0-2.452.569-3.783 1.987Z" id="Vector" fill="#EAEAFF" opacity=".55"/>
        </g>
        <g id="Group-137" transform="translate(44.218 25.557)">
          <path d="M20.424 10.89c-.166-.131-.428-.22-.786-.263-.537-.066-.868.132-.876.132a.132.132 0 0 1-.173-.042.12.12 0 0 1 .041-.165c.016-.008.413-.239 1.033-.164.62.074.901.313.918.321.05.041.057.124.016.173a.132.132 0 0 1-.09.033.16.16 0 0 1-.083-.025Zm-6.514-.016a.128.128 0 0 1 .017-.173c.008-.008.298-.248.917-.322.62-.074 1.017.157 1.034.165.058.033.074.107.041.173-.033.058-.107.075-.174.042-.008 0-.347-.198-.876-.132-.358.044-.62.132-.785.263a.134.134 0 0 1-.074.025.153.153 0 0 1-.1-.041Z" id="Vector" fill="#1F1F39" fill-rule="nonzero"/>
          <path d="m25.036 34.922 2.438 6.496a25.665 25.665 0 0 0 5.86-3.817 54.622 54.622 0 0 0-.802-2.2l-7.496-.479Zm-19.151 6.62 2.546-6.793-7.497.478A51.423 51.423 0 0 0 0 37.816a25.477 25.477 0 0 0 5.885 3.726Z" id="Vector" fill="#F9D2DD" fill-rule="nonzero"/>
          <path d="m25.036 34.922.843 2.21 7.438.461-.785-2.193-7.496-.478ZM8.505 34.51l-.843 2.21-7.555.733.901-2.465 7.497-.478Z" id="Vector" fill="#F9ACC0" fill-rule="nonzero"/>
          <path d="M8.199 24.749c-3.273 1.475-6.868 6.06-8.19 11.434h5.85l-.966 4.88A25.558 25.558 0 0 0 16.53 43.85a25.62 25.62 0 0 0 11.688-2.803l-1.025-4.229 5.918-.528c0 .009-1.364-7.576-7.596-11.162-4.992-2.877-12.704-2.449-17.316-.38Z" id="Vector" fill="#3D5CFF" fill-rule="nonzero"/>
          <path d="m7.455 30.66-3.48 5.532 1.976-.009 1.504-5.523Zm19.746 6.158 1.76-.148-3.925-6.703 2.165 6.851Z" id="Vector" fill="#224BF4" fill-rule="nonzero"/>
          <g id="Group" opacity=".451" transform="translate(1.083 23.413)" fill="#F9EDC7">
            <path d="M12.852 12.407a1.155 1.155 0 1 1 0-2.308c.64 0 1.158.517 1.158 1.154 0 .638-.518 1.154-1.158 1.154Zm5.414-2.184a1.156 1.156 0 1 1 0-2.308 1.154 1.154 0 1 1 0 2.308ZM8.844 6.348a1.155 1.155 0 1 1 0-2.308 1.154 1.154 0 1 1-.001 2.308Zm0 11.377a1.155 1.155 0 1 1 0-2.308 1.154 1.154 0 1 1-.001 2.307Zm10.166 1.154a1.155 1.155 0 1 1 0-2.308 1.154 1.154 0 1 1 0 2.308Zm9.257-4.864a1.155 1.155 0 1 1 0-2.308c.64 0 1.158.516 1.158 1.154 0 .637-.518 1.154-1.158 1.154ZM1.157 9.646a1.156 1.156 0 1 1 0-2.308 1.154 1.154 0 1 1 0 2.308ZM28.68 7.255a1.156 1.156 0 0 1-1.157-1.154c0-.638.519-1.154 1.158-1.154a1.155 1.155 0 1 1 0 2.308Zm-7.108-4.947a1.155 1.155 0 1 1 0-2.308c.64 0 1.158.517 1.158 1.154 0 .638-.519 1.154-1.158 1.154Z" id="Vector"/>
          </g>
          <path d="M5.934 36.274c-.04-.008-.066-.058-.057-.099l1.653-6.117c.008-.041.058-.066.099-.058.041.009.066.058.058.1l-1.653 6.116a.08.08 0 0 1-.075.058h-.025Zm21.11.544-2.116-6.85c-.017-.042.008-.083.05-.1.041-.016.082.009.099.05l2.124 6.85c.017.042-.008.083-.05.1-.016 0-.024.008-.033.008a.08.08 0 0 1-.074-.058Z" id="Vector" fill="#1F1F39" fill-rule="nonzero"/>
          <g id="Group" transform="translate(7.787)">
            <path d="M.9 5.853c.716-1.429 1.57-2.198 2.562-2.308C4.4 1.182 6.438 0 9.578 0c3.141 0 5.07 1.539 5.786 4.617 1.433.44 2.122 1.374 2.066 2.803-.055 1.429-.749 3.784-2.082 7.065L2.14 11.872C.597 9.288.183 7.282.9 5.853Z" id="Vector" fill="#FFF" fill-rule="nonzero"/>
            <g id="Vector">
              <path d="M1.14 4.349C-.216 4.967-.348 6.83.668 8c.678.78 1.871 1.08 3.58.899L3.56 4.654c-.71-.616-1.518-.717-2.421-.305Z" fill="#F9ACC0" fill-rule="nonzero" transform="translate(0 6.665)"/>
              <path d="M15.607 4.349c1.347.618 1.487 2.481.47 3.652-.677.78-1.87 1.08-3.578.899l.686-4.246c.71-.616 1.518-.717 2.422-.305Z" fill="#F9ACC0" fill-rule="nonzero" transform="translate(1.683 6.665)"/>
              <path d="M2.093 8.034c-.006-.313-.18-.731-.521-1.253C1.06 5.998.084 5.726.076 5.726a.108.108 0 0 1-.074-.124c.016-.058.074-.082.124-.074.04.008 1.057.297 1.611 1.146.554.84.554 1.344.554 1.36a.1.1 0 0 1-.1.099.1.1 0 0 1-.098-.099Zm11.199-.115a.106.106 0 0 1-.05-.14c.017-.034.422-.85 1.034-1.476.62-.635 1.05-.718 1.066-.718.058-.008.107.025.116.083.008.058-.025.107-.083.115-.259.05-.578.27-.959.66a6.228 6.228 0 0 0-.992 1.418.105.105 0 0 1-.09.066c-.017 0-.033 0-.042-.008Z" fill="#1F1F39" fill-rule="nonzero" transform="translate(1.683 6.665)"/>
              <path d="M2.291 8.891c.452 1.605 1.262 2.867 2.43 3.784l-.339 4.683c.314.687 1.303 1.03 2.967 1.03 1.802 0 2.951-.343 3.447-1.03l-.132-4.608c1.124-.182 1.956-1.284 2.496-3.306.54-2.017.675-3.922.405-5.713-2.656.412-4.433.068-5.331-1.031C6.887 1.051 5.53-.606 3.572.219c-1.306.55-1.82 1.58-1.545 3.091-.276 2.116-.188 3.976.264 5.581Z" fill="#F9D2DD" fill-rule="nonzero" transform="translate(1.683 6.665)"/>
              <path d="M5.597 6.69c-.338 0-.611-.325-.611-.725 0-.401.273-.726.611-.726.338 0 .612.325.612.726 0 .4-.274.725-.612.725Zm4.455 0c-.337 0-.611-.325-.611-.725 0-.401.274-.726.611-.726.338 0 .612.325.612.726 0 .4-.274.725-.612.725Z" fill="#1F1F39" transform="translate(1.683 6.665)"/>
              <path d="M7.358 6.962c.137.275.385.344.744.206-.359-.093-.538-.277-.538-.552a503.23 503.23 0 0 0-.041-1.822c-.248 1.17-.303 1.893-.165 2.168Z" fill="#1F1F39" fill-rule="nonzero" transform="translate(1.683 6.665)"/>
              <path d="M4.531 16.088c.041-.008 4.472-1.723 5.306-2.506 0-.319.006-.596.017-.832-.54.318-1.463.456-2.769.412-.91-.033-1.893-.206-2.364-.487.008.42-.149 3.249-.19 3.413Z" fill="#F9ACC0" fill-rule="nonzero" transform="translate(1.683 6.665)"/>
              <path d="M8.265 1.649c-.726 0-1.314-.37-1.314-.825C6.95.37 7.539 0 8.265 0 8.991 0 9.58.37 9.58.824c0 .456-.588.825-1.314.825Zm-6.951 0C.588 1.649 0 1.279 0 .824 0 .37.588 0 1.314 0c.726 0 1.314.37 1.314.824 0 .456-.588.825-1.314.825Z" transform="translate(4.586 13.496)" fill="#F9ACC0"/>
            </g>
            <path d="M7.23 16.183c2.985.742 5.175-.412 6.142-1.492.645-.72.978-2.237 1-4.55l1.008-.33c.182 4.303-.165 7.035-1.041 8.194-1.314 1.74-3.182 2.276-5.207 2.193-1.455-.066-2.943-.536-4.265-2.275-.876-1.16-1.482-3.754-1.818-7.783l.66-1.154c.359 4.298 1.533 6.697 3.522 7.197Z" id="Vector" fill="#FFF" fill-rule="nonzero"/>
            <path d="M9.496 14.922c.22-.055.55-.247.991-.577.11-.055.193-.055.248 0 .083.082-.446 1.022-.909 1.154-.578.165-.992-.083-1.24-.412-.165-.22-.137-.303.083-.248.33.11.606.138.827.083Z" id="Vector" fill="#F95368" fill-rule="nonzero"/>
          </g>
        </g>
      </g>
    </g>
    <g id="Details" filter="url(#filter-1)" transform="translate(0 582)">
      <path d="M375 30v198H0V30C0 13.431 13.431 0 30 0h315c16.569 0 30 13.431 30 30Z" id="BG" fill="#FFF" fill-rule="nonzero"/>
      <g id="Button" transform="translate(0 131)">
        <g id="BG" fill-rule="nonzero">
          <use fill="#000" filter="url(#filter-3)" xlink:href="#path-2"/>
          <use fill="#FFF" xlink:href="#path-2"/>
        </g>
        <g id="button/primary" transform="translate(18 24)">
          <path d="M12 0h315c6.627 0 12 5.373 12 12v26c0 6.627-5.373 12-12 12H12C5.373 50 0 44.627 0 38V12C0 5.373 5.373 0 12 0Z" id="button/primary-(Background)" fill="#3D5CFF"/>
          <g id="Frame-10" transform="translate(138 16)" fill="#FFF" font-family="NanumGothicBold, Nanum Gothic" font-size="16" font-weight="bold">
            <text id="결제하기">
                            <tspan x="1.42" y="15">결제하기</tspan>
                        </text>
          </g>
        </g>
      </g>
      <g id="icon/arrow/down" transform="translate(180 9)">
        <path d="M0 0h16v16H0V0Z" id="icon/arrow/down-(Background)" fill="#FFF"/>
        <path d="M3.2 5.6 8 10.4l4.8-4.8" id="Vector-3" stroke="#1F1F39" stroke-width="1.333" stroke-linecap="round" stroke-linejoin="round" stroke-dasharray="0,0"/>
      </g>
      <g id="Title" transform="translate(22 60)" fill="#1F1F39" font-family="NanumGothicBold, Nanum Gothic" font-size="20" font-weight="bold">
        <text id="30분-화상채팅">
                    <tspan x="0" y="18">30분 화상채팅</tspan>
                </text>
      </g>
      <g id="Price" transform="translate(278 60)" fill="#3D5CFF" font-family="NanumGothicBold, Nanum Gothic" font-size="20" font-weight="bold">
        <text id="7-만원">
                    <tspan x="16.68" y="18">7 만원</tspan>
                </text>
      </g>
    </g>
    <g id="navigation-bar/light" transform="translate(0 44)">
      <path d="M0 0h375v44H0V0Z" id="navigation-bar/light-(Background)"/>
      <path d="M0 0h375v44H0V0Z" id="bg"/>
      <g id="icon/arrow/left" transform="translate(16 10)" stroke="#1F1F39" stroke-dasharray="0,0" stroke-linecap="round" stroke-linejoin="round" stroke-width="2">
        <path d="M15.6 4.8 8.4 12l7.2 7.2" id="Vector-3"/>
      </g>
    </g>
    <g id="status/light">
      <mask id="mask-5" fill="#fff">
        <use xlink:href="#path-4"/>
      </mask>
      <g id="Status-Icons" mask="url(#mask-5)">
        <g transform="translate(292 16)">
          <g id="Network-Signal-/-Light">
            <path d="M0 0h20v14H0V0Z" id="Network-Signal-/-Light-(Background)"/>
            <path d="M13 4a1 1 0 0 1 1 1v6a1 1 0 0 1-1 1h-1a1 1 0 0 1-1-1V5a1 1 0 0 1 1-1h1ZM8.5 6a1 1 0 0 1 1 1v4a1 1 0 0 1-1 1h-1a1 1 0 0 1-1-1V7a1 1 0 0 1 1-1h1ZM4 7.5a1 1 0 0 1 1 1V11a1 1 0 0 1-1 1H3a1 1 0 0 1-1-1V8.5a1 1 0 0 1 1-1h1Z" id="Path" fill="#D1D1D6"/>
            <path d="M17.5 2a1 1 0 0 1 1 1v8a1 1 0 0 1-1 1h-1a1 1 0 0 1-1-1V3a1 1 0 0 1 1-1h1Z" id="Empty-Bar" fill-opacity=".18" fill="#3C3C43"/>
            <path d="M13 4a1 1 0 0 1 1 1v6a1 1 0 0 1-1 1h-1a1 1 0 0 1-1-1V5a1 1 0 0 1 1-1h1ZM8.5 6a1 1 0 0 1 1 1v4a1 1 0 0 1-1 1h-1a1 1 0 0 1-1-1V7a1 1 0 0 1 1-1h1ZM4 7.5a1 1 0 0 1 1 1V11a1 1 0 0 1-1 1H3a1 1 0 0 1-1-1V8.5a1 1 0 0 1 1-1h1Z" id="Path" fill="#1F1F39"/>
          </g>
          <g id="WiFi-Signal-/-Light" transform="translate(24)">
            <path d="M0 0h16v14H0V0Z" id="WiFi-Signal-/-Light-(Background)"/>
            <path d="m9.941 9.428.222.13a.297.297 0 0 1 .06.466L8.33 11.913a.298.298 0 0 1-.421 0l-1.882-1.877a.297.297 0 0 1 .058-.465l.22-.13a3.571 3.571 0 0 1 1.829-.501c.64 0 1.26.168 1.808.488Zm2.554-2.453.176.138c.14.11.153.318.026.443l-1.13 1.128a.299.299 0 0 1-.39.028l-.137-.102a4.858 4.858 0 0 0-2.907-.96c-1.06 0-2.08.34-2.923.971l-.138.104a.299.299 0 0 1-.39-.028L3.552 7.57a.297.297 0 0 1 .026-.443l.175-.138a7.04 7.04 0 0 1 4.38-1.52 7.04 7.04 0 0 1 4.362 1.506Z" id="Path" fill="#1F1F39" fill-rule="nonzero"/>
            <path d="m14.983 4.523.163.14c.132.112.14.313.017.435l-1.127 1.124a.299.299 0 0 1-.402.018l-.14-.117A8.33 8.33 0 0 0 8.133 4.18a8.33 8.33 0 0 0-5.377 1.955l-.14.118a.299.299 0 0 1-.402-.017L1.087 5.112a.297.297 0 0 1 .017-.436l.162-.139A10.513 10.513 0 0 1 8.133 2c2.524 0 4.939.89 6.85 2.523Z" id="Path" fill="#1F1F39" fill-rule="nonzero"/>
          </g>
          <g id="Battery-/-Light" transform="translate(44)">
            <path d="M0 0h25v14H0V0Z" id="Battery-/-Light-(Background)"/>
            <path d="M25 6v2a1 1 0 0 1-1 1V5a1 1 0 0 1 1 1Z" id="Rectangle-23" fill-opacity=".6" fill="#3C3C43" fill-rule="nonzero"/>
            <path d="M20 1a3 3 0 0 1 3 3v6a3 3 0 0 1-3 3H3a3 3 0 0 1-3-3V4a3 3 0 0 1 3-3h17ZM1 4v6a2 2 0 0 0 2 2h17a2 2 0 0 0 2-2V4a2 2 0 0 0-2-2H3a2 2 0 0 0-2 2Z" id="Rectangle-21-(Stroke)" fill-opacity=".6" fill="#3C3C43"/>
            <path d="M3 3h17a1 1 0 0 1 1 1v6a1 1 0 0 1-1 1H3a1 1 0 0 1-1-1V4a1 1 0 0 1 1-1Z" id="Rectangle-20" fill="#1F1F39"/>
          </g>
        </g>
      </g>
      <g id="Time-/-Light" mask="url(#mask-5)">
        <g transform="translate(21 12)">
          <mask id="mask-7" fill="#fff">
            <use xlink:href="#path-6"/>
          </mask>
          <g id="9:41" stroke="none" stroke-width="1" fill="none" fill-rule="evenodd" mask="url(#mask-7)">
            <g transform="translate(11 3)">
              <path d="M0 0h33v15H0V0Z" id="9:41-(Background)" fill="none"/>
              <path d="M10.152 7.427c0-1.34-.256-2.468-.747-3.34C8.695 2.732 7.47 2 5.925 2 3.627 2 2 3.545 2 5.713 2 7.75 3.465 9.23 5.479 9.23c1.238 0 2.241-.579 2.74-1.582h.124c0 2.417-.916 3.86-2.461 3.86-.908 0-1.611-.498-1.853-1.297H2.146c.315 1.736 1.788 2.879 3.721 2.879 2.688 0 4.285-2.102 4.285-5.662ZM3.853 5.655c0-1.18.908-2.08 2.087-2.08 1.18 0 2.088.915 2.088 2.11 0 1.178-.886 2.043-2.095 2.043-1.216 0-2.08-.865-2.08-2.073Zm10.562 6.174c0-.666-.476-1.157-1.172-1.157-.689 0-1.172.49-1.172 1.157 0 .66.483 1.157 1.172 1.157.696 0 1.172-.498 1.172-1.157Zm0-5.486c0-.666-.476-1.157-1.172-1.157-.689 0-1.172.49-1.172 1.157 0 .66.483 1.15 1.172 1.15.696 0 1.172-.49 1.172-1.15Zm8.665 6.49v-1.97h1.428V9.265H23.08V2.264h-2.666c-1.868 2.812-3.355 5.163-4.307 6.914v1.684h5.164v1.97h1.809Zm-1.883-9.031h.103V9.31h-3.442V9.2a79.597 79.597 0 0 1 3.34-5.398Zm9.23 9.03V2.265h-1.883l-2.761 1.933v1.817l2.629-1.846h.125v8.665h1.89Z" id="9:41" fill="#1F1F39" fill-rule="evenodd"/>
            </g>
          </g>
        </g>
      </g>
    </g>
  </g>
</svg>
