<svg width="375" height="812" viewBox="0 0 375 812" xmlns="http://www.w3.org/2000/svg">
  <g id="sms" stroke="none" stroke-width="1" fill="none" fill-rule="evenodd">
    <path fill="#FFF" d="M0 0h375v812H0z"/>
    <g id="Keyboard" transform="translate(20 452)">
      <g id="Frame-12" transform="translate(10 10)">
        <g id="Frame-11">
          <path d="M0 0h80v48H0V0Z" id="Frame-11-(Background)"/>
          <text id="1" font-family="Helvetica" font-size="24" font-weight="normal" letter-spacing="4.08" fill="#1F1F39">
                        <tspan x="31.286" y="29">1</tspan>
                    </text>
        </g>
        <g id="Frame-11" transform="translate(116)">
          <path d="M0 0h80v48H0V0Z" id="Frame-11-(Background)"/>
          <text id="1" font-family="Helvetica" font-size="24" font-weight="normal" letter-spacing="4.08" fill="#1F1F39">
                        <tspan x="31.286" y="29">2</tspan>
                    </text>
        </g>
        <g id="Frame-11" transform="translate(232)">
          <path d="M0 0h80v48H0V0Z" id="Frame-11-(Background)"/>
          <text id="1" font-family="Helvetica" font-size="24" font-weight="normal" letter-spacing="4.08" fill="#1F1F39">
                        <tspan x="31.286" y="29">3</tspan>
                    </text>
        </g>
      </g>
      <g id="Frame-12" transform="translate(10 94)">
        <g id="Frame-11">
          <path d="M0 0h80v48H0V0Z" id="Frame-11-(Background)"/>
          <text id="1" font-family="Helvetica" font-size="24" font-weight="normal" letter-spacing="4.08" fill="#1F1F39">
                        <tspan x="31.286" y="29">4</tspan>
                    </text>
        </g>
        <g id="Frame-11" transform="translate(116)">
          <path d="M0 0h80v48H0V0Z" id="Frame-11-(Background)"/>
          <text id="1" font-family="Helvetica" font-size="24" font-weight="normal" letter-spacing="4.08" fill="#1F1F39">
                        <tspan x="31.286" y="29">5</tspan>
                    </text>
        </g>
        <g id="Frame-11" transform="translate(232)">
          <path d="M0 0h80v48H0V0Z" id="Frame-11-(Background)"/>
          <text id="1" font-family="Helvetica" font-size="24" font-weight="normal" letter-spacing="4.08" fill="#1F1F39">
                        <tspan x="31.286" y="29">6</tspan>
                    </text>
        </g>
      </g>
      <g id="Frame-12" transform="translate(10 178)">
        <g id="Frame-11">
          <path d="M0 0h80v48H0V0Z" id="Frame-11-(Background)"/>
          <text id="1" font-family="Helvetica" font-size="24" font-weight="normal" letter-spacing="4.08" fill="#1F1F39">
                        <tspan x="31.286" y="29">7</tspan>
                    </text>
        </g>
        <g id="Frame-11" transform="translate(116)">
          <path d="M0 0h80v48H0V0Z" id="Frame-11-(Background)"/>
          <text id="1" font-family="Helvetica" font-size="24" font-weight="normal" letter-spacing="4.08" fill="#1F1F39">
                        <tspan x="31.286" y="29">8</tspan>
                    </text>
        </g>
        <g id="Frame-11" transform="translate(232)">
          <path d="M0 0h80v48H0V0Z" id="Frame-11-(Background)"/>
          <text id="1" font-family="Helvetica" font-size="24" font-weight="normal" letter-spacing="4.08" fill="#1F1F39">
                        <tspan x="31.286" y="29">9</tspan>
                    </text>
        </g>
      </g>
      <g id="Frame-12" transform="translate(10 262)">
        <g id="Frame-11">
          <path d="M0 0h80v48H0V0Z" id="Frame-11-(Background)"/>
        </g>
        <g id="Frame-11" transform="translate(116)">
          <path d="M0 0h80v48H0V0Z" id="Frame-11-(Background)"/>
          <text id="1" font-family="Helvetica" font-size="24" font-weight="normal" letter-spacing="4.08" fill="#1F1F39">
                        <tspan x="31.286" y="29">0</tspan>
                    </text>
        </g>
        <g id="Frame-11" transform="translate(232)">
          <path d="M0 0h80v48H0V0Z" id="Frame-11-(Background)"/>
          <g id="icon/delete-one" transform="translate(28 12)" fill="#1F1F39">
            <path d="M11.207 8.793 13 10.586l1.793-1.793a1 1 0 1 1 1.414 1.414L14.414 12l1.793 1.793a1 1 0 1 1-1.414 1.414L13 13.414l-1.793 1.793a1 1 0 1 1-1.414-1.414L11.586 12l-1.793-1.793a1 1 0 1 1 1.414-1.414ZM7 4.5h15a1 1 0 0 1 1 1v13a1 1 0 0 1-1 1H7a1 1 0 0 1-.793-.39l-5-6.5a1 1 0 0 1 0-1.22l5-6.5A1 1 0 0 1 7 4.5ZM3.262 12l4.23 5.5H21v-11H7.492L3.262 12Z" id="Union"/>
          </g>
        </g>
      </g>
    </g>
    <g id="phone-number" transform="translate(47 377)" fill="#1F1F39" font-family="NanumGothic, Nanum Gothic" font-size="17" font-weight="normal">
      <text id="+82-010-2333-5423">
                <tspan x="0" y="16">+82 010 2333 5423</tspan>
            </text>
    </g>
    <text id="text" font-family="NanumGothic, Nanum Gothic" font-size="14" font-weight="normal" fill="#858597">
            <tspan x="102.66" y="330">핸드폰 번호 입력을 해주세요</tspan>
        </text>
    <g id="illustration" transform="translate(124 124)">
      <path id="Vector-5" stroke="#87C0F4" stroke-width="1.266" stroke-dasharray="3.781529426574707,3.781529426574707" d="M128 0 0 128"/>
      <g id="Mask-Group" transform="translate(18.819 30.404)" fill="#F9D2DD" fill-rule="nonzero">
        <path d="M5.368 0C-.35.03-2.228 6.237 3.352 12.095c3.72 3.904 7.912 7.387 12.578 10.447-2.786 10.674-2.133 19.614 1.958 26.818 6.138 10.807 15.42 17.822 27.047 22.47 7.751 3.1 14.487 4.915 20.207 5.446l22.272 15.02 22.745-24.664C92.711 49.094 82.032 36.728 78.123 30.535c-5.867-9.29-44.697-28.788-57.93-23.918C14.123 2.187 9.18-.019 5.369 0Z" id="Vector"/>
      </g>
      <g id="Group" transform="translate(31.466 36.193)" fill="#F9ACC0" fill-rule="nonzero">
        <path d="M14.525 24.396 5.586 0 0 14.503l14.525 9.893Zm45.8 25.719c-.764-.408-2.225-1.396-3.348-2.174-.014-17.162-4.59-30.605-6.087-34.549a141.66 141.66 0 0 0-1.77-1l-7.567 1.065 6.54 57.328a60.33 60.33 0 0 0 3.003.523c.695-.9 1.458-2.076 2.196-3.586l-.555 3.852 7.804 5.263c-1.708-4.636-2.078-9.675-1.111-15.117.777-4.379 3.343-7.397 7.695-9.056-1.917-.3-4.183-1.149-6.8-2.55Z" id="Vector"/>
      </g>
      <path d="M42.538 100.492c-2.837.014-5.168-2.295-5.184-5.131l-.359-70.567c-.014-2.837 2.295-5.168 5.132-5.184l36.767-.186c2.837-.014 5.168 2.294 5.183 5.131l.36 70.567c.013 2.837-2.297 5.17-5.132 5.183l-36.767.187Z" id="Vector" fill="#3D5CFF" fill-rule="nonzero"/>
      <path d="m70.407 21.202.01 2.264a2.024 2.024 0 0 1-2.008 2.028l-15.973.081a2.024 2.024 0 0 1-2.028-2.007l-.01-2.264-6.262.032a4.766 4.766 0 0 0-4.727 4.777l.343 67.418a4.766 4.766 0 0 0 4.777 4.728l32.533-.165a4.766 4.766 0 0 0 4.728-4.777L81.446 25.9a4.77 4.77 0 0 0-4.779-4.73l-6.26.033Z" id="Vector" fill="#FFF" fill-rule="nonzero"/>
      <g id="Group" transform="translate(42.833 32.924)" fill="#EAEAFF" fill-rule="nonzero">
        <path d="M1.32 10.079c-.709.004-1.29-.77-1.295-1.724L0 1.771C-.003.818.573.035 1.283.03L5.735 0c.709-.005 1.292.77 1.295 1.723l.025 6.585c.004.951-.573 1.734-1.283 1.74l-4.452.03Zm9.071 0c-.71.004-1.292-.77-1.295-1.724L9.07 1.771C9.067.818 9.644.035 10.353.03L14.806 0c.709-.005 1.291.77 1.295 1.723l.025 6.585c.003.951-.573 1.734-1.283 1.74l-4.452.03Zm9.071 0c-.709.004-1.291-.77-1.295-1.724l-.025-6.584C18.14.818 18.715.035 19.425.03L23.877 0c.71-.005 1.292.77 1.295 1.723l.025 6.585c.004.951-.573 1.734-1.282 1.74l-4.453.03Zm9.071 0c-.709.004-1.292-.77-1.295-1.724l-.025-6.584c-.004-.953.573-1.736 1.283-1.74L32.948 0c.709-.005 1.291.77 1.295 1.723l.025 6.585c.003.951-.573 1.734-1.283 1.74l-4.452.03Z" id="Vector"/>
      </g>
      <g id="Group" transform="translate(39.529 46.273)" fill="#EAEAFF" fill-rule="nonzero">
        <g id="Vector">
          <path d="M.21 45.019.002 4.407l.186 40.615.02-.003Z"/>
          <path d="M8.873 29.785c1.72-1.623 2.51-3.673 2.371-6.15-.138-2.478-1.628-4.684-4.47-6.62 2.438-2.124 3.243-4.868 2.416-8.23C8.22 4.84 2.88 3.849 0 3.493l.005.916L.21 45.02c2.57-.342 5.5-2.339 7.691-5.914 1.702-2.779 2.026-5.886.97-9.32Zm35.543-17.991L42.06 7.64l.106 20.852 1.424 3.08.827-19.778Zm-2.252 16.698L42.057 7.64 37.723 0c0-.002-.292 11.945 1.083 18.419.792 3.73 2.257 7.523 3.358 10.073Z"/>
        </g>
      </g>
      <path d="M84.402 76.974c-.668-2.392.302-6.782-.59-8.321-2.612-4.508-5.31-9.688-6.338-13.404-2.227-8.06-1.595-16.135 2.938-17.334 4.534-1.2 8.95 7.522 10.482 10.876 1.02 2.237 3.851 7.883 8.493 16.94l-2.491 20.398c-5.977 2.322-10.142-.73-12.494-9.155Zm-37.55-24.762c3.383 3.683 1.051 8.235-.96 9.59-1.34.903-2.482 1.399-3.425 1.488 3.696 1.025 5.748 3.103 6.156 6.233.466 3.586-.925 5.696-4.174 6.332 2.14 1.388 2.935 3.316 2.386 5.785-.822 3.703-5.354 5.071-9.392 4.925-4.037-.15-13.125-1.954-11.38-22.309 1.51-17.599 17.409-15.727 20.79-12.044Z" id="Vector" fill="#F9D2DD" fill-rule="nonzero"/>
      <path d="M38.036 59.686c4.422.65 6.851-.315 7.287-2.896.717-4.253-1.725-5.807-7.326-4.662l.039 7.558Zm.16 13.633c4.423.65 6.852-.315 7.287-2.896.717-4.254-1.724-5.808-7.325-4.663l.038 7.559Zm-.049 10.609c3.716.547 5.758-.264 6.125-2.433.603-3.574-1.45-4.88-6.158-3.919l.033 6.352Z" id="Vector" fill="#F9E1E8" fill-rule="nonzero"/>
      <path d="M98.592 88.856s-6.15-.454-11.04-5.644c-3.26-3.46-4.339-7.522-3.239-12.186" id="Vector" stroke="#1F1F39" stroke-width=".501" stroke-dasharray="0,0" fill-rule="nonzero"/>
      <g id="Group" transform="translate(26.762 53.425)" fill="#F9ACC0" fill-rule="nonzero">
        <path d="m8.306 22.313 9.547.074c.785-.21 4.062-1.322 4.076-5.247-.38 1.983-1.84 3.503-4.259 4.064-1.612.373-4.733.743-9.364 1.109Zm2.236 9.619c-2.512-.282-5.993-1.58-8.06-4.233A24.582 24.582 0 0 1 0 23.8c2.19 8.253 7.76 9.23 10.682 9.338 3.854.14 8.16-1.102 9.255-4.44-.273.543-.858 1.095-1.187 1.34-2.404 1.786-5.697 2.176-8.208 1.894Zm8.589-23.557c1.795-1.21 3.84-4.965 1.857-8.375.431.892.658 1.926.407 3.048-.81 3.614-3.242 4.868-6.562 5.532-2.212.443-4.68.758-7.402.946l8.275.338c.943-.089 2.084-.585 3.425-1.489Z" id="Vector"/>
      </g>
      <path id="Vector" stroke="#1F1F39" stroke-width=".501" stroke-linecap="round" stroke-dasharray="0,0" d="m34.114 63.244 9.474.089m-8.511 12.373 9.473.087"/>
      <path d="M89.195 25.748c0 3.666 2.016 6.943 5.184 9.14.08 1.671-.187 3.98-2.57 5.044a.532.532 0 0 0-.202.895c.106.103.25.16.398.16l.04-.002a.58.58 0 0 0 .009 0c2.736-.017 5.059-1.449 6.661-2.962a2.221 2.221 0 0 1 1.915-.589 17.56 17.56 0 0 0 3.179.287c8.072 0 14.614-5.36 14.614-11.973s-6.542-11.974-14.614-11.974c-8.072 0-14.614 5.361-14.614 11.974Z" id="Vector" fill="#3D5CFF" fill-rule="nonzero"/>
    </g>
    <g id="navigation-bar/light" transform="translate(0 44)">
      <path d="M0 0h375v44H0V0Z" id="navigation-bar/light-(Background)"/>
      <path d="M0 0h375v44H0V0Z" id="bg"/>
      <text id="핸드폰-인증" font-family="AppleSDGothicNeo-Regular, Apple SD Gothic Neo" font-size="18" font-weight="normal" fill="#1F1F39">
                <tspan x="146.847" y="27">핸드폰</tspan>
                <tspan x="193.557" y="27" font-family="Roboto-Regular, Roboto"> </tspan>
                <tspan x="198.013" y="27">인증</tspan>
            </text>
    </g>
    <g id="continueBtn" transform="translate(233 362)">
      <rect id="bg" fill="#3D5CFF" x="0" y="0" width="110" height="45" rx="3"/>
      <text id="계속" font-family="NanumGothicBold, Nanum Gothic" font-size="16" font-weight="bold" fill="#FFF">
                <tspan x="40.46" y="28">계속</tspan>
            </text>
    </g>
    <g id="prevBtn" transform="translate(13 51)">
      <path id="Rectangle" fill="#FFF" d="M0 0h30v30H0z"/>
      <path d="M18.6 7.8 11.4 15l7.2 7.2" id="Vector-3" stroke="#1F1F39" stroke-width="2" stroke-linecap="round" stroke-linejoin="round" stroke-dasharray="0,0"/>
    </g>
  </g>
</svg>
