<svg width="375" height="812" viewBox="0 0 375 812" xmlns="http://www.w3.org/2000/svg">
  <g id="sms3" stroke="none" stroke-width="1" fill="none" fill-rule="evenodd">
    <path fill="#797988" d="M0 0h375v812H0z"/>
    <path d="M54 255.5h267c6.627 0 12 5.373 12 12v277c0 6.627-5.373 12-12 12H54c-6.627 0-12-5.373-12-12v-277c0-6.627 5.373-12 12-12Z" id="Frame-(Background)" fill="#FFF"/>
    <g id="Icon" transform="translate(155.5 303.5)">
      <path d="M32 0c17.673 0 32 14.327 32 32 0 17.673-14.327 32-32 32C14.327 64 0 49.673 0 32 0 14.327 14.327 0 32 0Z" id="Rectangle-84" fill="#3D5CFF"/>
      <path d="m17.951 32.274 9.237 9.237 18.86-18.86" id="Vector-7" stroke="#FFF" stroke-width="4.401" stroke-linecap="round" stroke-linejoin="round" stroke-dasharray="0,0"/>
    </g>
    <g id="Title" transform="translate(173.5 383.5)" fill="#1F1F39" font-family="AppleSDGothicNeo-Regular, Apple SD Gothic Neo" font-size="16" font-weight="normal">
      <text id="성공">
                <tspan x=".16" y="14">성공</tspan>
            </text>
    </g>
    <text id="text" font-family="NanumGothic, Nanum Gothic" font-size="12" font-weight="normal" letter-spacing=".6" fill="#858597">
            <tspan x="110.142" y="429.5">축하합니다. 지금부터 대화를 </tspan>
            <tspan x="133.902" y="443.5">시작할 수 있습니다.</tspan>
        </text>
    <g id="doneBtn" transform="translate(58 470.5)">
      <path d="M12 0h235c6.627 0 12 5.373 12 12v26c0 6.627-5.373 12-12 12H12C5.373 50 0 44.627 0 38V12C0 5.373 5.373 0 12 0Z" id="button/primary-(Background)" fill="#3D5CFF"/>
      <text id="확인" font-family="AppleSDGothicNeo-Bold, Apple SD Gothic Neo" font-size="16" font-weight="bold" fill="#FFF">
                <tspan x="115.66" y="31">확인</tspan>
            </text>
    </g>
  </g>
</svg>
