<svg width="375" height="812" viewBox="0 0 375 812" xmlns="http://www.w3.org/2000/svg" xmlns:xlink="http://www.w3.org/1999/xlink">
  <defs>
    <path id="path-1" d="M0 0h175v224H0z"/>
  </defs>
  <g id="splash" stroke="none" stroke-width="1" fill="none" fill-rule="evenodd">
    <path fill="#FFE7EE" d="M0 0h375v812H0z"/>
    <g id="Illustration" transform="translate(32 325)">
      <mask id="mask-2" fill="#fff">
        <use xlink:href="#path-1"/>
      </mask>
      <g id="Group" mask="url(#mask-2)">
        <g transform="translate(0 .231)">
          <path d="M98.937 32.466c-1.922 1.684-1.441 5.4 1.076 8.294 2.514 2.897 6.113 3.878 8.034 2.194l24.757-13.839-16.869-19.423-16.998 22.774Z" id="Vector" stroke="none" fill="#F4F3FD" fill-rule="nonzero"/>
          <path d="M124.768 31.933c-4.544 0-8.228-5.759-8.228-12.863 0-7.104 3.684-12.863 8.228-12.863 4.545 0 8.229 5.76 8.229 12.863 0 7.104-3.684 12.863-8.229 12.863Z" id="Vector" stroke="none" fill="#DADAF7" fill-rule="evenodd" transform="rotate(-41.244 124.768 19.07)"/>
          <path d="M103.158 26.811c.539 2.527 1.897 5.248 4.009 7.677 2.111 2.43 4.607 4.15 7.027 5.03l2.358-1.319c-2.606-.796-5.353-2.6-7.645-5.238-2.293-2.635-3.698-5.613-4.13-8.318l-1.62 2.168Z" id="Vector" stroke="none" fill="#DADAF7" fill-rule="nonzero"/>
          <path d="M118.572 24.49a20.124 20.124 0 0 0 1.998 1.997l6.549-4.699-4.723-5.44-5.521 5.882c.497.77 1.061 1.53 1.697 2.26Z" id="Vector" stroke="none" fill="#EAE9FF" fill-rule="nonzero"/>
          <path d="M79.902 65.709c6.14.771 9.057 4.704 8.75 11.8 6.293 1.08 10.899 3.239 13.815 6.478 2.917 3.24 2.917 7.867 0 13.882 4.76-.771 8.367.077 10.823 2.545 3.684 3.702 1.381 9.486-7.599 11.569-5.987 1.388-32.62 5.63-79.901 12.725-3.224.463-4.682-.926-4.375-4.165.307-3.239 3.147-6.247 8.52-9.023-3.838-2.005-5.373-5.013-4.606-9.023 1.152-6.016 8.98-11.8 12.204-14.114 2.15-1.542 4.682-3.085 7.599-4.627-.289-7.956 2.014-13.046 6.908-15.27 6.447-2.931 11.283-2.083 14.506 2.544 2.763-4.319 7.215-6.092 13.356-5.321Z" id="Vector" stroke="none" fill="#F99A3D" fill-rule="nonzero"/>
          <path d="M105.46 73.344c2.15-10.334 3.147-17.43 2.994-21.286-.622-2.499-.929-4.967-.921-7.404.004-1.251 0-3.239 1.842-5.09 3.357-3.373 9.21-6.71 15.658-1.62 4.298 3.394 5.296 9.795 2.993 19.204.307 16.35-.537 30.464-2.533 42.34-1.995 11.878-4.221 18.819-6.677 20.824l-23.257-16.659c4.452-9.871 7.752-19.974 9.901-30.309Z" id="Vector" stroke="none" fill="#DA5742" fill-rule="nonzero"/>
          <path d="M124.96 22.518c-1.277 0-2.314-1.62-2.314-3.619 0-1.998 1.037-3.618 2.315-3.618s2.314 1.62 2.314 3.618c0 1.999-1.036 3.619-2.314 3.619Z" id="Vector" stroke="none" fill="#F4F3FD" fill-rule="evenodd" transform="rotate(-41.244 124.96 18.9)"/>
          <path d="M7.368 192.268c-3.684 12.956 1.382 21.332 4.03 23.738 1.765 1.604 10.554-15.255 26.365-50.577l-22.335 2.082c-2.917 7.867-5.604 16.119-8.06 24.757ZM97.76 98.357l-2.2 5.296 22.593 16.185.792.349c.605-.643 3.237-4.017 5.692-16.069l-26.877-5.76Z" id="Vector" stroke="none" fill="#C43D28" fill-rule="nonzero"/>
          <path d="M30.855 140.21c8.29-7.404 18.422-11.569 32.468-12.957 14.046-1.388 20.032-9.255 23.026-12.494 1.996-2.16 5.142-7.25 9.44-15.27l27.632 11.337c-1.074 7.25-2.993 14.422-5.756 21.517-2.763 7.095-6.294 13.188-10.592 18.278 2.61 11.106 4.835 23.214 6.677 36.325 1.842 13.111 2.897 22.674 3.164 28.69h-81.14l2.68-34.705L8.98 169.594c9.057-14.654 16.35-24.448 21.875-29.384Z" id="Vector" stroke="none" fill="#3D5CFF" fill-rule="nonzero"/>
          <path d="M112.159 143.347 98.322 133.5l8.822 17.033c.412-.5 2.542-3.137 5.015-7.186Zm-55.514 5.886-16.119-11.568L17 172.678l21.454 8.253-2.68 34.705h14.424l6.447-66.403Z" id="Vector" stroke="none" fill="#224BF4" fill-rule="nonzero"/>
          <g id="Group" stroke="#EAEAFF" stroke-width="1.158" fill="none" fill-rule="evenodd" transform="translate(9.67 102.265)" stroke-dasharray="0,0">
            <path id="Vector" d="m0 61.776 33.618 11.105M80.362 0l36.381 16.427"/>
            <path d="M20.723 35.4s-2.072 19.897 19.573 22.674c21.645 2.776 32.006-7.636 26.71-12.032-9.344-7.755-26.48 11.569-18.19 20.36 8.289 8.793 34.868 1.454 38.454 12.263 2.532 7.636-8.75 11.569-20.954 6.016-15.417-7.015-2.764-22.443 17.27-15.964 20.032 6.478 18.65 22.211 8.98 26.838-16.552 7.92-40.181-7.78-48.125 9.024-4.375 9.255 8.906 19.192 19.111 11.568 8.98-6.71 12.435-11.568 35.921-12.725 23.487-1.157 23.948-32.392 11.514-40.952-12.435-8.561-29.244-10.412-31.546-24.525-2.303-14.114 11.513-16.89 13.585-7.867 2.072 9.023-19.803 20.36-21.184 5.321-1.635-17.803 14.046-19.666 26.71-17.584 12.665 2.083 22.336-2.545 15.198-10.874" id="Vector" opacity=".55" fill-rule="nonzero"/>
          </g>
          <path d="M51.579 95.787c-3.224 1.62-3.454 6.478-2.072 9.023 1.381 2.545 3.454 3.47 5.987 3.933 1.688.309 3.07.386 4.144.232.154 4.164.154 8.33 0 12.494-.153 4.164-.537 6.632-1.151 7.404 3.377 1.85 7.445 2.545 12.204 2.082 4.759-.463 7.522-1.311 8.29-2.545-.461-3.085-.768-5.784-.922-8.098-.153-2.314-.307-4.088-.46-5.322 5.373-1.542 8.212-5.09 8.52-10.643.307-5.552.307-9.023 0-10.411-1.996-.617-3.608-2.854-4.836-6.71-1.842-5.784-3.224-6.478-5.526-6.478-1.535 0-2.456.925-2.763 2.776-1.235-2.33-3.307-2.947-6.218-1.85-3.684 1.387-2.302 6.94-3.914 10.41-1.075 2.315-2.61 3.703-4.605 4.166-2.303-1.389-4.529-1.543-6.678-.463Z" id="Vector" stroke="none" fill="#DA5742" fill-rule="nonzero"/>
          <path d="M62.171 117.304c-.801-.483-1.658-.63-2.434-.615-.01 1.52-.039 3.149-.099 4.78-.153 4.164-.537 6.632-1.151 7.404 1.437.786 3.315 1.39 5.634 1.809.178-.752.413-1.909.666-3.6.543-3.644-.313-8.39-2.616-9.778Z" id="Vector" stroke="none" fill="#C43D28" fill-rule="nonzero"/>
          <path d="M65.625 92.085s-.46-1.62.921-2.082c.921-.309 1.535-.078 1.842.694m8.29-2.314s0-1.157 1.381-1.388c.921-.154 1.535.154 1.842.925" id="Vector" stroke="none" fill="#FFF" fill-rule="nonzero"/>
          <g id="Group" stroke="none" stroke-width="1" fill="none" fill-rule="evenodd" transform="translate(72.533 90.928)">
            <path d="M1.757 1.166c.272.23.518.49.755.761.228.28.43.59.59.933l.094.27c.018.042.025.098.037.146a1.181 1.181 0 0 1-.092.777c-.198.378-.523.616-.845.78-.659.327-1.363.463-2.063.484.665-.21 1.324-.447 1.885-.798.272-.18.523-.396.631-.653a.757.757 0 0 0 .063-.395.543.543 0 0 0-.017-.105c-.009-.034-.011-.067-.03-.106l-.082-.222c-.258-.59-.703-1.12-1.168-1.615C1.038.933.527.465 0 0c.633.305 1.22.703 1.757 1.166Z" id="Vector" fill="#1F1F39" fill-rule="nonzero"/>
          </g>
          <path d="M68.046 97.174c-.7 0-1.266-.725-1.266-1.619s.567-1.62 1.266-1.62c.7 0 1.267.726 1.267 1.62 0 .894-.567 1.62-1.267 1.62Z" id="Vector" stroke="none" fill="#1F1F39" fill-rule="evenodd" transform="rotate(-7.203 68.046 95.555)"/>
          <path d="M79.79 95.786c-.7 0-1.267-.725-1.267-1.62 0-.894.567-1.62 1.267-1.62s1.266.726 1.266 1.62c0 .895-.567 1.62-1.266 1.62Z" id="Vector" stroke="none" fill="#1F1F39" fill-rule="evenodd" transform="rotate(-7.203 79.79 94.166)"/>
          <path d="M74.835 100.183c1.382-.309 2.38-.617 2.994-.926.92 2.468.92 4.705 0 6.71-1.382 3.008-5.066 2.314-5.987.231-.614-1.388-.921-3.316-.921-5.784 1.228.154 2.533.077 3.914-.231Z" id="Vector" stroke="none" fill="#FFF" fill-rule="nonzero"/>
          <path d="m59.638 108.975.012.321c.375-1.295.65-3.146.449-5.643-.212-2.67-.965-5.337-1.713-7.438a5.466 5.466 0 0 1-.13.035c-2.302-1.389-4.528-1.543-6.677-.463-3.224 1.62-3.454 6.478-2.072 9.023 1.381 2.545 3.454 3.47 5.987 3.934 1.688.308 3.07.385 4.144.23Z" id="Vector" stroke="none" fill="#C43D28" fill-rule="nonzero"/>
          <path d="M52.5 99.951s2.303.926 4.836 3.008c1.688 1.388 2.61 2.545 2.763 3.47" id="Vector" stroke="#1F1F39" stroke-width=".579" fill="none" stroke-linecap="round" stroke-dasharray="0,0" fill-rule="nonzero"/>
          <path d="M125.033 37.945c-3.442-2.717-6.714-3.034-9.528-2.224 1.78 5.079 5.954 16.654 7.916 19.345 1.37 1.876 3.21 2.466 4.613 2.614-.002-.23-.004-.407-.007-.532 2.302-9.409 1.304-15.81-2.994-19.203Zm-53.191 80.053c2.784 1.914 5.006 2.61 6.256 2.862l-.039-.548c-.198-2.969-.394-4.748-.447-5.201-.324.03-.681.065-1.075.11-1.32.155-4.037-.076-8.149-.693-.614.308.537 1.465 3.454 3.47Z" id="Vector" stroke="none" fill="#C43D28" fill-rule="nonzero"/>
          <path d="M128.533 54.446a2.764 2.764 0 0 1-3.774-1.016l-8.29-14.426a2.792 2.792 0 0 1 1.011-3.792l.599-.347a2.764 2.764 0 0 1 3.774 1.016l8.29 14.426a2.793 2.793 0 0 1-1.011 3.792l-.599.347Z" id="Vector" stroke="none" fill="#DADAF7" fill-rule="nonzero"/>
          <path d="M68.158 114.296s2.302.926 5.296.926c1.995 0 3.377-.077 4.145-.232" id="Vector" stroke="#1F1F39" stroke-width=".579" fill="none" stroke-linecap="round" stroke-dasharray="0,0" fill-rule="nonzero"/>
          <path d="M120.428 37.945c-.46 2.159.23 3.624 2.072 4.396-.28.984-.127 2.14.46 3.47.615 1.388 1.536 1.928 2.764 1.62-.46 1.85.46 3.085 2.763 3.702 3.454.925 6.217-2.083 5.757-4.628-.454-2.503-1.843-6.71-3.454-9.486-1.612-2.776-4.375-3.47-7.139-2.198-1.358.625-2.917 1.694-3.223 3.124Z" id="Vector" stroke="none" fill="#DA5742" fill-rule="nonzero"/>
          <path id="Vector" stroke="#1F1F39" stroke-width=".579" fill="#1F1F39" fill-rule="evenodd" stroke-linecap="round" stroke-dasharray="0,0" d="m122.634 42.387 5.162-2.36m-2.072 7.404 5.296-2.083m-3.915-41.183L128.948 0m7.439 12.411 4.002-2.147m-1.966 14.432 4.536.121"/>
          <path d="m98.322 133.5 1.656 3.24 7.094 13.881" id="Vector" stroke="#1F1F39" stroke-width=".579" fill="none" stroke-linecap="round" stroke-dasharray="0,0" fill-rule="nonzero"/>
          <path d="M108.136 41.001s4.124-4.852 6.828-5.227c2.7-.374 4.082.551 3.852 3.559-.154 2.005-1.689 4.01-4.605 6.015" id="Vector" stroke="#1F1F39" stroke-width=".579" fill="#DA5742" fill-rule="nonzero" stroke-linecap="round" stroke-dasharray="0,0"/>
          <path d="M78.39 103.866c-.646-.238-1.563-.365-2.864-.213a9.238 9.238 0 0 0-4.046 1.497c.102.375.22.731.362 1.048.921 2.083 4.605 2.777 5.987-.231.313-.683.483-1.4.562-2.1Z" id="Vector" stroke="none" fill="#F9D2DD" fill-rule="nonzero"/>
          <g id="Group" stroke="none" stroke-width="1" fill="none" fill-rule="evenodd" transform="translate(60.137 95.18)">
            <g fill="#C43D28" id="Vector">
              <path d="M24.599 6.517c-2.736 0-4.953-1.372-4.953-3.063 0-1.692 2.217-3.064 4.953-3.064 2.735 0 4.953 1.372 4.953 3.064 0 1.691-2.218 3.063-4.953 3.063Z" transform="rotate(-4.633 24.599 3.454)"/>
              <path d="M5.182 9.002C2.447 9.002.23 7.63.23 5.939c0-1.692 2.218-3.064 4.953-3.064 2.736 0 4.953 1.372 4.953 3.064 0 1.691-2.217 3.063-4.953 3.063Z" transform="rotate(-4.633 5.182 5.939)"/>
            </g>
          </g>
          <path id="Vector" stroke="#1F1F39" stroke-width=".579" fill="#1F1F39" fill-rule="evenodd" stroke-dasharray="0,0" d="M0 215.636h139.77"/>
          <path d="M25.099 167.974c5.065-8.56 11.764-29.046 14.055-33.033 1.529-2.657 3.546-3.849 6.051-3.574-.51-6.599-.764-11.055-.764-13.369 0-3.47 2.302-5.784 4.375-4.164 1.381 1.08 2.61 5.63 3.684 13.65 3.191-6.805 5.601-10.126 7.23-9.962 2.441.245 3.132 2.327 1.98 6.723-.767 2.93-1.842 6.016-3.223 9.255 2.61-1.542 4.528-1.62 5.756-.231 1.842 2.082-1.381 7.172-3.914 10.643-1.689 2.313-2.84 4.087-3.454 5.321-5.68 29.461-10.055 48.202-13.125 56.223-4.605 12.03-13.816 16.658-21.415 15.964-7.598-.694-17.039-6.478-13.355-21.517 7.369-15.579 12.741-26.222 16.119-31.929Z" id="Vector" stroke="none" fill="#DA5742" fill-rule="nonzero"/>
          <path d="M40.987 140.21s.23 3.702 2.302 4.627c2.073.926 3.454-.925 3.915-2.776.307-1.234.307-3.162 0-5.785m0 6.942s.69 2.545 2.763 1.85c2.073-.694 2.533-2.776 2.763-5.09.154-1.542.077-3.162-.23-4.858m2.072 1.62s1.612-1.389 2.533-2.083c.614-.463 1.075-.849 1.382-1.157m-17.958 0s.458-1.62 4.603-2.082c2.763-.309 5.142-.155 7.138.462" id="Vector" stroke="#1F1F39" stroke-width=".579" fill="none" stroke-linecap="round" stroke-dasharray="0,0" fill-rule="nonzero"/>
        </g>
      </g>
    </g>
    <text id="Global-Korean" font-family="NanumGothic, Nanum Gothic" font-size="18" font-weight="normal" fill="#858597">
            <tspan x="32" y="654">Global Korean</tspan>
        </text>
    <text id="Title" font-family="AppleSDGothicNeo-Regular, Apple SD Gothic Neo" font-size="45" font-weight="normal" fill="#1F1F39">
            <tspan x="32" y="624">글코</tspan>
        </text>
  </g>
</svg>
